<?xml version="1.0" encoding="UTF-8" standalone="no"?>
<!DOCTYPE svg PUBLIC "-//W3C//DTD SVG 1.1//EN" "http://www.w3.org/Graphics/SVG/1.1/DTD/svg11.dtd">
<svg width="1000px" height="381px" viewBox="0 0 1000 381" version="1.1" xmlns="http://www.w3.org/2000/svg" xmlns:xlink="http://www.w3.org/1999/xlink" xml:space="preserve" style="fill-rule:evenodd;clip-rule:evenodd;stroke-linecap:round;stroke-linejoin:round;stroke-miterlimit:1.5;">
    <g transform="matrix(1,0,0,1,-7383.65,-5899.5)">
        <g id="_2.-3_major" transform="matrix(0.78125,0,0,0.475163,7383.65,5899.5)">
            <rect x="0" y="0" width="1280" height="800" style="fill:none;"/>
            <g id="譜面" transform="matrix(3.72806,0,0,11.0141,-521.858,-1205.92)">
                <g id="外枠" transform="matrix(0.318519,0,0,0.317373,-806.729,-51.2156)">
                    <rect x="3025.26" y="542.772" width="970.139" height="125.718" style="fill:white;fill-opacity:0.776471;stroke:black;stroke-width:1.12px;"/>
                </g>
                <path id="E線" d="M156.873,161.045L465.881,161.045" style="fill:none;stroke:black;stroke-width:0.24px;"/>
                <g id="G線" transform="matrix(1,0,0,1,0,-10)">
                    <path d="M156.873,161.045L465.881,161.045" style="fill:none;stroke:black;stroke-width:0.24px;"/>
                </g>
                <g id="B線" transform="matrix(1,0,0,1,0,-20)">
                    <path d="M156.873,161.045L465.881,161.045" style="fill:none;stroke:black;stroke-width:0.24px;"/>
                </g>
                <g id="D線" transform="matrix(1,0,0,1,0,-30)">
                    <path d="M156.873,161.045L465.881,161.045" style="fill:none;stroke:black;stroke-width:0.24px;"/>
                </g>
            </g>
            <g id="Triad" transform="matrix(3.39456,0,0,4.18594,120.423,-638.35)">
                <g id="path7229" transform="matrix(0.866035,0,0,1.15471,132.815,113.675)">
                    <path d="M36.425,104.881C25.756,104.881 17.113,110.075 17.113,116.444C17.113,122.812 25.756,127.975 36.425,127.975C47.094,127.975 55.769,122.812 55.769,116.444C55.769,110.075 47.094,104.881 36.425,104.881ZM31.706,106.975C34.481,106.939 37.899,108.024 41.113,110.194C46.826,114.05 49.693,119.858 47.519,123.131C45.345,126.404 38.951,125.925 33.238,122.069C27.524,118.212 24.658,112.404 26.831,109.131C27.783,107.699 29.549,107.003 31.706,106.975Z" style="fill:rgb(241,171,49);fill-rule:nonzero;"/>
                </g>
                <g id="path72291" transform="matrix(0.866035,0,0,1.15471,132.815,139.839)">
                    <path d="M36.425,104.881C25.756,104.881 17.113,110.075 17.113,116.444C17.113,122.812 25.756,127.975 36.425,127.975C47.094,127.975 55.769,122.812 55.769,116.444C55.769,110.075 47.094,104.881 36.425,104.881ZM31.706,106.975C34.481,106.939 37.899,108.024 41.113,110.194C46.826,114.05 49.693,119.858 47.519,123.131C45.345,126.404 38.951,125.925 33.238,122.069C27.524,118.212 24.658,112.404 26.831,109.131C27.783,107.699 29.549,107.003 31.706,106.975Z" style="fill:rgb(41,153,193);fill-rule:nonzero;"/>
                </g>
                <g id="path72292" transform="matrix(0.866035,0,0,1.15471,132.838,165.675)">
                    <path d="M36.425,104.881C25.756,104.881 17.113,110.075 17.113,116.444C17.113,122.812 25.756,127.975 36.425,127.975C47.094,127.975 55.769,122.812 55.769,116.444C55.769,110.075 47.094,104.881 36.425,104.881ZM31.706,106.975C34.481,106.939 37.899,108.024 41.113,110.194C46.826,114.05 49.693,119.858 47.519,123.131C45.345,126.404 38.951,125.925 33.238,122.069C27.524,118.212 24.658,112.404 26.831,109.131C27.783,107.699 29.549,107.003 31.706,106.975Z" style="fill:rgb(241,80,49);fill-rule:nonzero;"/>
                </g>
            </g>
            <g transform="matrix(3.39456,0,0,5.58125,508.66,-935.356)">
                <text x="71.702px" y="287.269px" style="font-family:'HiraKakuProN-W6', 'Hiragino Kaku Gothic ProN', sans-serif;font-weight:600;font-size:13.575px;fill:rgb(241,80,49);">根音(root)</text>
            </g>
            <g transform="matrix(3.39456,0,0,5.58125,183.406,-1066.67)">
                <text x="87.761px" y="287.269px" style="font-family:'HiraKakuProN-W6', 'Hiragino Kaku Gothic ProN', sans-serif;font-weight:600;font-size:13.575px;fill:rgb(41,153,193);">第3音</text>
            </g>
            <g transform="matrix(3.39456,0,0,5.58125,476.874,-1173.52)">
                <text x="87.761px" y="287.269px" style="font-family:'HiraKakuProN-W6', 'Hiragino Kaku Gothic ProN', sans-serif;font-weight:600;font-size:13.575px;fill:rgb(241,171,49);">第5音</text>
            </g>
            <g id="G" transform="matrix(0.806253,0,0,1.32562,54.0851,-163.279)">
                <path d="M145.701,446.341C138.677,447.781 132.168,451.635 125.956,457.774C119.735,464.026 116.405,471.157 115.861,479.046C115.519,484.005 116.825,489.756 119.689,495.956C122.545,502.267 127.213,507.006 133.458,510.268C135.573,510.867 136.512,512.064 136.403,513.641C136.364,514.205 135.535,514.714 133.583,515.032C123.481,511.731 115.389,505.624 109.404,496.945C103.427,488.153 100.691,478.452 101.212,467.617C102.352,456.032 106.601,445.455 113.95,435.997C121.421,426.435 130.61,419.935 141.517,416.497L136.482,375.951C118.089,389.176 102.933,403.191 90.886,418.213C78.846,433.122 72.024,449.75 70.304,468.089C69.962,476.332 71.105,484.45 73.739,492.332C76.366,500.327 80.629,507.642 86.512,514.502C98.4,528.118 114.548,535.913 134.724,537.985C141.646,538.009 149.075,537.276 157.123,535.793L145.701,446.341L145.701,446.341ZM153.913,445.775L165.557,533.658C183.437,527.871 193.186,513.256 194.788,490.04C194.308,482.194 192.53,475.05 189.117,468.587C185.824,462.019 181.195,456.717 175.118,452.674C169.04,448.631 162.047,446.337 153.913,445.775L153.913,445.775ZM138.84,326.969C142.724,324.972 147.289,321.324 152.302,316.121C157.307,311.031 162.27,304.919 167.06,298.003C171.972,290.981 175.987,283.785 179.107,276.413C182.218,269.154 183.951,262.14 184.402,255.603C184.596,252.786 184.565,249.953 184.171,247.434C183.999,243.346 182.974,240.104 180.975,237.815C178.969,235.638 176.335,234.324 172.946,234.09C166.168,233.623 159.779,237.372 153.781,245.337C149.103,252.262 145.01,260.585 141.856,270.106C138.581,279.732 136.444,289.322 135.541,299.112C135.336,310.308 136.514,319.561 138.84,326.969L138.84,326.969ZM131.272,333.015C127.448,314.407 125.907,295.616 126.648,276.644C127.601,264.48 129.629,253.183 132.733,242.753C135.723,232.315 139.629,223.412 144.467,215.819C149.191,208.219 154.461,202.581 160.164,198.898C165.27,195.626 168.905,193.952 170.825,194.085C172.294,194.186 173.498,194.835 174.558,195.928C175.617,197.02 176.969,198.812 178.621,201.19C190.751,221.164 195.943,244.623 194.093,271.445C193.214,284.181 190.664,296.461 186.419,308.624C182.295,320.682 176.629,332.068 169.435,342.555C162.12,353.148 153.777,362.197 144.284,369.809L150.372,414.844C155.381,414.623 158.802,414.407 160.722,414.539C169.308,415.131 176.866,417.465 183.735,421.562C190.603,425.66 196.369,430.927 200.912,437.468C205.463,443.897 208.822,451.149 210.989,459.226C213.044,467.294 213.945,475.622 213.354,484.188C212.436,497.486 208.094,509.416 200.335,519.865C192.577,530.313 181.518,537.59 167.038,541.8C167.561,547.385 168.591,555.495 170.255,565.915C171.8,576.439 172.926,584.783 173.636,590.947C174.346,597.111 174.394,603.002 173.997,608.75C173.383,617.653 170.692,625.394 165.917,632.085C161.029,638.769 154.781,643.773 147.06,647.09C139.452,650.416 131.186,651.77 122.374,651.162C109.947,650.305 99.342,646.063 90.553,638.549C81.771,630.922 77.446,621.225 77.818,609.248C78.523,603.974 80.107,599.101 82.694,594.524C85.28,589.946 88.594,586.325 92.751,583.667C96.802,580.889 101.543,579.631 106.876,579.66C111.282,579.964 115.376,581.492 119.167,584.131C122.837,586.876 125.775,590.362 127.859,594.696C129.831,599.022 130.755,603.728 130.413,608.687C129.954,615.336 127.306,620.815 122.468,625.124C117.63,629.433 111.705,631.402 104.814,630.927L102.216,630.747C106.155,637.814 113.144,641.806 123.199,642.5C128.283,642.851 133.557,642.082 138.894,640.412C144.352,638.637 148.952,636.124 152.929,632.775C156.906,629.425 159.656,625.765 160.953,621.778C163.192,617.29 164.539,610.928 165.091,602.927C165.464,597.517 165.273,592.068 164.629,586.589C163.978,581.222 162.886,574.012 161.346,565.074C159.798,556.248 158.683,549.376 158.098,544.693C151.203,545.916 144.137,546.335 136.793,545.828C124.479,544.978 113.014,541.696 102.405,535.868C91.797,530.041 82.676,522.391 74.938,512.798C67.313,503.213 61.574,492.625 57.735,480.81C54.001,469.116 52.453,457.006 53.195,444.601C54.44,433.137 57.349,422.24 62.132,412.153C66.922,401.952 72.803,392.393 79.88,383.596C86.957,374.799 94.206,366.806 101.618,359.731C109.136,352.776 118.948,343.828 131.272,333.015L131.272,333.015Z" style="fill:rgb(19,21,22);stroke:rgb(19,21,22);stroke-width:0.34px;stroke-linecap:butt;stroke-linejoin:miter;stroke-miterlimit:4;"/>
            </g>
        </g>
    </g>
</svg>
