<?xml version="1.0" encoding="UTF-8" standalone="no"?><!DOCTYPE svg PUBLIC "-//W3C//DTD SVG 1.1//EN" "http://www.w3.org/Graphics/SVG/1.1/DTD/svg11.dtd"><svg width="912px" height="322px" viewBox="0 0 912 322" version="1.1" xmlns="http://www.w3.org/2000/svg" xmlns:xlink="http://www.w3.org/1999/xlink" xml:space="preserve" xmlns:serif="http://www.serif.com/" style="fill-rule:evenodd;clip-rule:evenodd;stroke-linecap:round;stroke-linejoin:round;stroke-miterlimit:1.5;"><rect id="_2-4_key_amajor" serif:id="2-4_key_amajor" x="0.04" y="0.853" width="911.706" height="320.519" style="fill:none;"/><g id="譜面"><rect id="外枠" x="40.352" y="111.885" width="841.395" height="115.483" style="fill:#fff;fill-opacity:0.78;stroke:#000;stroke-width:1.5px;"/><path id="E線" d="M40.352,227.658l841.395,0" style="fill:none;stroke:#000;stroke-width:1px;"/><path id="G線" d="M40.352,198.715l841.395,0" style="fill:none;stroke:#000;stroke-width:1px;"/><path id="B線" d="M40.352,169.772l841.395,0" style="fill:none;stroke:#000;stroke-width:1px;"/><path id="D線" d="M40.352,140.828l841.395,0" style="fill:none;stroke:#000;stroke-width:1px;"/></g><g id="Triad"><path d="M265.23,283.903l-64.848,0.542" style="fill:#0e1517;stroke:#000;stroke-width:1px;"/><path d="M265.23,255.336l-64.848,0.542" style="fill:#f15031;stroke:#0e1517;stroke-width:1px;"/><path d="M495.23,255.336l-64.848,0.542" style="fill:#f15031;stroke:#0e1517;stroke-width:1px;"/><path id="path7229" d="M232.82,211.864c-13.564,0 -24.553,6.603 -24.553,14.7c0,8.096 10.989,14.66 24.553,14.66c13.564,0 24.593,-6.564 24.593,-14.66c0,-8.097 -11.029,-14.7 -24.593,-14.7Zm-5.999,2.662c3.527,-0.046 7.873,1.334 11.959,4.092c7.264,4.903 10.908,12.287 8.144,16.448c-2.763,4.161 -10.892,3.552 -18.156,-1.351c-7.264,-4.903 -10.909,-12.287 -8.145,-16.448c1.209,-1.821 3.455,-2.706 6.198,-2.741Z" style="fill:#0e1517;fill-rule:nonzero;"/><path id="path72291" serif:id="path7229" d="M232.82,241.224c-13.564,0 -24.553,6.604 -24.553,14.7c0,8.096 10.989,14.66 24.553,14.66c13.564,0 24.593,-6.564 24.593,-14.66c0,-8.096 -11.029,-14.7 -24.593,-14.7Zm-5.999,2.662c3.527,-0.046 7.873,1.334 11.959,4.092c7.264,4.903 10.908,12.287 8.144,16.448c-2.763,4.161 -10.892,3.552 -18.156,-1.351c-7.264,-4.903 -10.909,-12.287 -8.145,-16.448c1.209,-1.82 3.455,-2.706 6.198,-2.741Z" style="fill:#0e1517;fill-rule:nonzero;"/><path id="path72292" serif:id="path7229" d="M232.82,269.116c-13.564,0 -24.553,6.604 -24.553,14.7c0,8.097 10.989,14.66 24.553,14.66c13.564,0 24.593,-6.563 24.593,-14.66c0,-8.096 -11.029,-14.7 -24.593,-14.7Zm-5.999,2.662c3.527,-0.046 7.873,1.334 11.959,4.092c7.264,4.903 10.908,12.287 8.144,16.448c-2.763,4.161 -10.892,3.553 -18.156,-1.35c-7.264,-4.904 -10.909,-12.288 -8.145,-16.449c1.209,-1.82 3.455,-2.705 6.198,-2.741Z" style="fill:#0e1517;fill-rule:nonzero;"/></g><path id="sharp" d="M130.428,119.412l0,-16.842l6.979,-1.977l0,16.757l-6.979,2.062Zm13.742,-4.075l-4.798,1.411l0,-16.756l4.798,-1.375l0,-6.96l-4.798,1.375l0,-17.121l-1.965,0l0,17.64l-6.979,2.059l0,-16.648l-1.853,0l0,17.281l-4.799,1.379l0,6.974l4.799,-1.375l0,16.724l-4.799,1.372l0,6.945l4.799,-1.374l0,17.023l1.853,0l0,-17.632l6.979,-1.969l0,16.562l1.965,0l0,-17.185l4.798,-1.379l0,-6.971Z" style="fill-rule:nonzero;"/><path id="sharp1" serif:id="sharp" d="M152.732,164.524l0,-16.842l6.98,-1.976l0,16.756l-6.98,2.062Zm13.743,-4.075l-4.798,1.411l0,-16.756l4.798,-1.375l0,-6.96l-4.798,1.375l0,-17.121l-1.965,0l0,17.64l-6.98,2.059l0,-16.648l-1.853,0l0,17.281l-4.798,1.379l0,6.974l4.798,-1.374l0,16.723l-4.798,1.372l0,6.946l4.798,-1.375l0,17.023l1.853,0l0,-17.632l6.98,-1.969l0,16.562l1.965,0l0,-17.185l4.798,-1.379l0,-6.971Z" style="fill-rule:nonzero;"/><path id="sharp2" serif:id="sharp" d="M172.839,105.422l0,-16.842l6.98,-1.977l0,16.757l-6.98,2.062Zm13.743,-4.075l-4.799,1.411l0,-16.756l4.799,-1.375l0,-6.96l-4.799,1.375l0,-17.121l-1.964,0l0,17.64l-6.98,2.059l0,-16.648l-1.853,0l0,17.281l-4.798,1.379l0,6.974l4.798,-1.375l0,16.724l-4.798,1.372l0,6.945l4.798,-1.374l0,17.023l1.853,0l0,-17.632l6.98,-1.969l0,16.562l1.964,0l0,-17.185l4.799,-1.379l0,-6.971Z" style="fill-rule:nonzero;"/><g id="Triad1" serif:id="Triad"><path id="path72293" serif:id="path7229" d="M347.643,198.771c-13.564,0 -24.553,6.603 -24.553,14.7c0,8.096 10.989,14.66 24.553,14.66c13.564,0 24.592,-6.564 24.592,-14.66c0,-8.097 -11.028,-14.7 -24.592,-14.7Zm-6,2.661c3.528,-0.045 7.873,1.335 11.959,4.093c7.264,4.903 10.909,12.287 8.145,16.448c-2.764,4.161 -10.893,3.552 -18.157,-1.351c-7.264,-4.903 -10.908,-12.287 -8.144,-16.448c1.209,-1.821 3.454,-2.706 6.197,-2.742Z" style="fill:#0e1517;fill-rule:nonzero;"/><path id="path72294" serif:id="path7229" d="M347.643,228.131c-13.564,0 -24.553,6.603 -24.553,14.7c0,8.096 10.989,14.66 24.553,14.66c13.564,0 24.592,-6.564 24.592,-14.66c0,-8.097 -11.028,-14.7 -24.592,-14.7Zm-6,2.662c3.528,-0.046 7.873,1.334 11.959,4.092c7.264,4.903 10.909,12.287 8.145,16.448c-2.764,4.161 -10.893,3.552 -18.157,-1.351c-7.264,-4.903 -10.908,-12.287 -8.144,-16.448c1.209,-1.82 3.454,-2.706 6.197,-2.741Z" style="fill:#0e1517;fill-rule:nonzero;"/><path id="path72295" serif:id="path7229" d="M347.643,256.023c-13.564,0 -24.553,6.604 -24.553,14.7c0,8.096 10.989,14.66 24.553,14.66c13.564,0 24.592,-6.564 24.592,-14.66c0,-8.096 -11.028,-14.7 -24.592,-14.7Zm-6,2.662c3.528,-0.046 7.873,1.334 11.959,4.092c7.264,4.903 10.909,12.287 8.145,16.448c-2.764,4.161 -10.893,3.552 -18.157,-1.351c-7.264,-4.903 -10.908,-12.287 -8.144,-16.448c1.209,-1.82 3.454,-2.705 6.197,-2.741Z" style="fill:#0e1517;fill-rule:nonzero;"/></g><g id="Triad2" serif:id="Triad"><path id="path72296" serif:id="path7229" d="M462.306,182.9c-13.564,0 -24.553,6.604 -24.553,14.7c0,8.097 10.989,14.66 24.553,14.66c13.564,0 24.593,-6.563 24.593,-14.66c0,-8.096 -11.029,-14.7 -24.593,-14.7Zm-5.999,2.662c3.527,-0.046 7.873,1.334 11.959,4.092c7.264,4.903 10.908,12.287 8.144,16.448c-2.763,4.161 -10.892,3.553 -18.156,-1.351c-7.264,-4.903 -10.908,-12.287 -8.145,-16.448c1.21,-1.82 3.455,-2.705 6.198,-2.741Z" style="fill:#0e1517;fill-rule:nonzero;"/><path id="path72297" serif:id="path7229" d="M462.306,212.26c-13.564,0 -24.553,6.604 -24.553,14.7c0,8.097 10.989,14.661 24.553,14.661c13.564,0 24.593,-6.564 24.593,-14.661c0,-8.096 -11.029,-14.7 -24.593,-14.7Zm-5.999,2.662c3.527,-0.046 7.873,1.334 11.959,4.092c7.264,4.904 10.908,12.288 8.144,16.449c-2.763,4.16 -10.892,3.552 -18.156,-1.351c-7.264,-4.903 -10.908,-12.287 -8.145,-16.448c1.21,-1.821 3.455,-2.706 6.198,-2.742Z" style="fill:#0e1517;fill-rule:nonzero;"/><path id="path72298" serif:id="path7229" d="M462.306,241.153c-13.564,0 -24.553,6.603 -24.553,14.7c0,8.096 10.989,14.66 24.553,14.66c13.564,0 24.593,-6.564 24.593,-14.66c0,-8.097 -11.029,-14.7 -24.593,-14.7Zm-5.999,2.662c3.527,-0.046 7.873,1.334 11.959,4.092c7.264,4.903 10.908,12.287 8.144,16.448c-2.763,4.161 -10.892,3.552 -18.156,-1.351c-7.264,-4.903 -10.908,-12.287 -8.145,-16.448c1.21,-1.82 3.455,-2.706 6.198,-2.741Z" style="fill:#0e1517;fill-rule:nonzero;"/></g><g id="Triad3" serif:id="Triad"><path id="path72299" serif:id="path7229" d="M578.954,169.807c-13.564,0 -24.553,6.604 -24.553,14.7c0,8.096 10.989,14.66 24.553,14.66c13.564,0 24.593,-6.564 24.593,-14.66c0,-8.096 -11.029,-14.7 -24.593,-14.7Zm-5.999,2.662c3.527,-0.046 7.872,1.334 11.958,4.092c7.264,4.903 10.909,12.287 8.145,16.448c-2.764,4.161 -10.892,3.552 -18.156,-1.351c-7.264,-4.903 -10.909,-12.287 -8.145,-16.448c1.209,-1.82 3.454,-2.705 6.198,-2.741Z" style="fill:#0e1517;fill-rule:nonzero;"/><path id="path722910" serif:id="path7229" d="M578.954,198.167c-13.564,0 -24.553,6.604 -24.553,14.7c0,8.097 10.989,14.661 24.553,14.661c13.564,0 24.593,-6.564 24.593,-14.661c0,-8.096 -11.029,-14.7 -24.593,-14.7Zm-5.999,2.662c3.527,-0.046 7.872,1.334 11.958,4.092c7.264,4.903 10.909,12.288 8.145,16.448c-2.764,4.161 -10.892,3.553 -18.156,-1.35c-7.264,-4.903 -10.909,-12.288 -8.145,-16.448c1.209,-1.821 3.454,-2.706 6.198,-2.742Z" style="fill:#0e1517;fill-rule:nonzero;"/><path id="path722911" serif:id="path7229" d="M578.954,227.06c-13.564,0 -24.553,6.603 -24.553,14.7c0,8.096 10.989,14.66 24.553,14.66c13.564,0 24.593,-6.564 24.593,-14.66c0,-8.097 -11.029,-14.7 -24.593,-14.7Zm-5.999,2.661c3.527,-0.045 7.872,1.335 11.958,4.093c7.264,4.903 10.909,12.287 8.145,16.448c-2.764,4.161 -10.892,3.552 -18.156,-1.351c-7.264,-4.903 -10.909,-12.287 -8.145,-16.448c1.209,-1.821 3.454,-2.706 6.198,-2.742Z" style="fill:#0e1517;fill-rule:nonzero;"/></g><g id="Triad4" serif:id="Triad"><path id="path722912" serif:id="path7229" d="M690.84,155.524c-13.564,0 -24.553,6.603 -24.553,14.7c0,8.096 10.989,14.66 24.553,14.66c13.564,0 24.593,-6.564 24.593,-14.66c0,-8.097 -11.029,-14.7 -24.593,-14.7Zm-5.999,2.662c3.527,-0.046 7.873,1.334 11.959,4.092c7.264,4.903 10.908,12.287 8.144,16.448c-2.763,4.161 -10.892,3.552 -18.156,-1.351c-7.264,-4.903 -10.908,-12.287 -8.145,-16.448c1.21,-1.82 3.455,-2.706 6.198,-2.741Z" style="fill:#0e1517;fill-rule:nonzero;"/><path id="path722913" serif:id="path7229" d="M690.84,184.884c-13.564,0 -24.553,6.604 -24.553,14.7c0,8.096 10.989,14.66 24.553,14.66c13.564,0 24.593,-6.564 24.593,-14.66c0,-8.096 -11.029,-14.7 -24.593,-14.7Zm-5.999,2.662c3.527,-0.046 7.873,1.334 11.959,4.092c7.264,4.903 10.908,12.287 8.144,16.448c-2.763,4.161 -10.892,3.552 -18.156,-1.351c-7.264,-4.903 -10.908,-12.287 -8.145,-16.448c1.21,-1.82 3.455,-2.705 6.198,-2.741Z" style="fill:#0e1517;fill-rule:nonzero;"/><path id="path722914" serif:id="path7229" d="M690.84,212.776c-13.564,0 -24.553,6.604 -24.553,14.7c0,8.097 10.989,14.66 24.553,14.66c13.564,0 24.593,-6.563 24.593,-14.66c0,-8.096 -11.029,-14.7 -24.593,-14.7Zm-5.999,2.662c3.527,-0.046 7.873,1.334 11.959,4.092c7.264,4.903 10.908,12.287 8.144,16.448c-2.763,4.161 -10.892,3.553 -18.156,-1.35c-7.264,-4.904 -10.908,-12.288 -8.145,-16.449c1.21,-1.82 3.455,-2.705 6.198,-2.741Z" style="fill:#0e1517;fill-rule:nonzero;"/></g><g id="Triad5" serif:id="Triad"><path id="path722915" serif:id="path7229" d="M805.504,140.844c-13.564,0 -24.553,6.603 -24.553,14.7c0,8.096 10.989,14.66 24.553,14.66c13.564,0 24.593,-6.564 24.593,-14.66c0,-8.097 -11.029,-14.7 -24.593,-14.7Zm-5.999,2.661c3.527,-0.045 7.873,1.335 11.959,4.093c7.264,4.903 10.908,12.287 8.144,16.448c-2.764,4.161 -10.892,3.552 -18.156,-1.351c-7.264,-4.903 -10.909,-12.287 -8.145,-16.448c1.209,-1.821 3.455,-2.706 6.198,-2.742Z" style="fill:#0e1517;fill-rule:nonzero;"/><path id="path722916" serif:id="path7229" d="M805.504,169.204c-13.564,0 -24.553,6.603 -24.553,14.7c0,8.096 10.989,14.66 24.553,14.66c13.564,0 24.593,-6.564 24.593,-14.66c0,-8.097 -11.029,-14.7 -24.593,-14.7Zm-5.999,2.662c3.527,-0.046 7.873,1.334 11.959,4.092c7.264,4.903 10.908,12.287 8.144,16.448c-2.764,4.161 -10.892,3.552 -18.156,-1.351c-7.264,-4.903 -10.909,-12.287 -8.145,-16.448c1.209,-1.82 3.455,-2.706 6.198,-2.741Z" style="fill:#0e1517;fill-rule:nonzero;"/><path id="path722917" serif:id="path7229" d="M805.504,199.096c-13.564,0 -24.553,6.604 -24.553,14.7c0,8.096 10.989,14.66 24.553,14.66c13.564,0 24.593,-6.564 24.593,-14.66c0,-8.096 -11.029,-14.7 -24.593,-14.7Zm-5.999,2.662c3.527,-0.046 7.873,1.334 11.959,4.092c7.264,4.903 10.908,12.287 8.144,16.448c-2.764,4.161 -10.892,3.552 -18.156,-1.351c-7.264,-4.903 -10.909,-12.287 -8.145,-16.448c1.209,-1.82 3.455,-2.705 6.198,-2.741Z" style="fill:#0e1517;fill-rule:nonzero;"/></g><path d="M229.601,58.979c1.728,0 3.279,-0.133 3.279,-0.133c-0.088,0.089 8.597,24.948 9.262,26.366c0.531,1.152 1.019,1.994 2.57,1.994l0,2.659c0,0 -2.925,-0.133 -5.539,-0.133c-3.855,0 -6.691,0.133 -6.691,0.133l0,-2.659c2.791,0 3.545,-1.152 3.323,-2.614c-0.177,-1.152 -1.019,-3.634 -1.019,-3.634c0,0 -2.349,-0.088 -5.761,-0.088c-3.633,0 -5.805,0.088 -5.805,0.088c0,0 -0.842,2.26 -1.108,3.545c-0.398,1.994 0.665,2.703 3.413,2.703l0,2.659c0,0 -3.368,-0.133 -6.47,-0.133c-2.703,0 -4.697,0.133 -4.697,0.133l0,-2.659c1.551,0 1.95,-0.842 2.526,-2.348c0.709,-1.906 9.217,-26.012 9.217,-26.012c0,0 2.082,0.133 3.5,0.133Zm-0.709,4.298c0,0 -4.076,11.788 -4.52,14.092c0,0 1.817,0.133 4.565,0.133c2.703,0 4.697,-0.133 4.697,-0.133c-0.621,-2.792 -4.742,-14.092 -4.742,-14.092Z" style="fill-rule:nonzero;"/><g transform="matrix(1.38476,0,0,1.38476,198.358,-308.643)"><g transform="matrix(32,0,0,32,84.3101,287.269)"><path d="M0.324,-0.7c0.157,0 0.25,0.059 0.25,0.173c0,0.103 -0.099,0.137 -0.129,0.146l0,0.005c0.09,0.011 0.176,0.071 0.176,0.181c0,0.083 -0.044,0.195 -0.214,0.195c-0.095,0 -0.131,-0.004 -0.2,-0.004c-0.06,0 -0.157,0.004 -0.157,0.004l0,-0.06c0.079,0 0.097,-0.026 0.097,-0.099c0,0 0.003,-0.137 0.003,-0.221c0,-0.077 -0.003,-0.204 -0.003,-0.204c0.002,-0.034 0,-0.056 -0.092,-0.056l0,-0.06c0,0 0.079,0.003 0.127,0.003c0.05,0 0.142,-0.003 0.142,-0.003Zm-0.06,0.07l0,0.228l0.029,-0.001c0.093,0 0.152,-0.045 0.152,-0.115c0,-0.087 -0.07,-0.112 -0.135,-0.112l-0.046,0Zm0.002,0.482c0,0.029 0.014,0.078 0.075,0.078l0.024,0c0.071,0 0.119,-0.05 0.119,-0.115c0,-0.083 -0.046,-0.147 -0.177,-0.147l-0.043,0l0.002,0.184Z" style="fill-rule:nonzero;"/></g><g transform="matrix(25.9459,0,0,25.9459,105.142,287.269)"><path d="M0.192,-0.416c0,0 0.071,-0.048 0.143,-0.048c0.084,0 0.125,0.05 0.125,0.05c0,0 0.081,-0.05 0.163,-0.05c0.11,0 0.175,0.073 0.173,0.19l0,0.188c0,0.021 0,0.026 0.056,0.026l0,0.06c0,0 -0.054,-0.003 -0.112,-0.003c-0.069,0 -0.126,0.003 -0.126,0.003l0,-0.06c0.053,0 0.075,-0.018 0.075,-0.087l0,-0.096c0,-0.067 -0.009,-0.132 -0.101,-0.132c-0.057,0 -0.091,0.019 -0.091,0.019c0,0 0.001,0.074 0.001,0.125c0,0.062 0.004,0.145 0.004,0.145c0.003,0.015 -0.001,0.026 0.059,0.026l0.001,0.06l-0.131,-0.003l-0.108,0.003l0,-0.06c0.048,0 0.075,-0.026 0.075,-0.087l0,-0.095c0,-0.105 -0.031,-0.133 -0.106,-0.133c-0.061,0 -0.087,0.015 -0.087,0.015c0,0 -0.002,0.089 -0.002,0.14c0,0.057 0.002,0.125 0.002,0.125c0.003,0.022 0,0.035 0.058,0.035l0,0.06c0,0 -0.08,-0.003 -0.13,-0.003c-0.036,0 -0.103,0.003 -0.103,0.003l0,-0.06c0.055,0 0.064,-0.029 0.065,-0.063l0.002,-0.097l-0.002,-0.112c-0.001,-0.061 -0.03,-0.063 -0.065,-0.063l0,-0.055c0.105,0 0.14,-0.01 0.14,-0.01l0.022,0.044Z" style="fill-rule:nonzero;"/></g></g><path d="M452.496,57.434c6.425,0 9.749,2.571 9.749,2.571l0,6.425l-4.343,0l0,-0.665c-0.177,-2.393 -1.418,-4.52 -5.627,-4.52c-5.717,0 -9.395,4.875 -9.395,12.142c0,6.913 3.102,12.673 9.616,12.673c6.558,0 8.287,-4.608 8.287,-4.608c0,-0.044 1.683,-0.044 1.683,-0.044l0,5.76c0,0 -3.589,2.88 -10.723,2.88c-9.527,0 -14.712,-7.001 -14.756,-16.528c0,-11.255 8.641,-16.086 15.509,-16.086Z" style="fill-rule:nonzero;"/><g id="_-" serif:id="#"><path id="_-1" serif:id="#" d="M474.605,65.606l0,-2.878c0,-0.137 -0.069,-0.247 -0.173,-0.22l-1.904,0.768l0,-4.385l1.991,-0.795c0.052,-0.028 0.086,-0.083 0.086,-0.165l0,-2.878c0,-0.137 -0.069,-0.246 -0.173,-0.219l-1.904,0.768l0,-3.646c0,-0.109 -0.052,-0.192 -0.121,-0.192l-0.709,0c-0.07,0 -0.122,0.083 -0.122,0.192l0,4.029l-2.942,1.151l0,-4.083c0,-0.11 -0.052,-0.192 -0.121,-0.192l-0.71,0c-0.069,0 -0.121,0.082 -0.121,0.192l0,4.467l-1.99,0.795c-0.052,0.027 -0.087,0.082 -0.087,0.164l0,2.878c0,0.137 0.07,0.247 0.173,0.22l1.904,-0.768l0,4.385l-1.99,0.795c-0.052,0.028 -0.087,0.083 -0.087,0.165l0,2.878c0,0.137 0.07,0.246 0.173,0.219l1.904,-0.767l0,4.193c0,0.11 0.052,0.192 0.121,0.192l0.71,0c0.069,0 0.121,-0.082 0.121,-0.192l0,-4.577l2.942,-1.151l0,4.632c0,0.109 0.052,0.192 0.122,0.192l0.709,0c0.069,0 0.121,-0.083 0.121,-0.192l0,-5.016l1.991,-0.795c0.052,-0.027 0.086,-0.082 0.086,-0.164Zm-3.029,-6.332l0,4.358l-2.942,1.179l0,-4.358l2.942,-1.179Z" style="fill-rule:nonzero;"/></g><path d="M479.712,72.885c0,0 2.704,-1.829 5.447,-1.829c3.199,0 4.761,1.905 4.761,1.905c0,0 3.085,-1.905 6.208,-1.905c4.19,0 6.666,2.781 6.59,7.237l0,7.161c0,0.8 0,0.99 2.133,0.99l0,2.286c0,0 -2.057,-0.115 -4.266,-0.115c-2.628,0 -4.8,0.115 -4.8,0.115l0,-2.286c2.019,0 2.857,-0.685 2.857,-3.314l0,-3.656c0,-2.552 -0.343,-5.028 -3.847,-5.028c-2.171,0 -3.466,0.724 -3.466,0.724c0,0 0.038,2.818 0.038,4.761c0,2.362 0.152,5.523 0.152,5.523c0.115,0.571 -0.038,0.99 2.248,0.99l0.038,2.286l-4.99,-0.115l-4.113,0.115l0,-2.286c1.828,0 2.856,-0.99 2.856,-3.314l0,-3.618c0,-3.999 -1.181,-5.066 -4.037,-5.066c-2.324,0 -3.314,0.572 -3.314,0.572c0,0 -0.076,3.389 -0.076,5.332c0,2.171 0.076,4.761 0.076,4.761c0.114,0.838 0,1.333 2.209,1.333l0,2.286c0,0 -3.047,-0.115 -4.951,-0.115c-1.372,0 -3.924,0.115 -3.924,0.115l0,-2.286c2.095,0 2.438,-1.104 2.476,-2.399l0.076,-3.695l-0.076,-4.266c-0.038,-2.323 -1.142,-2.4 -2.476,-2.4l0,-2.094c4,0 5.333,-0.381 5.333,-0.381l0.838,1.676Z" style="fill-rule:nonzero;"/><path d="M779.162,58.232c0,0 5.982,0.177 9.084,0.177c3.722,0 13.914,-0.177 13.914,-0.177l0,7.533l-3.057,0c0,-2.348 -0.709,-3.944 -4.343,-3.988l-6.16,0c0,0 -0.088,8.597 -0.088,11.123l3.323,0c2.039,0 2.039,-0.975 2.039,-2.704l2.658,0l0,8.287l-2.57,0c0,-1.551 0,-2.482 -1.994,-2.482l-3.456,0c0,2.792 0.088,7.578 0.088,7.578c0.133,2.836 0.178,3.013 4.786,3.013l0,2.659l-7.577,-0.133l-6.957,0.133l0,-2.659c2.924,0 4.387,-0.709 4.387,-4.343c0,-2.215 0.133,-6.248 0.133,-9.837c0,-3.501 -0.133,-6.514 -0.133,-8.597c0,-1.949 -0.045,-2.924 -4.077,-2.924l0,-2.659Z" style="fill-rule:nonzero;"/><g id="_-2" serif:id="#"><path id="_-3" serif:id="#" d="M815.385,65.606l0,-2.878c0,-0.137 -0.07,-0.247 -0.174,-0.22l-1.903,0.768l0,-4.385l1.99,-0.795c0.052,-0.028 0.087,-0.083 0.087,-0.165l0,-2.878c0,-0.137 -0.07,-0.246 -0.174,-0.219l-1.903,0.768l0,-3.646c0,-0.109 -0.052,-0.192 -0.122,-0.192l-0.709,0c-0.069,0 -0.121,0.083 -0.121,0.192l0,4.029l-2.943,1.151l0,-4.083c0,-0.11 -0.052,-0.192 -0.121,-0.192l-0.709,0c-0.07,0 -0.122,0.082 -0.122,0.192l0,4.467l-1.99,0.795c-0.052,0.027 -0.086,0.082 -0.086,0.164l0,2.878c0,0.137 0.069,0.247 0.173,0.22l1.903,-0.768l0,4.385l-1.99,0.795c-0.052,0.028 -0.086,0.083 -0.086,0.165l0,2.878c0,0.137 0.069,0.246 0.173,0.219l1.903,-0.767l0,4.193c0,0.11 0.052,0.192 0.122,0.192l0.709,0c0.069,0 0.121,-0.082 0.121,-0.192l0,-4.577l2.943,-1.151l0,4.632c0,0.109 0.052,0.192 0.121,0.192l0.709,0c0.07,0 0.122,-0.083 0.122,-0.192l0,-5.016l1.99,-0.795c0.052,-0.027 0.087,-0.082 0.087,-0.164Zm-3.029,-6.332l0,4.358l-2.943,1.179l0,-4.358l2.943,-1.179Z" style="fill-rule:nonzero;"/></g><path d="M820.491,72.885c0,0 2.704,-1.829 5.447,-1.829c3.199,0 4.761,1.905 4.761,1.905c0,0 3.085,-1.905 6.209,-1.905c4.189,0 6.665,2.781 6.589,7.237l0,7.161c0,0.8 0,0.99 2.133,0.99l0,2.286c0,0 -2.057,-0.115 -4.266,-0.115c-2.628,0 -4.799,0.115 -4.799,0.115l0,-2.286c2.018,0 2.856,-0.685 2.856,-3.314l0,-3.656c0,-2.552 -0.342,-5.028 -3.847,-5.028c-2.171,0 -3.466,0.724 -3.466,0.724c0,0 0.038,2.818 0.038,4.761c0,2.362 0.153,5.523 0.153,5.523c0.114,0.571 -0.038,0.99 2.247,0.99l0.038,2.286l-4.99,-0.115l-4.113,0.115l0,-2.286c1.828,0 2.857,-0.99 2.857,-3.314l0,-3.618c0,-3.999 -1.181,-5.066 -4.038,-5.066c-2.323,0 -3.314,0.572 -3.314,0.572c0,0 -0.076,3.389 -0.076,5.332c0,2.171 0.076,4.761 0.076,4.761c0.115,0.838 0,1.333 2.209,1.333l0,2.286c0,0 -3.047,-0.115 -4.951,-0.115c-1.371,0 -3.923,0.115 -3.923,0.115l0,-2.286c2.095,0 2.437,-1.104 2.476,-2.399l0.076,-3.695l-0.076,-4.266c-0.039,-2.323 -1.143,-2.4 -2.476,-2.4l0,-2.094c3.999,0 5.332,-0.381 5.332,-0.381l0.838,1.676Z" style="fill-rule:nonzero;"/><path d="M565.81,58.137l5.716,0.045c1.906,0 4.299,-0.045 6.514,-0.045c3.855,-0.044 8.73,0.931 11.743,3.855c2.482,2.438 4.786,5.938 4.786,12.098c0,9.217 -5.273,15.066 -13.427,15.066c-5.539,0 -6.425,-0.133 -8.818,-0.133l-6.824,0.133l0,-2.659c3.235,0 4.387,-0.709 4.387,-4.165c0,-1.64 0.133,-5.539 0.133,-10.015c0,-4.032 -0.133,-8.862 -0.133,-8.862c0,-1.861 -0.045,-2.703 -4.077,-2.703l0,-2.615Zm9.394,3.235c-0.133,0.089 -0.133,10.148 -0.133,11.699c0,4.475 0.133,8.685 0.133,8.685c0,3.456 1.551,4.298 3.368,4.298l1.462,-0.044c6.115,0 8.686,-4.121 8.686,-11.787c0,-8.686 -4.432,-12.984 -10.901,-12.984c-1.152,0 -2.615,0.133 -2.615,0.133Z" style="fill-rule:nonzero;"/><path d="M679.92,58.137c0,0 4.298,0.178 7.001,0.178c5.096,0 16.219,-0.178 16.219,-0.178l0,7.578l-3.146,0c0,-1.861 -0.178,-4.033 -4.299,-4.033l-6.248,0c0,0 -0.088,5.495 -0.088,10.724l3.899,0c1.994,0 1.906,-0.842 1.95,-2.703l2.747,0l0,8.286l-2.658,0c0,-1.551 0.132,-2.481 -1.95,-2.481l-3.988,0c0,4.697 0.088,10.103 0.088,10.103l7.135,0c3.988,0 4.387,-2.526 4.387,-3.988l3.5,0l0,7.533c0,0 -12.762,-0.177 -17.725,-0.177c-3.057,0 -7.045,0.177 -7.045,0.177l0,-2.659c3.19,0 4.386,-0.93 4.386,-4.342c0.045,-1.684 0.133,-5.229 0.133,-8.819c0,-3.899 -0.044,-7.887 -0.133,-9.615c0,-1.95 -0.088,-2.881 -4.165,-2.925l0,-2.659Z" style="fill-rule:nonzero;"/><path id="path9" d="M91.965,183.236c-2.947,0.819 -5.605,2.651 -8.07,5.447c-2.464,2.844 -3.672,5.977 -3.672,9.351c0,2.121 0.725,4.532 2.126,7.086c1.401,2.604 3.528,4.484 6.282,5.689c0.918,0.192 1.353,0.674 1.353,1.349c0,0.241 -0.338,0.482 -1.16,0.675c-4.397,-1.108 -8.021,-3.471 -10.824,-6.989c-2.802,-3.568 -4.252,-7.617 -4.349,-12.244c0.145,-4.966 1.643,-9.593 4.494,-13.835c2.899,-4.29 6.62,-7.327 11.162,-9.111l-3.334,-17.112c-7.441,6.17 -13.482,12.581 -18.169,19.33c-4.687,6.7 -7.103,13.979 -7.296,21.836c0.096,3.519 0.821,6.942 2.174,10.22c1.353,3.326 3.383,6.314 6.089,9.062c5.46,5.447 12.563,8.291 21.213,8.581c2.948,-0.193 6.089,-0.724 9.471,-1.591l-7.49,-37.744Zm3.479,-0.482l7.539,37.069c7.441,-2.989 11.162,-9.496 11.162,-19.427c-0.435,-3.326 -1.401,-6.314 -3.044,-8.966c-1.595,-2.699 -3.721,-4.82 -6.427,-6.363c-2.706,-1.542 -5.75,-2.313 -9.23,-2.313Zm-9.906,-50.133c1.595,-0.964 3.431,-2.652 5.412,-5.014c1.982,-2.313 3.914,-5.061 5.751,-8.146c1.884,-3.133 3.382,-6.315 4.494,-9.545c1.111,-3.181 1.643,-6.218 1.643,-9.014c0,-1.205 -0.097,-2.41 -0.339,-3.471c-0.193,-1.735 -0.724,-3.085 -1.643,-4.001c-0.918,-0.867 -2.077,-1.349 -3.527,-1.349c-2.899,0 -5.509,1.783 -7.828,5.35c-1.788,3.085 -3.286,6.749 -4.349,10.895c-1.112,4.193 -1.74,8.339 -1.836,12.533c0.241,4.772 1.014,8.677 2.222,11.762Zm-3.044,2.796c-2.174,-7.81 -3.382,-15.763 -3.624,-23.862c0.048,-5.206 0.58,-10.074 1.595,-14.606c0.966,-4.531 2.367,-8.436 4.204,-11.81c1.787,-3.374 3.865,-5.929 6.185,-7.664c2.078,-1.543 3.576,-2.362 4.397,-2.362c0.628,0 1.16,0.241 1.643,0.674c0.483,0.434 1.111,1.157 1.885,2.121c5.75,8.147 8.649,17.981 8.649,29.453c0,5.448 -0.725,10.75 -2.174,16.053c-1.402,5.254 -3.479,10.267 -6.234,14.943c-2.802,4.724 -6.088,8.822 -9.906,12.34l3.914,18.993c2.126,-0.241 3.576,-0.434 4.398,-0.434c3.672,0 6.958,0.772 10.002,2.314c3.044,1.543 5.654,3.615 7.78,6.267c2.126,2.603 3.769,5.591 4.929,8.966c1.111,3.374 1.739,6.893 1.739,10.557c0,5.688 -1.498,10.894 -4.494,15.57c-2.996,4.675 -7.489,8.098 -13.53,10.315c0.387,2.362 1.063,5.785 2.078,10.172c0.967,4.434 1.691,7.953 2.175,10.556c0.483,2.603 0.676,5.11 0.676,7.569c0,3.808 -0.918,7.182 -2.754,10.171c-1.885,2.988 -4.397,5.302 -7.587,6.941c-3.141,1.639 -6.62,2.459 -10.389,2.459c-5.315,0 -9.954,-1.495 -13.917,-4.435c-3.962,-2.989 -6.088,-6.99 -6.281,-12.1c0.145,-2.265 0.676,-4.386 1.643,-6.411c0.966,-2.024 2.271,-3.663 3.962,-4.917c1.643,-1.301 3.624,-1.976 5.895,-2.121c1.885,0 3.673,0.531 5.364,1.543c1.643,1.06 2.996,2.458 4.011,4.242c0.966,1.783 1.498,3.76 1.498,5.881c0,2.844 -0.967,5.254 -2.9,7.231c-1.933,1.976 -4.397,2.988 -7.345,2.988l-1.111,0c1.885,2.893 4.977,4.387 9.278,4.387c2.174,0 4.397,-0.482 6.62,-1.35c2.271,-0.916 4.156,-2.121 5.75,-3.663c1.595,-1.543 2.658,-3.182 3.093,-4.917c0.821,-1.977 1.208,-4.724 1.208,-8.147c0,-2.314 -0.242,-4.628 -0.677,-6.941c-0.435,-2.266 -1.111,-5.303 -2.029,-9.063c-0.918,-3.712 -1.595,-6.604 -1.981,-8.58c-2.9,0.723 -5.896,1.108 -9.037,1.108c-5.267,0 -10.244,-1.06 -14.931,-3.229c-4.687,-2.169 -8.795,-5.158 -12.37,-9.015c-3.528,-3.856 -6.282,-8.194 -8.263,-13.111c-1.933,-4.869 -2.948,-9.979 -2.996,-15.281c0.193,-4.917 1.111,-9.641 2.851,-14.076c1.739,-4.483 3.962,-8.725 6.716,-12.678c2.755,-3.952 5.606,-7.568 8.553,-10.797c2.996,-3.182 6.91,-7.279 11.839,-12.244Z" style="fill:#131516;stroke:#131516;stroke-width:0.14px;stroke-linecap:butt;stroke-linejoin:miter;stroke-miterlimit:4;"/></svg>