<?xml version="1.0" encoding="UTF-8" standalone="no"?><!DOCTYPE svg PUBLIC "-//W3C//DTD SVG 1.1//EN" "http://www.w3.org/Graphics/SVG/1.1/DTD/svg11.dtd"><svg width="913px" height="322px" viewBox="0 0 913 322" version="1.1" xmlns="http://www.w3.org/2000/svg" xmlns:xlink="http://www.w3.org/1999/xlink" xml:space="preserve" xmlns:serif="http://www.serif.com/" style="fill-rule:evenodd;clip-rule:evenodd;stroke-linecap:round;stroke-linejoin:round;stroke-miterlimit:1.5;"><rect id="_2-4_base6_bb" serif:id="2-4_base6_bb" x="0.04" y="0.853" width="912.609" height="320.519" style="fill:none;"/><g id="譜面"><rect id="外枠" x="40.352" y="111.885" width="838.546" height="115.483" style="fill:#fff;fill-opacity:0.78;stroke:#000;stroke-width:1.5px;"/><path id="E線" d="M40.352,227.658l838.546,0" style="fill:none;stroke:#000;stroke-width:1px;"/><path id="G線" d="M40.352,198.715l838.546,0" style="fill:none;stroke:#000;stroke-width:1px;"/><path id="B線" d="M40.352,169.772l838.546,0" style="fill:none;stroke:#000;stroke-width:1px;"/><path id="D線" d="M40.352,140.828l838.546,0" style="fill:none;stroke:#000;stroke-width:1px;"/></g><g id="Triad"><path d="M265.23,255.336l-64.848,0.542" style="fill:none;stroke:#000;stroke-width:1px;"/><path id="path7229" d="M232.82,197.864c-13.564,0 -24.553,6.603 -24.553,14.7c0,8.096 10.989,14.66 24.553,14.66c13.564,0 24.593,-6.564 24.593,-14.66c0,-8.097 -11.029,-14.7 -24.593,-14.7Zm-5.999,2.662c3.527,-0.046 7.873,1.334 11.959,4.092c7.264,4.903 10.908,12.287 8.144,16.448c-2.763,4.161 -10.892,3.552 -18.156,-1.351c-7.264,-4.903 -10.909,-12.287 -8.145,-16.448c1.209,-1.821 3.455,-2.706 6.198,-2.741Z" style="fill-rule:nonzero;"/><path id="path72291" serif:id="path7229" d="M232.82,227.224c-13.564,0 -24.553,6.604 -24.553,14.7c0,8.096 10.989,14.66 24.553,14.66c13.564,0 24.593,-6.564 24.593,-14.66c0,-8.096 -11.029,-14.7 -24.593,-14.7Zm-5.999,2.662c3.527,-0.046 7.873,1.334 11.959,4.092c7.264,4.903 10.908,12.287 8.144,16.448c-2.763,4.161 -10.892,3.552 -18.156,-1.351c-7.264,-4.903 -10.909,-12.287 -8.145,-16.448c1.209,-1.82 3.455,-2.706 6.198,-2.741Z" style="fill-rule:nonzero;"/><path id="path72292" serif:id="path7229" d="M232.82,255.116c-13.564,0 -24.553,6.604 -24.553,14.7c0,8.097 10.989,14.66 24.553,14.66c13.564,0 24.593,-6.563 24.593,-14.66c0,-8.096 -11.029,-14.7 -24.593,-14.7Zm-5.999,2.662c3.527,-0.046 7.873,1.334 11.959,4.092c7.264,4.903 10.908,12.287 8.144,16.448c-2.763,4.161 -10.892,3.553 -18.156,-1.35c-7.264,-4.904 -10.909,-12.288 -8.145,-16.449c1.209,-1.82 3.455,-2.705 6.198,-2.741Z" style="fill-rule:nonzero;"/></g><path id="path9" d="M91.965,183.851c-2.947,0.82 -5.605,2.652 -8.07,5.448c-2.464,2.844 -3.672,5.977 -3.672,9.351c0,2.121 0.725,4.531 2.126,7.086c1.401,2.603 3.528,4.483 6.282,5.688c0.918,0.193 1.353,0.675 1.353,1.35c0,0.241 -0.338,0.482 -1.16,0.675c-4.397,-1.109 -8.021,-3.471 -10.824,-6.99c-2.802,-3.567 -4.252,-7.616 -4.349,-12.244c0.145,-4.965 1.643,-9.592 4.494,-13.834c2.899,-4.291 6.62,-7.327 11.162,-9.111l-3.334,-17.113c-7.441,6.171 -13.482,12.582 -18.169,19.33c-4.687,6.701 -7.103,13.98 -7.296,21.837c0.096,3.519 0.821,6.942 2.174,10.219c1.353,3.327 3.383,6.315 6.089,9.063c5.46,5.447 12.563,8.291 21.213,8.58c2.948,-0.192 6.089,-0.723 9.471,-1.59l-7.49,-37.745Zm3.479,-0.482l7.539,37.07c7.441,-2.989 11.162,-9.497 11.162,-19.427c-0.435,-3.326 -1.401,-6.315 -3.044,-8.966c-1.595,-2.699 -3.721,-4.82 -6.427,-6.363c-2.706,-1.542 -5.75,-2.314 -9.23,-2.314Zm-9.906,-50.132c1.595,-0.965 3.431,-2.652 5.412,-5.014c1.982,-2.314 3.914,-5.061 5.751,-8.146c1.884,-3.134 3.382,-6.315 4.494,-9.545c1.111,-3.181 1.643,-6.218 1.643,-9.014c0,-1.205 -0.097,-2.41 -0.339,-3.471c-0.193,-1.735 -0.724,-3.085 -1.643,-4.001c-0.918,-0.867 -2.077,-1.35 -3.527,-1.35c-2.899,0 -5.509,1.784 -7.828,5.351c-1.788,3.085 -3.286,6.749 -4.349,10.894c-1.112,4.194 -1.74,8.34 -1.836,12.534c0.241,4.772 1.014,8.676 2.222,11.762Zm-3.044,2.795c-2.174,-7.809 -3.382,-15.762 -3.624,-23.861c0.048,-5.206 0.58,-10.075 1.595,-14.606c0.966,-4.531 2.367,-8.436 4.204,-11.81c1.787,-3.374 3.865,-5.929 6.185,-7.665c2.078,-1.542 3.576,-2.362 4.397,-2.362c0.628,0 1.16,0.241 1.643,0.675c0.483,0.434 1.111,1.157 1.885,2.121c5.75,8.147 8.649,17.981 8.649,29.453c0,5.447 -0.725,10.75 -2.174,16.052c-1.402,5.255 -3.479,10.268 -6.234,14.944c-2.802,4.724 -6.088,8.821 -9.906,12.34l3.914,18.993c2.126,-0.241 3.576,-0.434 4.398,-0.434c3.672,0 6.958,0.771 10.002,2.314c3.044,1.542 5.654,3.615 7.78,6.266c2.126,2.604 3.769,5.592 4.929,8.967c1.111,3.374 1.739,6.893 1.739,10.556c0,5.689 -1.498,10.895 -4.494,15.57c-2.996,4.676 -7.489,8.099 -13.53,10.316c0.387,2.362 1.063,5.785 2.078,10.171c0.967,4.435 1.691,7.954 2.175,10.557c0.483,2.603 0.676,5.11 0.676,7.568c0,3.809 -0.918,7.183 -2.754,10.172c-1.885,2.988 -4.397,5.302 -7.587,6.941c-3.141,1.639 -6.62,2.458 -10.389,2.458c-5.315,0 -9.954,-1.494 -13.917,-4.434c-3.962,-2.989 -6.088,-6.99 -6.281,-12.1c0.145,-2.265 0.676,-4.386 1.643,-6.411c0.966,-2.025 2.271,-3.664 3.962,-4.917c1.643,-1.301 3.624,-1.976 5.895,-2.121c1.885,0 3.673,0.53 5.364,1.543c1.643,1.06 2.996,2.458 4.011,4.242c0.966,1.783 1.498,3.76 1.498,5.881c0,2.844 -0.967,5.254 -2.9,7.23c-1.933,1.977 -4.397,2.989 -7.345,2.989l-1.111,0c1.885,2.892 4.977,4.387 9.278,4.387c2.174,0 4.397,-0.482 6.62,-1.35c2.271,-0.916 4.156,-2.121 5.75,-3.664c1.595,-1.542 2.658,-3.181 3.093,-4.916c0.821,-1.977 1.208,-4.725 1.208,-8.147c0,-2.314 -0.242,-4.628 -0.677,-6.942c-0.435,-2.265 -1.111,-5.302 -2.029,-9.062c-0.918,-3.712 -1.595,-6.604 -1.981,-8.58c-2.9,0.723 -5.896,1.108 -9.037,1.108c-5.267,0 -10.244,-1.06 -14.931,-3.229c-4.687,-2.17 -8.795,-5.158 -12.37,-9.015c-3.528,-3.856 -6.282,-8.194 -8.263,-13.111c-1.933,-4.869 -2.948,-9.979 -2.996,-15.281c0.193,-4.917 1.111,-9.641 2.851,-14.076c1.739,-4.483 3.962,-8.725 6.716,-12.678c2.755,-3.953 5.606,-7.568 8.553,-10.798c2.996,-3.181 6.91,-7.279 11.839,-12.244Z" style="fill:#131516;stroke:#131516;stroke-width:0.14px;stroke-linecap:butt;stroke-linejoin:miter;stroke-miterlimit:4;"/><g id="Triad1" serif:id="Triad"><path id="path72293" serif:id="path7229" d="M347.643,184.771c-13.564,0 -24.553,6.603 -24.553,14.7c0,8.096 10.989,14.66 24.553,14.66c13.564,0 24.592,-6.564 24.592,-14.66c0,-8.097 -11.028,-14.7 -24.592,-14.7Zm-6,2.661c3.528,-0.045 7.873,1.335 11.959,4.093c7.264,4.903 10.909,12.287 8.145,16.448c-2.764,4.161 -10.893,3.552 -18.157,-1.351c-7.264,-4.903 -10.908,-12.287 -8.144,-16.448c1.209,-1.821 3.454,-2.706 6.197,-2.742Z" style="fill-rule:nonzero;"/><path id="path72294" serif:id="path7229" d="M347.643,214.131c-13.564,0 -24.553,6.603 -24.553,14.7c0,8.096 10.989,14.66 24.553,14.66c13.564,0 24.592,-6.564 24.592,-14.66c0,-8.097 -11.028,-14.7 -24.592,-14.7Zm-6,2.662c3.528,-0.046 7.873,1.334 11.959,4.092c7.264,4.903 10.909,12.287 8.145,16.448c-2.764,4.161 -10.893,3.552 -18.157,-1.351c-7.264,-4.903 -10.908,-12.287 -8.144,-16.448c1.209,-1.82 3.454,-2.706 6.197,-2.741Z" style="fill-rule:nonzero;"/><path id="path72295" serif:id="path7229" d="M347.643,242.023c-13.564,0 -24.553,6.604 -24.553,14.7c0,8.096 10.989,14.66 24.553,14.66c13.564,0 24.592,-6.564 24.592,-14.66c0,-8.096 -11.028,-14.7 -24.592,-14.7Zm-6,2.662c3.528,-0.046 7.873,1.334 11.959,4.092c7.264,4.903 10.909,12.287 8.145,16.448c-2.764,4.161 -10.893,3.552 -18.157,-1.351c-7.264,-4.903 -10.908,-12.287 -8.144,-16.448c1.209,-1.82 3.454,-2.705 6.197,-2.741Z" style="fill-rule:nonzero;"/></g><g id="Triad2" serif:id="Triad"><path id="path72296" serif:id="path7229" d="M462.306,168.9c-13.564,0 -24.553,6.604 -24.553,14.7c0,8.097 10.989,14.66 24.553,14.66c13.564,0 24.593,-6.563 24.593,-14.66c0,-8.096 -11.029,-14.7 -24.593,-14.7Zm-5.999,2.662c3.527,-0.046 7.873,1.334 11.959,4.092c7.264,4.903 10.908,12.287 8.144,16.448c-2.763,4.161 -10.892,3.553 -18.156,-1.351c-7.264,-4.903 -10.908,-12.287 -8.145,-16.448c1.21,-1.82 3.455,-2.705 6.198,-2.741Z" style="fill-rule:nonzero;"/><path id="path72297" serif:id="path7229" d="M462.306,198.26c-13.564,0 -24.553,6.604 -24.553,14.7c0,8.097 10.989,14.661 24.553,14.661c13.564,0 24.593,-6.564 24.593,-14.661c0,-8.096 -11.029,-14.7 -24.593,-14.7Zm-5.999,2.662c3.527,-0.046 7.873,1.334 11.959,4.092c7.264,4.904 10.908,12.288 8.144,16.449c-2.763,4.16 -10.892,3.552 -18.156,-1.351c-7.264,-4.903 -10.908,-12.287 -8.145,-16.448c1.21,-1.821 3.455,-2.706 6.198,-2.742Z" style="fill-rule:nonzero;"/><path id="path72298" serif:id="path7229" d="M462.306,226.153c-13.564,0 -24.553,6.603 -24.553,14.7c0,8.096 10.989,14.66 24.553,14.66c13.564,0 24.593,-6.564 24.593,-14.66c0,-8.097 -11.029,-14.7 -24.593,-14.7Zm-5.999,2.662c3.527,-0.046 7.873,1.334 11.959,4.092c7.264,4.903 10.908,12.287 8.144,16.448c-2.763,4.161 -10.892,3.552 -18.156,-1.351c-7.264,-4.903 -10.908,-12.287 -8.145,-16.448c1.21,-1.82 3.455,-2.706 6.198,-2.741Z" style="fill-rule:nonzero;"/></g><g id="Triad3" serif:id="Triad"><path id="path72299" serif:id="path7229" d="M578.954,155.807c-13.564,0 -24.553,6.604 -24.553,14.7c0,8.096 10.989,14.66 24.553,14.66c13.564,0 24.593,-6.564 24.593,-14.66c0,-8.096 -11.029,-14.7 -24.593,-14.7Zm-5.999,2.662c3.527,-0.046 7.872,1.334 11.958,4.092c7.264,4.903 10.909,12.287 8.145,16.448c-2.764,4.161 -10.892,3.552 -18.156,-1.351c-7.264,-4.903 -10.909,-12.287 -8.145,-16.448c1.209,-1.82 3.454,-2.705 6.198,-2.741Z" style="fill-rule:nonzero;"/><path id="path722910" serif:id="path7229" d="M578.954,185.167c-13.564,0 -24.553,6.604 -24.553,14.7c0,8.097 10.989,14.661 24.553,14.661c13.564,0 24.593,-6.564 24.593,-14.661c0,-8.096 -11.029,-14.7 -24.593,-14.7Zm-5.999,2.662c3.527,-0.046 7.872,1.334 11.958,4.092c7.264,4.903 10.909,12.288 8.145,16.448c-2.764,4.161 -10.892,3.553 -18.156,-1.35c-7.264,-4.903 -10.909,-12.288 -8.145,-16.448c1.209,-1.821 3.454,-2.706 6.198,-2.742Z" style="fill-rule:nonzero;"/><path id="path722911" serif:id="path7229" d="M578.954,213.06c-13.564,0 -24.553,6.603 -24.553,14.7c0,8.096 10.989,14.66 24.553,14.66c13.564,0 24.593,-6.564 24.593,-14.66c0,-8.097 -11.029,-14.7 -24.593,-14.7Zm-5.999,2.661c3.527,-0.045 7.872,1.335 11.958,4.093c7.264,4.903 10.909,12.287 8.145,16.448c-2.764,4.161 -10.892,3.552 -18.156,-1.351c-7.264,-4.903 -10.909,-12.287 -8.145,-16.448c1.209,-1.821 3.454,-2.706 6.198,-2.742Z" style="fill-rule:nonzero;"/></g><g id="Triad4" serif:id="Triad"><path id="path722912" serif:id="path7229" d="M690.84,141.524c-13.564,0 -24.553,6.603 -24.553,14.7c0,8.096 10.989,14.66 24.553,14.66c13.564,0 24.593,-6.564 24.593,-14.66c0,-8.097 -11.029,-14.7 -24.593,-14.7Zm-5.999,2.662c3.527,-0.046 7.873,1.334 11.959,4.092c7.264,4.903 10.908,12.287 8.144,16.448c-2.763,4.161 -10.892,3.552 -18.156,-1.351c-7.264,-4.903 -10.908,-12.287 -8.145,-16.448c1.21,-1.82 3.455,-2.706 6.198,-2.741Z" style="fill-rule:nonzero;"/><path id="path722913" serif:id="path7229" d="M690.84,170.884c-13.564,0 -24.553,6.604 -24.553,14.7c0,8.096 10.989,14.66 24.553,14.66c13.564,0 24.593,-6.564 24.593,-14.66c0,-8.096 -11.029,-14.7 -24.593,-14.7Zm-5.999,2.662c3.527,-0.046 7.873,1.334 11.959,4.092c7.264,4.903 10.908,12.287 8.144,16.448c-2.763,4.161 -10.892,3.552 -18.156,-1.351c-7.264,-4.903 -10.908,-12.287 -8.145,-16.448c1.21,-1.82 3.455,-2.705 6.198,-2.741Z" style="fill-rule:nonzero;"/><path id="path722914" serif:id="path7229" d="M690.84,198.776c-13.564,0 -24.553,6.604 -24.553,14.7c0,8.097 10.989,14.66 24.553,14.66c13.564,0 24.593,-6.563 24.593,-14.66c0,-8.096 -11.029,-14.7 -24.593,-14.7Zm-5.999,2.662c3.527,-0.046 7.873,1.334 11.959,4.092c7.264,4.903 10.908,12.287 8.144,16.448c-2.763,4.161 -10.892,3.553 -18.156,-1.35c-7.264,-4.904 -10.908,-12.288 -8.145,-16.449c1.21,-1.82 3.455,-2.705 6.198,-2.741Z" style="fill-rule:nonzero;"/></g><g id="Triad5" serif:id="Triad"><path id="path722915" serif:id="path7229" d="M805.504,126.844c-13.564,0 -24.553,6.603 -24.553,14.7c0,8.096 10.989,14.66 24.553,14.66c13.564,0 24.593,-6.564 24.593,-14.66c0,-8.097 -11.029,-14.7 -24.593,-14.7Zm-5.999,2.661c3.527,-0.045 7.873,1.335 11.959,4.093c7.264,4.903 10.908,12.287 8.144,16.448c-2.764,4.161 -10.892,3.552 -18.156,-1.351c-7.264,-4.903 -10.909,-12.287 -8.145,-16.448c1.209,-1.821 3.455,-2.706 6.198,-2.742Z" style="fill-rule:nonzero;"/><path id="path722916" serif:id="path7229" d="M805.504,156.204c-13.564,0 -24.553,6.603 -24.553,14.7c0,8.096 10.989,14.66 24.553,14.66c13.564,0 24.593,-6.564 24.593,-14.66c0,-8.097 -11.029,-14.7 -24.593,-14.7Zm-5.999,2.662c3.527,-0.046 7.873,1.334 11.959,4.092c7.264,4.903 10.908,12.287 8.144,16.448c-2.764,4.161 -10.892,3.552 -18.156,-1.351c-7.264,-4.903 -10.909,-12.287 -8.145,-16.448c1.209,-1.82 3.455,-2.706 6.198,-2.741Z" style="fill-rule:nonzero;"/><path id="path722917" serif:id="path7229" d="M805.504,184.096c-13.564,0 -24.553,6.604 -24.553,14.7c0,8.096 10.989,14.66 24.553,14.66c13.564,0 24.593,-6.564 24.593,-14.66c0,-8.096 -11.029,-14.7 -24.593,-14.7Zm-5.999,2.662c3.527,-0.046 7.873,1.334 11.959,4.092c7.264,4.903 10.908,12.287 8.144,16.448c-2.764,4.161 -10.892,3.552 -18.156,-1.351c-7.264,-4.903 -10.909,-12.287 -8.145,-16.448c1.209,-1.82 3.455,-2.705 6.198,-2.741Z" style="fill-rule:nonzero;"/></g><path d="M229.468,65.361c6.957,0 11.078,2.614 11.078,7.666c0,4.564 -4.386,6.071 -5.716,6.47l0,0.221c3.988,0.488 7.799,3.146 7.799,8.021c0,3.678 -1.95,8.641 -9.483,8.641c-4.209,0 -5.805,-0.178 -8.862,-0.178c-2.659,0 -6.957,0.178 -6.957,0.178l0,-2.659c3.5,0 4.298,-1.152 4.298,-4.387c0,0 0.133,-6.071 0.133,-9.793c0,-3.412 -0.133,-9.04 -0.133,-9.04c0.089,-1.506 0,-2.481 -4.077,-2.481l0,-2.659c0,0 3.501,0.133 5.628,0.133c2.216,0 6.292,-0.133 6.292,-0.133Zm-2.658,3.102l0,10.103l1.285,-0.044c4.121,0 6.735,-1.994 6.735,-5.096c0,-3.855 -3.102,-4.963 -5.982,-4.963l-2.038,0Zm0.088,21.358c0,1.286 0.621,3.457 3.324,3.457l1.063,0c3.146,0 5.273,-2.216 5.273,-5.096c0,-3.678 -2.038,-6.514 -7.843,-6.514l-1.905,0l0.088,8.153Z" style="fill-rule:nonzero;"/><g transform="matrix(1.38476,0,0,1.38476,198.358,-303.322)"><g transform="matrix(32,0,0,32,84.4061,287.269)"><path d="M0.4,-0.718c0.145,0 0.22,0.058 0.22,0.058l0,0.145l-0.098,0l0,-0.015c-0.004,-0.054 -0.032,-0.102 -0.127,-0.102c-0.129,0 -0.212,0.11 -0.212,0.274c0,0.156 0.07,0.286 0.217,0.286c0.148,0 0.187,-0.104 0.187,-0.104c0,-0.001 0.038,-0.001 0.038,-0.001l0,0.13c0,0 -0.081,0.065 -0.242,0.065c-0.215,0 -0.332,-0.158 -0.333,-0.373c0,-0.254 0.195,-0.363 0.35,-0.363Z" style="fill-rule:nonzero;"/></g><g transform="matrix(25.9459,0,0,25.9459,105.046,287.269)"><path d="M0.192,-0.416c0,0 0.071,-0.048 0.143,-0.048c0.084,0 0.125,0.05 0.125,0.05c0,0 0.081,-0.05 0.163,-0.05c0.11,0 0.175,0.073 0.173,0.19l0,0.188c0,0.021 0,0.026 0.056,0.026l0,0.06c0,0 -0.054,-0.003 -0.112,-0.003c-0.069,0 -0.126,0.003 -0.126,0.003l0,-0.06c0.053,0 0.075,-0.018 0.075,-0.087l0,-0.096c0,-0.067 -0.009,-0.132 -0.101,-0.132c-0.057,0 -0.091,0.019 -0.091,0.019c0,0 0.001,0.074 0.001,0.125c0,0.062 0.004,0.145 0.004,0.145c0.003,0.015 -0.001,0.026 0.059,0.026l0.001,0.06l-0.131,-0.003l-0.108,0.003l0,-0.06c0.048,0 0.075,-0.026 0.075,-0.087l0,-0.095c0,-0.105 -0.031,-0.133 -0.106,-0.133c-0.061,0 -0.087,0.015 -0.087,0.015c0,0 -0.002,0.089 -0.002,0.14c0,0.057 0.002,0.125 0.002,0.125c0.003,0.022 0,0.035 0.058,0.035l0,0.06c0,0 -0.08,-0.003 -0.13,-0.003c-0.036,0 -0.103,0.003 -0.103,0.003l0,-0.06c0.055,0 0.064,-0.029 0.065,-0.063l0.002,-0.097l-0.002,-0.112c-0.001,-0.061 -0.03,-0.063 -0.065,-0.063l0,-0.055c0.105,0 0.14,-0.01 0.14,-0.01l0.022,0.044Z" style="fill-rule:nonzero;"/></g></g><g transform="matrix(1.38476,0,0,1.38476,313.661,-305.225)"><g transform="matrix(32,0,0,32,82.9501,287.269)"><path d="M0.057,-0.7l0.129,0.001c0.043,0 0.097,-0.001 0.147,-0.001c0.087,-0.001 0.197,0.021 0.265,0.087c0.056,0.055 0.108,0.134 0.108,0.273c0,0.208 -0.119,0.34 -0.303,0.34c-0.125,0 -0.145,-0.003 -0.199,-0.003l-0.154,0.003l0,-0.06c0.073,0 0.099,-0.016 0.099,-0.094c0,-0.037 0.003,-0.125 0.003,-0.226c0,-0.091 -0.003,-0.2 -0.003,-0.2c0,-0.042 -0.001,-0.061 -0.092,-0.061l0,-0.059Zm0.212,0.073c-0.003,0.002 -0.003,0.229 -0.003,0.264c0,0.101 0.003,0.196 0.003,0.196c0,0.078 0.035,0.097 0.076,0.097l0.033,-0.001c0.138,0 0.196,-0.093 0.196,-0.266c0,-0.196 -0.1,-0.293 -0.246,-0.293c-0.026,0 -0.059,0.003 -0.059,0.003Z" style="fill-rule:nonzero;"/></g><g transform="matrix(25.9459,0,0,25.9459,106.502,287.269)"><path d="M0.192,-0.416c0,0 0.071,-0.048 0.143,-0.048c0.084,0 0.125,0.05 0.125,0.05c0,0 0.081,-0.05 0.163,-0.05c0.11,0 0.175,0.073 0.173,0.19l0,0.188c0,0.021 0,0.026 0.056,0.026l0,0.06c0,0 -0.054,-0.003 -0.112,-0.003c-0.069,0 -0.126,0.003 -0.126,0.003l0,-0.06c0.053,0 0.075,-0.018 0.075,-0.087l0,-0.096c0,-0.067 -0.009,-0.132 -0.101,-0.132c-0.057,0 -0.091,0.019 -0.091,0.019c0,0 0.001,0.074 0.001,0.125c0,0.062 0.004,0.145 0.004,0.145c0.003,0.015 -0.001,0.026 0.059,0.026l0.001,0.06l-0.131,-0.003l-0.108,0.003l0,-0.06c0.048,0 0.075,-0.026 0.075,-0.087l0,-0.095c0,-0.105 -0.031,-0.133 -0.106,-0.133c-0.061,0 -0.087,0.015 -0.087,0.015c0,0 -0.002,0.089 -0.002,0.14c0,0.057 0.002,0.125 0.002,0.125c0.003,0.022 0,0.035 0.058,0.035l0,0.06c0,0 -0.08,-0.003 -0.13,-0.003c-0.036,0 -0.103,0.003 -0.103,0.003l0,-0.06c0.055,0 0.064,-0.029 0.065,-0.063l0.002,-0.097l-0.002,-0.112c-0.001,-0.061 -0.03,-0.063 -0.065,-0.063l0,-0.055c0.105,0 0.14,-0.01 0.14,-0.01l0.022,0.044Z" style="fill-rule:nonzero;"/></g></g><path d="M565.76,59.653c0,0 4.298,0.177 7.001,0.177c5.096,0 16.219,-0.177 16.219,-0.177l0,7.577l-3.147,0c0,-1.861 -0.177,-4.032 -4.298,-4.032l-6.248,0c0,0 -0.089,5.494 -0.089,10.723l3.9,0c1.994,0 1.905,-0.842 1.95,-2.703l2.747,0l0,8.287l-2.659,0c0,-1.551 0.133,-2.482 -1.95,-2.482l-3.988,0c0,4.697 0.089,10.103 0.089,10.103l7.134,0c3.988,0 4.387,-2.526 4.387,-3.988l3.501,0l0,7.533c0,0 -12.762,-0.177 -17.725,-0.177c-3.058,0 -7.046,0.177 -7.046,0.177l0,-2.658c3.191,0 4.387,-0.931 4.387,-4.343c0.044,-1.684 0.133,-5.229 0.133,-8.818c0,-3.9 -0.044,-7.888 -0.133,-9.616c0,-1.95 -0.088,-2.88 -4.165,-2.925l0,-2.658Z" style="fill-rule:nonzero;"/><path d="M677.072,57.75c0,0 5.982,0.177 9.084,0.177c3.723,0 13.914,-0.177 13.914,-0.177l0,7.533l-3.057,0c0,-2.349 -0.709,-3.944 -4.343,-3.988l-6.159,0c0,0 -0.089,8.596 -0.089,11.122l3.324,0c2.038,0 2.038,-0.975 2.038,-2.703l2.659,0l0,8.287l-2.57,0c0,-1.551 0,-2.482 -1.994,-2.482l-3.457,0c0,2.792 0.089,7.577 0.089,7.577c0.133,2.836 0.177,3.014 4.786,3.014l0,2.658l-7.578,-0.132l-6.957,0.132l0,-2.658c2.925,0 4.387,-0.709 4.387,-4.343c0,-2.216 0.133,-6.248 0.133,-9.837c0,-3.501 -0.133,-6.514 -0.133,-8.597c0,-1.95 -0.044,-2.925 -4.077,-2.925l0,-2.658Z" style="fill-rule:nonzero;"/><g transform="matrix(1.38476,0,0,1.38476,661.203,-310.934)"><g transform="matrix(32,0,0,32,83.2701,287.269)"><path d="M0.415,-0.718c0.149,0 0.221,0.058 0.221,0.058l0,0.145l-0.1,0l0,-0.015c0,-0.056 -0.036,-0.102 -0.133,-0.102c-0.132,0 -0.22,0.11 -0.22,0.273c0,0.186 0.07,0.291 0.219,0.291c0.08,0 0.123,-0.03 0.123,-0.03l0,-0.138c0,-0.027 -0.004,-0.034 -0.047,-0.034l-0.079,0l0,-0.065c0,0 0.088,0.003 0.166,0.003c0.054,0 0.111,-0.003 0.111,-0.003l0,0.065c-0.04,0 -0.04,0.012 -0.04,0.04l0,0.183c0,0 -0.096,0.065 -0.24,0.065c-0.152,0 -0.346,-0.089 -0.346,-0.363c0,-0.276 0.228,-0.373 0.365,-0.373Z" style="fill-rule:nonzero;"/></g><g transform="matrix(25.9459,0,0,25.9459,106.182,287.269)"><path d="M0.192,-0.416c0,0 0.071,-0.048 0.143,-0.048c0.084,0 0.125,0.05 0.125,0.05c0,0 0.081,-0.05 0.163,-0.05c0.11,0 0.175,0.073 0.173,0.19l0,0.188c0,0.021 0,0.026 0.056,0.026l0,0.06c0,0 -0.054,-0.003 -0.112,-0.003c-0.069,0 -0.126,0.003 -0.126,0.003l0,-0.06c0.053,0 0.075,-0.018 0.075,-0.087l0,-0.096c0,-0.067 -0.009,-0.132 -0.101,-0.132c-0.057,0 -0.091,0.019 -0.091,0.019c0,0 0.001,0.074 0.001,0.125c0,0.062 0.004,0.145 0.004,0.145c0.003,0.015 -0.001,0.026 0.059,0.026l0.001,0.06l-0.131,-0.003l-0.108,0.003l0,-0.06c0.048,0 0.075,-0.026 0.075,-0.087l0,-0.095c0,-0.105 -0.031,-0.133 -0.106,-0.133c-0.061,0 -0.087,0.015 -0.087,0.015c0,0 -0.002,0.089 -0.002,0.14c0,0.057 0.002,0.125 0.002,0.125c0.003,0.022 0,0.035 0.058,0.035l0,0.06c0,0 -0.08,-0.003 -0.13,-0.003c-0.036,0 -0.103,0.003 -0.103,0.003l0,-0.06c0.055,0 0.064,-0.029 0.065,-0.063l0.002,-0.097l-0.002,-0.112c-0.001,-0.061 -0.03,-0.063 -0.065,-0.063l0,-0.055c0.105,0 0.14,-0.01 0.14,-0.01l0.022,0.044Z" style="fill-rule:nonzero;"/></g></g><path id="flat" d="M136.375,119.676l0,33.034c0,0 0,2.227 0,6.68c2.959,-2.853 6.28,-4.314 9.962,-4.384c2.301,0 4.273,1.009 5.917,3.027c1.447,1.879 2.203,3.967 2.269,6.263c0.065,1.809 -0.362,3.897 -1.283,6.262c-0.328,0.975 -1.052,2.018 -2.169,3.132c-0.855,0.835 -1.743,1.705 -2.663,2.609c-4.866,3.758 -9.731,7.55 -14.597,11.377l0,-68l2.564,0m7.989,42.01c-0.789,-0.974 -1.808,-1.461 -3.057,-1.461c-1.578,0 -2.861,0.94 -3.847,2.818c-0.723,1.462 -1.085,4.906 -1.085,10.334l0,8.976c0.066,0.278 1.907,-1.426 5.523,-5.114c1.973,-1.949 3.255,-4.245 3.847,-6.889c0.263,-1.044 0.394,-2.088 0.394,-3.132c0,-2.296 -0.591,-4.14 -1.775,-5.532" style="fill-rule:nonzero;"/><path id="flat1" serif:id="flat" d="M161.107,76.151l0,33.034c0,0 0,2.226 0,6.68c2.959,-2.853 6.279,-4.314 9.961,-4.384c2.301,0 4.274,1.009 5.918,3.027c1.446,1.879 2.202,3.966 2.268,6.262c0.066,1.81 -0.362,3.897 -1.282,6.263c-0.329,0.974 -1.052,2.018 -2.17,3.131c-0.855,0.835 -1.742,1.705 -2.663,2.61c-4.865,3.757 -9.731,7.55 -14.597,11.377l0,-68l2.565,0m7.988,42.01c-0.789,-0.974 -1.808,-1.461 -3.057,-1.461c-1.578,0 -2.86,0.939 -3.846,2.818c-0.724,1.461 -1.085,4.906 -1.085,10.333l0,8.977c0.065,0.278 1.906,-1.427 5.523,-5.115c1.972,-1.948 3.254,-4.244 3.846,-6.889c0.263,-1.043 0.395,-2.087 0.395,-3.131c0,-2.296 -0.592,-4.14 -1.776,-5.532" style="fill-rule:nonzero;"/><g id="b"><path id="b1" serif:id="b" d="M594.871,69.294l0,-11.899c0,-0.124 -0.078,-0.217 -0.182,-0.217l-1.741,0c-0.104,0 -0.182,0.093 -0.182,0.217l0,25.525c0,0.155 0.647,0.279 0.803,0.248c3.463,-1.053 6.197,-2.601 8.176,-4.552c2.005,-2.013 3.021,-4.336 3.021,-6.999c0,-1.487 -0.365,-2.663 -1.12,-3.53c-0.755,-0.837 -1.823,-1.27 -3.177,-1.27c-1.953,0 -3.827,0.836 -5.598,2.477Zm0,11.458l0,-9.29c1.354,-1.455 2.656,-2.168 3.906,-2.168c1.562,0 2.343,1.022 2.343,3.097c0,1.889 -0.52,3.53 -1.588,4.986c-1.068,1.455 -2.63,2.601 -4.661,3.375Z"/></g><g id="b2" serif:id="b"><path id="b3" serif:id="b" d="M245.479,69.294l0,-11.899c0,-0.124 -0.078,-0.217 -0.182,-0.217l-1.741,0c-0.104,0 -0.182,0.093 -0.182,0.217l0,25.525c0,0.155 0.647,0.279 0.803,0.248c3.463,-1.053 6.197,-2.601 8.176,-4.552c2.006,-2.013 3.021,-4.336 3.021,-6.999c0,-1.487 -0.364,-2.663 -1.12,-3.53c-0.755,-0.837 -1.822,-1.27 -3.176,-1.27c-1.953,0 -3.828,0.836 -5.599,2.477Zm0,11.458l0,-9.29c1.354,-1.455 2.656,-2.168 3.906,-2.168c1.562,0 2.344,1.022 2.344,3.097c0,1.889 -0.521,3.53 -1.589,4.986c-1.068,1.455 -2.63,2.601 -4.661,3.375Z"/></g></svg>