<?xml version="1.0" encoding="UTF-8"?>
<svg width="620px" height="540px" viewBox="0 0 620 540" version="1.1" xmlns="http://www.w3.org/2000/svg" xmlns:xlink="http://www.w3.org/1999/xlink">
    <!-- Generator: Sketch 61.2 (89653) - https://sketch.com -->
    <title>2-5_A</title>
    <desc>Created with Sketch.</desc>
    <g id="2-5_A" stroke="none" stroke-width="1" fill="none" fill-rule="evenodd">
        <g id="co5th" opacity="0.403320312" transform="translate(25.000000, 0.000000)">
            <path d="M128,424.464115 C155.20792,451.57674 189.098801,471.074938 226.266084,481 L283,270 L128,424.464115 Z" id="Pie-Odd" fill="#E3E3E3" fill-rule="evenodd"></path>
            <path d="M71.4620828,213 C66.5089187,231.427635 64,250.422964 64,269.500711 C64,288.578457 66.5089187,307.573075 71.4620828,326 L283,269.500711 L71.4620828,213 Z" id="Pie-Odd" fill="#E3E3E3" fill-rule="evenodd"></path>
            <path d="M226.266084,59 C189.098801,68.9243347 155.20792,88.4232101 128,115.537212 L283,270 L226.266084,59 Z" id="Pie-Odd" fill="#E3E3E3" fill-rule="evenodd"></path>
            <path d="M437,115.537212 C409.791515,88.4232101 375.900784,68.9243347 338.732295,59 L282,270 L437,115.537212 Z" id="Pie-Odd" fill="#E3E3E3" fill-rule="evenodd"></path>
            <path d="M493.536891,326 C498.491766,307.573075 501,288.578457 501,269.500711 C501,250.422964 498.491766,231.427635 493.536891,213 L282,269.500711 L493.536891,326 Z" id="Pie-Odd" fill="#E3E3E3" fill-rule="evenodd"></path>
            <path d="M338.732295,481 C375.900784,471.074938 409.791515,451.57674 437,424.464115 L282,270 L338.732295,481 Z" id="Pie-Odd" fill="#E3E3E3" fill-rule="evenodd"></path>
            <path d="M71,326.732026 C80.9244847,363.901777 100.423604,397.789745 127.537513,425 L282,270 L71,326.732026 Z" id="Pie-Even" fill="#E8E8E8" fill-rule="evenodd"></path>
            <path d="M127.537513,115 C100.423604,142.208303 80.9244847,176.099002 71,213.266155 L282,270 L127.537513,115 Z" id="Pie-Even" fill="#E8E8E8" fill-rule="evenodd"></path>
            <path d="M339,58.4623938 C320.573937,53.5086103 301.578241,51 282.500682,51 C263.423123,51 244.427428,53.5086103 226,58.4623938 L282.500682,270 L339,58.4623938 Z" id="Pie-Even" fill="#E8E8E8" fill-rule="evenodd"></path>
            <path d="M494,213.266155 C484.077856,176.099002 464.578301,142.208303 437.463919,115 L283,270 L494,213.266155 Z" id="Pie-Even" fill="#E8E8E8" fill-rule="evenodd"></path>
            <path d="M437.463919,425 C464.578301,397.789745 484.077856,363.901777 494,326.732026 L283,270 L437.463919,425 Z" id="Pie-Even" fill="#E8E8E8" fill-rule="evenodd"></path>
            <path d="M226,481.53725 C244.427428,486.491033 263.423123,489 282.500682,489 C301.578241,489 320.573937,486.491033 339,481.53725 L282.500682,270 L226,481.53725 Z" id="Pie-Even" fill="#E8E8E8" fill-rule="evenodd"></path>
            <path d="M282.5,51 C403.09493,51 501,148.90649 501,269.5 C501,390.092799 403.09493,488 282.5,488 C161.906436,488 64,390.092799 64,269.5 C64,148.90649 161.906436,51 282.5,51 Z M282.5,72.85 C391.033047,72.85 479.15,160.96577 479.15,269.5 C479.15,378.035297 391.033047,466.15 282.5,466.15 C173.965929,466.15 85.85,378.035297 85.85,269.5 C85.85,160.96577 173.965929,72.85 282.5,72.85 Z" id="Shape" fill-opacity="0.4" fill="#FFFFFF" fill-rule="evenodd" opacity="0.504650298"></path>
            <path d="M283,121 C365.236359,121 432,187.764609 432,270 C432,352.234906 365.236359,419 283,419 C200.764572,419 134,352.234906 134,270 C134,187.764609 200.764572,121 283,121 Z M283,128.45 C361.122563,128.45 424.55,191.876475 424.55,270 C424.55,348.122555 361.122563,411.551212 283,411.551212 C204.876506,411.551212 141.45,348.122555 141.45,270 C141.45,191.876475 204.876506,128.45 283,128.45 Z" id="Shape" fill-opacity="0.4" fill="#FFFFFF" fill-rule="evenodd" opacity="0.504650298"></path>
            <path d="M283,173 C336.536422,173 380,216.464208 380,270 C380,323.535476 336.536422,367 283,367 C229.464184,367 186,323.535476 186,270 C186,216.464208 229.464184,173 283,173 Z M283,177.85 C333.858313,177.85 375.15,219.141061 375.15,270 C375.15,320.858308 333.858313,362.150789 283,362.150789 C232.141081,362.150789 190.85,320.858308 190.85,270 C190.85,219.141061 232.141081,177.85 283,177.85 Z" id="Shape" fill-opacity="0.4" fill="#FFFFFF" fill-rule="evenodd" opacity="0.504650298"></path>
            <g id="CS-Root" opacity="0.795526414" transform="translate(417.000000, 257.000000)" fill="#0C0C0C" fill-rule="nonzero">
                <path d="M3.166,24 L4.606,19.86 L13.822,19.86 L15.19,24 L20.59,24 L12.382,-0.012 L6.226,-0.012 L-2.054,24 L3.166,24 Z M12.526,15.828 L5.866,15.828 L9.214,5.892 L12.526,15.828 Z" id="Combined-Shape"></path>
            </g>
            <g id="CS-Root" opacity="0.795526414" transform="translate(114.000000, 257.000000)" fill="#0C0C0C" fill-rule="nonzero">
                <path d="M15.964,24 L15.964,19.968 L7.54,19.968 L7.54,13.956 L15.964,13.956 L15.964,9.924 L7.54,9.924 L7.54,4.02 L15.964,4.02 L15.964,-0.012 L2.608,-0.012 L2.608,24 L15.964,24 Z" id="Combined-Shape"></path>
            </g>
            <g id="CS-Root" opacity="0.795526414" transform="translate(396.000000, 186.000000)" fill="#0C0C0C" fill-rule="nonzero">
                <path d="M7.324,24 C10.78,24 13.66,23.028 15.64,21.228 C18.088,19.032 19.456,15.576 19.456,11.724 C19.456,7.944 18.124,4.812 15.676,2.652 C13.552,0.78 10.924,-0.012 7.036,-0.012 L0.232,-0.012 L0.232,24 L7.324,24 Z M6.1,19.932 L5.164,19.932 L5.164,3.984 L6.964,3.984 C11.536,3.984 14.452,7.08 14.452,11.868 C14.452,14.532 13.48,16.8 11.752,18.276 C10.348,19.464 8.728,19.932 6.1,19.932 Z" id="Combined-Shape"></path>
            </g>
            <g id="CS-Root" opacity="0.795526414" transform="translate(138.000000, 186.000000)" fill="#0C0C0C" fill-rule="nonzero">
                <path d="M10.33,24 C12.958,24 14.434,23.676 15.694,22.848 C17.242,21.804 18.178,19.824 18.178,17.592 C18.178,15.756 17.566,14.28 16.45,13.272 C15.694,12.588 15.046,12.3 13.606,11.976 C14.902,11.544 15.442,11.22 16.126,10.536 C17.134,9.456 17.638,8.088 17.638,6.432 C17.638,4.308 16.81,2.472 15.334,1.356 C14.074,0.42 12.166,-0.012 9.214,-0.012 L1.474,-0.012 L1.474,24 L10.33,24 Z M8.386,10.176 L6.406,10.176 L6.406,3.732 L8.134,3.732 C9.538,3.732 10.546,3.876 11.23,4.2 C12.094,4.632 12.67,5.676 12.67,6.9 C12.67,9.132 11.302,10.176 8.386,10.176 Z M8.818,20.364 L6.406,20.364 L6.406,13.848 L8.53,13.848 C10.33,13.848 11.086,13.992 11.842,14.424 C12.742,14.964 13.21,15.864 13.21,17.16 C13.21,18.312 12.814,19.176 12.022,19.716 C11.302,20.22 10.51,20.364 8.818,20.364 Z" id="Combined-Shape"></path>
            </g>
            <g id="CS-Root" opacity="0.795526414" transform="translate(398.000000, 328.000000)" fill="#0C0C0C" fill-rule="nonzero">
                <path d="M15.964,24 L15.964,19.968 L7.54,19.968 L7.54,13.956 L15.964,13.956 L15.964,9.924 L7.54,9.924 L7.54,4.02 L15.964,4.02 L15.964,-0.012 L2.608,-0.012 L2.608,24 L15.964,24 Z" id="Combined-Shape"></path>
            </g>
            <g id="CS-Root" opacity="0.795526414" transform="translate(136.000000, 328.000000)" fill="#0C0C0C" fill-rule="nonzero">
                <path d="M3.166,24 L4.606,19.86 L13.822,19.86 L15.19,24 L20.59,24 L12.382,-0.012 L6.226,-0.012 L-2.054,24 L3.166,24 Z M12.526,15.828 L5.866,15.828 L9.214,5.892 L12.526,15.828 Z" id="Combined-Shape"></path>
            </g>
            <g id="CS-Root" opacity="0.795526414" transform="translate(343.000000, 128.000000)" fill="#0C0C0C" fill-rule="nonzero">
                <path d="M9.394,24.468 C12.778,24.468 15.838,23.172 18.25,20.76 C20.662,18.312 21.742,15.54 21.742,11.832 L21.742,10.536 L9.718,10.536 L9.718,14.568 L16.414,14.568 C16.018,16.008 15.658,16.764 14.938,17.592 C13.678,19.104 11.626,20.004 9.574,20.004 C5.362,20.004 2.05,16.512 2.05,12.048 C2.05,7.512 5.254,4.056 9.466,4.056 C11.842,4.056 13.606,4.956 15.37,7.044 L19.078,4.128 C16.738,1.176 13.246,-0.48 9.358,-0.48 C2.302,-0.48 -2.954,4.884 -2.954,12.048 C-2.954,19.14 2.338,24.468 9.394,24.468 Z" id="Combined-Shape"></path>
            </g>
            <g id="CS-Root" opacity="0.795526414" transform="translate(193.000000, 128.000000)" fill="#0C0C0C" fill-rule="nonzero">
                <path d="M8.296,24 L8.296,13.956 L16.72,13.956 L16.72,9.924 L8.296,9.924 L8.296,4.02 L16.72,4.02 L16.72,-0.012 L3.364,-0.012 L3.364,24 L8.296,24 Z" id="Combined-Shape"></path>
            </g>
            <g id="CS-Root" opacity="0.795526414" transform="translate(344.000000, 385.000000)" fill="#0C0C0C" fill-rule="nonzero">
                <path d="M10.33,24 C12.958,24 14.434,23.676 15.694,22.848 C17.242,21.804 18.178,19.824 18.178,17.592 C18.178,15.756 17.566,14.28 16.45,13.272 C15.694,12.588 15.046,12.3 13.606,11.976 C14.902,11.544 15.442,11.22 16.126,10.536 C17.134,9.456 17.638,8.088 17.638,6.432 C17.638,4.308 16.81,2.472 15.334,1.356 C14.074,0.42 12.166,-0.012 9.214,-0.012 L1.474,-0.012 L1.474,24 L10.33,24 Z M8.386,10.176 L6.406,10.176 L6.406,3.732 L8.134,3.732 C9.538,3.732 10.546,3.876 11.23,4.2 C12.094,4.632 12.67,5.676 12.67,6.9 C12.67,9.132 11.302,10.176 8.386,10.176 Z M8.818,20.364 L6.406,20.364 L6.406,13.848 L8.53,13.848 C10.33,13.848 11.086,13.992 11.842,14.424 C12.742,14.964 13.21,15.864 13.21,17.16 C13.21,18.312 12.814,19.176 12.022,19.716 C11.302,20.22 10.51,20.364 8.818,20.364 Z" id="Combined-Shape"></path>
            </g>
            <g id="CS-Root" opacity="0.795526414" transform="translate(189.000000, 386.000000)" fill="#0C0C0C" fill-rule="nonzero">
                <path d="M7.324,24 C10.78,24 13.66,23.028 15.64,21.228 C18.088,19.032 19.456,15.576 19.456,11.724 C19.456,7.944 18.124,4.812 15.676,2.652 C13.552,0.78 10.924,-0.012 7.036,-0.012 L0.232,-0.012 L0.232,24 L7.324,24 Z M6.1,19.932 L5.164,19.932 L5.164,3.984 L6.964,3.984 C11.536,3.984 14.452,7.08 14.452,11.868 C14.452,14.532 13.48,16.8 11.752,18.276 C10.348,19.464 8.728,19.932 6.1,19.932 Z" id="Combined-Shape"></path>
            </g>
            <g id="CS-Root" opacity="0.795526414" transform="translate(271.000000, 107.000000)" fill="#0C0C0C" fill-rule="nonzero">
                <path d="M10.996,24.468 C14.56,24.468 17.152,23.424 19.924,20.832 L16.936,17.448 C15.46,19.14 13.768,19.896 11.572,19.896 C7.252,19.896 4.156,16.548 4.156,11.94 C4.156,7.332 7.108,4.092 11.32,4.092 C13.336,4.092 14.992,4.812 16.936,6.576 L20.14,3.336 C17.296,0.564 14.776,-0.48 11.068,-0.48 C4.12,-0.48 -0.848,4.74 -0.848,12.048 C-0.848,15.36 0.34,18.6 2.392,20.868 C4.516,23.244 7.432,24.468 10.996,24.468 Z" id="Combined-Shape"></path>
            </g>
            <g id="CS-Root" opacity="0.795526414" transform="translate(274.000000, 411.000000)" fill="#0C0C0C" fill-rule="nonzero">
                <path d="M8.296,24 L8.296,13.956 L16.72,13.956 L16.72,9.924 L8.296,9.924 L8.296,4.02 L16.72,4.02 L16.72,-0.012 L3.364,-0.012 L3.364,24 L8.296,24 Z" id="Combined-Shape"></path>
            </g>
            <g id="sharp" opacity="0.795526414" transform="translate(291.000000, 406.000000)" fill="#0C0C0C" fill-rule="nonzero">
                <path d="M2.23643297,15.3530248 L2.23643297,9.40894014 L4.58316222,8.71142 L4.58316222,14.6251777 L2.23643297,15.3530248 Z M6.85714286,13.9150213 L5.2437665,14.412889 L5.2437665,8.49913126 L6.85714286,8.01389986 L6.85714286,5.55741589 L5.2437665,6.04264729 L5.2437665,0 L4.58316222,0 L4.58316222,6.22587269 L2.23643297,6.95245617 L2.23643297,1.07660717 L1.61337636,1.07660717 L1.61337636,7.17611752 L0,7.66261254 L0,10.124151 L1.61337636,9.6389196 L1.61337636,15.5413047 L0,16.0252725 L0,18.4767019 L1.61337636,17.9914705 L1.61337636,24 L2.23643297,24 L2.23643297,17.7766546 L4.58316222,17.0816617 L4.58316222,22.9271837 L5.2437665,22.9271837 L5.2437665,16.8617912 L6.85714286,16.3752962 L6.85714286,13.9150213 Z"></path>
            </g>
            <g id="flat" opacity="0.795526414" transform="translate(211.000000, 384.000000)" fill="#0C0C0C" fill-rule="nonzero">
                <path d="M0.990425449,6.53975447 C0.990425449,6.53975447 0.990425449,7.39677694 0.990425449,9.1112345 C2.13274649,8.01282631 3.41496046,7.45041821 4.83665349,7.42359757 C5.72526337,7.42359757 6.48681072,7.81229048 7.12170944,8.58885104 C7.68003955,9.31218296 7.97182807,10.1155642 7.99748891,10.9998199 C8.02273586,11.6963312 7.85759597,12.4997124 7.50248312,13.4103761 C7.3754206,13.7854524 7.09604861,14.1873493 6.66436715,14.6156542 C6.33450125,14.9375018 5.99180494,15.2721409 5.63627821,15.6203965 C3.75765677,17.0666477 1.87903533,18.5265155 0,20 L0,0 L0.990425449,0 L0.990425449,6.53975447 Z M4.07510613,9.99507761 C3.77048719,9.62000133 3.37688309,9.4326695 2.89429384,9.4326695 C2.28505596,9.4326695 1.79005017,9.79412915 1.4092765,10.5174611 C1.1299045,11.0798692 0.990425449,12.4060464 0.990425449,14.4951677 L0.990425449,17.9509034 C1.0156724,18.0577733 1.72672586,17.4016993 3.12275805,15.9818561 C3.88471929,15.2321162 4.37972507,14.3478605 4.60818928,13.3299142 C4.70959097,12.9284299 4.76049875,12.526533 4.76049875,12.1246361 C4.76049875,11.240793 4.53203455,10.5310777 4.07510613,9.99507761"></path>
            </g>
            <g id="flat" opacity="0.795526414" transform="translate(157.000000, 326.000000)" fill="#0C0C0C" fill-rule="nonzero">
                <path d="M0.990425449,6.53975447 C0.990425449,6.53975447 0.990425449,7.39677694 0.990425449,9.1112345 C2.13274649,8.01282631 3.41496046,7.45041821 4.83665349,7.42359757 C5.72526337,7.42359757 6.48681072,7.81229048 7.12170944,8.58885104 C7.68003955,9.31218296 7.97182807,10.1155642 7.99748891,10.9998199 C8.02273586,11.6963312 7.85759597,12.4997124 7.50248312,13.4103761 C7.3754206,13.7854524 7.09604861,14.1873493 6.66436715,14.6156542 C6.33450125,14.9375018 5.99180494,15.2721409 5.63627821,15.6203965 C3.75765677,17.0666477 1.87903533,18.5265155 0,20 L0,0 L0.990425449,0 L0.990425449,6.53975447 Z M4.07510613,9.99507761 C3.77048719,9.62000133 3.37688309,9.4326695 2.89429384,9.4326695 C2.28505596,9.4326695 1.79005017,9.79412915 1.4092765,10.5174611 C1.1299045,11.0798692 0.990425449,12.4060464 0.990425449,14.4951677 L0.990425449,17.9509034 C1.0156724,18.0577733 1.72672586,17.4016993 3.12275805,15.9818561 C3.88471929,15.2321162 4.37972507,14.3478605 4.60818928,13.3299142 C4.70959097,12.9284299 4.76049875,12.526533 4.76049875,12.1246361 C4.76049875,11.240793 4.53203455,10.5310777 4.07510613,9.99507761"></path>
            </g>
            <g id="flat" opacity="0.795526414" transform="translate(134.000000, 255.000000)" fill="#0C0C0C" fill-rule="nonzero">
                <path d="M0.990425449,6.53975447 C0.990425449,6.53975447 0.990425449,7.39677694 0.990425449,9.1112345 C2.13274649,8.01282631 3.41496046,7.45041821 4.83665349,7.42359757 C5.72526337,7.42359757 6.48681072,7.81229048 7.12170944,8.58885104 C7.68003955,9.31218296 7.97182807,10.1155642 7.99748891,10.9998199 C8.02273586,11.6963312 7.85759597,12.4997124 7.50248312,13.4103761 C7.3754206,13.7854524 7.09604861,14.1873493 6.66436715,14.6156542 C6.33450125,14.9375018 5.99180494,15.2721409 5.63627821,15.6203965 C3.75765677,17.0666477 1.87903533,18.5265155 0,20 L0,0 L0.990425449,0 L0.990425449,6.53975447 Z M4.07510613,9.99507761 C3.77048719,9.62000133 3.37688309,9.4326695 2.89429384,9.4326695 C2.28505596,9.4326695 1.79005017,9.79412915 1.4092765,10.5174611 C1.1299045,11.0798692 0.990425449,12.4060464 0.990425449,14.4951677 L0.990425449,17.9509034 C1.0156724,18.0577733 1.72672586,17.4016993 3.12275805,15.9818561 C3.88471929,15.2321162 4.37972507,14.3478605 4.60818928,13.3299142 C4.70959097,12.9284299 4.76049875,12.526533 4.76049875,12.1246361 C4.76049875,11.240793 4.53203455,10.5310777 4.07510613,9.99507761"></path>
            </g>
            <g id="flat" opacity="0.795526414" transform="translate(159.000000, 185.000000)" fill="#0C0C0C" fill-rule="nonzero">
                <path d="M0.990425449,6.53975447 C0.990425449,6.53975447 0.990425449,7.39677694 0.990425449,9.1112345 C2.13274649,8.01282631 3.41496046,7.45041821 4.83665349,7.42359757 C5.72526337,7.42359757 6.48681072,7.81229048 7.12170944,8.58885104 C7.68003955,9.31218296 7.97182807,10.1155642 7.99748891,10.9998199 C8.02273586,11.6963312 7.85759597,12.4997124 7.50248312,13.4103761 C7.3754206,13.7854524 7.09604861,14.1873493 6.66436715,14.6156542 C6.33450125,14.9375018 5.99180494,15.2721409 5.63627821,15.6203965 C3.75765677,17.0666477 1.87903533,18.5265155 0,20 L0,0 L0.990425449,0 L0.990425449,6.53975447 Z M4.07510613,9.99507761 C3.77048719,9.62000133 3.37688309,9.4326695 2.89429384,9.4326695 C2.28505596,9.4326695 1.79005017,9.79412915 1.4092765,10.5174611 C1.1299045,11.0798692 0.990425449,12.4060464 0.990425449,14.4951677 L0.990425449,17.9509034 C1.0156724,18.0577733 1.72672586,17.4016993 3.12275805,15.9818561 C3.88471929,15.2321162 4.37972507,14.3478605 4.60818928,13.3299142 C4.70959097,12.9284299 4.76049875,12.526533 4.76049875,12.1246361 C4.76049875,11.240793 4.53203455,10.5310777 4.07510613,9.99507761"></path>
            </g>
            <g id="Minor-Keys" stroke-width="1" fill-rule="evenodd" transform="translate(165.000000, 151.000000)" fill="#0C0C0C" opacity="0.799827939">
                <g id="CS-Root" transform="translate(101.000000, 11.000000)" fill-rule="nonzero">
                    <path d="M4.7662,17 L5.7742,14.102 L12.2254,14.102 L13.183,17 L16.963,17 L11.2174,0.1916 L6.9082,0.1916 L1.1122,17 L4.7662,17 Z M11.3182,11.2796 L6.6562,11.2796 L8.9998,4.3244 L11.3182,11.2796 Z" id="Combined-Shape"></path>
                </g>
                <g id="CS-m7" transform="translate(111.000000, 0.000000)" fill-rule="nonzero">
                    <path d="M10.8061381,28.2496798 L10.8061381,22.3096798 C10.8061381,20.9272798 11.3461381,20.2144798 12.3829381,20.2144798 C13.3765381,20.2144798 13.8949381,20.9272798 13.8949381,22.3096798 L13.8949381,28.2496798 L16.6381381,28.2496798 L16.6381381,22.2232798 C16.6381381,20.9488798 17.2213381,20.2144798 18.2365381,20.2144798 C19.2733381,20.2144798 19.7701381,20.8624798 19.7701381,22.2232798 L19.7701381,28.2496798 L22.5133381,28.2496798 L22.5133381,21.7048798 C22.5133381,20.1928798 22.3189381,19.5016798 21.7141381,18.8320798 C21.1525381,18.2272798 20.3101381,17.9032798 19.2949381,17.9032798 C17.8693381,17.9032798 16.9405381,18.4216798 16.2709381,19.5664798 C15.7957381,18.4864798 14.8453381,17.9032798 13.5493381,17.9032798 C12.2749381,17.9032798 11.4325381,18.4000798 10.8061381,19.5016798 L10.8061381,18.2488798 L8.06293811,18.2488798 L8.06293811,28.2496798 L10.8061381,28.2496798 Z" id="Combined-Shape"></path>
                </g>
                <g id="CS-Root" transform="translate(148.000000, 28.000000)" fill-rule="nonzero">
                    <path d="M13.7248,17 L13.7248,14.1776 L7.828,14.1776 L7.828,9.9692 L13.7248,9.9692 L13.7248,7.1468 L7.828,7.1468 L7.828,3.014 L13.7248,3.014 L13.7248,0.1916 L4.3756,0.1916 L4.3756,17 L13.7248,17 Z" id="Combined-Shape"></path>
                </g>
                <g id="CS-m7" transform="translate(156.000000, 17.000000)" fill-rule="nonzero">
                    <path d="M10.8061381,28.2496798 L10.8061381,22.3096798 C10.8061381,20.9272798 11.3461381,20.2144798 12.3829381,20.2144798 C13.3765381,20.2144798 13.8949381,20.9272798 13.8949381,22.3096798 L13.8949381,28.2496798 L16.6381381,28.2496798 L16.6381381,22.2232798 C16.6381381,20.9488798 17.2213381,20.2144798 18.2365381,20.2144798 C19.2733381,20.2144798 19.7701381,20.8624798 19.7701381,22.2232798 L19.7701381,28.2496798 L22.5133381,28.2496798 L22.5133381,21.7048798 C22.5133381,20.1928798 22.3189381,19.5016798 21.7141381,18.8320798 C21.1525381,18.2272798 20.3101381,17.9032798 19.2949381,17.9032798 C17.8693381,17.9032798 16.9405381,18.4216798 16.2709381,19.5664798 C15.7957381,18.4864798 14.8453381,17.9032798 13.5493381,17.9032798 C12.2749381,17.9032798 11.4325381,18.4000798 10.8061381,19.5016798 L10.8061381,18.2488798 L8.06293811,18.2488798 L8.06293811,28.2496798 L10.8061381,28.2496798 Z" id="Combined-Shape"></path>
                </g>
                <g id="CS-Root" transform="translate(178.000000, 67.000000)" fill-rule="nonzero">
                    <path d="M9.781,17 C11.6206,17 12.6538,16.7732 13.5358,16.1936 C14.6194,15.4628 15.2746,14.0768 15.2746,12.5144 C15.2746,11.2292 14.8462,10.196 14.065,9.4904 C13.5358,9.0116 13.0822,8.81 12.0742,8.5832 C12.9814,8.2808 13.3594,8.054 13.8382,7.5752 C14.5438,6.8192 14.8966,5.8616 14.8966,4.7024 C14.8966,3.2156 14.317,1.9304 13.2838,1.1492 C12.4018,0.494 11.0662,0.1916 8.9998,0.1916 L3.5818,0.1916 L3.5818,17 L9.781,17 Z M8.4202,7.3232 L7.0342,7.3232 L7.0342,2.8124 L8.2438,2.8124 C9.2266,2.8124 9.9322,2.9132 10.411,3.14 C11.0158,3.4424 11.419,4.1732 11.419,5.03 C11.419,6.5924 10.4614,7.3232 8.4202,7.3232 Z M8.7226,14.4548 L7.0342,14.4548 L7.0342,9.8936 L8.521,9.8936 C9.781,9.8936 10.3102,9.9944 10.8394,10.2968 C11.4694,10.6748 11.797,11.3048 11.797,12.212 C11.797,13.0184 11.5198,13.6232 10.9654,14.0012 C10.4614,14.354 9.907,14.4548 8.7226,14.4548 Z" id="Combined-Shape"></path>
                </g>
                <g id="CS-m7" transform="translate(188.000000, 56.000000)" fill-rule="nonzero">
                    <path d="M10.8061381,28.2496798 L10.8061381,22.3096798 C10.8061381,20.9272798 11.3461381,20.2144798 12.3829381,20.2144798 C13.3765381,20.2144798 13.8949381,20.9272798 13.8949381,22.3096798 L13.8949381,28.2496798 L16.6381381,28.2496798 L16.6381381,22.2232798 C16.6381381,20.9488798 17.2213381,20.2144798 18.2365381,20.2144798 C19.2733381,20.2144798 19.7701381,20.8624798 19.7701381,22.2232798 L19.7701381,28.2496798 L22.5133381,28.2496798 L22.5133381,21.7048798 C22.5133381,20.1928798 22.3189381,19.5016798 21.7141381,18.8320798 C21.1525381,18.2272798 20.3101381,17.9032798 19.2949381,17.9032798 C17.8693381,17.9032798 16.9405381,18.4216798 16.2709381,19.5664798 C15.7957381,18.4864798 14.8453381,17.9032798 13.5493381,17.9032798 C12.2749381,17.9032798 11.4325381,18.4000798 10.8061381,19.5016798 L10.8061381,18.2488798 L8.06293811,18.2488798 L8.06293811,28.2496798 L10.8061381,28.2496798 Z" id="Combined-Shape"></path>
                </g>
                <g id="CS-Root" transform="translate(188.000000, 111.000000)" fill-rule="nonzero">
                    <path d="M8.3572,17 L8.3572,9.9692 L14.254,9.9692 L14.254,7.1468 L8.3572,7.1468 L8.3572,3.014 L14.254,3.014 L14.254,0.1916 L4.9048,0.1916 L4.9048,17 L8.3572,17 Z" id="Combined-Shape"></path>
                </g>
                <g id="sharp" transform="translate(196.000000, 151.000000)" fill-rule="nonzero">
                    <path d="M1.39777061,8.95593113 L1.39777061,5.48854841 L2.86447639,5.08166166 L2.86447639,8.53135366 L1.39777061,8.95593113 Z M4.28571429,8.11709577 L3.27735406,8.40751856 L3.27735406,4.95782657 L4.28571429,4.67477492 L4.28571429,3.24182594 L3.27735406,3.52487759 L3.27735406,0 L2.86447639,0 L2.86447639,3.63175907 L1.39777061,4.05559943 L1.39777061,0.62802085 L1.00836022,0.62802085 L1.00836022,4.18606855 L0,4.46985732 L0,5.90575475 L1.00836022,5.6227031 L1.00836022,9.06576107 L0,9.34807561 L0,10.7780761 L1.00836022,10.4950245 L1.00836022,14 L1.39777061,14 L1.39777061,10.3697152 L2.86447639,9.96430264 L2.86447639,13.3741905 L3.27735406,13.3741905 L3.27735406,9.83604486 L4.28571429,9.55225609 L4.28571429,8.11709577 Z"></path>
                </g>
                <g id="sharp" transform="translate(204.000000, 111.000000)" fill-rule="nonzero">
                    <path d="M1.39777061,8.95593113 L1.39777061,5.48854841 L2.86447639,5.08166166 L2.86447639,8.53135366 L1.39777061,8.95593113 Z M4.28571429,8.11709577 L3.27735406,8.40751856 L3.27735406,4.95782657 L4.28571429,4.67477492 L4.28571429,3.24182594 L3.27735406,3.52487759 L3.27735406,0 L2.86447639,0 L2.86447639,3.63175907 L1.39777061,4.05559943 L1.39777061,0.62802085 L1.00836022,0.62802085 L1.00836022,4.18606855 L0,4.46985732 L0,5.90575475 L1.00836022,5.6227031 L1.00836022,9.06576107 L0,9.34807561 L0,10.7780761 L1.00836022,10.4950245 L1.00836022,14 L1.39777061,14 L1.39777061,10.3697152 L2.86447639,9.96430264 L2.86447639,13.3741905 L3.27735406,13.3741905 L3.27735406,9.83604486 L4.28571429,9.55225609 L4.28571429,8.11709577 Z"></path>
                </g>
                <g id="CS-m7" transform="translate(202.000000, 100.000000)" fill-rule="nonzero">
                    <path d="M10.8061381,28.2496798 L10.8061381,22.3096798 C10.8061381,20.9272798 11.3461381,20.2144798 12.3829381,20.2144798 C13.3765381,20.2144798 13.8949381,20.9272798 13.8949381,22.3096798 L13.8949381,28.2496798 L16.6381381,28.2496798 L16.6381381,22.2232798 C16.6381381,20.9488798 17.2213381,20.2144798 18.2365381,20.2144798 C19.2733381,20.2144798 19.7701381,20.8624798 19.7701381,22.2232798 L19.7701381,28.2496798 L22.5133381,28.2496798 L22.5133381,21.7048798 C22.5133381,20.1928798 22.3189381,19.5016798 21.7141381,18.8320798 C21.1525381,18.2272798 20.3101381,17.9032798 19.2949381,17.9032798 C17.8693381,17.9032798 16.9405381,18.4216798 16.2709381,19.5664798 C15.7957381,18.4864798 14.8453381,17.9032798 13.5493381,17.9032798 C12.2749381,17.9032798 11.4325381,18.4000798 10.8061381,19.5016798 L10.8061381,18.2488798 L8.06293811,18.2488798 L8.06293811,28.2496798 L10.8061381,28.2496798 Z" id="Combined-Shape"></path>
                </g>
                <g id="CS-Root" transform="translate(178.000000, 154.000000)" fill-rule="nonzero">
                    <path d="M10.2472,17.3276 C12.742,17.3276 14.5564,16.5968 16.4968,14.7824 L14.4052,12.4136 C13.372,13.598 12.1876,14.1272 10.6504,14.1272 C7.6264,14.1272 5.4592,11.7836 5.4592,8.558 C5.4592,5.3324 7.5256,3.0644 10.474,3.0644 C11.8852,3.0644 13.0444,3.5684 14.4052,4.8032 L16.648,2.5352 C14.6572,0.5948 12.8932,-0.136 10.2976,-0.136 C5.434,-0.136 1.9564,3.518 1.9564,8.6336 C1.9564,10.952 2.788,13.22 4.2244,14.8076 C5.7112,16.4708 7.7524,17.3276 10.2472,17.3276 Z" id="Combined-Shape"></path>
                </g>
                <g id="CS-m7" transform="translate(194.000000, 143.000000)" fill-rule="nonzero">
                    <path d="M10.8061381,28.2496798 L10.8061381,22.3096798 C10.8061381,20.9272798 11.3461381,20.2144798 12.3829381,20.2144798 C13.3765381,20.2144798 13.8949381,20.9272798 13.8949381,22.3096798 L13.8949381,28.2496798 L16.6381381,28.2496798 L16.6381381,22.2232798 C16.6381381,20.9488798 17.2213381,20.2144798 18.2365381,20.2144798 C19.2733381,20.2144798 19.7701381,20.8624798 19.7701381,22.2232798 L19.7701381,28.2496798 L22.5133381,28.2496798 L22.5133381,21.7048798 C22.5133381,20.1928798 22.3189381,19.5016798 21.7141381,18.8320798 C21.1525381,18.2272798 20.3101381,17.9032798 19.2949381,17.9032798 C17.8693381,17.9032798 16.9405381,18.4216798 16.2709381,19.5664798 C15.7957381,18.4864798 14.8453381,17.9032798 13.5493381,17.9032798 C12.2749381,17.9032798 11.4325381,18.4000798 10.8061381,19.5016798 L10.8061381,18.2488798 L8.06293811,18.2488798 L8.06293811,28.2496798 L10.8061381,28.2496798 Z" id="Combined-Shape"></path>
                </g>
                <g id="CS-Root" transform="translate(148.000000, 193.000000)" fill-rule="nonzero">
                    <path d="M9.1258,17.3276 C11.4946,17.3276 13.6366,16.4204 15.325,14.732 C17.0134,13.0184 17.7694,11.078 17.7694,8.4824 L17.7694,7.5752 L9.3526,7.5752 L9.3526,10.3976 L14.0398,10.3976 C13.7626,11.4056 13.5106,11.9348 13.0066,12.5144 C12.1246,13.5728 10.6882,14.2028 9.2518,14.2028 C6.3034,14.2028 3.985,11.7584 3.985,8.6336 C3.985,5.4584 6.2278,3.0392 9.1762,3.0392 C10.8394,3.0392 12.0742,3.6692 13.309,5.1308 L15.9046,3.0896 C14.2666,1.0232 11.8222,-0.136 9.1006,-0.136 C4.1614,-0.136 0.4822,3.6188 0.4822,8.6336 C0.4822,13.598 4.1866,17.3276 9.1258,17.3276 Z" id="Combined-Shape"></path>
                </g>
                <g id="CS-m7" transform="translate(164.000000, 182.000000)" fill-rule="nonzero">
                    <path d="M10.8061381,28.2496798 L10.8061381,22.3096798 C10.8061381,20.9272798 11.3461381,20.2144798 12.3829381,20.2144798 C13.3765381,20.2144798 13.8949381,20.9272798 13.8949381,22.3096798 L13.8949381,28.2496798 L16.6381381,28.2496798 L16.6381381,22.2232798 C16.6381381,20.9488798 17.2213381,20.2144798 18.2365381,20.2144798 C19.2733381,20.2144798 19.7701381,20.8624798 19.7701381,22.2232798 L19.7701381,28.2496798 L22.5133381,28.2496798 L22.5133381,21.7048798 C22.5133381,20.1928798 22.3189381,19.5016798 21.7141381,18.8320798 C21.1525381,18.2272798 20.3101381,17.9032798 19.2949381,17.9032798 C17.8693381,17.9032798 16.9405381,18.4216798 16.2709381,19.5664798 C15.7957381,18.4864798 14.8453381,17.9032798 13.5493381,17.9032798 C12.2749381,17.9032798 11.4325381,18.4000798 10.8061381,19.5016798 L10.8061381,18.2488798 L8.06293811,18.2488798 L8.06293811,28.2496798 L10.8061381,28.2496798 Z" id="Combined-Shape"></path>
                </g>
                <g id="CS-Root" transform="translate(98.000000, 203.000000)" fill-rule="nonzero">
                    <path d="M7.6768,17 C10.096,17 12.112,16.3196 13.498,15.0596 C15.2116,13.5224 16.1692,11.1032 16.1692,8.4068 C16.1692,5.7608 15.2368,3.5684 13.5232,2.0564 C12.0364,0.746 10.1968,0.1916 7.4752,0.1916 L2.7124,0.1916 L2.7124,17 L7.6768,17 Z M6.82,14.1524 L6.1648,14.1524 L6.1648,2.9888 L7.4248,2.9888 C10.6252,2.9888 12.6664,5.156 12.6664,8.5076 C12.6664,10.3724 11.986,11.96 10.7764,12.9932 C9.7936,13.8248 8.6596,14.1524 6.82,14.1524 Z" id="Combined-Shape"></path>
                </g>
                <g id="CS-m7" transform="translate(112.000000, 192.000000)" fill-rule="nonzero">
                    <path d="M10.8061381,28.2496798 L10.8061381,22.3096798 C10.8061381,20.9272798 11.3461381,20.2144798 12.3829381,20.2144798 C13.3765381,20.2144798 13.8949381,20.9272798 13.8949381,22.3096798 L13.8949381,28.2496798 L16.6381381,28.2496798 L16.6381381,22.2232798 C16.6381381,20.9488798 17.2213381,20.2144798 18.2365381,20.2144798 C19.2733381,20.2144798 19.7701381,20.8624798 19.7701381,22.2232798 L19.7701381,28.2496798 L22.5133381,28.2496798 L22.5133381,21.7048798 C22.5133381,20.1928798 22.3189381,19.5016798 21.7141381,18.8320798 C21.1525381,18.2272798 20.3101381,17.9032798 19.2949381,17.9032798 C17.8693381,17.9032798 16.9405381,18.4216798 16.2709381,19.5664798 C15.7957381,18.4864798 14.8453381,17.9032798 13.5493381,17.9032798 C12.2749381,17.9032798 11.4325381,18.4000798 10.8061381,19.5016798 L10.8061381,18.2488798 L8.06293811,18.2488798 L8.06293811,28.2496798 L10.8061381,28.2496798 Z" id="Combined-Shape"></path>
                </g>
                <g id="CS-Root" transform="translate(44.000000, 193.000000)" fill-rule="nonzero">
                    <path d="M9.781,17 C11.6206,17 12.6538,16.7732 13.5358,16.1936 C14.6194,15.4628 15.2746,14.0768 15.2746,12.5144 C15.2746,11.2292 14.8462,10.196 14.065,9.4904 C13.5358,9.0116 13.0822,8.81 12.0742,8.5832 C12.9814,8.2808 13.3594,8.054 13.8382,7.5752 C14.5438,6.8192 14.8966,5.8616 14.8966,4.7024 C14.8966,3.2156 14.317,1.9304 13.2838,1.1492 C12.4018,0.494 11.0662,0.1916 8.9998,0.1916 L3.5818,0.1916 L3.5818,17 L9.781,17 Z M8.4202,7.3232 L7.0342,7.3232 L7.0342,2.8124 L8.2438,2.8124 C9.2266,2.8124 9.9322,2.9132 10.411,3.14 C11.0158,3.4424 11.419,4.1732 11.419,5.03 C11.419,6.5924 10.4614,7.3232 8.4202,7.3232 Z M8.7226,14.4548 L7.0342,14.4548 L7.0342,9.8936 L8.521,9.8936 C9.781,9.8936 10.3102,9.9944 10.8394,10.2968 C11.4694,10.6748 11.797,11.3048 11.797,12.212 C11.797,13.0184 11.5198,13.6232 10.9654,14.0012 C10.4614,14.354 9.907,14.4548 8.7226,14.4548 Z" id="Combined-Shape"></path>
                </g>
                <g id="CS-m7" transform="translate(59.000000, 182.000000)" fill-rule="nonzero">
                    <path d="M10.8061381,28.2496798 L10.8061381,22.3096798 C10.8061381,20.9272798 11.3461381,20.2144798 12.3829381,20.2144798 C13.3765381,20.2144798 13.8949381,20.9272798 13.8949381,22.3096798 L13.8949381,28.2496798 L16.6381381,28.2496798 L16.6381381,22.2232798 C16.6381381,20.9488798 17.2213381,20.2144798 18.2365381,20.2144798 C19.2733381,20.2144798 19.7701381,20.8624798 19.7701381,22.2232798 L19.7701381,28.2496798 L22.5133381,28.2496798 L22.5133381,21.7048798 C22.5133381,20.1928798 22.3189381,19.5016798 21.7141381,18.8320798 C21.1525381,18.2272798 20.3101381,17.9032798 19.2949381,17.9032798 C17.8693381,17.9032798 16.9405381,18.4216798 16.2709381,19.5664798 C15.7957381,18.4864798 14.8453381,17.9032798 13.5493381,17.9032798 C12.2749381,17.9032798 11.4325381,18.4000798 10.8061381,19.5016798 L10.8061381,18.2488798 L8.06293811,18.2488798 L8.06293811,28.2496798 L10.8061381,28.2496798 Z" id="Combined-Shape"></path>
                </g>
                <g id="CS-Root" transform="translate(19.000000, 154.000000)" fill-rule="nonzero">
                    <path d="M8.3572,17 L8.3572,9.9692 L14.254,9.9692 L14.254,7.1468 L8.3572,7.1468 L8.3572,3.014 L14.254,3.014 L14.254,0.1916 L4.9048,0.1916 L4.9048,17 L8.3572,17 Z" id="Combined-Shape"></path>
                </g>
                <g id="CS-m7" transform="translate(27.000000, 143.000000)" fill-rule="nonzero">
                    <path d="M10.8061381,28.2496798 L10.8061381,22.3096798 C10.8061381,20.9272798 11.3461381,20.2144798 12.3829381,20.2144798 C13.3765381,20.2144798 13.8949381,20.9272798 13.8949381,22.3096798 L13.8949381,28.2496798 L16.6381381,28.2496798 L16.6381381,22.2232798 C16.6381381,20.9488798 17.2213381,20.2144798 18.2365381,20.2144798 C19.2733381,20.2144798 19.7701381,20.8624798 19.7701381,22.2232798 L19.7701381,28.2496798 L22.5133381,28.2496798 L22.5133381,21.7048798 C22.5133381,20.1928798 22.3189381,19.5016798 21.7141381,18.8320798 C21.1525381,18.2272798 20.3101381,17.9032798 19.2949381,17.9032798 C17.8693381,17.9032798 16.9405381,18.4216798 16.2709381,19.5664798 C15.7957381,18.4864798 14.8453381,17.9032798 13.5493381,17.9032798 C12.2749381,17.9032798 11.4325381,18.4000798 10.8061381,19.5016798 L10.8061381,18.2488798 L8.06293811,18.2488798 L8.06293811,28.2496798 L10.8061381,28.2496798 Z" id="Combined-Shape"></path>
                </g>
                <g id="CS-Root" transform="translate(0.000000, 110.000000)" fill-rule="nonzero">
                    <path d="M10.2472,17.3276 C12.742,17.3276 14.5564,16.5968 16.4968,14.7824 L14.4052,12.4136 C13.372,13.598 12.1876,14.1272 10.6504,14.1272 C7.6264,14.1272 5.4592,11.7836 5.4592,8.558 C5.4592,5.3324 7.5256,3.0644 10.474,3.0644 C11.8852,3.0644 13.0444,3.5684 14.4052,4.8032 L16.648,2.5352 C14.6572,0.5948 12.8932,-0.136 10.2976,-0.136 C5.434,-0.136 1.9564,3.518 1.9564,8.6336 C1.9564,10.952 2.788,13.22 4.2244,14.8076 C5.7112,16.4708 7.7524,17.3276 10.2472,17.3276 Z" id="Combined-Shape"></path>
                </g>
                <g id="CS-m7" transform="translate(10.000000, 99.000000)" fill-rule="nonzero">
                    <path d="M10.8061381,28.2496798 L10.8061381,22.3096798 C10.8061381,20.9272798 11.3461381,20.2144798 12.3829381,20.2144798 C13.3765381,20.2144798 13.8949381,20.9272798 13.8949381,22.3096798 L13.8949381,28.2496798 L16.6381381,28.2496798 L16.6381381,22.2232798 C16.6381381,20.9488798 17.2213381,20.2144798 18.2365381,20.2144798 C19.2733381,20.2144798 19.7701381,20.8624798 19.7701381,22.2232798 L19.7701381,28.2496798 L22.5133381,28.2496798 L22.5133381,21.7048798 C22.5133381,20.1928798 22.3189381,19.5016798 21.7141381,18.8320798 C21.1525381,18.2272798 20.3101381,17.9032798 19.2949381,17.9032798 C17.8693381,17.9032798 16.9405381,18.4216798 16.2709381,19.5664798 C15.7957381,18.4864798 14.8453381,17.9032798 13.5493381,17.9032798 C12.2749381,17.9032798 11.4325381,18.4000798 10.8061381,19.5016798 L10.8061381,18.2488798 L8.06293811,18.2488798 L8.06293811,28.2496798 L10.8061381,28.2496798 Z" id="Combined-Shape"></path>
                </g>
                <g id="CS-Root" transform="translate(20.000000, 61.000000)" fill-rule="nonzero">
                    <path d="M9.1258,17.3276 C11.4946,17.3276 13.6366,16.4204 15.325,14.732 C17.0134,13.0184 17.7694,11.078 17.7694,8.4824 L17.7694,7.5752 L9.3526,7.5752 L9.3526,10.3976 L14.0398,10.3976 C13.7626,11.4056 13.5106,11.9348 13.0066,12.5144 C12.1246,13.5728 10.6882,14.2028 9.2518,14.2028 C6.3034,14.2028 3.985,11.7584 3.985,8.6336 C3.985,5.4584 6.2278,3.0392 9.1762,3.0392 C10.8394,3.0392 12.0742,3.6692 13.309,5.1308 L15.9046,3.0896 C14.2666,1.0232 11.8222,-0.136 9.1006,-0.136 C4.1614,-0.136 0.4822,3.6188 0.4822,8.6336 C0.4822,13.598 4.1866,17.3276 9.1258,17.3276 Z" id="Combined-Shape"></path>
                </g>
                <g id="CS-m7" transform="translate(32.000000, 50.000000)" fill-rule="nonzero">
                    <path d="M10.8061381,28.2496798 L10.8061381,22.3096798 C10.8061381,20.9272798 11.3461381,20.2144798 12.3829381,20.2144798 C13.3765381,20.2144798 13.8949381,20.9272798 13.8949381,22.3096798 L13.8949381,28.2496798 L16.6381381,28.2496798 L16.6381381,22.2232798 C16.6381381,20.9488798 17.2213381,20.2144798 18.2365381,20.2144798 C19.2733381,20.2144798 19.7701381,20.8624798 19.7701381,22.2232798 L19.7701381,28.2496798 L22.5133381,28.2496798 L22.5133381,21.7048798 C22.5133381,20.1928798 22.3189381,19.5016798 21.7141381,18.8320798 C21.1525381,18.2272798 20.3101381,17.9032798 19.2949381,17.9032798 C17.8693381,17.9032798 16.9405381,18.4216798 16.2709381,19.5664798 C15.7957381,18.4864798 14.8453381,17.9032798 13.5493381,17.9032798 C12.2749381,17.9032798 11.4325381,18.4000798 10.8061381,19.5016798 L10.8061381,18.2488798 L8.06293811,18.2488798 L8.06293811,28.2496798 L10.8061381,28.2496798 Z" id="Combined-Shape"></path>
                </g>
                <g id="CS-Root" transform="translate(49.000000, 26.000000)" fill-rule="nonzero">
                    <path d="M7.6768,17 C10.096,17 12.112,16.3196 13.498,15.0596 C15.2116,13.5224 16.1692,11.1032 16.1692,8.4068 C16.1692,5.7608 15.2368,3.5684 13.5232,2.0564 C12.0364,0.746 10.1968,0.1916 7.4752,0.1916 L2.7124,0.1916 L2.7124,17 L7.6768,17 Z M6.82,14.1524 L6.1648,14.1524 L6.1648,2.9888 L7.4248,2.9888 C10.6252,2.9888 12.6664,5.156 12.6664,8.5076 C12.6664,10.3724 11.986,11.96 10.7764,12.9932 C9.7936,13.8248 8.6596,14.1524 6.82,14.1524 Z" id="Combined-Shape"></path>
                </g>
                <g id="CS-m7" transform="translate(59.000000, 15.000000)" fill-rule="nonzero">
                    <path d="M10.8061381,28.2496798 L10.8061381,22.3096798 C10.8061381,20.9272798 11.3461381,20.2144798 12.3829381,20.2144798 C13.3765381,20.2144798 13.8949381,20.9272798 13.8949381,22.3096798 L13.8949381,28.2496798 L16.6381381,28.2496798 L16.6381381,22.2232798 C16.6381381,20.9488798 17.2213381,20.2144798 18.2365381,20.2144798 C19.2733381,20.2144798 19.7701381,20.8624798 19.7701381,22.2232798 L19.7701381,28.2496798 L22.5133381,28.2496798 L22.5133381,21.7048798 C22.5133381,20.1928798 22.3189381,19.5016798 21.7141381,18.8320798 C21.1525381,18.2272798 20.3101381,17.9032798 19.2949381,17.9032798 C17.8693381,17.9032798 16.9405381,18.4216798 16.2709381,19.5664798 C15.7957381,18.4864798 14.8453381,17.9032798 13.5493381,17.9032798 C12.2749381,17.9032798 11.4325381,18.4000798 10.8061381,19.5016798 L10.8061381,18.2488798 L8.06293811,18.2488798 L8.06293811,28.2496798 L10.8061381,28.2496798 Z" id="Combined-Shape"></path>
                </g>
                <g id="sharp" transform="translate(115.000000, 200.000000)" fill-rule="nonzero">
                    <path d="M1.39777061,8.95593113 L1.39777061,5.48854841 L2.86447639,5.08166166 L2.86447639,8.53135366 L1.39777061,8.95593113 Z M4.28571429,8.11709577 L3.27735406,8.40751856 L3.27735406,4.95782657 L4.28571429,4.67477492 L4.28571429,3.24182594 L3.27735406,3.52487759 L3.27735406,0 L2.86447639,0 L2.86447639,3.63175907 L1.39777061,4.05559943 L1.39777061,0.62802085 L1.00836022,0.62802085 L1.00836022,4.18606855 L0,4.46985732 L0,5.90575475 L1.00836022,5.6227031 L1.00836022,9.06576107 L0,9.34807561 L0,10.7780761 L1.00836022,10.4950245 L1.00836022,14 L1.39777061,14 L1.39777061,10.3697152 L2.86447639,9.96430264 L2.86447639,13.3741905 L3.27735406,13.3741905 L3.27735406,9.83604486 L4.28571429,9.55225609 L4.28571429,8.11709577 Z"></path>
                </g>
                <g id="sharp" transform="translate(166.000000, 191.000000)" fill-rule="nonzero">
                    <path d="M1.39777061,8.95593113 L1.39777061,5.48854841 L2.86447639,5.08166166 L2.86447639,8.53135366 L1.39777061,8.95593113 Z M4.28571429,8.11709577 L3.27735406,8.40751856 L3.27735406,4.95782657 L4.28571429,4.67477492 L4.28571429,3.24182594 L3.27735406,3.52487759 L3.27735406,0 L2.86447639,0 L2.86447639,3.63175907 L1.39777061,4.05559943 L1.39777061,0.62802085 L1.00836022,0.62802085 L1.00836022,4.18606855 L0,4.46985732 L0,5.90575475 L1.00836022,5.6227031 L1.00836022,9.06576107 L0,9.34807561 L0,10.7780761 L1.00836022,10.4950245 L1.00836022,14 L1.39777061,14 L1.39777061,10.3697152 L2.86447639,9.96430264 L2.86447639,13.3741905 L3.27735406,13.3741905 L3.27735406,9.83604486 L4.28571429,9.55225609 L4.28571429,8.11709577 Z"></path>
                </g>
                <g id="flat" transform="translate(61.000000, 193.000000)" fill-rule="nonzero">
                    <path d="M0.619015906,3.92385268 C0.619015906,3.92385268 0.619015906,4.43806616 0.619015906,5.4667407 C1.33296655,4.80769579 2.13435029,4.47025092 3.02290843,4.45415854 C3.5782896,4.45415854 4.0542567,4.68737429 4.4510684,5.15331062 C4.80002472,5.58730977 4.98239254,6.06933849 4.99843057,6.59989193 C5.01420991,7.0177987 4.91099748,7.49982742 4.68905195,8.04622566 C4.60963788,8.27127143 4.43503038,8.51240957 4.16522947,8.76939253 C3.95906328,8.9625011 3.74487809,9.16328451 3.52267388,9.37223789 C2.34853548,10.2399886 1.17439708,11.1159093 0,12 L0,0 L0.619015906,0 L0.619015906,3.92385268 Z M2.54694133,5.99704656 C2.35655449,5.7720008 2.11055193,5.6596017 1.80893365,5.6596017 C1.42815997,5.6596017 1.11878136,5.87647749 0.88079781,6.31047664 C0.706190314,6.6479215 0.619015906,7.44362787 0.619015906,8.6971006 L0.619015906,10.7705421 C0.63479525,10.834664 1.07920366,10.4410196 1.95172378,9.58911368 C2.42794956,9.13926973 2.73732817,8.60871629 2.8801183,7.99794852 C2.94349435,7.75705795 2.97531172,7.5159198 2.97531172,7.27478165 C2.97531172,6.74447579 2.83252159,6.31864662 2.54694133,5.99704656"></path>
                </g>
            </g>
            <g id="Book" transform="translate(269.000000, 253.000000)" fill-rule="evenodd" stroke-width="1">
                <g>
                    <rect id="裏カバー" fill="#2A2A2A" transform="translate(13.320947, 15.464740) scale(-1, 1) translate(-13.320947, -15.464740) " x="0.707280325" y="0.0441086801" width="25.2273335" height="30.8412617"></rect>
                    <rect id="本" fill="#B2ADAB" transform="translate(13.036255, 16.311469) scale(-1, 1) translate(-13.036255, -16.311469) " x="1.26049605" y="0.890837807" width="23.5515169" height="30.8412617"></rect>
                    <rect id="カバー" fill="#323232" transform="translate(12.056479, 17.433877) scale(-1, 1) translate(-12.056479, -17.433877) " x="0.140526262" y="2.01324618" width="23.8319053" height="30.8412617"></rect>
                    <rect id="Rectangle" fill="#212D36" transform="translate(0.560311, 16.731249) scale(-1, 1) translate(-0.560311, -16.731249) " x="0.13974802" y="0.609644971" width="1" height="32.2432088"></rect>
                    <path d="M12.5001648,23.75 C13.8751279,23.75 15.0782281,23.3749849 16.1250757,22.6093735 L14.6094704,21.0937318 C13.9844899,21.468747 13.2813979,21.6562545 12.5001648,21.6562545 C11.3439255,21.6562545 10.3595789,21.2499881 9.5470953,20.4531255 C8.75025177,19.6406224 8.3283847,18.6562522 8.3283847,17.4843744 C8.3283847,16.3437478 8.75025177,15.3593776 9.5470953,14.5468745 C10.3595789,13.7499822 11.3439255,13.3124942 12.5001648,13.3124942 C13.6563743,13.3124942 14.6407209,13.7499822 15.4532046,14.5468745 C16.2500778,15.3593776 16.6719448,16.3437478 16.6719448,17.4843744 C16.6719448,18.281237 16.4688017,18.9999863 16.0781851,19.6249819 L17.5937904,21.1406236 C18.3750235,20.0781103 18.75,18.8749813 18.75,17.4999852 C18.75,15.7656144 18.1406595,14.2968644 16.9219193,13.0781246 C15.7032087,11.8437443 14.234494,11.25 12.5001648,11.25 C10.781446,11.25 9.29712088,11.8437443 8.07838061,13.0781246 C6.84405959,14.2968644 6.26593997,15.7812548 6.25029987,17.4999852 C6.23468945,19.2187452 6.8284195,20.7031059 8.06277019,21.9374862 C9.28148079,23.1562557 10.7501955,23.75 12.5001648,23.75 L12.5001648,23.75 Z" id="Path" fill="#BBB6B4"></path>
                </g>
            </g>
        </g>
        <path d="M518.536891,326 C523.491766,307.573075 526,288.578457 526,269.500711 C526,250.422964 523.491766,231.427635 518.536891,213 L307,269.500711 L518.536891,326 Z" id="Pie-Odd" fill="#E3E3E3"></path>
        <path d="M519,213.266155 C509.077856,176.099002 489.578301,142.208303 462.463919,115 L308,270 L519,213.266155 Z" id="Pie-Even" fill="#E8E8E8"></path>
        <path d="M462.463919,425 C489.578301,397.789745 509.077856,363.901777 519,326.732026 L308,270 L462.463919,425 Z" id="Pie-Even" fill="#E8E8E8"></path>
        <g id="CS-Root" opacity="0.795526414" transform="translate(442.000000, 257.000000)" fill="#0C0C0C" fill-rule="nonzero">
            <path d="M3.166,24 L4.606,19.86 L13.822,19.86 L15.19,24 L20.59,24 L12.382,-0.012 L6.226,-0.012 L-2.054,24 L3.166,24 Z M12.526,15.828 L5.866,15.828 L9.214,5.892 L12.526,15.828 Z" id="Combined-Shape"></path>
        </g>
        <g id="CS-Root" opacity="0.795526414" transform="translate(421.000000, 186.000000)" fill="#0C0C0C" fill-rule="nonzero">
            <path d="M7.324,24 C10.78,24 13.66,23.028 15.64,21.228 C18.088,19.032 19.456,15.576 19.456,11.724 C19.456,7.944 18.124,4.812 15.676,2.652 C13.552,0.78 10.924,-0.012 7.036,-0.012 L0.232,-0.012 L0.232,24 L7.324,24 Z M6.1,19.932 L5.164,19.932 L5.164,3.984 L6.964,3.984 C11.536,3.984 14.452,7.08 14.452,11.868 C14.452,14.532 13.48,16.8 11.752,18.276 C10.348,19.464 8.728,19.932 6.1,19.932 Z" id="Combined-Shape"></path>
        </g>
        <g id="CS-Root" opacity="0.795526414" transform="translate(423.000000, 328.000000)" fill="#0C0C0C" fill-rule="nonzero">
            <path d="M15.964,24 L15.964,19.968 L7.54,19.968 L7.54,13.956 L15.964,13.956 L15.964,9.924 L7.54,9.924 L7.54,4.02 L15.964,4.02 L15.964,-0.012 L2.608,-0.012 L2.608,24 L15.964,24 Z" id="Combined-Shape"></path>
        </g>
        <g id="CS-Root" opacity="0.799827939" transform="translate(368.000000, 218.000000)" fill="#0C0C0C" fill-rule="nonzero">
            <path d="M9.781,17 C11.6206,17 12.6538,16.7732 13.5358,16.1936 C14.6194,15.4628 15.2746,14.0768 15.2746,12.5144 C15.2746,11.2292 14.8462,10.196 14.065,9.4904 C13.5358,9.0116 13.0822,8.81 12.0742,8.5832 C12.9814,8.2808 13.3594,8.054 13.8382,7.5752 C14.5438,6.8192 14.8966,5.8616 14.8966,4.7024 C14.8966,3.2156 14.317,1.9304 13.2838,1.1492 C12.4018,0.494 11.0662,0.1916 8.9998,0.1916 L3.5818,0.1916 L3.5818,17 L9.781,17 Z M8.4202,7.3232 L7.0342,7.3232 L7.0342,2.8124 L8.2438,2.8124 C9.2266,2.8124 9.9322,2.9132 10.411,3.14 C11.0158,3.4424 11.419,4.1732 11.419,5.03 C11.419,6.5924 10.4614,7.3232 8.4202,7.3232 Z M8.7226,14.4548 L7.0342,14.4548 L7.0342,9.8936 L8.521,9.8936 C9.781,9.8936 10.3102,9.9944 10.8394,10.2968 C11.4694,10.6748 11.797,11.3048 11.797,12.212 C11.797,13.0184 11.5198,13.6232 10.9654,14.0012 C10.4614,14.354 9.907,14.4548 8.7226,14.4548 Z" id="Combined-Shape"></path>
        </g>
        <g id="CS-m7" opacity="0.799827939" transform="translate(378.000000, 207.000000)" fill="#0C0C0C" fill-rule="nonzero">
            <path d="M10.8061381,28.2496798 L10.8061381,22.3096798 C10.8061381,20.9272798 11.3461381,20.2144798 12.3829381,20.2144798 C13.3765381,20.2144798 13.8949381,20.9272798 13.8949381,22.3096798 L13.8949381,28.2496798 L16.6381381,28.2496798 L16.6381381,22.2232798 C16.6381381,20.9488798 17.2213381,20.2144798 18.2365381,20.2144798 C19.2733381,20.2144798 19.7701381,20.8624798 19.7701381,22.2232798 L19.7701381,28.2496798 L22.5133381,28.2496798 L22.5133381,21.7048798 C22.5133381,20.1928798 22.3189381,19.5016798 21.7141381,18.8320798 C21.1525381,18.2272798 20.3101381,17.9032798 19.2949381,17.9032798 C17.8693381,17.9032798 16.9405381,18.4216798 16.2709381,19.5664798 C15.7957381,18.4864798 14.8453381,17.9032798 13.5493381,17.9032798 C12.2749381,17.9032798 11.4325381,18.4000798 10.8061381,19.5016798 L10.8061381,18.2488798 L8.06293811,18.2488798 L8.06293811,28.2496798 L10.8061381,28.2496798 Z" id="Combined-Shape"></path>
        </g>
        <g id="CS-Root" opacity="0.799827939" transform="translate(378.000000, 262.000000)" fill="#0C0C0C" fill-rule="nonzero">
            <path d="M8.3572,17 L8.3572,9.9692 L14.254,9.9692 L14.254,7.1468 L8.3572,7.1468 L8.3572,3.014 L14.254,3.014 L14.254,0.1916 L4.9048,0.1916 L4.9048,17 L8.3572,17 Z" id="Combined-Shape"></path>
        </g>
        <g id="sharp" opacity="0.799827939" transform="translate(386.000000, 302.000000)" fill="#0C0C0C" fill-rule="nonzero">
            <path d="M1.39777061,8.95593113 L1.39777061,5.48854841 L2.86447639,5.08166166 L2.86447639,8.53135366 L1.39777061,8.95593113 Z M4.28571429,8.11709577 L3.27735406,8.40751856 L3.27735406,4.95782657 L4.28571429,4.67477492 L4.28571429,3.24182594 L3.27735406,3.52487759 L3.27735406,0 L2.86447639,0 L2.86447639,3.63175907 L1.39777061,4.05559943 L1.39777061,0.62802085 L1.00836022,0.62802085 L1.00836022,4.18606855 L0,4.46985732 L0,5.90575475 L1.00836022,5.6227031 L1.00836022,9.06576107 L0,9.34807561 L0,10.7780761 L1.00836022,10.4950245 L1.00836022,14 L1.39777061,14 L1.39777061,10.3697152 L2.86447639,9.96430264 L2.86447639,13.3741905 L3.27735406,13.3741905 L3.27735406,9.83604486 L4.28571429,9.55225609 L4.28571429,8.11709577 Z"></path>
        </g>
        <g id="sharp" opacity="0.799827939" transform="translate(394.000000, 262.000000)" fill="#0C0C0C" fill-rule="nonzero">
            <path d="M1.39777061,8.95593113 L1.39777061,5.48854841 L2.86447639,5.08166166 L2.86447639,8.53135366 L1.39777061,8.95593113 Z M4.28571429,8.11709577 L3.27735406,8.40751856 L3.27735406,4.95782657 L4.28571429,4.67477492 L4.28571429,3.24182594 L3.27735406,3.52487759 L3.27735406,0 L2.86447639,0 L2.86447639,3.63175907 L1.39777061,4.05559943 L1.39777061,0.62802085 L1.00836022,0.62802085 L1.00836022,4.18606855 L0,4.46985732 L0,5.90575475 L1.00836022,5.6227031 L1.00836022,9.06576107 L0,9.34807561 L0,10.7780761 L1.00836022,10.4950245 L1.00836022,14 L1.39777061,14 L1.39777061,10.3697152 L2.86447639,9.96430264 L2.86447639,13.3741905 L3.27735406,13.3741905 L3.27735406,9.83604486 L4.28571429,9.55225609 L4.28571429,8.11709577 Z"></path>
        </g>
        <g id="CS-m7" opacity="0.799827939" transform="translate(392.000000, 251.000000)" fill="#0C0C0C" fill-rule="nonzero">
            <path d="M10.8061381,28.2496798 L10.8061381,22.3096798 C10.8061381,20.9272798 11.3461381,20.2144798 12.3829381,20.2144798 C13.3765381,20.2144798 13.8949381,20.9272798 13.8949381,22.3096798 L13.8949381,28.2496798 L16.6381381,28.2496798 L16.6381381,22.2232798 C16.6381381,20.9488798 17.2213381,20.2144798 18.2365381,20.2144798 C19.2733381,20.2144798 19.7701381,20.8624798 19.7701381,22.2232798 L19.7701381,28.2496798 L22.5133381,28.2496798 L22.5133381,21.7048798 C22.5133381,20.1928798 22.3189381,19.5016798 21.7141381,18.8320798 C21.1525381,18.2272798 20.3101381,17.9032798 19.2949381,17.9032798 C17.8693381,17.9032798 16.9405381,18.4216798 16.2709381,19.5664798 C15.7957381,18.4864798 14.8453381,17.9032798 13.5493381,17.9032798 C12.2749381,17.9032798 11.4325381,18.4000798 10.8061381,19.5016798 L10.8061381,18.2488798 L8.06293811,18.2488798 L8.06293811,28.2496798 L10.8061381,28.2496798 Z" id="Combined-Shape"></path>
        </g>
        <g id="CS-Root" opacity="0.799827939" transform="translate(368.000000, 305.000000)" fill="#0C0C0C" fill-rule="nonzero">
            <path d="M10.2472,17.3276 C12.742,17.3276 14.5564,16.5968 16.4968,14.7824 L14.4052,12.4136 C13.372,13.598 12.1876,14.1272 10.6504,14.1272 C7.6264,14.1272 5.4592,11.7836 5.4592,8.558 C5.4592,5.3324 7.5256,3.0644 10.474,3.0644 C11.8852,3.0644 13.0444,3.5684 14.4052,4.8032 L16.648,2.5352 C14.6572,0.5948 12.8932,-0.136 10.2976,-0.136 C5.434,-0.136 1.9564,3.518 1.9564,8.6336 C1.9564,10.952 2.788,13.22 4.2244,14.8076 C5.7112,16.4708 7.7524,17.3276 10.2472,17.3276 Z" id="Combined-Shape"></path>
        </g>
        <g id="CS-m7" opacity="0.799827939" transform="translate(384.000000, 294.000000)" fill="#0C0C0C" fill-rule="nonzero">
            <path d="M10.8061381,28.2496798 L10.8061381,22.3096798 C10.8061381,20.9272798 11.3461381,20.2144798 12.3829381,20.2144798 C13.3765381,20.2144798 13.8949381,20.9272798 13.8949381,22.3096798 L13.8949381,28.2496798 L16.6381381,28.2496798 L16.6381381,22.2232798 C16.6381381,20.9488798 17.2213381,20.2144798 18.2365381,20.2144798 C19.2733381,20.2144798 19.7701381,20.8624798 19.7701381,22.2232798 L19.7701381,28.2496798 L22.5133381,28.2496798 L22.5133381,21.7048798 C22.5133381,20.1928798 22.3189381,19.5016798 21.7141381,18.8320798 C21.1525381,18.2272798 20.3101381,17.9032798 19.2949381,17.9032798 C17.8693381,17.9032798 16.9405381,18.4216798 16.2709381,19.5664798 C15.7957381,18.4864798 14.8453381,17.9032798 13.5493381,17.9032798 C12.2749381,17.9032798 11.4325381,18.4000798 10.8061381,19.5016798 L10.8061381,18.2488798 L8.06293811,18.2488798 L8.06293811,28.2496798 L10.8061381,28.2496798 Z" id="Combined-Shape"></path>
        </g>
        <g id="Book" transform="translate(294.000000, 253.000000)">
            <g>
                <rect id="裏カバー" fill="#2A2A2A" transform="translate(13.320947, 15.464740) scale(-1, 1) translate(-13.320947, -15.464740) " x="0.707280325" y="0.0441086801" width="25.2273335" height="30.8412617"></rect>
                <rect id="本" fill="#B2ADAB" transform="translate(13.036255, 16.311469) scale(-1, 1) translate(-13.036255, -16.311469) " x="1.26049605" y="0.890837807" width="23.5515169" height="30.8412617"></rect>
                <rect id="カバー" fill="#323232" transform="translate(12.056479, 17.433877) scale(-1, 1) translate(-12.056479, -17.433877) " x="0.140526262" y="2.01324618" width="23.8319053" height="30.8412617"></rect>
                <rect id="Rectangle" fill="#212D36" transform="translate(0.560311, 16.731249) scale(-1, 1) translate(-0.560311, -16.731249) " x="0.13974802" y="0.609644971" width="1" height="32.2432088"></rect>
                <path d="M12.5001648,23.75 C13.8751279,23.75 15.0782281,23.3749849 16.1250757,22.6093735 L14.6094704,21.0937318 C13.9844899,21.468747 13.2813979,21.6562545 12.5001648,21.6562545 C11.3439255,21.6562545 10.3595789,21.2499881 9.5470953,20.4531255 C8.75025177,19.6406224 8.3283847,18.6562522 8.3283847,17.4843744 C8.3283847,16.3437478 8.75025177,15.3593776 9.5470953,14.5468745 C10.3595789,13.7499822 11.3439255,13.3124942 12.5001648,13.3124942 C13.6563743,13.3124942 14.6407209,13.7499822 15.4532046,14.5468745 C16.2500778,15.3593776 16.6719448,16.3437478 16.6719448,17.4843744 C16.6719448,18.281237 16.4688017,18.9999863 16.0781851,19.6249819 L17.5937904,21.1406236 C18.3750235,20.0781103 18.75,18.8749813 18.75,17.4999852 C18.75,15.7656144 18.1406595,14.2968644 16.9219193,13.0781246 C15.7032087,11.8437443 14.234494,11.25 12.5001648,11.25 C10.781446,11.25 9.29712088,11.8437443 8.07838061,13.0781246 C6.84405959,14.2968644 6.26593997,15.7812548 6.25029987,17.4999852 C6.23468945,19.2187452 6.8284195,20.7031059 8.06277019,21.9374862 C9.28148079,23.1562557 10.7501955,23.75 12.5001648,23.75 L12.5001648,23.75 Z" id="Path" fill="#BBB6B4"></path>
            </g>
        </g>
        <path d="M539.195013,242.88011 L539.195013,246.908542 L540.485714,246.585054 L540.485714,248.22271 L539.195013,248.546198 L539.195013,252.488703 L540.485714,252.156791 L540.485714,253.796975 L539.195013,254.121305 L539.195,254.78411 L566,254.785079 L566,255.785079 L539.195,255.78411 L539.195013,258.1649 L538.66653,258.1649 L538.666,255.78411 L536.789,255.78411 L536.789146,258.88011 L536.290701,258.88011 L536.29,255.78411 L527.195,255.78411 L527.195013,256.488703 L528.485714,256.156791 L528.485714,257.796975 L527.195013,258.121305 L527.195013,262.1649 L526.66653,262.1649 L526.66653,258.267885 L524.789146,258.731214 L524.789,262.78411 L531.29,262.78411 L531.290701,259.597849 L531.789146,259.597849 L531.789,262.78411 L533.666,262.78411 L533.66653,258.88011 L534.195013,258.88011 L534.195,262.78411 L534.689,262.78411 L535.485714,262.585054 L535.485,262.78411 L566,262.785079 L566,263.785079 L535.485,263.78411 L535.485714,264.22271 L534.195013,264.546198 L534.195013,268.488703 L535.485714,268.156791 L535.485714,269.796975 L534.195013,270.121305 L534.195,270.78411 L566,270.785079 L566,271.785079 L534.195,271.78411 L534.195013,274.1649 L533.66653,274.1649 L533.666,271.78411 L531.789,271.78411 L531.789146,274.88011 L531.290701,274.88011 L531.29,271.78411 L512.977,271.78411 L513.202784,271.925911 C513.89839,272.383641 514.489675,272.951716 514.966775,273.638672 C515.504592,274.398261 515.901405,275.255366 516.157482,276.209444 C516.37029,277.044815 516.478341,277.904042 516.45473,278.784761 L566,278.785079 L566,279.785079 L516.371056,279.784646 C516.183056,281.1066 515.692097,282.306191 514.898703,283.37449 C513.981902,284.608958 512.675311,285.468764 510.964344,285.966333 C510.986375,286.201367 511.015979,286.474264 511.053851,286.783852 L566,286.785079 L566,287.785079 L511.187486,287.783445 C511.233331,288.102575 511.2855,288.44686 511.344408,288.815603 C511.527012,290.059255 511.660184,291.045209 511.743922,291.773464 C511.827931,292.501719 511.833603,293.197829 511.786602,293.876921 C511.713938,294.929055 511.396002,295.843696 510.831983,296.63435 C510.254187,297.423923 509.515937,298.015225 508.603728,298.407175 C507.704754,298.800206 506.728255,298.96012 505.686926,298.888267 C504.218531,298.78697 502.965694,298.28589 501.927066,297.397991 C500.889519,296.496857 500.378444,295.35099 500.422204,293.935809 C500.505673,293.312632 500.692869,292.736997 500.998379,292.195938 C501.30389,291.655149 501.69557,291.227273 502.186656,290.913388 C502.665316,290.584917 503.225554,290.436349 503.855754,290.43986 C504.376283,290.475517 504.860076,290.65623 505.307942,290.968223 C505.741761,291.292373 506.088871,291.704312 506.335224,292.216468 C506.568071,292.727543 506.677202,293.283729 506.636683,293.869628 C506.582658,294.655149 506.269584,295.302637 505.698001,295.811822 C505.126418,296.320736 504.426256,296.553583 503.612102,296.497397 L503.30497,296.476057 C503.770394,297.311011 504.596434,297.782918 505.784441,297.864766 C506.385197,297.906365 507.008374,297.815333 507.638844,297.618142 C508.283901,297.408526 508.827391,297.111389 509.297137,296.715657 C509.767153,296.319925 510.092112,295.887456 510.245273,295.41636 C510.509995,294.886106 510.669098,294.13435 510.734198,293.188915 C510.778498,292.549801 510.755808,291.905825 510.679633,291.258337 C510.602647,290.624355 510.473798,289.772383 510.291734,288.716198 C510.232978,288.381192 510.17952,288.07 510.131727,287.783554 L493,287.785079 L493,286.785079 L509.973231,286.782785 C509.947586,286.608032 509.925834,286.449717 509.908158,286.30831 C509.093463,286.452826 508.258509,286.502259 507.3906,286.442292 C505.93571,286.341805 504.581037,285.953907 503.327391,285.26536 C502.074014,284.576813 500.996218,283.672978 500.082118,282.539536 C499.407515,281.691632 498.857956,280.777422 498.434007,279.785686 L493,279.785079 L493,278.785079 L498.057654,278.785171 C498.054905,278.776772 498.052165,278.768367 498.049433,278.759958 C497.60805,277.378002 497.425176,275.947154 497.512966,274.48146 C497.614501,273.547338 497.809449,272.644955 498.106052,271.783879 L493,271.785079 L493,270.785079 L498.505483,270.783722 C498.526298,270.738206 498.54743,270.692827 498.568882,270.647586 C499.134792,269.442292 499.829822,268.312632 500.665856,267.273194 C501.502161,266.233756 502.358725,265.289401 503.234468,264.453367 C503.459335,264.245324 503.701586,264.022182 503.961639,263.784187 L493,263.785079 L493,262.785079 L505.062545,262.785253 C505.570275,262.328489 506.128214,261.831932 506.73825,261.296695 C506.363873,259.474073 506.174541,257.636789 506.170715,255.784689 L493,255.785079 L493,254.785079 L506.186617,254.785056 C506.188298,254.735371 506.190112,254.685676 506.192058,254.635971 C506.30443,253.198639 506.5443,251.863955 506.910859,250.631649 C507.264182,249.398261 507.725824,248.346397 508.297407,247.449045 C508.855484,246.551152 509.47839,245.885025 510.15208,245.449585 C510.755538,245.063307 511.185035,244.865306 511.411939,244.880973 C511.585359,244.893129 511.727715,244.969844 511.852782,245.098693 C511.97812,245.227813 512.137763,245.43959 512.333063,245.72052 C513.766343,248.080595 514.379795,250.85261 514.160994,254.021708 C514.143358,254.277575 514.120005,254.531888 514.090925,254.784842 L524.29,254.78411 L524.290701,253.306057 L523,253.629544 L523,251.988519 L524.290701,251.664189 L524.290701,247.597849 L524.789146,247.597849 L524.789146,251.515081 L526.66653,251.030692 L526.66653,246.88011 L527.195013,246.88011 L527.195013,250.908542 L528.485714,250.585054 L528.485714,252.22271 L527.195013,252.546198 L527.195,254.78411 L535,254.78411 L535,253.563625 L536.290701,253.24098 L536.290701,249.306057 L535,249.629544 L535,247.988519 L536.290701,247.664189 L536.290701,243.597849 L536.789146,243.597849 L536.789146,247.515081 L538.66653,247.030692 L538.66653,242.88011 L539.195013,242.88011 Z M503.658952,279.784841 L499.835873,279.784864 C499.868146,279.897423 499.902956,280.009604 499.940303,280.121384 C500.250675,281.066008 500.754457,281.930136 501.449487,282.740779 C502.854133,284.349639 504.762291,285.270763 507.146137,285.515569 C507.964073,285.518467 508.841977,285.431757 509.792815,285.256716 L509.094,279.78411 L505.077107,279.783805 C505.150617,280.030987 505.248265,280.286855 505.36953,280.549531 C505.707185,281.295344 506.258779,281.855041 506.996488,282.240509 C507.246623,282.311281 507.357374,282.452826 507.344679,282.639212 C507.340086,282.705663 507.242031,282.7659 507.011345,282.803448 C505.817666,282.413388 504.861696,281.691886 504.154511,280.666225 C503.96036,280.380752 503.795166,280.087137 503.658952,279.784841 Z M514.238,279.78411 L510.097,279.78411 L510.789303,285.00415 C512.901945,284.320465 514.054025,282.593561 514.243112,279.850449 L514.238,279.78411 Z M508.443274,274.687024 C507.613182,274.857202 506.844138,275.312632 506.110211,276.037916 C505.375203,276.776705 504.981632,277.619223 504.917342,278.551422 C504.912093,278.627319 504.910117,278.704789 504.911389,278.783743 L508.966,278.78411 L508.443274,274.687024 Z M509.41356,274.620303 L509.965,278.78411 L514.100282,278.783822 C513.988909,278.26485 513.816149,277.775621 513.573204,277.315603 C513.183955,276.539536 512.637223,275.913118 511.918963,275.435268 C511.200972,274.957689 510.374662,274.686484 509.41356,274.620303 Z M506.561825,271.784171 L501.641182,271.784018 C500.420373,273.4363 499.721689,275.260673 499.534576,277.256716 C499.513185,277.770959 499.54073,278.281061 499.617292,278.785114 L503.321502,278.785015 C503.205004,278.280524 503.159937,277.753236 503.186386,277.201071 C503.321178,275.832351 503.823069,274.582486 504.691518,273.464982 C505.237321,272.766361 505.860778,272.206112 506.561825,271.784171 Z M533.66653,270.267885 L531.789146,270.731214 L531.789,270.78411 L533.666,270.78411 L533.66653,270.267885 Z M530.812,263.78411 L510.197045,263.786167 C509.605924,264.471902 508.966581,265.090216 508.275797,265.644074 L508.971,270.78411 L530,270.78411 L530,269.563625 L531.290701,269.24098 L531.290701,265.306057 L530,265.629544 L530,263.988519 L530.812,263.78411 Z M507.353863,266.369898 C505.41881,267.761357 503.786815,269.22692 502.44739,270.784324 L507.901,270.78411 L507.353863,266.369898 Z M533.66653,264.687724 L531.789146,265.152737 L531.789146,269.11546 L533.66653,268.630229 L533.66653,264.687724 Z M524.29,255.78411 L513.944928,255.784864 C513.787475,256.672465 513.557477,257.546168 513.254457,258.414739 C512.767153,259.839644 512.097515,261.184863 511.247434,262.423923 L510.99,262.78411 L524.29,262.78411 L524.290701,258.874424 L523,259.197912 L523,257.563625 L524.290701,257.24098 L524.29,255.78411 Z M511.821356,255.78518 L507.465357,255.784347 C507.363883,256.283539 507.289387,256.784898 507.242842,257.290752 C507.218531,258.61382 507.357645,259.707013 507.632631,260.582486 C508.091572,260.346397 508.63101,259.915279 509.223123,259.300746 C509.814695,258.69918 510.400864,257.977138 510.967045,257.159742 C511.283203,256.70773 511.568002,256.249543 511.821356,255.78518 Z M526.666,255.78411 L524.789,255.78411 L524.789146,257.11546 L526.66653,256.630229 L526.666,255.78411 Z M538.666,254.78411 L538.66653,254.267885 L536.789146,254.731214 L536.789,254.78411 L538.666,254.78411 Z M526.66653,252.687724 L524.789146,253.152737 L524.789,254.78411 L526.666,254.78411 L526.66653,252.687724 Z M509.397893,250.936889 C508.845219,251.755095 508.361696,252.738618 507.988925,253.863415 C507.884346,254.170729 507.789587,254.477727 507.704875,254.784958 L512.314166,254.785042 C512.340039,254.726352 512.365427,254.667568 512.39033,254.608688 C512.757969,253.751044 512.962723,252.922302 513.015937,252.150017 C513.038898,251.816954 513.035386,251.48227 512.988655,251.184593 C512.968395,250.701611 512.84738,250.318575 512.611021,250.04818 C512.374122,249.791022 512.062939,249.6357 511.662345,249.607878 C510.861426,249.552772 510.106699,249.995776 509.397893,250.936889 Z M538.66653,248.687724 L536.789146,249.152737 L536.789146,253.11546 L538.66653,252.630229 L538.66653,248.687724 Z" id="Key-Signature" fill="#131516"></path>
    </g>
</svg>