<?xml version="1.0" encoding="UTF-8" standalone="no"?><!DOCTYPE svg PUBLIC "-//W3C//DTD SVG 1.1//EN" "http://www.w3.org/Graphics/SVG/1.1/DTD/svg11.dtd"><svg width="1806.0px" height="1648.0px" viewBox="0 0 1806 1648" version="1.1" xmlns="http://www.w3.org/2000/svg" xmlns:xlink="http://www.w3.org/1999/xlink" xml:space="preserve" xmlns:serif="http://www.serif.com/" style="fill-rule:evenodd;clip-rule:evenodd;stroke-linecap:round;stroke-linejoin:round;stroke-miterlimit:1.5;"><rect id="_3-mv1_movetype" serif:id="3-mv1_movetype" x="0.369" y="0.833" width="1805.09" height="1646.58" style="fill:none;"/><g id="大譜表"><rect id="外枠" x="351.946" y="130.833" width="1400" height="239.038" style="fill:#fff;fill-opacity:0.78;stroke:#000;stroke-width:2px;"/><path id="_--G線" serif:id="↑ G線" d="M351.946,310.833l1400,0" style="fill:none;stroke:#000;stroke-width:2px;"/><path id="_--B線" serif:id="↑ B線" d="M351.946,250.833l1400,0" style="fill:none;stroke:#000;stroke-width:2px;"/><path id="_--D線" serif:id="↑ D線" d="M351.946,190.833l1400,0" style="fill:none;stroke:#000;stroke-width:2px;"/></g><g id="_2分音符-Ba." serif:id="2分音符 Ba."><path id="onpu" d="M634.388,364.446c17.817,-9.549 27.311,-26.835 21.471,-39.838c-6.229,-13.871 -27.635,-17.785 -47.78,-8.738c-20.145,9.047 -31.439,27.647 -25.21,41.518c6.229,13.87 27.635,17.784 47.78,8.737c1.259,-0.565 2.551,-1.042 3.739,-1.679Z" style="fill:#0d1419;"/><rect id="しっぽ" x="652.579" y="150.998" width="5" height="180" style="fill:#0d1419;"/></g><path d="M694.707,353.646l0,-18.686l114.084,0l0,-17.351l26.695,26.694l-26.695,26.695l0,-17.352l-114.084,0Z"/><path id="bar-0" serif:id="bar 0" d="M348.369,132.998l0,237.037" style="fill:none;stroke:#000;stroke-width:6px;"/><path id="G" d="M453.346,285.619c-5.53,1.134 -10.655,4.169 -15.547,9.002c-4.897,4.923 -7.519,10.537 -7.948,16.748c-0.269,3.905 0.759,8.434 3.014,13.315c2.249,4.969 5.924,8.7 10.841,11.268c1.666,0.472 2.405,1.414 2.319,2.657c-0.03,0.443 -0.683,0.844 -2.22,1.095c-7.954,-2.6 -14.325,-7.408 -19.037,-14.242c-4.706,-6.922 -6.861,-14.56 -6.451,-23.091c0.898,-9.121 4.243,-17.45 10.03,-24.896c5.882,-7.529 13.117,-12.647 21.705,-15.353l-3.964,-31.925c-14.482,10.413 -26.416,21.448 -35.901,33.275c-9.479,11.739 -14.851,24.831 -16.205,39.271c-0.269,6.49 0.63,12.882 2.705,19.088c2.068,6.294 5.424,12.054 10.056,17.455c9.36,10.721 22.075,16.858 37.96,18.489c5.451,0.02 11.3,-0.557 17.636,-1.725l-8.993,-70.431Zm6.466,-0.445l9.168,69.195c14.078,-4.557 21.754,-16.064 23.015,-34.343c-0.378,-6.178 -1.778,-11.802 -4.465,-16.891c-2.593,-5.172 -6.237,-9.346 -11.023,-12.53c-4.785,-3.183 -10.291,-4.989 -16.695,-5.431Zm-11.868,-93.543c3.058,-1.572 6.653,-4.445 10.6,-8.541c3.94,-4.008 7.848,-8.82 11.619,-14.266c3.868,-5.528 7.029,-11.195 9.485,-16.999c2.45,-5.715 3.814,-11.238 4.169,-16.385c0.154,-2.218 0.129,-4.449 -0.181,-6.432c-0.136,-3.219 -0.943,-5.771 -2.516,-7.573c-1.58,-1.714 -3.654,-2.749 -6.322,-2.933c-5.338,-0.368 -10.367,2.584 -15.09,8.855c-3.683,5.452 -6.906,12.006 -9.389,19.502c-2.579,7.579 -4.262,15.131 -4.972,22.838c-0.162,8.816 0.765,16.101 2.597,21.934Zm-5.959,4.76c-3.011,-14.651 -4.224,-29.446 -3.64,-44.384c0.75,-9.578 2.347,-18.472 4.79,-26.685c2.355,-8.218 5.43,-15.227 9.239,-21.206c3.72,-5.984 7.869,-10.423 12.359,-13.323c4.021,-2.576 6.883,-3.894 8.395,-3.79c1.156,0.08 2.104,0.591 2.938,1.451c0.835,0.86 1.899,2.271 3.2,4.144c9.551,15.727 13.639,34.197 12.181,55.316c-0.691,10.027 -2.699,19.696 -6.041,29.273c-3.247,9.494 -7.709,18.458 -13.373,26.716c-5.759,8.34 -12.328,15.465 -19.802,21.458l4.792,35.459c3.945,-0.174 6.638,-0.345 8.15,-0.24c6.76,0.466 12.711,2.303 18.119,5.529c5.408,3.227 9.948,7.374 13.525,12.524c3.583,5.062 6.228,10.772 7.934,17.131c1.618,6.352 2.327,12.91 1.862,19.654c-0.723,10.471 -4.141,19.864 -10.25,28.091c-6.109,8.226 -14.816,13.956 -26.217,17.27c0.412,4.397 1.222,10.784 2.533,18.987c1.216,8.287 2.103,14.857 2.662,19.71c0.559,4.853 0.596,9.491 0.284,14.017c-0.484,7.01 -2.602,13.105 -6.362,18.373c-3.849,5.262 -8.768,9.203 -14.847,11.815c-5.99,2.618 -12.498,3.684 -19.437,3.205c-9.784,-0.675 -18.134,-4.015 -25.054,-9.931c-6.915,-6.005 -10.32,-13.64 -10.027,-23.07c0.555,-4.152 1.802,-7.989 3.839,-11.593c2.036,-3.604 4.646,-6.456 7.918,-8.548c3.19,-2.187 6.923,-3.178 11.122,-3.156c3.469,0.24 6.693,1.443 9.677,3.521c2.89,2.161 5.203,4.906 6.844,8.318c1.553,3.406 2.28,7.112 2.011,11.016c-0.361,5.236 -2.446,9.55 -6.256,12.942c-3.809,3.393 -8.474,4.943 -13.9,4.569l-2.046,-0.141c3.102,5.563 8.605,8.707 16.522,9.253c4.003,0.276 8.156,-0.329 12.358,-1.644c4.297,-1.397 7.919,-3.376 11.05,-6.013c3.131,-2.637 5.296,-5.519 6.317,-8.658c1.764,-3.534 2.824,-8.543 3.259,-14.843c0.294,-4.259 0.143,-8.549 -0.364,-12.864c-0.513,-4.226 -1.372,-9.902 -2.585,-16.94c-1.218,-6.949 -2.096,-12.359 -2.557,-16.046c-5.429,0.962 -10.993,1.292 -16.774,0.893c-9.696,-0.669 -18.723,-3.253 -27.076,-7.842c-8.353,-4.588 -15.534,-10.612 -21.627,-18.165c-6.003,-7.547 -10.522,-15.883 -13.545,-25.185c-2.939,-9.208 -4.158,-18.743 -3.574,-28.51c0.98,-9.026 3.271,-17.606 7.036,-25.548c3.772,-8.032 8.402,-15.558 13.974,-22.485c5.573,-6.926 11.28,-13.219 17.116,-18.79c5.919,-5.476 13.645,-12.521 23.348,-21.035Z" style="fill:#131516;stroke:#131516;stroke-width:0.27px;stroke-linecap:butt;stroke-linejoin:miter;stroke-miterlimit:4;"/><path id="bar2" d="M1748.58,132.479l0,237.037" style="fill:none;stroke:#000;stroke-width:4px;"/><g id="_2分音符-Ba.1" serif:id="2分音符 Ba."><path id="onpu1" serif:id="onpu" d="M911.756,363.669c17.817,-9.549 27.311,-26.835 21.471,-39.839c-6.229,-13.87 -27.635,-17.784 -47.78,-8.737c-20.145,9.047 -31.439,27.647 -25.21,41.517c6.23,13.871 27.635,17.785 47.78,8.738c1.259,-0.566 2.551,-1.043 3.739,-1.679Z" style="fill:#0d1419;"/><rect id="しっぽ1" serif:id="しっぽ" x="929.947" y="150.22" width="5" height="180" style="fill:#0d1419;"/></g><g id="大譜表1" serif:id="大譜表"><rect id="外枠1" serif:id="外枠" x="351.946" y="690.833" width="1400" height="239.038" style="fill:#fff;fill-opacity:0.78;stroke:#000;stroke-width:2px;"/><path id="_--G線1" serif:id="↑ G線" d="M351.946,870.833l1400,0" style="fill:none;stroke:#000;stroke-width:2px;"/><path id="_--B線1" serif:id="↑ B線" d="M351.946,810.833l1400,0" style="fill:none;stroke:#000;stroke-width:2px;"/><path id="_--D線1" serif:id="↑ D線" d="M351.946,750.833l1400,0" style="fill:none;stroke:#000;stroke-width:2px;"/></g><g id="_2分音符-Ba.2" serif:id="2分音符 Ba."><path id="onpu2" serif:id="onpu" d="M634.388,924.446c17.817,-9.549 27.311,-26.835 21.471,-39.838c-6.229,-13.871 -27.635,-17.785 -47.78,-8.738c-20.145,9.047 -31.439,27.647 -25.21,41.518c6.229,13.87 27.635,17.784 47.78,8.737c1.259,-0.565 2.551,-1.042 3.739,-1.679Z" style="fill:#0d1419;"/><rect id="しっぽ2" serif:id="しっぽ" x="652.579" y="710.998" width="5" height="180" style="fill:#0d1419;"/></g><path d="M698.412,900.752l-2.186,-16.643l115.805,-15.209l-2.03,-15.454l26.898,20.653l-20.653,26.899l-2.029,-15.455l-115.805,15.209Z"/><path id="bar-01" serif:id="bar 0" d="M348.369,692.998l0,237.037" style="fill:none;stroke:#000;stroke-width:6px;"/><path id="G1" serif:id="G" d="M453.346,845.619c-5.53,1.134 -10.655,4.169 -15.547,9.002c-4.897,4.923 -7.519,10.537 -7.948,16.748c-0.269,3.905 0.759,8.434 3.014,13.315c2.249,4.969 5.924,8.7 10.841,11.268c1.666,0.472 2.405,1.414 2.319,2.657c-0.03,0.443 -0.683,0.844 -2.22,1.095c-7.954,-2.6 -14.325,-7.408 -19.037,-14.242c-4.706,-6.922 -6.861,-14.56 -6.451,-23.091c0.898,-9.121 4.243,-17.45 10.03,-24.896c5.882,-7.529 13.117,-12.647 21.705,-15.353l-3.964,-31.925c-14.482,10.413 -26.416,21.448 -35.901,33.275c-9.479,11.739 -14.851,24.831 -16.205,39.271c-0.269,6.49 0.63,12.882 2.705,19.088c2.068,6.294 5.424,12.054 10.056,17.455c9.36,10.721 22.075,16.858 37.96,18.489c5.451,0.02 11.3,-0.557 17.636,-1.725l-8.993,-70.431Zm6.466,-0.445l9.168,69.195c14.078,-4.557 21.754,-16.064 23.015,-34.343c-0.378,-6.178 -1.778,-11.802 -4.465,-16.891c-2.593,-5.172 -6.237,-9.346 -11.023,-12.53c-4.785,-3.183 -10.291,-4.989 -16.695,-5.431Zm-11.868,-93.543c3.058,-1.572 6.653,-4.445 10.6,-8.541c3.94,-4.008 7.848,-8.82 11.619,-14.266c3.868,-5.528 7.029,-11.195 9.485,-16.999c2.45,-5.715 3.814,-11.238 4.169,-16.385c0.154,-2.218 0.129,-4.449 -0.181,-6.432c-0.136,-3.219 -0.943,-5.771 -2.516,-7.573c-1.58,-1.714 -3.654,-2.749 -6.322,-2.933c-5.338,-0.368 -10.367,2.584 -15.09,8.855c-3.683,5.452 -6.906,12.006 -9.389,19.502c-2.579,7.579 -4.262,15.131 -4.972,22.838c-0.162,8.816 0.765,16.101 2.597,21.934Zm-5.959,4.76c-3.011,-14.651 -4.224,-29.446 -3.64,-44.384c0.75,-9.578 2.347,-18.472 4.79,-26.685c2.355,-8.218 5.43,-15.227 9.239,-21.206c3.72,-5.984 7.869,-10.423 12.359,-13.323c4.021,-2.576 6.883,-3.894 8.395,-3.79c1.156,0.08 2.104,0.591 2.938,1.451c0.835,0.86 1.899,2.271 3.2,4.144c9.551,15.727 13.639,34.197 12.181,55.316c-0.691,10.027 -2.699,19.696 -6.041,29.273c-3.247,9.494 -7.709,18.458 -13.373,26.716c-5.759,8.34 -12.328,15.465 -19.802,21.458l4.792,35.459c3.945,-0.174 6.638,-0.345 8.15,-0.24c6.76,0.466 12.711,2.303 18.119,5.529c5.408,3.227 9.948,7.374 13.525,12.524c3.583,5.062 6.228,10.772 7.934,17.131c1.618,6.352 2.327,12.91 1.862,19.654c-0.723,10.471 -4.141,19.864 -10.25,28.091c-6.109,8.226 -14.816,13.956 -26.217,17.27c0.412,4.397 1.222,10.784 2.533,18.987c1.216,8.287 2.103,14.857 2.662,19.71c0.559,4.853 0.596,9.491 0.284,14.017c-0.484,7.01 -2.602,13.105 -6.362,18.373c-3.849,5.262 -8.768,9.203 -14.847,11.815c-5.99,2.618 -12.498,3.684 -19.437,3.205c-9.784,-0.675 -18.134,-4.015 -25.054,-9.931c-6.915,-6.005 -10.32,-13.64 -10.027,-23.07c0.555,-4.152 1.802,-7.989 3.839,-11.593c2.036,-3.604 4.646,-6.456 7.918,-8.548c3.19,-2.187 6.923,-3.178 11.122,-3.156c3.469,0.24 6.693,1.443 9.677,3.521c2.89,2.161 5.203,4.906 6.844,8.318c1.553,3.406 2.28,7.112 2.011,11.016c-0.361,5.236 -2.446,9.55 -6.256,12.942c-3.809,3.393 -8.474,4.943 -13.9,4.569l-2.046,-0.141c3.102,5.563 8.605,8.707 16.522,9.253c4.003,0.276 8.156,-0.329 12.358,-1.644c4.297,-1.397 7.919,-3.376 11.05,-6.013c3.131,-2.637 5.296,-5.519 6.317,-8.658c1.764,-3.534 2.824,-8.543 3.259,-14.843c0.294,-4.259 0.143,-8.549 -0.364,-12.864c-0.513,-4.226 -1.372,-9.902 -2.585,-16.94c-1.218,-6.949 -2.096,-12.359 -2.557,-16.046c-5.429,0.962 -10.993,1.292 -16.774,0.893c-9.696,-0.669 -18.723,-3.253 -27.076,-7.842c-8.353,-4.588 -15.534,-10.612 -21.627,-18.165c-6.003,-7.547 -10.522,-15.883 -13.545,-25.185c-2.939,-9.208 -4.158,-18.743 -3.574,-28.51c0.98,-9.026 3.271,-17.606 7.036,-25.548c3.772,-8.032 8.402,-15.558 13.974,-22.485c5.573,-6.926 11.28,-13.219 17.116,-18.79c5.919,-5.476 13.645,-12.521 23.348,-21.035Z" style="fill:#131516;stroke:#131516;stroke-width:0.27px;stroke-linecap:butt;stroke-linejoin:miter;stroke-miterlimit:4;"/><path id="bar21" serif:id="bar2" d="M1748.58,692.479l0,237.037" style="fill:none;stroke:#000;stroke-width:4px;"/><g id="_2分音符-Ba.3" serif:id="2分音符 Ba."><path id="onpu3" serif:id="onpu" d="M911.756,893.669c17.817,-9.549 27.311,-26.835 21.471,-39.839c-6.229,-13.87 -27.635,-17.784 -47.78,-8.737c-20.145,9.047 -31.439,27.647 -25.21,41.517c6.23,13.871 27.635,17.785 47.78,8.738c1.259,-0.566 2.551,-1.043 3.739,-1.679Z" style="fill:#0d1419;"/><rect id="しっぽ3" serif:id="しっぽ" x="929.947" y="680.22" width="5" height="180" style="fill:#0d1419;"/></g><g id="_2分音符-Ba.4" serif:id="2分音符 Ba."><path id="onpu4" serif:id="onpu" d="M1284.39,924.446c17.817,-9.549 27.311,-26.835 21.471,-39.838c-6.229,-13.871 -27.635,-17.785 -47.78,-8.738c-20.145,9.047 -31.439,27.647 -25.21,41.518c6.229,13.87 27.635,17.784 47.78,8.737c1.259,-0.565 2.551,-1.042 3.739,-1.679Z" style="fill:#0d1419;"/><rect id="しっぽ4" serif:id="しっぽ" x="1302.58" y="710.998" width="5" height="180" style="fill:#0d1419;"/></g><path d="M1349.11,889.765l-4.042,-16.292l113.362,-28.124l-3.753,-15.129l29.048,17.501l-17.5,29.048l-3.753,-15.128l-113.362,28.124Z"/><g id="_2分音符-Ba.5" serif:id="2分音符 Ba."><path id="onpu5" serif:id="onpu" d="M1561.76,863.669c17.817,-9.549 27.311,-26.835 21.471,-39.839c-6.229,-13.87 -27.635,-17.784 -47.78,-8.737c-20.145,9.047 -31.439,27.647 -25.21,41.517c6.23,13.871 27.635,17.785 47.78,8.738c1.259,-0.566 2.551,-1.043 3.739,-1.679Z" style="fill:#0d1419;"/><rect id="しっぽ5" serif:id="しっぽ" x="1579.95" y="650.22" width="5" height="180" style="fill:#0d1419;"/></g><g id="大譜表2" serif:id="大譜表"><rect id="外枠2" serif:id="外枠" x="351.946" y="1250.83" width="1400" height="239.038" style="fill:#fff;fill-opacity:0.78;stroke:#000;stroke-width:2px;"/><path id="_--G線2" serif:id="↑ G線" d="M351.946,1430.83l1400,0" style="fill:none;stroke:#000;stroke-width:2px;"/><path id="_--B線2" serif:id="↑ B線" d="M351.946,1370.83l1400,0" style="fill:none;stroke:#000;stroke-width:2px;"/><path id="_--D線2" serif:id="↑ D線" d="M351.946,1310.83l1400,0" style="fill:none;stroke:#000;stroke-width:2px;"/></g><g id="_2分音符-Ba.6" serif:id="2分音符 Ba."><path id="onpu6" serif:id="onpu" d="M634.388,1424.45c17.817,-9.549 27.311,-26.835 21.471,-39.838c-6.229,-13.871 -27.635,-17.785 -47.78,-8.738c-20.145,9.047 -31.439,27.647 -25.21,41.518c6.229,13.87 27.635,17.784 47.78,8.737c1.259,-0.565 2.551,-1.042 3.739,-1.679Z" style="fill:#0d1419;"/><rect id="しっぽ6" serif:id="しっぽ" x="652.579" y="1211" width="5" height="180" style="fill:#0d1419;"/></g><path d="M694.707,1410.51l3.394,-18.375l112.187,20.725l3.152,-17.062l21.4,31.099l-31.099,21.401l3.152,-17.063l-112.186,-20.725Z"/><path id="bar-02" serif:id="bar 0" d="M348.369,1253l0,237.037" style="fill:none;stroke:#000;stroke-width:6px;"/><path id="G2" serif:id="G" d="M453.346,1405.62c-5.53,1.134 -10.655,4.169 -15.547,9.002c-4.897,4.923 -7.519,10.537 -7.948,16.748c-0.269,3.905 0.759,8.434 3.014,13.315c2.249,4.969 5.924,8.7 10.841,11.268c1.666,0.472 2.405,1.414 2.319,2.657c-0.03,0.443 -0.683,0.844 -2.22,1.095c-7.954,-2.6 -14.325,-7.408 -19.037,-14.242c-4.706,-6.922 -6.861,-14.56 -6.451,-23.091c0.898,-9.121 4.243,-17.45 10.03,-24.896c5.882,-7.529 13.117,-12.647 21.705,-15.353l-3.964,-31.925c-14.482,10.413 -26.416,21.448 -35.901,33.275c-9.479,11.739 -14.851,24.831 -16.205,39.271c-0.269,6.49 0.63,12.882 2.705,19.088c2.068,6.294 5.424,12.054 10.056,17.455c9.36,10.721 22.075,16.858 37.96,18.489c5.451,0.02 11.3,-0.557 17.636,-1.725l-8.993,-70.431Zm6.466,-0.445l9.168,69.195c14.078,-4.557 21.754,-16.064 23.015,-34.343c-0.378,-6.178 -1.778,-11.802 -4.465,-16.891c-2.593,-5.172 -6.237,-9.346 -11.023,-12.53c-4.785,-3.183 -10.291,-4.989 -16.695,-5.431Zm-11.868,-93.543c3.058,-1.572 6.653,-4.445 10.6,-8.541c3.94,-4.008 7.848,-8.82 11.619,-14.266c3.868,-5.528 7.029,-11.195 9.485,-16.999c2.45,-5.715 3.814,-11.238 4.169,-16.385c0.154,-2.218 0.129,-4.449 -0.181,-6.432c-0.136,-3.219 -0.943,-5.771 -2.516,-7.573c-1.58,-1.714 -3.654,-2.749 -6.322,-2.933c-5.338,-0.368 -10.367,2.584 -15.09,8.855c-3.683,5.452 -6.906,12.006 -9.389,19.502c-2.579,7.579 -4.262,15.131 -4.972,22.838c-0.162,8.816 0.765,16.101 2.597,21.934Zm-5.959,4.76c-3.011,-14.651 -4.224,-29.446 -3.64,-44.384c0.75,-9.578 2.347,-18.472 4.79,-26.685c2.355,-8.218 5.43,-15.227 9.239,-21.206c3.72,-5.984 7.869,-10.423 12.359,-13.323c4.021,-2.576 6.883,-3.894 8.395,-3.79c1.156,0.08 2.104,0.591 2.938,1.451c0.835,0.86 1.899,2.271 3.2,4.144c9.551,15.727 13.639,34.197 12.181,55.316c-0.691,10.027 -2.699,19.696 -6.041,29.273c-3.247,9.494 -7.709,18.458 -13.373,26.716c-5.759,8.34 -12.328,15.465 -19.802,21.458l4.792,35.459c3.945,-0.174 6.638,-0.345 8.15,-0.24c6.76,0.466 12.711,2.303 18.119,5.529c5.408,3.227 9.948,7.374 13.525,12.524c3.583,5.062 6.228,10.772 7.934,17.131c1.618,6.352 2.327,12.91 1.862,19.654c-0.723,10.471 -4.141,19.864 -10.25,28.091c-6.109,8.226 -14.816,13.956 -26.217,17.27c0.412,4.397 1.222,10.784 2.533,18.987c1.216,8.287 2.103,14.857 2.662,19.71c0.559,4.853 0.596,9.491 0.284,14.017c-0.484,7.01 -2.602,13.105 -6.362,18.373c-3.849,5.262 -8.768,9.203 -14.847,11.815c-5.99,2.618 -12.498,3.684 -19.437,3.205c-9.784,-0.675 -18.134,-4.015 -25.054,-9.931c-6.915,-6.005 -10.32,-13.64 -10.027,-23.07c0.555,-4.152 1.802,-7.989 3.839,-11.593c2.036,-3.604 4.646,-6.456 7.918,-8.548c3.19,-2.187 6.923,-3.178 11.122,-3.156c3.469,0.24 6.693,1.443 9.677,3.521c2.89,2.161 5.203,4.906 6.844,8.318c1.553,3.406 2.28,7.112 2.011,11.016c-0.361,5.236 -2.446,9.55 -6.256,12.942c-3.809,3.393 -8.474,4.943 -13.9,4.569l-2.046,-0.141c3.102,5.563 8.605,8.707 16.522,9.253c4.003,0.276 8.156,-0.329 12.358,-1.644c4.297,-1.397 7.919,-3.376 11.05,-6.013c3.131,-2.637 5.296,-5.519 6.317,-8.658c1.764,-3.534 2.824,-8.543 3.259,-14.843c0.294,-4.259 0.143,-8.549 -0.364,-12.864c-0.513,-4.226 -1.372,-9.902 -2.585,-16.94c-1.218,-6.949 -2.096,-12.359 -2.557,-16.046c-5.429,0.962 -10.993,1.292 -16.774,0.893c-9.696,-0.669 -18.723,-3.253 -27.076,-7.842c-8.353,-4.588 -15.534,-10.612 -21.627,-18.165c-6.003,-7.547 -10.522,-15.883 -13.545,-25.185c-2.939,-9.208 -4.158,-18.743 -3.574,-28.51c0.98,-9.026 3.271,-17.606 7.036,-25.548c3.772,-8.032 8.402,-15.558 13.974,-22.485c5.573,-6.926 11.28,-13.219 17.116,-18.79c5.919,-5.476 13.645,-12.521 23.348,-21.035Z" style="fill:#131516;stroke:#131516;stroke-width:0.27px;stroke-linecap:butt;stroke-linejoin:miter;stroke-miterlimit:4;"/><path id="bar22" serif:id="bar2" d="M1748.58,1252.48l0,237.037" style="fill:none;stroke:#000;stroke-width:4px;"/><path id="bar23" serif:id="bar2" d="M1078.58,132.479l0,237.037" style="fill:none;stroke:#000;stroke-width:4px;"/><path id="bar24" serif:id="bar2" d="M1078.58,692.479l0,237.037" style="fill:none;stroke:#000;stroke-width:4px;"/><path id="bar25" serif:id="bar2" d="M1078.58,1252.48l0,237.037" style="fill:none;stroke:#000;stroke-width:4px;"/><g id="_2分音符-Ba.7" serif:id="2分音符 Ba."><path id="onpu7" serif:id="onpu" d="M911.756,1453.67c17.817,-9.549 27.311,-26.835 21.471,-39.839c-6.229,-13.87 -27.635,-17.784 -47.78,-8.737c-20.145,9.047 -31.439,27.647 -25.21,41.517c6.23,13.871 27.635,17.785 47.78,8.738c1.259,-0.566 2.551,-1.043 3.739,-1.679Z" style="fill:#0d1419;"/><rect id="しっぽ7" serif:id="しっぽ" x="929.947" y="1240.22" width="5" height="180" style="fill:#0d1419;"/></g><g id="_2分音符-Ba.8" serif:id="2分音符 Ba."><path id="onpu8" serif:id="onpu" d="M1284.39,1424.45c17.817,-9.549 27.311,-26.835 21.471,-39.838c-6.229,-13.871 -27.635,-17.785 -47.78,-8.738c-20.145,9.047 -31.439,27.647 -25.21,41.518c6.229,13.87 27.635,17.784 47.78,8.737c1.259,-0.565 2.551,-1.042 3.739,-1.679Z" style="fill:#0d1419;"/><rect id="しっぽ8" serif:id="しっぽ" x="1302.58" y="1211" width="5" height="180" style="fill:#0d1419;"/></g><path d="M1343.92,1432.93l5.245,-17.934l109.498,32.024l4.871,-16.654l18.128,33.114l-33.115,18.128l4.871,-16.654l-109.498,-32.024Z"/><g id="_2分音符-Ba.9" serif:id="2分音符 Ba."><path id="onpu9" serif:id="onpu" d="M1561.76,1483.67c17.817,-9.549 27.311,-26.835 21.471,-39.839c-6.229,-13.87 -27.635,-17.784 -47.78,-8.737c-20.145,9.047 -31.439,27.647 -25.21,41.517c6.23,13.871 27.635,17.785 47.78,8.738c1.259,-0.566 2.551,-1.043 3.739,-1.679Z" style="fill:#0d1419;"/><rect id="しっぽ9" serif:id="しっぽ" x="1579.95" y="1270.22" width="5" height="180" style="fill:#0d1419;"/></g><g><text x="74.03px" y="303.126px" style="font-family:'HiraKakuProN-W6', 'Hiragino Kaku Gothic ProN', sans-serif;font-weight:600;font-size:96px;">保</text><text x="165.23px" y="303.126px" style="font-family:'HiraKakuProN-W6', 'Hiragino Kaku Gothic ProN', sans-serif;font-weight:600;font-size:96px;">留</text></g><g><text x="674.247px" y="466.286px" style="font-family:'HiraKakuProN-W3', 'Hiragino Kaku Gothic ProN', sans-serif;font-weight:300;font-size:56px;">①</text><text x="727.447px" y="466.286px" style="font-family:'HiraKakuProN-W3', 'Hiragino Kaku Gothic ProN', sans-serif;font-weight:300;font-size:56px;">保留</text></g><g><text x="621.047px" y="1016.29px" style="font-family:'HiraKakuProN-W3', 'Hiragino Kaku Gothic ProN', sans-serif;font-weight:300;font-size:56px;">②</text><g transform="matrix(1,0,0,1,674.247,1016.29)"><text x="0px" y="0px" style="font-family:'STHeitiSC-Light', 'Heiti SC';font-weight:300;font-size:56px;">顺</text><text x="56px" y="0px" style="font-family:'HiraKakuProN-W3', 'Hiragino Kaku Gothic ProN', sans-serif;font-weight:300;font-size:56px;">序上行</text></g></g><g><text x="1281.05px" y="1016.29px" style="font-family:'HiraKakuProN-W3', 'Hiragino Kaku Gothic ProN', sans-serif;font-weight:300;font-size:56px;">③</text><g transform="matrix(1,0,0,1,1334.25,1016.29)"><text x="0px" y="0px" style="font-family:'HiraKakuProN-W3', 'Hiragino Kaku Gothic ProN', sans-serif;font-weight:300;font-size:56px;">跳</text><text x="56px" y="0px" style="font-family:'STHeitiSC-Light', 'Heiti SC';font-weight:300;font-size:56px;">跃</text><text x="112px" y="0px" style="font-family:'HiraKakuProN-W3', 'Hiragino Kaku Gothic ProN', sans-serif;font-weight:300;font-size:56px;">上行</text></g></g><g><text x="621.047px" y="1576.29px" style="font-family:'HiraKakuProN-W3', 'Hiragino Kaku Gothic ProN', sans-serif;font-weight:300;font-size:56px;">④</text><g transform="matrix(1,0,0,1,674.247,1576.29)"><text x="0px" y="0px" style="font-family:'STHeitiSC-Light', 'Heiti SC';font-weight:300;font-size:56px;">顺</text><text x="56px" y="0px" style="font-family:'HiraKakuProN-W3', 'Hiragino Kaku Gothic ProN', sans-serif;font-weight:300;font-size:56px;">序下行</text></g></g><g><text x="1281.05px" y="1576.29px" style="font-family:'HiraKakuProN-W3', 'Hiragino Kaku Gothic ProN', sans-serif;font-weight:300;font-size:56px;">⑤</text><g transform="matrix(1,0,0,1,1334.25,1576.29)"><text x="0px" y="0px" style="font-family:'HiraKakuProN-W3', 'Hiragino Kaku Gothic ProN', sans-serif;font-weight:300;font-size:56px;">跳</text><text x="56px" y="0px" style="font-family:'STHeitiSC-Light', 'Heiti SC';font-weight:300;font-size:56px;">跃</text><text x="112px" y="0px" style="font-family:'HiraKakuProN-W3', 'Hiragino Kaku Gothic ProN', sans-serif;font-weight:300;font-size:56px;">下行</text></g></g><g><text x="74.03px" y="853.126px" style="font-family:'HiraKakuProN-W6', 'Hiragino Kaku Gothic ProN', sans-serif;font-weight:600;font-size:96px;">上</text><text x="165.23px" y="853.126px" style="font-family:'HiraKakuProN-W6', 'Hiragino Kaku Gothic ProN', sans-serif;font-weight:600;font-size:96px;">行</text></g><g><text x="74.03px" y="1413.13px" style="font-family:'HiraKakuProN-W6', 'Hiragino Kaku Gothic ProN', sans-serif;font-weight:600;font-size:96px;">下</text><text x="165.23px" y="1413.13px" style="font-family:'HiraKakuProN-W6', 'Hiragino Kaku Gothic ProN', sans-serif;font-weight:600;font-size:96px;">行</text></g></svg>