<?xml version="1.0" encoding="UTF-8" standalone="no"?><!DOCTYPE svg PUBLIC "-//W3C//DTD SVG 1.1//EN" "http://www.w3.org/Graphics/SVG/1.1/DTD/svg11.dtd"><svg width="1773.0px" height="521.0px" viewBox="0 0 1773 521" version="1.1" xmlns="http://www.w3.org/2000/svg" xmlns:xlink="http://www.w3.org/1999/xlink" xml:space="preserve" xmlns:serif="http://www.serif.com/" style="fill-rule:evenodd;clip-rule:evenodd;stroke-linecap:round;stroke-linejoin:round;stroke-miterlimit:1.5;"><rect id="_3-mv1_4nuki" serif:id="3-mv1_4nuki" x="0.845" y="0.895" width="1771.17" height="520.044" style="fill:none;"/><g id="大譜表"><rect id="外枠" x="72.422" y="110.059" width="1637.89" height="239.038" style="fill:#fff;fill-opacity:0.776471;stroke:#000;stroke-width:2px;"/><path id="_--G線" serif:id="↑ G線" d="M72.422,290.059l1637.89,0" style="fill:none;stroke:#000;stroke-width:2px;"/><path id="_--B線" serif:id="↑ B線" d="M72.422,230.059l1637.89,0" style="fill:none;stroke:#000;stroke-width:2px;"/><path id="_--D線" serif:id="↑ D線" d="M72.422,170.059l1637.89,0" style="fill:none;stroke:#000;stroke-width:2px;"/></g><g id="_2分音符-Ba." serif:id="2分音符 Ba."><path id="onpu" d="M1275.28,284.281c17.817,-9.549 27.311,-26.835 21.471,-39.838c-6.229,-13.871 -27.634,-17.785 -47.78,-8.738c-20.145,9.047 -31.439,27.647 -25.21,41.517c6.23,13.871 27.635,17.785 47.78,8.738c1.259,-0.565 2.552,-1.043 3.739,-1.679Z"/><rect id="しっぽ" x="1293.47" y="70.833" width="5" height="180"/></g><g id="_2分音符-Ba.1" serif:id="2分音符 Ba."><path id="onpu1" serif:id="onpu" d="M1105.28,314.281c17.817,-9.549 27.311,-26.835 21.471,-39.838c-6.229,-13.871 -27.634,-17.785 -47.78,-8.738c-20.145,9.047 -31.439,27.647 -25.21,41.517c6.23,13.871 27.635,17.785 47.78,8.738c1.259,-0.565 2.552,-1.043 3.739,-1.679Z"/><rect id="しっぽ1" serif:id="しっぽ" x="1123.47" y="100.833" width="5" height="180"/></g><g id="_2分音符-Ba.2" serif:id="2分音符 Ba."><path id="onpu2" serif:id="onpu" d="M1595.14,177.384c-17.817,9.549 -27.31,26.835 -21.47,39.838c6.229,13.871 27.634,17.785 47.779,8.738c20.145,-9.047 31.44,-27.647 25.21,-41.517c-6.229,-13.871 -27.634,-17.785 -47.779,-8.738c-1.259,0.565 -2.552,1.043 -3.74,1.679Z"/><rect id="しっぽ2" serif:id="しっぽ" x="1571.95" y="210.833" width="5" height="180"/></g><g id="_2分音符-Ba.3" serif:id="2分音符 Ba."><path id="onpu3" serif:id="onpu" d="M1425.14,207.384c-17.817,9.549 -27.31,26.835 -21.47,39.838c6.229,13.871 27.634,17.785 47.779,8.738c20.145,-9.047 31.44,-27.647 25.21,-41.517c-6.229,-13.871 -27.634,-17.785 -47.779,-8.738c-1.259,0.565 -2.552,1.043 -3.74,1.679Z"/><rect id="しっぽ3" serif:id="しっぽ" x="1401.95" y="240.833" width="5" height="180"/></g><path id="G" d="M178.206,289.601c-5.53,1.134 -10.655,4.169 -15.546,9.002c-4.898,4.923 -7.52,10.537 -7.949,16.748c-0.269,3.905 0.759,8.433 3.014,13.314c2.249,4.97 5.924,8.701 10.841,11.269c1.666,0.472 2.405,1.414 2.32,2.657c-0.031,0.443 -0.684,0.844 -2.221,1.095c-7.954,-2.6 -14.325,-7.408 -19.037,-14.242c-4.706,-6.922 -6.86,-14.56 -6.451,-23.091c0.898,-9.121 4.243,-17.45 10.03,-24.896c5.882,-7.529 13.117,-12.647 21.705,-15.353l-3.964,-31.925c-14.482,10.413 -26.415,21.448 -35.901,33.275c-9.479,11.739 -14.851,24.831 -16.205,39.271c-0.269,6.489 0.631,12.882 2.705,19.088c2.068,6.294 5.424,12.054 10.057,17.455c9.359,10.721 22.074,16.858 37.959,18.489c5.451,0.02 11.3,-0.557 17.637,-1.725l-8.994,-70.431l0,0Zm6.466,-0.445l9.168,69.195c14.078,-4.557 21.754,-16.064 23.015,-34.343c-0.378,-6.178 -1.777,-11.802 -4.465,-16.891c-2.593,-5.172 -6.237,-9.346 -11.022,-12.53c-4.786,-3.183 -10.292,-4.989 -16.696,-5.431l0,0Zm-11.867,-93.543c3.057,-1.572 6.652,-4.445 10.599,-8.541c3.941,-4.008 7.848,-8.82 11.62,-14.266c3.867,-5.528 7.028,-11.195 9.484,-16.999c2.45,-5.715 3.815,-11.238 4.17,-16.385c0.153,-2.218 0.128,-4.449 -0.182,-6.432c-0.136,-3.219 -0.943,-5.771 -2.516,-7.573c-1.58,-1.714 -3.654,-2.749 -6.322,-2.933c-5.337,-0.368 -10.367,2.584 -15.09,8.855c-3.683,5.452 -6.906,12.006 -9.389,19.502c-2.579,7.579 -4.262,15.13 -4.972,22.838c-0.162,8.816 0.766,16.101 2.598,21.934l0,0Zm-5.959,4.76c-3.011,-14.651 -4.225,-29.446 -3.641,-44.384c0.75,-9.578 2.347,-18.472 4.79,-26.685c2.355,-8.218 5.431,-15.228 9.239,-21.206c3.72,-5.984 7.869,-10.423 12.359,-13.323c4.021,-2.576 6.883,-3.894 8.395,-3.79c1.156,0.08 2.104,0.591 2.939,1.451c0.834,0.86 1.899,2.271 3.199,4.144c9.551,15.727 13.639,34.197 12.182,55.316c-0.692,10.027 -2.7,19.696 -6.042,29.273c-3.247,9.494 -7.709,18.458 -13.373,26.716c-5.759,8.34 -12.328,15.465 -19.802,21.458l4.793,35.459c3.944,-0.174 6.637,-0.345 8.149,-0.24c6.761,0.466 12.711,2.303 18.119,5.529c5.408,3.227 9.948,7.374 13.525,12.524c3.584,5.062 6.228,10.772 7.935,17.131c1.617,6.352 2.326,12.91 1.861,19.654c-0.723,10.471 -4.141,19.864 -10.25,28.09c-6.109,8.227 -14.816,13.957 -26.217,17.271c0.412,4.397 1.223,10.784 2.533,18.987c1.216,8.287 2.103,14.857 2.662,19.71c0.559,4.853 0.597,9.491 0.284,14.017c-0.483,7.01 -2.602,13.105 -6.362,18.373c-3.848,5.262 -8.768,9.203 -14.847,11.815c-5.99,2.618 -12.498,3.684 -19.436,3.205c-9.785,-0.675 -18.134,-4.015 -25.055,-9.931c-6.914,-6.005 -10.32,-13.64 -10.027,-23.07c0.555,-4.152 1.803,-7.989 3.839,-11.593c2.036,-3.605 4.646,-6.456 7.918,-8.548c3.19,-2.187 6.923,-3.178 11.122,-3.156c3.469,0.24 6.693,1.443 9.677,3.521c2.89,2.161 5.203,4.906 6.845,8.318c1.552,3.406 2.279,7.112 2.01,11.016c-0.361,5.236 -2.446,9.55 -6.255,12.942c-3.809,3.393 -8.475,4.943 -13.901,4.569l-2.045,-0.141c3.101,5.563 8.604,8.707 16.521,9.253c4.003,0.276 8.156,-0.329 12.358,-1.644c4.297,-1.397 7.919,-3.376 11.05,-6.013c3.132,-2.637 5.297,-5.519 6.318,-8.658c1.763,-3.534 2.823,-8.543 3.258,-14.843c0.294,-4.259 0.143,-8.549 -0.364,-12.864c-0.512,-4.226 -1.372,-9.902 -2.584,-16.94c-1.219,-6.949 -2.097,-12.359 -2.558,-16.046c-5.428,0.962 -10.992,1.292 -16.774,0.893c-9.696,-0.669 -18.723,-3.254 -27.076,-7.842c-8.353,-4.588 -15.534,-10.612 -21.626,-18.165c-6.004,-7.547 -10.523,-15.883 -13.546,-25.185c-2.939,-9.208 -4.158,-18.743 -3.574,-28.51c0.981,-9.026 3.271,-17.606 7.036,-25.548c3.772,-8.032 8.402,-15.558 13.975,-22.485c5.572,-6.926 11.279,-13.219 17.115,-18.79c5.919,-5.476 13.645,-12.521 23.349,-21.035l0,0Z" style="fill:#131516;stroke:#131516;stroke-width:0.27px;stroke-linecap:butt;stroke-linejoin:miter;stroke-miterlimit:4;"/><path id="bar-0" serif:id="bar 0" d="M68.845,112.059l0,237.038" style="fill:none;stroke:#000;stroke-width:6px;"/><g id="_2分音符-Ba.4" serif:id="2分音符 Ba."><path id="onpu4" serif:id="onpu" d="M361.695,433.343c17.817,-9.549 27.31,-26.834 21.471,-39.838c-6.23,-13.87 -27.635,-17.785 -47.78,-8.738c-20.145,9.048 -31.439,27.648 -25.21,41.518c6.229,13.87 27.634,17.785 47.78,8.738c1.259,-0.566 2.551,-1.043 3.739,-1.68Z"/><rect id="しっぽ4" serif:id="しっぽ" x="379.886" y="219.895" width="5" height="180"/></g><g id="_2分音符-Ba.5" serif:id="2分音符 Ba."><path id="onpu5" serif:id="onpu" d="M541.695,403.343c17.817,-9.549 27.31,-26.834 21.471,-39.838c-6.23,-13.87 -27.635,-17.785 -47.78,-8.738c-20.145,9.048 -31.439,27.648 -25.21,41.518c6.229,13.87 27.634,17.785 47.78,8.738c1.259,-0.566 2.551,-1.043 3.739,-1.68Z"/><rect id="しっぽ5" serif:id="しっぽ" x="559.886" y="189.895" width="5" height="180"/></g><g id="_2分音符-Ba.6" serif:id="2分音符 Ba."><path id="onpu6" serif:id="onpu" d="M721.695,373.343c17.817,-9.549 27.31,-26.834 21.471,-39.838c-6.23,-13.87 -27.635,-17.785 -47.78,-8.738c-20.145,9.048 -31.439,27.648 -25.21,41.518c6.229,13.87 27.634,17.785 47.78,8.738c1.259,-0.566 2.551,-1.043 3.739,-1.68Z"/><rect id="しっぽ6" serif:id="しっぽ" x="739.886" y="159.895" width="5" height="180"/></g><g id="_2分音符-Ba.7" serif:id="2分音符 Ba."><path id="onpu7" serif:id="onpu" d="M911.695,343.343c17.817,-9.549 27.31,-26.834 21.471,-39.838c-6.23,-13.87 -27.635,-17.785 -47.78,-8.738c-20.145,9.048 -31.439,27.648 -25.21,41.518c6.229,13.87 27.634,17.785 47.78,8.738c1.259,-0.566 2.551,-1.043 3.739,-1.68Z" style="fill:none;stroke:#000;stroke-width:2px;stroke-linecap:butt;stroke-miterlimit:1.41421;stroke-dasharray:8,8,0,0;"/></g><rect x="293.577" y="413.154" width="111.117" height="2.334"/><path d="M935.557,310.049l0,-187.761" style="fill:none;stroke:#000;stroke-width:2px;stroke-dasharray:8,8,0,0;"/></svg>