<?xml version="1.0" encoding="UTF-8"?>
<svg width="530px" height="205px" viewBox="0 0 530 205" version="1.1" xmlns="http://www.w3.org/2000/svg" xmlns:xlink="http://www.w3.org/1999/xlink">
    <title>c1-cmaj-and-amin-symbol</title>
    <g id="c1-cmaj-and-amin-symbol" stroke="none" stroke-width="1" fill="none" fill-rule="evenodd">
        <g id="Group" transform="translate(18.500000, 31.000000)" stroke="#000000">
            <line x1="0.5" y1="1" x2="486.5" y2="1" id="horizon"></line>
            <line x1="0.5" y1="21" x2="486.5" y2="21" id="horizon"></line>
            <line x1="0.5" y1="41" x2="486.5" y2="41" id="horizon"></line>
            <line x1="0.5" y1="61" x2="486.5" y2="61" id="horizon"></line>
            <line x1="0.5" y1="81" x2="486.5" y2="81" id="horizon"></line>
            <line x1="-38.5" y1="40.9933912" x2="39.5" y2="41.0066088" id="bar" stroke-width="2.72167481" stroke-linecap="round" stroke-linejoin="round" transform="translate(0.500000, 41.000000) rotate(90.000000) translate(-0.500000, -41.000000) "></line>
            <line x1="487" y1="1" x2="487" y2="81" id="bar" stroke-linecap="square"></line>
        </g>
        <path d="M43.1296633,110.970224 C42.4129923,110.916961 41.7230393,110.800751 41.0723775,110.623207 C37.6996234,109.708052 35.3641562,107.165955 34.8203664,103.815229 C34.6600584,102.833898 34.7134944,101.297342 34.9382399,100.420924 C35.1095494,99.7494871 35.5244641,98.7907533 35.8592249,98.290404 C36.4234461,97.4494944 37.3868657,96.6537776 38.3487135,96.2389719 C39.1392519,95.8967975 39.5651682,95.8064118 40.5615923,95.7709032 C41.3521307,95.7418506 41.5470149,95.7547629 42.0043641,95.8725871 C43.9940691,96.3842346 45.6065787,98.0902643 46.3059616,100.42738 C46.4631263,100.955168 46.4772711,101.089132 46.4804144,102.126953 C46.4835577,103.113126 46.4662696,103.318107 46.3421095,103.757124 C46.0670713,104.730384 45.5971488,105.514802 44.8459016,106.249186 C43.7457488,107.327358 42.4569984,107.974584 40.7171854,108.326443 L39.9706531,108.478161 L40.5002981,108.708968 C43.3276908,109.951771 46.4584113,109.832333 49.3769595,108.373249 C51.9308857,107.098166 53.9064458,104.790103 54.5853972,102.288356 C54.7504201,101.683095 54.75985,101.571727 54.7551351,100.420924 L54.7504201,99.1974889 L53.7964305,94.4651529 C53.2730721,91.8617225 52.8298677,89.684396 52.8125796,89.6246769 C52.7842899,89.5326772 52.7182807,89.5455895 52.2656465,89.734431 C49.3408117,90.9562517 44.9150541,90.9401114 40.8759217,89.6940802 C35.3421531,87.9880505 30.82524,84.2435009 28.4709131,79.4110951 C27.736954,77.9019771 27.3078944,76.4590342 27.0705757,74.6948995 C26.9637037,73.9007967 26.9809918,71.7977156 27.1035803,70.798631 C27.758957,65.4529637 30.5187689,60.0927701 35.72092,54.0562979 C37.3397163,52.177567 40.8837799,48.6622096 43.2585383,46.5784969 C43.8903404,46.0248846 43.9170584,45.989376 43.8683373,45.8102186 C43.758322,45.3954129 43.3764118,43.3827175 43.2585383,42.5934568 C42.7116052,38.9150825 42.7131769,34.6443591 43.2616816,30.9062656 C44.1229441,25.0344245 46.1425103,20.1003348 49.0814899,16.6915034 C49.6174215,16.0684879 50.7521505,15 50.8763106,15 C50.9156018,15 51.2597925,15.4712968 51.6385594,16.0475055 C55.155905,21.3770325 57.0167349,26.1238947 57.5259485,31.0563704 C57.6516802,32.2894893 57.617104,35.1834451 57.4599393,36.3116521 C56.9444391,40.0368333 55.7421293,43.2697354 53.6801286,46.4719709 C52.3316556,48.5685959 50.3010879,50.9509042 48.2280857,52.8715999 C47.75502,53.310616 47.2568079,53.7722286 47.1216463,53.8981229 L46.8764694,54.1273152 L47.9624774,59.4681405 L49.0469137,64.8105798 L49.5844169,64.768615 C51.0963412,64.6475627 52.6931344,64.7363344 53.83415,65.0026493 C55.3539325,65.35935 57.0638843,66.1728211 58.3432048,67.1460812 C59.0567325,67.6900093 60.2448975,68.9053739 60.7462529,69.6058629 C61.9454194,71.277998 62.7280996,73.271325 62.9465585,75.206547 C63.0550021,76.1636668 62.9905646,78.0262574 62.82397,78.8009918 C62.16545,81.8660347 60.2166079,84.7486923 57.247767,87.045457 C56.5138079,87.6135956 55.4435164,88.2995583 54.6655512,88.7014518 C54.1390495,88.9742228 54.0934717,89.0113455 54.128048,89.1533802 C54.1940571,89.4229232 55.0380315,93.5257874 55.3539325,95.1091509 C55.5189554,95.9403763 55.7735622,97.3171439 55.9197254,98.1677377 C56.1774755,99.6655576 56.1853337,99.743031 56.1507575,100.711449 C56.0878916,102.551443 55.6258274,103.989544 54.5822539,105.605188 C52.5941206,108.679915 49.0327689,110.640962 44.8789062,110.946013 C44.0019273,111.010574 43.7190309,111.015416 43.1296633,110.970224 Z M48.3962519,89.3083271 C49.1773604,89.2163273 50.1674979,89.0032754 50.8087298,88.7869954 C51.5945532,88.5239085 52.5422563,88.0558398 52.5045368,87.9493138 C52.4872487,87.9025069 51.6841371,83.9852561 50.7191459,79.243236 C49.7541548,74.5012159 48.9494716,70.6065615 48.9306118,70.5871931 C48.9117521,70.5678248 48.5911361,70.6130176 48.2186558,70.688877 C45.4855619,71.2424893 43.2428219,72.8097124 42.2605426,74.8530744 C41.9509281,75.4970724 41.8330546,75.9183342 41.7529006,76.6543319 C41.5831628,78.2183269 42.0860898,79.9356549 43.1155185,81.2978962 C43.7143159,82.0919989 44.6274427,82.9409787 45.4651305,83.4849068 C45.7857465,83.6931167 45.8470407,83.7948006 45.6222952,83.7463797 C45.5437129,83.7302394 45.2686747,83.6705203 45.0109246,83.6156433 C42.9850718,83.1782411 41.0252281,82.0322798 39.9140738,80.6377579 C38.9380811,79.4110951 38.4430124,78.1360114 38.3015641,76.4784026 C38.1208247,74.3656373 38.6740444,72.3287315 39.9690815,70.3321764 C40.8051976,69.0425664 42.2479694,67.6383603 43.6938845,66.708679 C44.7406013,66.0340145 46.3279646,65.3464377 47.4092577,65.0978771 C47.6072852,65.0526843 47.7691648,64.9945792 47.7691648,64.9703687 C47.7691648,64.9009654 45.7653151,55.0989613 45.7323105,55.0053475 C45.6835894,54.868155 42.9677837,57.0955164 41.1383867,58.7708795 C40.1293894,59.6957187 37.9825198,61.9311502 37.202983,62.8689017 C34.8502276,65.6982963 33.3304451,68.2436216 32.4801842,70.7728066 C31.6252083,73.322974 31.413036,75.7779136 31.8499538,78.1005028 C32.3811704,80.9250553 34.2027091,83.8803442 36.6387618,85.8704432 C39.9470784,88.5723294 44.1606636,89.8038343 48.3962519,89.3083271 Z M54.604257,86.6225811 C56.8595702,84.6857451 58.1938984,82.4825942 58.5883818,80.050251 C58.7204001,79.2351658 58.6858239,77.5162239 58.5239442,76.7560158 C57.8638526,73.6764465 55.8490013,71.2989803 53.1929181,70.4661409 C52.6695597,70.3015098 52.5485429,70.2885976 51.5175426,70.2869835 C50.8637375,70.2869835 50.3843852,70.311194 50.3513806,70.3499307 C50.318376,70.3870534 50.9926125,73.7700603 52.040901,78.8171321 C52.9996055,83.4381 53.785429,87.2278424 53.7870006,87.2391406 C53.7932872,87.2907896 54.0683254,87.0825797 54.604257,86.6225811 Z M47.2269466,43.0131046 C51.7674344,38.4679962 54.4502356,34.0423259 55.0097419,30.1702679 C55.1354736,29.2986917 55.133902,27.8767313 55.0050269,27.1019969 C54.7472768,25.5557562 54.1170465,24.198357 53.0451833,22.8893786 C52.619267,22.369661 52.5548295,22.3422225 51.7501463,22.3437768 C50.8637375,22.3454505 50.0574826,22.7667123 49.2213665,23.664113 C47.835174,25.1474066 46.6768702,27.5716797 45.823466,30.765845 C44.6368726,35.2124977 44.2722505,40.774445 44.9229123,44.541591 L45.0250694,45.1371681 L45.6600147,44.541591 C46.0089203,44.213943 46.7130181,43.5263662 47.2269466,43.0131046 Z" id="G-Clef" fill="#000000"></path>
        <path d="M150.586271,104.185068 C144.757334,107.368055 141.652344,113.128911 143.562711,117.46267 C145.600093,122.086745 152.603055,123.391419 159.192362,120.376327 C165.783386,117.361234 169.477105,111.159657 167.439724,106.53733 C165.402342,101.913255 158.39938,100.608581 151.810073,103.623673 C151.398134,103.812554 150.97418,103.971703 150.586271,104.185068 Z" id="Path" fill="#000000" transform="translate(155.500000, 112.000000) rotate(-180.000000) translate(-155.500000, -112.000000) "></path>
        <path d="M150.586271,124.185068 C144.757334,127.368055 141.652344,133.128911 143.562711,137.46267 C145.600093,142.086745 152.603055,143.391419 159.192362,140.376327 C165.783386,137.361234 169.477105,131.159657 167.439724,126.53733 C165.402342,121.913255 158.39938,120.608581 151.810073,123.623673 C151.398134,123.812554 150.97418,123.971703 150.586271,124.185068 Z" id="Path" fill="#000000" transform="translate(155.500000, 132.000000) rotate(-180.000000) translate(-155.500000, -132.000000) "></path>
        <rect id="Rectangle" fill="#000000" x="135" y="132" width="40" height="1"></rect>
        <path d="M150.586271,84.1850683 C144.757334,87.3680549 141.652344,93.1289109 143.562711,97.4626696 C145.600093,102.086745 152.603055,103.391419 159.192362,100.376327 C165.783386,97.3612338 169.477105,91.1596566 167.439724,86.5373304 C165.402342,81.9132553 158.39938,80.6085806 151.810073,83.6236734 C151.398134,83.8125539 150.97418,83.9717032 150.586271,84.1850683 Z" id="Path" fill="#000000" transform="translate(155.500000, 92.000000) rotate(-180.000000) translate(-155.500000, -92.000000) "></path>
        <path d="M380.586271,54.1850683 C374.757334,57.3680549 371.652344,63.1289109 373.562711,67.4626696 C375.600093,72.0867447 382.603055,73.3914194 389.192362,70.3763266 C395.783386,67.3612338 399.477105,61.1596566 397.439724,56.5373304 C395.402342,51.9132553 388.39938,50.6085806 381.810073,53.6236734 C381.398134,53.8125539 380.97418,53.9717032 380.586271,54.1850683 Z" id="Path" fill="#000000" transform="translate(385.500000, 62.000000) rotate(-180.000000) translate(-385.500000, -62.000000) "></path>
        <path d="M380.586271,74.1850683 C374.757334,77.3680549 371.652344,83.1289109 373.562711,87.4626696 C375.600093,92.0867447 382.603055,93.3914194 389.192362,90.3763266 C395.783386,87.3612338 399.477105,81.1596566 397.439724,76.5373304 C395.402342,71.9132553 388.39938,70.6085806 381.810073,73.6236734 C381.398134,73.8125539 380.97418,73.9717032 380.586271,74.1850683 Z" id="Path" fill="#000000" transform="translate(385.500000, 82.000000) rotate(-180.000000) translate(-385.500000, -82.000000) "></path>
        <path d="M380.586271,34.1850683 C374.757334,37.3680549 371.652344,43.1289109 373.562711,47.4626696 C375.600093,52.0867447 382.603055,53.3914194 389.192362,50.3763266 C395.783386,47.3612338 399.477105,41.1596566 397.439724,36.5373304 C395.402342,31.9132553 388.39938,30.6085806 381.810073,33.6236734 C381.398134,33.8125539 380.97418,33.9717032 380.586271,34.1850683 Z" id="Path" fill="#000000" transform="translate(385.500000, 42.000000) rotate(-180.000000) translate(-385.500000, -42.000000) "></path>
        <line x1="263" y1="33" x2="263" y2="112" id="Path-36" stroke="#000000" stroke-linecap="square" fill-rule="nonzero"></line>
        <g id="Group" transform="translate(133.000000, 157.000000)" fill="#0C0C0C" fill-rule="nonzero">
            <g id="Combined-Shape">
                <path d="M21.9080942,30.3479121 C25.4180942,30.3479121 28.7200942,28.2939121 29.5520942,23.9519121 C29.5780942,23.6919121 29.4480942,23.5879121 29.2140942,23.5879121 L27.3160942,23.5879121 C27.0820942,23.5879121 26.9520942,23.6659121 26.8740942,23.9519121 C26.1980942,26.4219121 24.3780942,27.9299121 21.9600942,27.9299121 C18.7100942,27.9299121 16.4740942,25.1739121 16.4740942,20.9879121 C16.4740942,16.8019121 18.7100942,14.0459121 21.9600942,14.0459121 C24.3780942,14.0459121 26.1980942,15.5539121 26.8740942,18.0239121 C26.9520942,18.3099121 27.0820942,18.3879121 27.3160942,18.3879121 L29.2140942,18.3879121 C29.4480942,18.3879121 29.5780942,18.2839121 29.5520942,18.0239121 C28.7200942,13.6819121 25.4180942,11.6279121 21.9080942,11.6279121 C17.0720942,11.6279121 13.7440942,15.3719121 13.7440942,20.9879121 C13.7440942,26.6039121 17.0720942,30.3479121 21.9080942,30.3479121 Z"></path>
            </g>
        </g>
        <g id="Group" transform="translate(363.000000, 157.000000)" fill="#0C0C0C" fill-rule="nonzero">
            <g id="CN-Alphabet">
                <path d="M15.9670942,30.0879121 C16.2010942,30.0879121 16.2530942,29.9579121 16.3310942,29.7239121 L17.4230942,26.7339121 L25.4570942,26.7339121 L26.5230942,29.7239121 C26.6270942,29.9579121 26.6790942,30.0879121 26.9130942,30.0879121 L29.2010942,30.0879121 C29.4610942,30.0879121 29.5390942,29.9579121 29.4610942,29.7239121 L22.6750942,12.2259121 C22.5970942,12.0179121 22.4930942,11.8879121 22.2590942,11.8879121 L20.7510942,11.8879121 C20.4910942,11.8879121 20.4130942,12.0179121 20.3090942,12.2519121 L13.5230942,29.7239121 C13.4190942,29.9579121 13.5490942,30.0879121 13.7570942,30.0879121 L15.9670942,30.0879121 Z M24.6250942,24.4459121 L18.2550942,24.4459121 L20.8550942,17.3219121 L21.4530942,15.1379121 L22.0510942,17.3219121 L24.6250942,24.4459121 Z" id="Combined-Shape"></path>
            </g>
        </g>
        <g id="Group" transform="translate(389.000000, 157.000000)" fill="#0C0C0C" fill-rule="nonzero">
            <g id="Combined-Shape">
                <path d="M8.13391441,30.1038961 C8.34991441,30.1038961 8.46991441,29.9838961 8.46991441,29.7678961 L8.46991441,22.9038961 C9.21391441,22.3278961 9.86191441,22.0878961 10.5579144,22.0878961 C11.8299144,22.0878961 12.4299144,22.8798961 12.4299144,24.4638961 L12.4299144,29.7678961 C12.4299144,29.9838961 12.5739144,30.1038961 12.7659144,30.1038961 L14.4219144,30.1038961 C14.6379144,30.1038961 14.7579144,29.9838961 14.7579144,29.7678961 L14.7579144,24.2238961 C14.7579144,23.7918961 14.7099144,23.3838961 14.6619144,23.0238961 C15.3339144,22.4238961 16.0779144,22.0878961 16.8459144,22.0878961 C18.0699144,22.0878961 18.6939144,22.8798961 18.6939144,24.4638961 L18.6939144,29.7678961 C18.6939144,29.9838961 18.8139144,30.1038961 19.0299144,30.1038961 L20.6859144,30.1038961 C20.9019144,30.1038961 21.0219144,29.9838961 21.0219144,29.7678961 L21.0219144,24.2238961 C21.0219144,21.4638961 19.5339144,20.0238961 17.3019144,20.0238961 C16.0299144,20.0238961 14.9019144,20.5038961 13.9899144,21.4158961 C13.3659144,20.5038961 12.3339144,20.0238961 11.0859144,20.0238961 C9.95791441,20.0238961 9.02191441,20.3838961 7.96591441,21.1758961 C7.70191441,20.5758961 7.19791441,20.2638961 6.38191441,20.2638961 L5.39791441,20.2638961 C5.18191441,20.2638961 5.06191441,20.3838961 5.06191441,20.5998961 L5.06191441,21.7998961 C5.06191441,22.0158961 5.18191441,22.1358961 5.39791441,22.1358961 L5.66191441,22.1358961 C6.06991441,22.1358961 6.11791441,22.3518961 6.11791441,22.9278961 L6.11791441,23.8638961 L6.14191441,23.8638961 L6.14191441,29.7678961 C6.14191441,29.9838961 6.23791441,30.1038961 6.47791441,30.1038961 L8.13391441,30.1038961 Z"></path>
            </g>
        </g>
    </g>
</svg>