<?xml version="1.0" encoding="UTF-8" standalone="no"?><!DOCTYPE svg PUBLIC "-//W3C//DTD SVG 1.1//EN" "http://www.w3.org/Graphics/SVG/1.1/DTD/svg11.dtd"><svg width="730.0px" height="460.0px" viewBox="0 0 730 460" version="1.1" xmlns="http://www.w3.org/2000/svg" xmlns:xlink="http://www.w3.org/1999/xlink" xml:space="preserve" xmlns:serif="http://www.serif.com/" style="fill-rule:evenodd;clip-rule:evenodd;"><g id="c1-diatonic-interval-stacked-per-type"><g id="Group-324"><path id="Stroke-304" d="M38,344.5l662,0" style="fill:none;stroke:#b8b8b8;stroke-width:0.5px;"/><path id="Stroke-306" d="M38,304.5l662,0" style="fill:none;stroke:#b8b8b8;stroke-width:0.5px;"/><path id="Stroke-308" d="M38,264.5l662,0" style="fill:none;stroke:#b8b8b8;stroke-width:0.5px;"/><path id="Stroke-310" d="M38,224.5l662,0" style="fill:none;stroke:#b8b8b8;stroke-width:0.5px;"/><path id="Stroke-312" d="M38,184.5l662,0" style="fill:none;stroke:#b8b8b8;stroke-width:0.5px;"/><path id="Stroke-314" d="M38,144.5l662,0" style="fill:none;stroke:#b8b8b8;stroke-width:0.5px;"/><path id="Stroke-316" d="M38,104.5l662,0" style="fill:none;stroke:#b8b8b8;stroke-width:0.5px;"/><path id="Stroke-318" d="M38,64.5l662,0" style="fill:none;stroke:#b8b8b8;stroke-width:0.5px;"/><path id="Stroke-320" d="M38,24.5l662,0" style="fill:none;stroke:#b8b8b8;stroke-width:0.5px;"/></g><rect id="Axis" x="25" y="384" width="660" height="4"/><rect id="Rectangle" x="101" y="344" width="55" height="40"/><rect id="Rectangle1" serif:id="Rectangle" x="101" y="184" width="55" height="40" style="fill:#3db8f5;"/><rect id="Rectangle2" serif:id="Rectangle" x="101" y="64" width="55" height="40" style="fill:#ffbf00;"/><rect id="Rectangle3" serif:id="Rectangle" x="101" y="304" width="55" height="40" style="fill:#aaa;"/><rect id="Rectangle4" serif:id="Rectangle" x="101" y="264" width="55" height="40" style="fill:#ccc;"/><rect id="Rectangle5" serif:id="Rectangle" x="101" y="224" width="55" height="40" style="fill:#aaa;"/><rect id="Rectangle6" serif:id="Rectangle" x="101" y="144" width="55" height="40" style="fill:#ccc;"/><rect id="Rectangle7" serif:id="Rectangle" x="101" y="104" width="55" height="40" style="fill:#aaa;"/><rect id="Rectangle8" serif:id="Rectangle" x="489" y="344" width="55" height="40"/><rect id="Rectangle9" serif:id="Rectangle" x="489" y="64" width="55" height="40" style="fill:#ffbf00;"/><rect id="Rectangle10" serif:id="Rectangle" x="489" y="304" width="55" height="40" style="fill:#aaa;"/><rect id="Rectangle11" serif:id="Rectangle" x="489" y="264" width="55" height="40" style="fill:#ccc;"/><rect id="Rectangle12" serif:id="Rectangle" x="489" y="224" width="55" height="40" style="fill:#f63;"/><rect id="Rectangle13" serif:id="Rectangle" x="489" y="144" width="55" height="40" style="fill:#ccc;"/><rect id="Rectangle14" serif:id="Rectangle" x="489" y="184" width="55" height="40" style="fill:#aaa;"/><rect id="Rectangle15" serif:id="Rectangle" x="489" y="104" width="55" height="40" style="fill:#aaa;"/><rect id="Rectangle16" serif:id="Rectangle" x="190" y="184" width="55" height="40" style="fill:#3db8f5;"/><rect id="Rectangle17" serif:id="Rectangle" x="190" y="344" width="55" height="40"/><rect id="Rectangle18" serif:id="Rectangle" x="190" y="264" width="55" height="40" style="fill:#ccc;"/><rect id="Rectangle19" serif:id="Rectangle" x="190" y="304" width="55" height="40" style="fill:#aaa;"/><rect id="Rectangle20" serif:id="Rectangle" x="190" y="224" width="55" height="40" style="fill:#aaa;"/><rect id="Rectangle21" serif:id="Rectangle" x="190" y="104" width="55" height="40" style="fill:#ccc;"/><rect id="Rectangle22" serif:id="Rectangle" x="190" y="64" width="55" height="40" style="fill:#ffbf00;"/><rect id="Rectangle23" serif:id="Rectangle" x="280" y="184" width="55" height="40" style="fill:#3db8f5;"/><rect id="Rectangle24" serif:id="Rectangle" x="280" y="144" width="55" height="40" style="fill:#ccc;"/><rect id="Rectangle25" serif:id="Rectangle" x="280" y="104" width="55" height="40" style="fill:#aaa;"/><rect id="Rectangle26" serif:id="Rectangle" x="280" y="64" width="55" height="40" style="fill:#ffbf00;"/><rect id="Rectangle27" serif:id="Rectangle" x="401" y="344" width="55" height="40"/><rect id="Rectangle28" serif:id="Rectangle" x="401" y="264" width="55" height="40" style="fill:#ccc;"/><rect id="Rectangle29" serif:id="Rectangle" x="401" y="224" width="55" height="40" style="fill:#f63;"/><rect id="Rectangle30" serif:id="Rectangle" x="401" y="64" width="55" height="40" style="fill:#ffbf00;"/><rect id="Rectangle31" serif:id="Rectangle" x="401" y="184" width="55" height="40" style="fill:#aaa;"/><rect id="Rectangle32" serif:id="Rectangle" x="401" y="144" width="55" height="40" style="fill:#ccc;"/><rect id="Rectangle33" serif:id="Rectangle" x="401" y="104" width="55" height="40" style="fill:#aaa;"/><rect id="Rectangle34" serif:id="Rectangle" x="401" y="304" width="55" height="40" style="fill:#aaa;"/><rect id="Rectangle35" serif:id="Rectangle" x="280" y="264" width="55" height="40" style="fill:#ccc;"/><rect id="Rectangle36" serif:id="Rectangle" x="280" y="224" width="55" height="40" style="fill:#aaa;"/><rect id="Rectangle37" serif:id="Rectangle" x="280" y="304" width="55" height="40" style="fill:#aaa;"/><rect id="Rectangle38" serif:id="Rectangle" x="280" y="344" width="55" height="40"/><rect id="Rectangle39" serif:id="Rectangle" x="190" y="144" width="55" height="40" style="fill:#aaa;"/><g id="Degree"><path d="M20.46,373.22c1.82,0 3.5,-0.98 4.52,-2.64c1.12,-1.82 1.84,-4.38 1.84,-6.54c-0,-2.62 -1.24,-4.1 -3.42,-4.1c-2.34,0 -4.32,1.66 -5.38,4.48c-0.58,1.54 -0.92,3.28 -0.92,4.66c-0,2.68 1.2,4.14 3.36,4.14Zm0.26,-0.84c-0.82,-0 -1.34,-0.76 -1.34,-1.98c-0,-2.52 0.8,-5.96 1.84,-8c0.54,-1.06 1.24,-1.62 2,-1.62c0.82,-0 1.32,0.72 1.32,1.86c-0,2.8 -0.88,6.54 -2,8.48c-0.44,0.78 -1.14,1.26 -1.82,1.26Z" style="fill:#888;"/></g><g id="Degree1" serif:id="Degree"><path d="M23.82,333l0.16,-0.78l-0.26,0c-1,0 -1.4,-0.24 -1.4,-0.82c-0,-0.34 0.06,-0.84 0.18,-1.38l1.4,-6.62c0.38,-1.72 0.56,-2.48 0.78,-3.22l-0.5,-0.36c-1.12,0.6 -2.34,1.16 -4.24,1.92l0.2,0.78c1.08,-0.4 1.26,-0.46 1.74,-0.66c-0.02,0.16 -0.04,0.26 -0.08,0.46l-0.14,0.6l-1.5,7.1c-0.42,1.96 -0.62,2.14 -2.3,2.2l-0.16,0.78c1.14,-0.06 1.84,-0.08 3.08,-0.08c1.24,0 1.92,0.02 3.04,0.08Z" style="fill:#888;"/></g><g id="Degree2" serif:id="Degree"><path d="M23.86,293c0.72,-1.18 1.24,-1.98 1.88,-2.88l-0.66,-0.26c-0.5,0.62 -0.88,0.92 -1.46,1.1c-0.433,0.133 -0.631,0.156 -2.258,0.159l-1.587,0c-0.317,-0.002 -0.755,-0.006 -1.315,-0.019c0.88,-0.68 1.12,-0.88 2.62,-2.02c2.16,-1.64 3.14,-2.5 3.94,-3.4c1.02,-1.14 1.48,-2.18 1.48,-3.24c-0,-1.52 -1.14,-2.5 -2.88,-2.5c-1.86,-0 -3.64,1.12 -5.12,3.18l0.66,0.36c1.12,-1.34 2.04,-1.9 3.06,-1.9c0.94,-0 1.6,0.6 1.6,1.48c-0,0.76 -0.52,1.82 -1.48,2.98c-1.56,1.9 -4.14,4.34 -6.72,6.34l0.12,0.62c0.16,-0.006 0.315,-0.012 0.468,-0.017l0.456,-0.014c0.685,-0.019 1.397,-0.029 2.436,-0.029c1.68,-0 2.72,0.02 4.76,0.06Z" style="fill:#888;"/></g><g id="Degree3" serif:id="Degree"><path d="M19.58,253.22c1.94,0 3.62,-0.74 4.72,-2.08c0.72,-0.86 1.12,-1.92 1.12,-2.92c-0,-1.48 -0.88,-2.3 -2.68,-2.48c2.16,-0.72 3.3,-1.94 3.3,-3.52c-0,-1.36 -1.06,-2.28 -2.6,-2.28c-1.54,0 -2.98,0.76 -4.42,2.32l0.58,0.48c0.98,-1 1.82,-1.46 2.68,-1.46c0.82,0 1.34,0.56 1.34,1.42c-0,0.68 -0.32,1.36 -0.86,1.88c-0.6,0.58 -1.36,0.86 -2.64,0.96l-0.16,0.76c2.08,0 2.98,0.64 2.98,2.16c-0,2.02 -1.34,3.88 -2.8,3.88c-0.66,0 -1.12,-0.38 -1.24,-1c-0.1,-0.58 -0.1,-0.58 -0.22,-0.7c-0.14,-0.2 -0.4,-0.32 -0.7,-0.32c-0.78,0 -1.38,0.54 -1.38,1.24c-0,0.96 1.24,1.66 2.98,1.66Z" style="fill:#888;"/></g><g id="Degree4" serif:id="Degree"><path d="M23.44,213l0.74,-3.46l1.64,0l0.34,-1.54l-1.66,0l1.76,-8.3l-2.48,0.72l-6.54,7.54l-0.54,1.58l5.2,0l-0.72,3.46l2.26,0Zm-1.2,-5l-3.82,0l5.14,-5.98l-1.32,5.98Z" style="fill:#888;"/></g><g id="Degree5" serif:id="Degree"><path d="M19.32,173.22c1.96,0 3.74,-0.84 5,-2.38c0.88,-1.08 1.4,-2.4 1.4,-3.58c-0,-1.86 -1.36,-3 -3.62,-3c-0.48,0 -0.84,0.04 -1.42,0.14l0.88,-2.24l4.7,0l0.96,-2l-5.92,0l-2.46,6.28l0.34,0.32c0.68,-0.2 1.22,-0.28 1.84,-0.28c1.62,0 2.56,0.78 2.56,2.1c-0,1.86 -1.64,3.72 -3.26,3.72c-0.58,0 -1.02,-0.36 -1.26,-1c-0.24,-0.72 -0.4,-0.86 -0.96,-0.86c-0.74,0 -1.36,0.58 -1.36,1.28c-0,0.88 1.06,1.5 2.58,1.5Z" style="fill:#888;"/></g><g id="Degree6" serif:id="Degree"><path d="M20.7,133.22c2.84,0 5.32,-2.32 5.32,-4.98c-0,-1.64 -1.12,-2.74 -2.78,-2.74c-0.92,-0 -1.72,0.28 -2.86,0.98c1.1,-2.72 3.14,-4.74 6.2,-6.14l-0.16,-0.6c-1.84,0.58 -3.56,1.56 -5.18,2.9c-2.62,2.2 -4.06,4.72 -4.06,7.14c-0,2.14 1.34,3.44 3.52,3.44Zm0.34,-0.86c-0.98,0 -1.56,-0.74 -1.56,-2.02c-0,-0.96 0.16,-1.8 0.54,-2.88c0.7,-0.54 1.32,-0.78 2,-0.78c1,0 1.6,0.78 1.6,2.04c-0,2.02 -1.16,3.64 -2.58,3.64Z" style="fill:#888;"/></g><g id="Degree7" serif:id="Degree"><path d="M20,93l7.72,-12.44l-0.14,-0.4l-7.84,0l-1.38,3.18l0.72,0c0.68,-1.1 1.18,-1.3 3.4,-1.32l2.98,-0l-7.08,9.82c-0.332,0.485 -0.492,0.701 -0.632,0.894l-0.092,0.128c-0.031,0.044 -0.062,0.089 -0.096,0.138l2.44,-0Z" style="fill:#888;"/></g><g id="タイプ1"><text x="185.94px" y="420px" style="font-family:'NotoSansSC-Bold', 'Noto Sans SC', sans-serif;font-weight:700;font-size:20px;fill:#3db8f5;">T<tspan x="197.84px " y="420px ">y</tspan>pe1</text></g><g id="タイプ2"><text x="491.17px" y="420px" style="font-family:'NotoSansSC-Bold', 'Noto Sans SC', sans-serif;font-weight:700;font-size:20px;fill:#f63;">T<tspan x="503.07px " y="420px ">y</tspan>pe2</text></g><rect id="Rectangle40" serif:id="Rectangle" x="574" y="64" width="55" height="40" style="fill:#ffbf00;"/><rect id="Rectangle41" serif:id="Rectangle" x="574" y="144" width="55" height="40" style="fill:#ccc;"/><rect id="Rectangle42" serif:id="Rectangle" x="574" y="104" width="55" height="40" style="fill:#aaa;"/><rect id="Rectangle43" serif:id="Rectangle" x="574" y="184" width="55" height="40" style="fill:#aaa;"/><rect id="Rectangle44" serif:id="Rectangle" x="574" y="344" width="55" height="40"/><rect id="Rectangle45" serif:id="Rectangle" x="574" y="224" width="55" height="40" style="fill:#f63;"/><rect id="Rectangle46" serif:id="Rectangle" x="574" y="304" width="55" height="40" style="fill:#ccc;"/><rect id="Rectangle47" serif:id="Rectangle" x="574" y="264" width="55" height="40" style="fill:#aaa;"/><g><g id="ラ"><text x="205.824px" y="216.882px" style="font-family:'NotoSansSC-Bold', 'Noto Sans SC', sans-serif;font-weight:700;font-size:27px;fill:#fff;">la</text></g><g id="fa"><text x="206.365px" y="375.882px" style="font-family:'NotoSansSC-Bold', 'Noto Sans SC', sans-serif;font-weight:700;font-size:27px;fill:#fff;">f<tspan x="215.788px " y="375.882px ">a</tspan></text></g><g id="ソ"><text x="204.135px" y="293.882px" style="font-family:'NotoSansSC-Medium', 'Noto Sans SC', sans-serif;font-weight:500;font-size:20px;fill:#fff;">sol</text></g><g id="ファ"><text x="208.575px" y="332.882px" style="font-family:'NotoSansSC-Medium', 'Noto Sans SC', sans-serif;font-weight:500;font-size:20px;fill:#fff;">f<tspan x="215.035px " y="332.882px ">a</tspan></text></g><g id="Group" opacity="0.2"><g id="CS-sharp"><g id="_-" serif:id="♯"><text x="226.526px" y="329.882px" style="font-family:'HelveticaNeue-Bold', 'Helvetica Neue';font-weight:700;font-size:18px;fill:#fff;">♯</text></g></g></g><g id="ソ1" serif:id="ソ"><text x="201.135px" y="252.882px" style="font-family:'NotoSansSC-Medium', 'Noto Sans SC', sans-serif;font-weight:500;font-size:20px;fill:#fff;">sol</text></g><g id="Group1" serif:id="Group" opacity="0.2"><g id="CS-sharp1" serif:id="CS-sharp"><g id="_-1" serif:id="♯"><text x="229.526px" y="249.882px" style="font-family:'HelveticaNeue-Bold', 'Helvetica Neue';font-weight:700;font-size:18px;fill:#fff;">♯</text></g></g></g><g id="シ"><text x="210.065px" y="133.882px" style="font-family:'NotoSansSC-Bold', 'Noto Sans SC', sans-serif;font-weight:700;font-size:20px;fill:#fff;">si</text></g><g id="ド"><text x="200.91px" y="96.882px" style="font-family:'NotoSansSC-Bold', 'Noto Sans SC', sans-serif;font-weight:700;font-size:27px;fill:#fff;">do</text></g><g id="ラ1" serif:id="ラ"><text x="206.775px" y="172.882px" style="font-family:'HiraginoSans-W5', 'Hiragino Sans', sans-serif;font-weight:500;font-size:20px;fill:#fff;">si</text></g><g id="Group2" serif:id="Group" opacity="0.2"><g id="CS-sharp2" serif:id="CS-sharp"><g id="_-2" serif:id="♯"><text x="223.526px" y="169.882px" style="font-family:'HelveticaNeue-Bold', 'Helvetica Neue';font-weight:700;font-size:18px;fill:#fff;">♯</text></g></g></g></g><g><g id="re"><text x="414.961px" y="373.873px" style="font-family:'NotoSansSC-Bold', 'Noto Sans SC', sans-serif;font-weight:700;font-size:27px;fill:#fff;">r<tspan x="426.409px " y="373.873px ">e</tspan></text></g><g id="ラ2" serif:id="ラ"><text x="416.028px" y="93.873px" style="font-family:'NotoSansSC-Bold', 'Noto Sans SC', sans-serif;font-weight:700;font-size:27px;fill:#fff;">la</text></g><g id="ファ1" serif:id="ファ"><text x="415.838px" y="252.873px" style="font-family:'NotoSansSC-Bold', 'Noto Sans SC', sans-serif;font-weight:700;font-size:27px;fill:#fff;">f<tspan x="425.261px " y="252.873px ">a</tspan></text></g><g id="レ"><text x="414.398px" y="330.873px" style="font-family:'NotoSansSC-Medium', 'Noto Sans SC', sans-serif;font-weight:500;font-size:20px;fill:#fff;">r<tspan x="422.358px " y="330.873px ">e</tspan></text></g><g id="ミ"><text x="416.738px" y="290.873px" style="font-family:'NotoSansSC-Medium', 'Noto Sans SC', sans-serif;font-weight:500;font-size:20px;fill:#fff;">mi</text></g><g id="Group3" serif:id="Group" opacity="0.2"><g id="CS-sharp3" serif:id="CS-sharp"><g id="_-3" serif:id="♯"><text x="432.999px" y="327.873px" style="font-family:'HelveticaNeue-Bold', 'Helvetica Neue';font-weight:700;font-size:18px;fill:#fff;">♯</text></g></g></g><g id="ソ2" serif:id="ソ"><text x="412.768px" y="170.873px" style="font-family:'HiraginoSans-W5', 'Hiragino Sans', sans-serif;font-weight:500;font-size:20px;fill:#fff;">sol</text></g><g id="ファ2" serif:id="ファ"><text x="418.048px" y="209.873px" style="font-family:'NotoSansSC-Medium', 'Noto Sans SC', sans-serif;font-weight:500;font-size:20px;fill:#fff;">f<tspan x="424.508px " y="209.873px ">a</tspan></text></g><g id="Group4" serif:id="Group" opacity="0.2"><g id="CS-sharp4" serif:id="CS-sharp"><g id="_-4" serif:id="♯"><text x="436.999px" y="206.873px" style="font-family:'HelveticaNeue-Bold', 'Helvetica Neue';font-weight:700;font-size:18px;fill:#fff;">♯</text></g></g></g><g id="ソ3" serif:id="ソ"><text x="410.608px" y="129.873px" style="font-family:'NotoSansSC-Medium', 'Noto Sans SC', sans-serif;font-weight:500;font-size:20px;fill:#fff;">sol</text></g><g id="Group5" serif:id="Group" opacity="0.2"><g id="CS-sharp5" serif:id="CS-sharp"><g id="_-5" serif:id="♯"><text x="439.999px" y="126.873px" style="font-family:'HelveticaNeue-Bold', 'Helvetica Neue';font-weight:700;font-size:18px;fill:#fff;">♯</text></g></g></g></g><g><g id="la"><text x="503.894px" y="375.813px" style="font-family:'NotoSansSC-Bold', 'Noto Sans SC', sans-serif;font-weight:700;font-size:27px;fill:#fff;">la</text></g><g id="シ1" serif:id="シ"><text x="508.455px" y="292.813px" style="font-family:'NotoSansSC-Medium', 'Noto Sans SC', sans-serif;font-weight:500;font-size:20px;fill:#fff;">si</text></g><g id="ド1" serif:id="ド"><text x="498.98px" y="255.813px" style="font-family:'NotoSansSC-Bold', 'Noto Sans SC', sans-serif;font-weight:700;font-size:27px;fill:#fff;">do</text></g><g id="ミ1" serif:id="ミ"><text x="500.007px" y="95.813px" style="font-family:'NotoSansSC-Bold', 'Noto Sans SC', sans-serif;font-weight:700;font-size:27px;fill:#fff;">mi</text></g><g id="ド2" serif:id="ド"><text x="499.185px" y="212.813px" style="font-family:'NotoSansSC-Medium', 'Noto Sans SC', sans-serif;font-weight:500;font-size:20px;fill:#fff;">do</text></g><g id="レ1" serif:id="レ"><text x="506.995px" y="172.813px" style="font-family:'NotoSansSC-Medium', 'Noto Sans SC', sans-serif;font-weight:500;font-size:20px;fill:#fff;">r<tspan x="514.955px " y="172.813px ">e</tspan></text></g><g id="Group6" serif:id="Group" opacity="0.25"><g id="CS-sharp6" serif:id="CS-sharp"><g id="_-6" serif:id="♯"><text x="524.596px" y="209.813px" style="font-family:'HelveticaNeue-Bold', 'Helvetica Neue';font-weight:700;font-size:18px;fill:#fff;">♯</text></g></g></g><g id="レ2" serif:id="レ"><text x="501.995px" y="132.813px" style="font-family:'NotoSansSC-Medium', 'Noto Sans SC', sans-serif;font-weight:500;font-size:20px;fill:#fff;">r<tspan x="509.955px " y="132.813px ">e</tspan></text></g><g id="Group7" serif:id="Group" opacity="0.25"><g id="CS-sharp7" serif:id="CS-sharp"><g id="_-7" serif:id="♯"><text x="521.596px" y="129.813px" style="font-family:'HelveticaNeue-Bold', 'Helvetica Neue';font-weight:700;font-size:18px;fill:#fff;">♯</text></g></g></g><g id="ラ3" serif:id="ラ"><text x="504.395px" y="331.813px" style="font-family:'NotoSansSC-Medium', 'Noto Sans SC', sans-serif;font-weight:500;font-size:20px;fill:#fff;">la</text></g><g id="Group8" serif:id="Group" opacity="0.25"><g id="CS-sharp8" serif:id="CS-sharp"><g id="_-8" serif:id="♯"><text x="521.596px" y="328.813px" style="font-family:'HelveticaNeue-Bold', 'Helvetica Neue';font-weight:700;font-size:18px;fill:#fff;">♯</text></g></g></g></g><g><g id="シ2" serif:id="シ"><text x="590.242px" y="94.901px" style="font-family:'NotoSansSC-Bold', 'Noto Sans SC', sans-serif;font-weight:700;font-size:27px;fill:#fff;">si</text></g><g id="ラ4" serif:id="ラ"><text x="592.368px" y="171.901px" style="font-family:'HiraginoSans-W5', 'Hiragino Sans', sans-serif;font-weight:500;font-size:20px;fill:#fff;">la</text></g><g id="ラ5" serif:id="ラ"><text x="588.968px" y="130.901px" style="font-family:'NotoSansSC-Bold', 'Noto Sans SC', sans-serif;font-weight:700;font-size:20px;fill:#fff;">la</text></g><g id="Group9" serif:id="Group" opacity="0.2"><g id="CS-sharp9" serif:id="CS-sharp"><g id="_-9" serif:id="♯"><text x="606.499px" y="127.901px" style="font-family:'HelveticaNeue-Bold', 'Helvetica Neue';font-weight:700;font-size:18px;fill:#fff;">♯</text></g></g></g><g id="ソ4" serif:id="ソ"><text x="584.108px" y="210.901px" style="font-family:'NotoSansSC-Medium', 'Noto Sans SC', sans-serif;font-weight:500;font-size:20px;fill:#fff;">sol</text></g><g id="Group10" serif:id="Group" opacity="0.2"><g id="CS-sharp10" serif:id="CS-sharp"><g id="_-10" serif:id="♯"><text x="612.499px" y="207.901px" style="font-family:'HelveticaNeue-Bold', 'Helvetica Neue';font-weight:700;font-size:18px;fill:#fff;">♯</text></g></g></g><g id="mi"><text x="584.91px" y="374.901px" style="font-family:'NotoSansSC-Bold', 'Noto Sans SC', sans-serif;font-weight:700;font-size:27px;fill:#fff;">mi</text></g><g id="ソ5" serif:id="ソ"><text x="581.642px" y="254.901px" style="font-family:'NotoSansSC-Bold', 'Noto Sans SC', sans-serif;font-weight:700;font-size:27px;fill:#fff;">sol</text></g><g id="ファ3" serif:id="ファ"><text x="593.548px" y="331.901px" style="font-family:'NotoSansSC-Medium', 'Noto Sans SC', sans-serif;font-weight:500;font-size:20px;fill:#fff;">f<tspan x="600.008px " y="331.901px ">a</tspan></text></g><g id="ファ4" serif:id="ファ"><text x="591.548px" y="290.901px" style="font-family:'NotoSansSC-Medium', 'Noto Sans SC', sans-serif;font-weight:500;font-size:20px;fill:#fff;">f<tspan x="598.008px " y="290.901px ">a</tspan></text></g><g id="Group11" serif:id="Group" opacity="0.2"><g id="CS-sharp11" serif:id="CS-sharp"><g id="_-11" serif:id="♯"><text x="609.499px" y="287.901px" style="font-family:'HelveticaNeue-Bold', 'Helvetica Neue';font-weight:700;font-size:18px;fill:#fff;">♯</text></g></g></g></g><g><g id="シ3" serif:id="シ"><text x="296.507px" y="213.932px" style="font-family:'NotoSansSC-Bold', 'Noto Sans SC', sans-serif;font-weight:700;font-size:27px;fill:#fff;">si</text></g><g id="ド3" serif:id="ド"><text x="294.853px" y="170.932px" style="font-family:'NotoSansSC-Medium', 'Noto Sans SC', sans-serif;font-weight:500;font-size:20px;fill:#fff;">do</text></g><g id="ド4" serif:id="ド"><text x="291.853px" y="129.932px" style="font-family:'NotoSansSC-Medium', 'Noto Sans SC', sans-serif;font-weight:500;font-size:20px;fill:#fff;">do</text></g><g id="レ3" serif:id="レ"><text x="294.726px" y="93.932px" style="font-family:'NotoSansSC-Bold', 'Noto Sans SC', sans-serif;font-weight:700;font-size:27px;fill:#fff;">r<tspan x="306.174px " y="93.932px ">e</tspan></text></g><g id="Group12" serif:id="Group" opacity="0.2"><g id="CS-sharp12" serif:id="CS-sharp"><g id="_-12" serif:id="♯"><text x="312.764px" y="126.932px" style="font-family:'HelveticaNeue-Bold', 'Helvetica Neue';font-weight:700;font-size:18px;fill:#fff;">♯</text></g></g></g><g id="ラ6" serif:id="ラ"><text x="298.563px" y="290.932px" style="font-family:'NotoSansSC-Medium', 'Noto Sans SC', sans-serif;font-weight:500;font-size:20px;fill:#fff;">la</text></g><g id="ラ7" serif:id="ラ"><text x="297.563px" y="249.932px" style="font-family:'NotoSansSC-Medium', 'Noto Sans SC', sans-serif;font-weight:500;font-size:20px;fill:#fff;">la</text></g><g id="Group13" serif:id="Group" opacity="0.2"><g id="CS-sharp13" serif:id="CS-sharp"><g id="_-13" serif:id="♯"><text x="315.764px" y="246.932px" style="font-family:'HelveticaNeue-Bold', 'Helvetica Neue';font-weight:700;font-size:18px;fill:#fff;">♯</text></g></g></g><g id="ソ6" serif:id="ソ"><text x="290.373px" y="329.932px" style="font-family:'NotoSansSC-Medium', 'Noto Sans SC', sans-serif;font-weight:500;font-size:20px;fill:#fff;">sol</text></g><g id="Group14" serif:id="Group" opacity="0.2"><g id="CS-sharp14" serif:id="CS-sharp"><g id="_-14" serif:id="♯"><text x="319.764px" y="326.932px" style="font-family:'HelveticaNeue-Bold', 'Helvetica Neue';font-weight:700;font-size:18px;fill:#fff;">♯</text></g></g></g><g id="sol"><text x="287.907px" y="373.932px" style="font-family:'NotoSansSC-Bold', 'Noto Sans SC', sans-serif;font-weight:700;font-size:27px;fill:#fff;">sol</text></g></g><g><g id="do"><text x="110.268px" y="375.832px" style="font-family:'NotoSansSC-Bold', 'Noto Sans SC', sans-serif;font-weight:700;font-size:27px;fill:#fff;">do</text></g><g id="mi1" serif:id="mi"><text x="109.795px" y="215.832px" style="font-family:'NotoSansSC-Bold', 'Noto Sans SC', sans-serif;font-weight:700;font-size:27px;fill:#fff;">mi</text></g><g id="ソ7" serif:id="ソ"><text x="106.527px" y="95.832px" style="font-family:'NotoSansSC-Bold', 'Noto Sans SC', sans-serif;font-weight:700;font-size:27px;fill:#fff;">sol</text></g><g id="do1" serif:id="do"><text x="108.713px" y="332.832px" style="font-family:'NotoSansSC-Medium', 'Noto Sans SC', sans-serif;font-weight:500;font-size:20px;fill:#fff;">do</text></g><g id="re1" serif:id="re"><text x="116.363px" y="292.832px" style="font-family:'NotoSansSC-Medium', 'Noto Sans SC', sans-serif;font-weight:500;font-size:20px;fill:#fff;">r<tspan x="124.323px " y="292.832px ">e</tspan></text></g><g id="Group15" serif:id="Group" opacity="0.2"><g id="CS-sharp15" serif:id="CS-sharp"><g id="_-15" serif:id="♯"><text x="136.384px" y="329.832px" style="font-family:'HelveticaNeue-Bold', 'Helvetica Neue';font-weight:700;font-size:18px;fill:#fff;">♯</text></g></g></g><g id="re2" serif:id="re"><text x="111.363px" y="252.832px" style="font-family:'NotoSansSC-Medium', 'Noto Sans SC', sans-serif;font-weight:500;font-size:20px;fill:#fff;">r<tspan x="119.323px " y="252.832px ">e</tspan></text></g><g id="Group16" serif:id="Group" opacity="0.2"><g id="CS-sharp16" serif:id="CS-sharp"><g id="_-16" serif:id="♯"><text x="131.384px" y="249.832px" style="font-family:'HelveticaNeue-Bold', 'Helvetica Neue';font-weight:700;font-size:18px;fill:#fff;">♯</text></g></g></g><g id="ファ5" serif:id="ファ"><text x="119.433px" y="172.832px" style="font-family:'NotoSansSC-Medium', 'Noto Sans SC', sans-serif;font-weight:500;font-size:20px;fill:#fff;">f<tspan x="125.893px " y="172.832px ">a</tspan></text></g><g id="ファ6" serif:id="ファ"><text x="116.433px" y="131.832px" style="font-family:'NotoSansSC-Medium', 'Noto Sans SC', sans-serif;font-weight:500;font-size:20px;fill:#fff;">f<tspan x="122.893px " y="131.832px ">a</tspan></text></g><g id="Group17" serif:id="Group" opacity="0.2"><g id="CS-sharp17" serif:id="CS-sharp"><g id="_-17" serif:id="♯"><text x="137.384px" y="128.832px" style="font-family:'HelveticaNeue-Bold', 'Helvetica Neue';font-weight:700;font-size:18px;fill:#fff;">♯</text></g></g></g></g></g></svg>