<?xml version="1.0" encoding="UTF-8"?>
<svg width="730px" height="200px" viewBox="0 0 730 200" version="1.1" xmlns="http://www.w3.org/2000/svg" xmlns:xlink="http://www.w3.org/1999/xlink">
    <title>c1-diatonic-seventh-chords</title>
    <g id="c1-diatonic-seventh-chords" stroke="none" stroke-width="1" fill="none" fill-rule="evenodd">
        <g id="Group" transform="translate(18.000000, 51.000000)" stroke="#000000">
            <line x1="2" y1="1" x2="696" y2="1" id="horizon"></line>
            <line x1="2" y1="21" x2="696" y2="21" id="horizon"></line>
            <line x1="2" y1="41" x2="696" y2="41" id="horizon"></line>
            <line x1="2" y1="61" x2="696" y2="61" id="horizon"></line>
            <line x1="2" y1="81" x2="696" y2="81" id="horizon"></line>
            <line x1="-37.5714286" y1="40.9905588" x2="40.4285714" y2="41.0094412" id="bar" stroke-width="2.72167481" stroke-linecap="round" stroke-linejoin="round" transform="translate(1.428571, 41.000000) rotate(90.000000) translate(-1.428571, -41.000000) "></line>
            <line x1="696.5" y1="1" x2="696.5" y2="81" id="bar" stroke-linecap="square"></line>
        </g>
        <path d="M47.1620791,151.96278 C46.2662404,151.896201 45.4037992,151.750938 44.5904719,151.529009 C40.3745292,150.385065 37.4551952,147.207444 36.7754579,143.019036 C36.575073,141.792373 36.641868,139.871677 36.9227998,138.776154 C37.1369367,137.936859 37.6555802,136.738442 38.0740312,136.113005 C38.7793077,135.061868 39.9835821,134.067222 41.1858919,133.548715 C42.1740649,133.120997 42.7064603,133.008015 43.9519904,132.963629 C44.9401634,132.927313 45.1837686,132.943454 45.7554552,133.090734 C48.2425863,133.730293 50.2582234,135.86283 51.132452,138.784225 C51.3289078,139.443959 51.3465889,139.611415 51.350518,140.908692 C51.3544471,142.141407 51.3328369,142.397634 51.1776368,142.946404 C50.8338391,144.16298 50.2464361,145.143503 49.3073771,146.061482 C47.9321861,147.409197 46.321248,148.21823 44.1464817,148.658053 L43.2133164,148.847702 L43.8753726,149.13621 C47.4096135,150.689713 51.3230142,150.540416 54.9711994,148.716562 C58.1636071,147.122707 60.6330572,144.237628 61.4817465,141.110445 C61.6880252,140.353869 61.6998125,140.214659 61.6939188,138.776154 L61.6880252,137.246861 L60.4955381,131.331441 C59.8413401,128.077153 59.2873346,125.355495 59.2657245,125.280846 C59.2303624,125.165847 59.1478509,125.181987 58.5820581,125.418039 C54.9260146,126.945315 49.3938176,126.925139 44.3449021,125.3676 C37.4276914,123.235063 31.7815501,118.554376 28.8386413,112.513869 C27.9211925,110.627471 27.384868,108.823793 27.0882196,106.618624 C26.9546296,105.625996 26.9762398,102.997145 27.1294754,101.748289 C27.9486963,95.0662046 31.3984611,88.3659626 37.90115,80.8203724 C39.9246453,78.4719587 44.3547249,74.077762 47.3231729,71.4731211 C48.1129254,70.7811058 48.1463229,70.7367199 48.0854216,70.5127733 C47.9479025,69.9942661 47.4705148,67.4783969 47.3231729,66.491821 C46.6395065,61.8938531 46.6414711,56.5554489 47.327102,51.882832 C48.4036801,44.5430306 50.9281379,38.3754185 54.6018624,34.1143793 C55.2717769,33.3356098 56.6901882,32 56.8453883,32 C56.8945023,32 57.3247406,32.5891209 57.7981992,33.3093818 C62.1948813,39.9712907 64.5209186,45.9048684 65.1574356,52.070463 C65.3146003,53.6118617 65.27138,57.2293064 65.0749241,58.6395651 C64.4305489,63.2960417 62.9276616,67.3371693 60.3501608,71.3399637 C58.6645695,73.9607449 56.1263599,76.9386302 53.5351071,79.3394998 C52.943775,79.88827 52.3210099,80.4652858 52.1520579,80.6226537 L51.8455867,80.909144 L53.2030967,87.5851756 L54.5586421,94.2632247 L55.2305211,94.2107687 C57.1204265,94.0594534 59.116418,94.170418 60.5426875,94.5033117 C62.4424157,94.9491874 64.5798554,95.9660263 66.1790061,97.1826015 C67.0709157,97.8625116 68.5561219,99.3817173 69.1828161,100.257329 C70.6817743,102.347497 71.6601245,104.839156 71.9331981,107.258184 C72.0687527,108.454583 71.9882058,110.782822 71.7799625,111.75124 C70.9568125,115.582543 68.5207599,119.185865 64.8097087,122.056821 C63.8922599,122.766994 62.5543955,123.624448 61.581939,124.126815 C60.9238119,124.467779 60.8668397,124.514182 60.91006,124.691725 C60.9925714,125.028654 62.0475394,130.157234 62.4424157,132.136439 C62.6486943,133.17547 62.9669528,134.89643 63.1496567,135.959672 C63.4718443,137.831947 63.4816671,137.928789 63.4384469,139.139311 C63.3598645,141.439304 62.7822843,143.23693 61.4778174,145.256485 C58.9926508,149.099894 54.5409611,151.551202 49.3486328,151.932517 C48.2524091,152.013218 47.8987886,152.019271 47.1620791,151.96278 Z M53.7453149,124.885409 C54.7217005,124.770409 55.9593724,124.504094 56.7609123,124.233744 C57.7431916,123.904886 58.9278204,123.3198 58.880671,123.186642 C58.8590608,123.128134 57.8551714,118.23157 56.6489324,112.304045 C55.4426935,106.37652 54.4368395,101.508202 54.4132648,101.483991 C54.3896901,101.459781 53.9889201,101.516272 53.5233197,101.611096 C50.1069524,102.303112 47.3035273,104.262141 46.0756782,106.816343 C45.6886602,107.62134 45.5413183,108.147918 45.4411258,109.067915 C45.2289535,111.022909 45.8576122,113.169569 47.1443981,114.87237 C47.8928949,115.864999 49.0343034,116.926223 50.0814131,117.606134 C50.4821831,117.866396 50.5588009,117.993501 50.277869,117.932975 C50.1796411,117.912799 49.8358433,117.83815 49.5136557,117.769554 C46.9813397,117.222801 44.5315352,115.79035 43.1425923,114.047197 C41.9226014,112.513869 41.3037654,110.920014 41.1269552,108.848003 C40.9010309,106.207047 41.5925556,103.660914 43.2113518,101.16522 C44.256497,99.553208 46.0599617,97.7979504 47.8673556,96.6358488 C49.1757516,95.7925181 51.1599558,94.9330471 52.5115721,94.6223464 C52.7591065,94.5658553 52.961456,94.493224 52.961456,94.4629609 C52.961456,94.3762068 50.4566438,82.1237016 50.4153881,82.0066844 C50.3544868,81.8351937 46.9597296,84.6193955 44.6729834,86.7135994 C43.4117368,87.8696484 40.7281498,90.6639378 39.7537287,91.8361271 C36.8127846,95.3728703 34.9130564,98.5545269 33.8502302,101.716008 C32.7815104,104.903717 32.516295,107.972392 33.0624422,110.875628 C33.726463,114.406319 36.0033864,118.10043 39.0484522,120.588054 C43.183848,123.965412 48.4508295,125.504793 53.7453149,124.885409 Z M61.5053212,121.528226 C64.3244628,119.107181 65.992373,116.353243 66.4854772,113.312814 C66.6505001,112.293957 66.6072798,110.14528 66.4049303,109.19502 C65.5798157,105.345558 63.0612516,102.373725 59.7411476,101.332676 C59.0869496,101.126887 58.9356786,101.110747 57.6469282,101.108729 C56.8296718,101.108729 56.2304815,101.138992 56.1892257,101.187413 C56.14797,101.233817 56.9907656,105.462575 58.3011262,111.771415 C59.4995069,117.547625 60.4817862,122.284803 60.4837508,122.298926 C60.491609,122.363487 60.8354067,122.103225 61.5053212,121.528226 Z M52.2836833,67.0163808 C57.959293,61.3349952 61.3127945,55.8029074 62.0121773,50.9628349 C62.169342,49.8733647 62.1673775,48.0959142 62.0062837,47.1274962 C61.6840961,45.1946952 60.8963081,43.4979462 59.5564791,41.8617233 C59.0240837,41.2120762 58.9435368,41.1777781 57.9376829,41.1797211 C56.8296718,41.1818131 55.8218533,41.7083904 54.7767081,42.8301413 C53.0439675,44.6842582 51.5960878,47.7145996 50.5293325,51.7073063 C49.0460908,57.2656221 48.5903132,64.2180563 49.4036404,68.9269888 L49.5313367,69.6714601 L50.3250184,68.9269888 C50.7611504,68.5174287 51.6412726,67.6579577 52.2836833,67.0163808 Z" id="G-Clef" fill="#000000"></path>
        <path d="M121.586271,124.185068 C115.757334,127.368055 112.652344,133.128911 114.562711,137.46267 C116.600093,142.086745 123.603055,143.391419 130.192362,140.376327 C136.783386,137.361234 140.477105,131.159657 138.439724,126.53733 C136.402342,121.913255 129.39938,120.608581 122.810073,123.623673 C122.398134,123.812554 121.97418,123.971703 121.586271,124.185068 Z" id="Path" fill="#000000" transform="translate(126.500000, 132.000000) rotate(-180.000000) translate(-126.500000, -132.000000) "></path>
        <path d="M121.586271,144.185068 C115.757334,147.368055 112.652344,153.128911 114.562711,157.46267 C116.600093,162.086745 123.603055,163.391419 130.192362,160.376327 C136.783386,157.361234 140.477105,151.159657 138.439724,146.53733 C136.402342,141.913255 129.39938,140.608581 122.810073,143.623673 C122.398134,143.812554 121.97418,143.971703 121.586271,144.185068 Z" id="Path" fill="#000000" transform="translate(126.500000, 152.000000) rotate(-180.000000) translate(-126.500000, -152.000000) "></path>
        <rect id="Rectangle" fill="#000000" x="106" y="152" width="40" height="1"></rect>
        <path d="M121.586271,104.185068 C115.757334,107.368055 112.652344,113.128911 114.562711,117.46267 C116.600093,122.086745 123.603055,123.391419 130.192362,120.376327 C136.783386,117.361234 140.477105,111.159657 138.439724,106.53733 C136.402342,101.913255 129.39938,100.608581 122.810073,103.623673 C122.398134,103.812554 121.97418,103.971703 121.586271,104.185068 Z" id="Path" fill="#000000" transform="translate(126.500000, 112.000000) rotate(-180.000000) translate(-126.500000, -112.000000) "></path>
        <path d="M121.586271,84.1850683 C115.757334,87.3680549 112.652344,93.1289109 114.562711,97.4626696 C116.600093,102.086745 123.603055,103.391419 130.192362,100.376327 C136.783386,97.3612338 140.477105,91.1596566 138.439724,86.5373304 C136.402342,81.9132553 129.39938,80.6085806 122.810073,83.6236734 C122.398134,83.8125539 121.97418,83.9717032 121.586271,84.1850683 Z" id="Path" fill="#000000" transform="translate(126.500000, 92.000000) rotate(-180.000000) translate(-126.500000, -92.000000) "></path>
        <g id="Group" transform="translate(614.000000, 30.000000)" fill="#0C0C0C" fill-rule="nonzero">
            <g id="Rectangle">
                <rect x="0" y="0" width="45" height="2"></rect>
            </g>
        </g>
        <g id="Group-2" transform="translate(199.000000, 72.000000)" fill="#000000">
            <path d="M7.58627082,42.1850683 C1.75733443,45.3680549 -1.34765554,51.1289109 0.562711423,55.4626696 C2.6000929,60.0867447 9.60305535,61.3914194 16.1923624,58.3763266 C22.7833859,55.3612338 26.4771053,49.1596566 24.4397238,44.5373304 C22.4023424,39.9132553 15.3993799,38.6085806 8.81007284,41.6236734 C8.39813387,41.8125539 7.97418002,41.9717032 7.58627082,42.1850683 Z" id="Path" transform="translate(12.500000, 50.000000) rotate(-180.000000) translate(-12.500000, -50.000000) "></path>
            <path d="M7.58627082,62.1850683 C1.75733443,65.3680549 -1.34765554,71.1289109 0.562711423,75.4626696 C2.6000929,80.0867447 9.60305535,81.3914194 16.1923624,78.3763266 C22.7833859,75.3612338 26.4771053,69.1596566 24.4397238,64.5373304 C22.4023424,59.9132553 15.3993799,58.6085806 8.81007284,61.6236734 C8.39813387,61.8125539 7.97418002,61.9717032 7.58627082,62.1850683 Z" id="Path" transform="translate(12.500000, 70.000000) rotate(-180.000000) translate(-12.500000, -70.000000) "></path>
            <path d="M7.58627082,22.1850683 C1.75733443,25.3680549 -1.34765554,31.1289109 0.562711423,35.4626696 C2.6000929,40.0867447 9.60305535,41.3914194 16.1923624,38.3763266 C22.7833859,35.3612338 26.4771053,29.1596566 24.4397238,24.5373304 C22.4023424,19.9132553 15.3993799,18.6085806 8.81007284,21.6236734 C8.39813387,21.8125539 7.97418002,21.9717032 7.58627082,22.1850683 Z" id="Path" transform="translate(12.500000, 30.000000) rotate(-180.000000) translate(-12.500000, -30.000000) "></path>
            <path d="M7.58627082,2.18506828 C1.75733443,5.3680549 -1.34765554,11.1289109 0.562711423,15.4626696 C2.6000929,20.0867447 9.60305535,21.3914194 16.1923624,18.3763266 C22.7833859,15.3612338 26.4771053,9.15965655 24.4397238,4.53733037 C22.4023424,-0.0867447002 15.3993799,-1.39141944 8.81007284,1.62367339 C8.39813387,1.81255391 7.97418002,1.97170324 7.58627082,2.18506828 Z" id="Path" transform="translate(12.500000, 10.000000) rotate(-180.000000) translate(-12.500000, -10.000000) "></path>
        </g>
        <g id="Group-3" transform="translate(284.000000, 62.000000)" fill="#000000">
            <path d="M7.58627082,42.1850683 C1.75733443,45.3680549 -1.34765554,51.1289109 0.562711423,55.4626696 C2.6000929,60.0867447 9.60305535,61.3914194 16.1923624,58.3763266 C22.7833859,55.3612338 26.4771053,49.1596566 24.4397238,44.5373304 C22.4023424,39.9132553 15.3993799,38.6085806 8.81007284,41.6236734 C8.39813387,41.8125539 7.97418002,41.9717032 7.58627082,42.1850683 Z" id="Path" transform="translate(12.500000, 50.000000) rotate(-180.000000) translate(-12.500000, -50.000000) "></path>
            <path d="M7.58627082,62.1850683 C1.75733443,65.3680549 -1.34765554,71.1289109 0.562711423,75.4626696 C2.6000929,80.0867447 9.60305535,81.3914194 16.1923624,78.3763266 C22.7833859,75.3612338 26.4771053,69.1596566 24.4397238,64.5373304 C22.4023424,59.9132553 15.3993799,58.6085806 8.81007284,61.6236734 C8.39813387,61.8125539 7.97418002,61.9717032 7.58627082,62.1850683 Z" id="Path" transform="translate(12.500000, 70.000000) rotate(-180.000000) translate(-12.500000, -70.000000) "></path>
            <path d="M7.58627082,22.1850683 C1.75733443,25.3680549 -1.34765554,31.1289109 0.562711423,35.4626696 C2.6000929,40.0867447 9.60305535,41.3914194 16.1923624,38.3763266 C22.7833859,35.3612338 26.4771053,29.1596566 24.4397238,24.5373304 C22.4023424,19.9132553 15.3993799,18.6085806 8.81007284,21.6236734 C8.39813387,21.8125539 7.97418002,21.9717032 7.58627082,22.1850683 Z" id="Path" transform="translate(12.500000, 30.000000) rotate(-180.000000) translate(-12.500000, -30.000000) "></path>
            <path d="M7.58627082,2.18506828 C1.75733443,5.3680549 -1.34765554,11.1289109 0.562711423,15.4626696 C2.6000929,20.0867447 9.60305535,21.3914194 16.1923624,18.3763266 C22.7833859,15.3612338 26.4771053,9.15965655 24.4397238,4.53733037 C22.4023424,-0.0867447002 15.3993799,-1.39141944 8.81007284,1.62367339 C8.39813387,1.81255391 7.97418002,1.97170324 7.58627082,2.18506828 Z" id="Path" transform="translate(12.500000, 10.000000) rotate(-180.000000) translate(-12.500000, -10.000000) "></path>
        </g>
        <g id="Group-4" transform="translate(369.000000, 52.000000)" fill="#000000">
            <path d="M7.58627082,42.1850683 C1.75733443,45.3680549 -1.34765554,51.1289109 0.562711423,55.4626696 C2.6000929,60.0867447 9.60305535,61.3914194 16.1923624,58.3763266 C22.7833859,55.3612338 26.4771053,49.1596566 24.4397238,44.5373304 C22.4023424,39.9132553 15.3993799,38.6085806 8.81007284,41.6236734 C8.39813387,41.8125539 7.97418002,41.9717032 7.58627082,42.1850683 Z" id="Path" transform="translate(12.500000, 50.000000) rotate(-180.000000) translate(-12.500000, -50.000000) "></path>
            <path d="M7.58627082,62.1850683 C1.75733443,65.3680549 -1.34765554,71.1289109 0.562711423,75.4626696 C2.6000929,80.0867447 9.60305535,81.3914194 16.1923624,78.3763266 C22.7833859,75.3612338 26.4771053,69.1596566 24.4397238,64.5373304 C22.4023424,59.9132553 15.3993799,58.6085806 8.81007284,61.6236734 C8.39813387,61.8125539 7.97418002,61.9717032 7.58627082,62.1850683 Z" id="Path" transform="translate(12.500000, 70.000000) rotate(-180.000000) translate(-12.500000, -70.000000) "></path>
            <path d="M7.58627082,22.1850683 C1.75733443,25.3680549 -1.34765554,31.1289109 0.562711423,35.4626696 C2.6000929,40.0867447 9.60305535,41.3914194 16.1923624,38.3763266 C22.7833859,35.3612338 26.4771053,29.1596566 24.4397238,24.5373304 C22.4023424,19.9132553 15.3993799,18.6085806 8.81007284,21.6236734 C8.39813387,21.8125539 7.97418002,21.9717032 7.58627082,22.1850683 Z" id="Path" transform="translate(12.500000, 30.000000) rotate(-180.000000) translate(-12.500000, -30.000000) "></path>
            <path d="M7.58627082,2.18506828 C1.75733443,5.3680549 -1.34765554,11.1289109 0.562711423,15.4626696 C2.6000929,20.0867447 9.60305535,21.3914194 16.1923624,18.3763266 C22.7833859,15.3612338 26.4771053,9.15965655 24.4397238,4.53733037 C22.4023424,-0.0867447002 15.3993799,-1.39141944 8.81007284,1.62367339 C8.39813387,1.81255391 7.97418002,1.97170324 7.58627082,2.18506828 Z" id="Path" transform="translate(12.500000, 10.000000) rotate(-180.000000) translate(-12.500000, -10.000000) "></path>
        </g>
        <g id="Group-5" transform="translate(454.000000, 42.000000)" fill="#000000">
            <path d="M7.58627082,42.1850683 C1.75733443,45.3680549 -1.34765554,51.1289109 0.562711423,55.4626696 C2.6000929,60.0867447 9.60305535,61.3914194 16.1923624,58.3763266 C22.7833859,55.3612338 26.4771053,49.1596566 24.4397238,44.5373304 C22.4023424,39.9132553 15.3993799,38.6085806 8.81007284,41.6236734 C8.39813387,41.8125539 7.97418002,41.9717032 7.58627082,42.1850683 Z" id="Path" transform="translate(12.500000, 50.000000) rotate(-180.000000) translate(-12.500000, -50.000000) "></path>
            <path d="M7.58627082,62.1850683 C1.75733443,65.3680549 -1.34765554,71.1289109 0.562711423,75.4626696 C2.6000929,80.0867447 9.60305535,81.3914194 16.1923624,78.3763266 C22.7833859,75.3612338 26.4771053,69.1596566 24.4397238,64.5373304 C22.4023424,59.9132553 15.3993799,58.6085806 8.81007284,61.6236734 C8.39813387,61.8125539 7.97418002,61.9717032 7.58627082,62.1850683 Z" id="Path" transform="translate(12.500000, 70.000000) rotate(-180.000000) translate(-12.500000, -70.000000) "></path>
            <path d="M7.58627082,22.1850683 C1.75733443,25.3680549 -1.34765554,31.1289109 0.562711423,35.4626696 C2.6000929,40.0867447 9.60305535,41.3914194 16.1923624,38.3763266 C22.7833859,35.3612338 26.4771053,29.1596566 24.4397238,24.5373304 C22.4023424,19.9132553 15.3993799,18.6085806 8.81007284,21.6236734 C8.39813387,21.8125539 7.97418002,21.9717032 7.58627082,22.1850683 Z" id="Path" transform="translate(12.500000, 30.000000) rotate(-180.000000) translate(-12.500000, -30.000000) "></path>
            <path d="M7.58627082,2.18506828 C1.75733443,5.3680549 -1.34765554,11.1289109 0.562711423,15.4626696 C2.6000929,20.0867447 9.60305535,21.3914194 16.1923624,18.3763266 C22.7833859,15.3612338 26.4771053,9.15965655 24.4397238,4.53733037 C22.4023424,-0.0867447002 15.3993799,-1.39141944 8.81007284,1.62367339 C8.39813387,1.81255391 7.97418002,1.97170324 7.58627082,2.18506828 Z" id="Path" transform="translate(12.500000, 10.000000) rotate(-180.000000) translate(-12.500000, -10.000000) "></path>
        </g>
        <g id="Group-6" transform="translate(539.000000, 32.000000)" fill="#000000">
            <path d="M7.58627082,42.1850683 C1.75733443,45.3680549 -1.34765554,51.1289109 0.562711423,55.4626696 C2.6000929,60.0867447 9.60305535,61.3914194 16.1923624,58.3763266 C22.7833859,55.3612338 26.4771053,49.1596566 24.4397238,44.5373304 C22.4023424,39.9132553 15.3993799,38.6085806 8.81007284,41.6236734 C8.39813387,41.8125539 7.97418002,41.9717032 7.58627082,42.1850683 Z" id="Path" transform="translate(12.500000, 50.000000) rotate(-180.000000) translate(-12.500000, -50.000000) "></path>
            <path d="M7.58627082,62.1850683 C1.75733443,65.3680549 -1.34765554,71.1289109 0.562711423,75.4626696 C2.6000929,80.0867447 9.60305535,81.3914194 16.1923624,78.3763266 C22.7833859,75.3612338 26.4771053,69.1596566 24.4397238,64.5373304 C22.4023424,59.9132553 15.3993799,58.6085806 8.81007284,61.6236734 C8.39813387,61.8125539 7.97418002,61.9717032 7.58627082,62.1850683 Z" id="Path" transform="translate(12.500000, 70.000000) rotate(-180.000000) translate(-12.500000, -70.000000) "></path>
            <path d="M7.58627082,22.1850683 C1.75733443,25.3680549 -1.34765554,31.1289109 0.562711423,35.4626696 C2.6000929,40.0867447 9.60305535,41.3914194 16.1923624,38.3763266 C22.7833859,35.3612338 26.4771053,29.1596566 24.4397238,24.5373304 C22.4023424,19.9132553 15.3993799,18.6085806 8.81007284,21.6236734 C8.39813387,21.8125539 7.97418002,21.9717032 7.58627082,22.1850683 Z" id="Path" transform="translate(12.500000, 30.000000) rotate(-180.000000) translate(-12.500000, -30.000000) "></path>
            <path d="M7.58627082,2.18506828 C1.75733443,5.3680549 -1.34765554,11.1289109 0.562711423,15.4626696 C2.6000929,20.0867447 9.60305535,21.3914194 16.1923624,18.3763266 C22.7833859,15.3612338 26.4771053,9.15965655 24.4397238,4.53733037 C22.4023424,-0.0867447002 15.3993799,-1.39141944 8.81007284,1.62367339 C8.39813387,1.81255391 7.97418002,1.97170324 7.58627082,2.18506828 Z" id="Path" transform="translate(12.500000, 10.000000) rotate(-180.000000) translate(-12.500000, -10.000000) "></path>
        </g>
        <g id="Group-7" transform="translate(624.000000, 22.000000)" fill="#000000">
            <path d="M7.58627082,42.1850683 C1.75733443,45.3680549 -1.34765554,51.1289109 0.562711423,55.4626696 C2.6000929,60.0867447 9.60305535,61.3914194 16.1923624,58.3763266 C22.7833859,55.3612338 26.4771053,49.1596566 24.4397238,44.5373304 C22.4023424,39.9132553 15.3993799,38.6085806 8.81007284,41.6236734 C8.39813387,41.8125539 7.97418002,41.9717032 7.58627082,42.1850683 Z" id="Path" transform="translate(12.500000, 50.000000) rotate(-180.000000) translate(-12.500000, -50.000000) "></path>
            <path d="M7.58627082,62.1850683 C1.75733443,65.3680549 -1.34765554,71.1289109 0.562711423,75.4626696 C2.6000929,80.0867447 9.60305535,81.3914194 16.1923624,78.3763266 C22.7833859,75.3612338 26.4771053,69.1596566 24.4397238,64.5373304 C22.4023424,59.9132553 15.3993799,58.6085806 8.81007284,61.6236734 C8.39813387,61.8125539 7.97418002,61.9717032 7.58627082,62.1850683 Z" id="Path" transform="translate(12.500000, 70.000000) rotate(-180.000000) translate(-12.500000, -70.000000) "></path>
            <path d="M7.58627082,22.1850683 C1.75733443,25.3680549 -1.34765554,31.1289109 0.562711423,35.4626696 C2.6000929,40.0867447 9.60305535,41.3914194 16.1923624,38.3763266 C22.7833859,35.3612338 26.4771053,29.1596566 24.4397238,24.5373304 C22.4023424,19.9132553 15.3993799,18.6085806 8.81007284,21.6236734 C8.39813387,21.8125539 7.97418002,21.9717032 7.58627082,22.1850683 Z" id="Path" transform="translate(12.500000, 30.000000) rotate(-180.000000) translate(-12.500000, -30.000000) "></path>
            <path d="M7.58627082,2.18506828 C1.75733443,5.3680549 -1.34765554,11.1289109 0.562711423,15.4626696 C2.6000929,20.0867447 9.60305535,21.3914194 16.1923624,18.3763266 C22.7833859,15.3612338 26.4771053,9.15965655 24.4397238,4.53733037 C22.4023424,-0.0867447002 15.3993799,-1.39141944 8.81007284,1.62367339 C8.39813387,1.81255391 7.97418002,1.97170324 7.58627082,2.18506828 Z" id="Path" transform="translate(12.500000, 10.000000) rotate(-180.000000) translate(-12.500000, -10.000000) "></path>
        </g>
    </g>
</svg>