<?xml version="1.0" encoding="UTF-8" standalone="no"?><!DOCTYPE svg PUBLIC "-//W3C//DTD SVG 1.1//EN" "http://www.w3.org/Graphics/SVG/1.1/DTD/svg11.dtd"><svg width="686.0px" height="419.0px" viewBox="0 0 686 419" version="1.1" xmlns="http://www.w3.org/2000/svg" xmlns:xlink="http://www.w3.org/1999/xlink" xml:space="preserve" xmlns:serif="http://www.serif.com/" style="fill-rule:evenodd;clip-rule:evenodd;"><g id="页面-1"><g id="c1-diatonic-interval-stacked"><g id="Group-324"><path id="Stroke-304" d="M23,321.5l662,0" style="fill:none;stroke:#b8b8b8;stroke-width:0.5px;"/><path id="Stroke-306" d="M23,281.5l662,0" style="fill:none;stroke:#b8b8b8;stroke-width:0.5px;"/><path id="Stroke-308" d="M23,241.5l662,0" style="fill:none;stroke:#b8b8b8;stroke-width:0.5px;"/><path id="Stroke-310" d="M23,201.5l662,0" style="fill:none;stroke:#b8b8b8;stroke-width:0.5px;"/><path id="Stroke-312" d="M23,161.5l662,0" style="fill:none;stroke:#b8b8b8;stroke-width:0.5px;"/><path id="Stroke-314" d="M23,121.5l662,0" style="fill:none;stroke:#b8b8b8;stroke-width:0.5px;"/><path id="Stroke-316" d="M23,81.5l662,0" style="fill:none;stroke:#b8b8b8;stroke-width:0.5px;"/><path id="Stroke-318" d="M23,41.5l662,0" style="fill:none;stroke:#b8b8b8;stroke-width:0.5px;"/><path id="Stroke-320" d="M23,1.5l662,0" style="fill:none;stroke:#b8b8b8;stroke-width:0.5px;"/></g><rect id="Axis" x="10" y="361" width="660" height="4"/><rect id="Rectangle" x="56" y="321" width="55" height="40"/><g id="do"><text x="66.855px" y="352px" style="font-family:'NotoSansSC-Bold', 'Noto Sans SC', sans-serif;font-weight:700;font-size:27px;fill:#fff;">do</text></g><rect id="Rectangle1" serif:id="Rectangle" x="56" y="161" width="55" height="40" style="fill:#3db8f5;"/><g id="mi"><text x="66.382px" y="192px" style="font-family:'NotoSansSC-Bold', 'Noto Sans SC', sans-serif;font-weight:700;font-size:27px;fill:#fff;">mi</text></g><rect id="Rectangle2" serif:id="Rectangle" x="56" y="41" width="55" height="40" style="fill:#ffbf00;"/><g id="ソ"><text x="63.114px" y="72px" style="font-family:'NotoSansSC-Bold', 'Noto Sans SC', sans-serif;font-weight:700;font-size:27px;fill:#fff;">sol</text></g><rect id="Rectangle3" serif:id="Rectangle" x="56" y="281" width="55" height="40" style="fill:#aaa;"/><g id="do1" serif:id="do"><text x="65.3px" y="309px" style="font-family:'NotoSansSC-Medium', 'Noto Sans SC', sans-serif;font-weight:500;font-size:20px;fill:#fff;">do</text></g><rect id="Rectangle4" serif:id="Rectangle" x="56" y="241" width="55" height="40" style="fill:#ccc;"/><g id="re"><text x="72.95px" y="269px" style="font-family:'NotoSansSC-Medium', 'Noto Sans SC', sans-serif;font-weight:500;font-size:20px;fill:#fff;">r<tspan x="80.91px " y="269px ">e</tspan></text></g><g id="Group" opacity="0.2"><g id="CS-sharp"><g id="_-" serif:id="♯"><text x="92.971px" y="306px" style="font-family:'HelveticaNeue-Bold', 'Helvetica Neue';font-weight:700;font-size:18px;fill:#fff;">♯</text></g></g></g><rect id="Rectangle5" serif:id="Rectangle" x="56" y="201" width="55" height="40" style="fill:#aaa;"/><g id="re1" serif:id="re"><text x="67.95px" y="229px" style="font-family:'NotoSansSC-Medium', 'Noto Sans SC', sans-serif;font-weight:500;font-size:20px;fill:#fff;">r<tspan x="75.91px " y="229px ">e</tspan></text></g><g id="Group1" serif:id="Group" opacity="0.2"><g id="CS-sharp1" serif:id="CS-sharp"><g id="_-1" serif:id="♯"><text x="87.971px" y="226px" style="font-family:'HelveticaNeue-Bold', 'Helvetica Neue';font-weight:700;font-size:18px;fill:#fff;">♯</text></g></g></g><rect id="Rectangle6" serif:id="Rectangle" x="56" y="121" width="55" height="40" style="fill:#ccc;"/><g id="ファ"><text x="76.02px" y="149px" style="font-family:'NotoSansSC-Medium', 'Noto Sans SC', sans-serif;font-weight:500;font-size:20px;fill:#fff;">f<tspan x="82.48px " y="149px ">a</tspan></text></g><rect id="Rectangle7" serif:id="Rectangle" x="56" y="81" width="55" height="40" style="fill:#aaa;"/><g id="ファ1" serif:id="ファ"><text x="73.02px" y="108px" style="font-family:'NotoSansSC-Medium', 'Noto Sans SC', sans-serif;font-weight:500;font-size:20px;fill:#fff;">f<tspan x="79.48px " y="108px ">a</tspan></text></g><g id="Group2" serif:id="Group" opacity="0.2"><g id="CS-sharp2" serif:id="CS-sharp"><g id="_-2" serif:id="♯"><text x="93.971px" y="105px" style="font-family:'HelveticaNeue-Bold', 'Helvetica Neue';font-weight:700;font-size:18px;fill:#fff;">♯</text></g></g></g><rect id="Rectangle8" serif:id="Rectangle" x="141" y="321" width="55" height="40"/><g id="re2" serif:id="re"><text x="154.933px" y="352px" style="font-family:'NotoSansSC-Bold', 'Noto Sans SC', sans-serif;font-weight:700;font-size:27px;fill:#fff;">r<tspan x="166.381px " y="352px ">e</tspan></text></g><rect id="Rectangle9" serif:id="Rectangle" x="141" y="41" width="55" height="40" style="fill:#ffbf00;"/><g id="ラ"><text x="156px" y="72px" style="font-family:'NotoSansSC-Bold', 'Noto Sans SC', sans-serif;font-weight:700;font-size:27px;fill:#fff;">la</text></g><rect id="Rectangle10" serif:id="Rectangle" x="141" y="281" width="55" height="40" style="fill:#aaa;"/><rect id="Rectangle11" serif:id="Rectangle" x="141" y="241" width="55" height="40" style="fill:#ccc;"/><rect id="Rectangle12" serif:id="Rectangle" x="141" y="201" width="55" height="40" style="fill:#f63;"/><g id="ファ2" serif:id="ファ"><text x="155.81px" y="231px" style="font-family:'NotoSansSC-Bold', 'Noto Sans SC', sans-serif;font-weight:700;font-size:27px;fill:#fff;">f<tspan x="165.233px " y="231px ">a</tspan></text></g><g id="レ"><text x="154.37px" y="309px" style="font-family:'NotoSansSC-Medium', 'Noto Sans SC', sans-serif;font-weight:500;font-size:20px;fill:#fff;">r<tspan x="162.33px " y="309px ">e</tspan></text></g><g id="ミ"><text x="156.71px" y="269px" style="font-family:'NotoSansSC-Medium', 'Noto Sans SC', sans-serif;font-weight:500;font-size:20px;fill:#fff;">mi</text></g><g id="Group3" serif:id="Group" opacity="0.2"><g id="CS-sharp3" serif:id="CS-sharp"><g id="_-3" serif:id="♯"><text x="172.971px" y="306px" style="font-family:'HelveticaNeue-Bold', 'Helvetica Neue';font-weight:700;font-size:18px;fill:#fff;">♯</text></g></g></g><rect id="Rectangle13" serif:id="Rectangle" x="141" y="121" width="55" height="40" style="fill:#ccc;"/><g id="ソ1" serif:id="ソ"><text x="152.74px" y="149px" style="font-family:'HiraginoSans-W5', 'Hiragino Sans', sans-serif;font-weight:500;font-size:20px;fill:#fff;">sol</text></g><rect id="Rectangle14" serif:id="Rectangle" x="141" y="161" width="55" height="40" style="fill:#aaa;"/><g id="ファ3" serif:id="ファ"><text x="158.02px" y="188px" style="font-family:'NotoSansSC-Medium', 'Noto Sans SC', sans-serif;font-weight:500;font-size:20px;fill:#fff;">f<tspan x="164.48px " y="188px ">a</tspan></text></g><g id="Group4" serif:id="Group" opacity="0.2"><g id="CS-sharp4" serif:id="CS-sharp"><g id="_-4" serif:id="♯"><text x="176.971px" y="185px" style="font-family:'HelveticaNeue-Bold', 'Helvetica Neue';font-weight:700;font-size:18px;fill:#fff;">♯</text></g></g></g><rect id="Rectangle15" serif:id="Rectangle" x="141" y="81" width="55" height="40" style="fill:#aaa;"/><g id="ソ2" serif:id="ソ"><text x="150.58px" y="108px" style="font-family:'NotoSansSC-Medium', 'Noto Sans SC', sans-serif;font-weight:500;font-size:20px;fill:#fff;">sol</text></g><g id="Group5" serif:id="Group" opacity="0.2"><g id="CS-sharp5" serif:id="CS-sharp"><g id="_-5" serif:id="♯"><text x="179.971px" y="105px" style="font-family:'HelveticaNeue-Bold', 'Helvetica Neue';font-weight:700;font-size:18px;fill:#fff;">♯</text></g></g></g><rect id="Rectangle16" serif:id="Rectangle" x="226" y="41" width="55" height="40" style="fill:#ffbf00;"/><g id="シ"><text x="241.714px" y="72px" style="font-family:'NotoSansSC-Bold', 'Noto Sans SC', sans-serif;font-weight:700;font-size:27px;fill:#fff;">si</text></g><rect id="Rectangle17" serif:id="Rectangle" x="226" y="121" width="55" height="40" style="fill:#ccc;"/><g id="ラ1" serif:id="ラ"><text x="243.84px" y="149px" style="font-family:'HiraginoSans-W5', 'Hiragino Sans', sans-serif;font-weight:500;font-size:20px;fill:#fff;">la</text></g><rect id="Rectangle18" serif:id="Rectangle" x="226" y="81" width="55" height="40" style="fill:#aaa;"/><g id="ラ2" serif:id="ラ"><text x="240.44px" y="108px" style="font-family:'NotoSansSC-Bold', 'Noto Sans SC', sans-serif;font-weight:700;font-size:20px;fill:#fff;">la</text></g><rect id="Rectangle19" serif:id="Rectangle" x="311" y="161" width="55" height="40" style="fill:#3db8f5;"/><g id="ラ3" serif:id="ラ"><text x="325.269px" y="192px" style="font-family:'NotoSansSC-Bold', 'Noto Sans SC', sans-serif;font-weight:700;font-size:27px;fill:#fff;">la</text></g><rect id="Rectangle20" serif:id="Rectangle" x="311" y="321" width="55" height="40"/><g id="fa"><text x="325.81px" y="351px" style="font-family:'NotoSansSC-Bold', 'Noto Sans SC', sans-serif;font-weight:700;font-size:27px;fill:#fff;">f<tspan x="335.233px " y="351px ">a</tspan></text></g><rect id="Rectangle21" serif:id="Rectangle" x="311" y="241" width="55" height="40" style="fill:#ccc;"/><g id="ソ3" serif:id="ソ"><text x="323.58px" y="269px" style="font-family:'NotoSansSC-Medium', 'Noto Sans SC', sans-serif;font-weight:500;font-size:20px;fill:#fff;">sol</text></g><rect id="Rectangle22" serif:id="Rectangle" x="311" y="281" width="55" height="40" style="fill:#aaa;"/><g id="ファ4" serif:id="ファ"><text x="328.02px" y="308px" style="font-family:'NotoSansSC-Medium', 'Noto Sans SC', sans-serif;font-weight:500;font-size:20px;fill:#fff;">f<tspan x="334.48px " y="308px ">a</tspan></text></g><g id="Group6" serif:id="Group" opacity="0.2"><g id="CS-sharp6" serif:id="CS-sharp"><g id="_-6" serif:id="♯"><text x="345.971px" y="305px" style="font-family:'HelveticaNeue-Bold', 'Helvetica Neue';font-weight:700;font-size:18px;fill:#fff;">♯</text></g></g></g><rect id="Rectangle23" serif:id="Rectangle" x="311" y="201" width="55" height="40" style="fill:#aaa;"/><g id="ソ4" serif:id="ソ"><text x="320.58px" y="228px" style="font-family:'NotoSansSC-Medium', 'Noto Sans SC', sans-serif;font-weight:500;font-size:20px;fill:#fff;">sol</text></g><g id="Group7" serif:id="Group" opacity="0.2"><g id="CS-sharp7" serif:id="CS-sharp"><g id="_-7" serif:id="♯"><text x="348.971px" y="225px" style="font-family:'HelveticaNeue-Bold', 'Helvetica Neue';font-weight:700;font-size:18px;fill:#fff;">♯</text></g></g></g><g id="Group8" serif:id="Group" opacity="0.2"><g id="CS-sharp8" serif:id="CS-sharp"><g id="_-8" serif:id="♯"><text x="257.971px" y="105px" style="font-family:'HelveticaNeue-Bold', 'Helvetica Neue';font-weight:700;font-size:18px;fill:#fff;">♯</text></g></g></g><rect id="Rectangle24" serif:id="Rectangle" x="226" y="161" width="55" height="40" style="fill:#aaa;"/><g id="ソ5" serif:id="ソ"><text x="235.58px" y="188px" style="font-family:'NotoSansSC-Medium', 'Noto Sans SC', sans-serif;font-weight:500;font-size:20px;fill:#fff;">sol</text></g><g id="Group9" serif:id="Group" opacity="0.2"><g id="CS-sharp9" serif:id="CS-sharp"><g id="_-9" serif:id="♯"><text x="263.971px" y="185px" style="font-family:'HelveticaNeue-Bold', 'Helvetica Neue';font-weight:700;font-size:18px;fill:#fff;">♯</text></g></g></g><rect id="Rectangle25" serif:id="Rectangle" x="311" y="81" width="55" height="40" style="fill:#ccc;"/><g id="シ1" serif:id="シ"><text x="329.51px" y="109px" style="font-family:'NotoSansSC-Bold', 'Noto Sans SC', sans-serif;font-weight:700;font-size:20px;fill:#fff;">si</text></g><rect id="Rectangle26" serif:id="Rectangle" x="311" y="41" width="55" height="40" style="fill:#ffbf00;"/><g id="ド"><text x="320.355px" y="72px" style="font-family:'NotoSansSC-Bold', 'Noto Sans SC', sans-serif;font-weight:700;font-size:27px;fill:#fff;">do</text></g><rect id="Rectangle27" serif:id="Rectangle" x="401" y="161" width="55" height="40" style="fill:#3db8f5;"/><g id="シ2" serif:id="シ"><text x="416.714px" y="192px" style="font-family:'NotoSansSC-Bold', 'Noto Sans SC', sans-serif;font-weight:700;font-size:27px;fill:#fff;">si</text></g><rect id="Rectangle28" serif:id="Rectangle" x="401" y="121" width="55" height="40" style="fill:#ccc;"/><g id="ド1" serif:id="ド"><text x="415.06px" y="149px" style="font-family:'NotoSansSC-Medium', 'Noto Sans SC', sans-serif;font-weight:500;font-size:20px;fill:#fff;">do</text></g><rect id="Rectangle29" serif:id="Rectangle" x="401" y="81" width="55" height="40" style="fill:#aaa;"/><g id="ド2" serif:id="ド"><text x="412.06px" y="108px" style="font-family:'NotoSansSC-Medium', 'Noto Sans SC', sans-serif;font-weight:500;font-size:20px;fill:#fff;">do</text></g><rect id="Rectangle30" serif:id="Rectangle" x="401" y="41" width="55" height="40" style="fill:#ffbf00;"/><g id="レ1" serif:id="レ"><text x="414.933px" y="72px" style="font-family:'NotoSansSC-Bold', 'Noto Sans SC', sans-serif;font-weight:700;font-size:27px;fill:#fff;">r<tspan x="426.381px " y="72px ">e</tspan></text></g><rect id="Rectangle31" serif:id="Rectangle" x="496" y="321" width="55" height="40"/><g id="la"><text x="510.269px" y="352px" style="font-family:'NotoSansSC-Bold', 'Noto Sans SC', sans-serif;font-weight:700;font-size:27px;fill:#fff;">la</text></g><rect id="Rectangle32" serif:id="Rectangle" x="496" y="241" width="55" height="40" style="fill:#ccc;"/><g id="シ3" serif:id="シ"><text x="514.83px" y="269px" style="font-family:'NotoSansSC-Medium', 'Noto Sans SC', sans-serif;font-weight:500;font-size:20px;fill:#fff;">si</text></g><rect id="Rectangle33" serif:id="Rectangle" x="496" y="201" width="55" height="40" style="fill:#f63;"/><g id="ド3" serif:id="ド"><text x="505.355px" y="232px" style="font-family:'NotoSansSC-Bold', 'Noto Sans SC', sans-serif;font-weight:700;font-size:27px;fill:#fff;">do</text></g><rect id="Rectangle34" serif:id="Rectangle" x="496" y="41" width="55" height="40" style="fill:#ffbf00;"/><g id="ミ1" serif:id="ミ"><text x="506.382px" y="72px" style="font-family:'NotoSansSC-Bold', 'Noto Sans SC', sans-serif;font-weight:700;font-size:27px;fill:#fff;">mi</text></g><rect id="Rectangle35" serif:id="Rectangle" x="591" y="321" width="55" height="40"/><g id="si"><text x="606.713px" y="352px" style="font-family:'NotoSansSC-Bold', 'Noto Sans SC', sans-serif;font-weight:700;font-size:27px;fill:#fff;">si</text></g><rect id="Rectangle36" serif:id="Rectangle" x="591" y="281" width="55" height="40" style="fill:#ccc;"/><g id="ド4" serif:id="ド"><text x="605.06px" y="309px" style="font-family:'NotoSansSC-Medium', 'Noto Sans SC', sans-serif;font-weight:500;font-size:20px;fill:#fff;">do</text></g><rect id="Rectangle37" serif:id="Rectangle" x="591" y="241" width="55" height="40" style="fill:#aaa;"/><g id="ド5" serif:id="ド"><text x="602.06px" y="268px" style="font-family:'NotoSansSC-Medium', 'Noto Sans SC', sans-serif;font-weight:500;font-size:20px;fill:#fff;">do</text></g><g id="Group10" serif:id="Group" opacity="0.25"><g id="CS-sharp10" serif:id="CS-sharp"><g id="_-10" serif:id="♯"><text x="626.971px" y="265px" style="font-family:'HelveticaNeue-Bold', 'Helvetica Neue';font-weight:700;font-size:18px;fill:#fff;">♯</text></g></g></g><rect id="Rectangle38" serif:id="Rectangle" x="496" y="161" width="55" height="40" style="fill:#aaa;"/><g id="ド6" serif:id="ド"><text x="505.56px" y="189px" style="font-family:'NotoSansSC-Medium', 'Noto Sans SC', sans-serif;font-weight:500;font-size:20px;fill:#fff;">do</text></g><rect id="Rectangle39" serif:id="Rectangle" x="496" y="121" width="55" height="40" style="fill:#ccc;"/><g id="レ2" serif:id="レ"><text x="513.37px" y="149px" style="font-family:'NotoSansSC-Medium', 'Noto Sans SC', sans-serif;font-weight:500;font-size:20px;fill:#fff;">r<tspan x="521.33px " y="149px ">e</tspan></text></g><g id="Group11" serif:id="Group" opacity="0.25"><g id="CS-sharp11" serif:id="CS-sharp"><g id="_-11" serif:id="♯"><text x="530.971px" y="186px" style="font-family:'HelveticaNeue-Bold', 'Helvetica Neue';font-weight:700;font-size:18px;fill:#fff;">♯</text></g></g></g><rect id="Rectangle40" serif:id="Rectangle" x="496" y="81" width="55" height="40" style="fill:#aaa;"/><g id="レ3" serif:id="レ"><text x="508.37px" y="109px" style="font-family:'NotoSansSC-Medium', 'Noto Sans SC', sans-serif;font-weight:500;font-size:20px;fill:#fff;">r<tspan x="516.33px " y="109px ">e</tspan></text></g><g id="Group12" serif:id="Group" opacity="0.25"><g id="CS-sharp12" serif:id="CS-sharp"><g id="_-12" serif:id="♯"><text x="527.971px" y="106px" style="font-family:'HelveticaNeue-Bold', 'Helvetica Neue';font-weight:700;font-size:18px;fill:#fff;">♯</text></g></g></g><rect id="Rectangle41" serif:id="Rectangle" x="496" y="281" width="55" height="40" style="fill:#aaa;"/><g id="ラ4" serif:id="ラ"><text x="510.77px" y="308px" style="font-family:'NotoSansSC-Medium', 'Noto Sans SC', sans-serif;font-weight:500;font-size:20px;fill:#fff;">la</text></g><g id="Group13" serif:id="Group" opacity="0.25"><g id="CS-sharp13" serif:id="CS-sharp"><g id="_-13" serif:id="♯"><text x="527.971px" y="305px" style="font-family:'HelveticaNeue-Bold', 'Helvetica Neue';font-weight:700;font-size:18px;fill:#fff;">♯</text></g></g></g><g id="Group14" serif:id="Group" opacity="0.2"><g id="CS-sharp14" serif:id="CS-sharp"><g id="_-14" serif:id="♯"><text x="436.971px" y="105px" style="font-family:'HelveticaNeue-Bold', 'Helvetica Neue';font-weight:700;font-size:18px;fill:#fff;">♯</text></g></g></g><rect id="Rectangle42" serif:id="Rectangle" x="401" y="241" width="55" height="40" style="fill:#ccc;"/><g id="ラ5" serif:id="ラ"><text x="418.77px" y="269px" style="font-family:'NotoSansSC-Medium', 'Noto Sans SC', sans-serif;font-weight:500;font-size:20px;fill:#fff;">la</text></g><rect id="Rectangle43" serif:id="Rectangle" x="401" y="201" width="55" height="40" style="fill:#aaa;"/><g id="ラ6" serif:id="ラ"><text x="417.77px" y="228px" style="font-family:'NotoSansSC-Medium', 'Noto Sans SC', sans-serif;font-weight:500;font-size:20px;fill:#fff;">la</text></g><g id="Group15" serif:id="Group" opacity="0.2"><g id="CS-sharp15" serif:id="CS-sharp"><g id="_-15" serif:id="♯"><text x="435.971px" y="225px" style="font-family:'HelveticaNeue-Bold', 'Helvetica Neue';font-weight:700;font-size:18px;fill:#fff;">♯</text></g></g></g><rect id="Rectangle44" serif:id="Rectangle" x="401" y="281" width="55" height="40" style="fill:#aaa;"/><g id="ソ6" serif:id="ソ"><text x="410.58px" y="308px" style="font-family:'NotoSansSC-Medium', 'Noto Sans SC', sans-serif;font-weight:500;font-size:20px;fill:#fff;">sol</text></g><g id="Group16" serif:id="Group" opacity="0.2"><g id="CS-sharp16" serif:id="CS-sharp"><g id="_-16" serif:id="♯"><text x="439.971px" y="305px" style="font-family:'HelveticaNeue-Bold', 'Helvetica Neue';font-weight:700;font-size:18px;fill:#fff;">♯</text></g></g></g><rect id="Rectangle45" serif:id="Rectangle" x="401" y="321" width="55" height="40"/><g id="sol"><text x="408.114px" y="352px" style="font-family:'NotoSansSC-Bold', 'Noto Sans SC', sans-serif;font-weight:700;font-size:27px;fill:#fff;">sol</text></g><rect id="Rectangle46" serif:id="Rectangle" x="311" y="121" width="55" height="40" style="fill:#aaa;"/><g id="ラ7" serif:id="ラ"><text x="326.22px" y="148px" style="font-family:'HiraginoSans-W5', 'Hiragino Sans', sans-serif;font-weight:500;font-size:20px;fill:#fff;">si</text></g><g id="Group17" serif:id="Group" opacity="0.2"><g id="CS-sharp17" serif:id="CS-sharp"><g id="_-17" serif:id="♯"><text x="342.971px" y="145px" style="font-family:'HelveticaNeue-Bold', 'Helvetica Neue';font-weight:700;font-size:18px;fill:#fff;">♯</text></g></g></g><rect id="Rectangle47" serif:id="Rectangle" x="226" y="321" width="55" height="40"/><g id="mi1" serif:id="mi"><text x="236.382px" y="352px" style="font-family:'NotoSansSC-Bold', 'Noto Sans SC', sans-serif;font-weight:700;font-size:27px;fill:#fff;">mi</text></g><rect id="Rectangle48" serif:id="Rectangle" x="226" y="201" width="55" height="40" style="fill:#f63;"/><g id="ソ7" serif:id="ソ"><text x="233.114px" y="232px" style="font-family:'NotoSansSC-Bold', 'Noto Sans SC', sans-serif;font-weight:700;font-size:27px;fill:#fff;">sol</text></g><rect id="Rectangle49" serif:id="Rectangle" x="226" y="281" width="55" height="40" style="fill:#ccc;"/><g id="ファ5" serif:id="ファ"><text x="245.02px" y="309px" style="font-family:'NotoSansSC-Medium', 'Noto Sans SC', sans-serif;font-weight:500;font-size:20px;fill:#fff;">f<tspan x="251.48px " y="309px ">a</tspan></text></g><rect id="Rectangle50" serif:id="Rectangle" x="226" y="241" width="55" height="40" style="fill:#aaa;"/><g id="ファ6" serif:id="ファ"><text x="243.02px" y="268px" style="font-family:'NotoSansSC-Medium', 'Noto Sans SC', sans-serif;font-weight:500;font-size:20px;fill:#fff;">f<tspan x="249.48px " y="268px ">a</tspan></text></g><g id="Group18" serif:id="Group" opacity="0.2"><g id="CS-sharp18" serif:id="CS-sharp"><g id="_-18" serif:id="♯"><text x="260.971px" y="265px" style="font-family:'HelveticaNeue-Bold', 'Helvetica Neue';font-weight:700;font-size:18px;fill:#fff;">♯</text></g></g></g><rect id="Rectangle51" serif:id="Rectangle" x="591" y="201" width="55" height="40" style="fill:#f63;"/><g id="レ4" serif:id="レ"><text x="604.933px" y="232px" style="font-family:'NotoSansSC-Bold', 'Noto Sans SC', sans-serif;font-weight:700;font-size:27px;fill:#fff;">r<tspan x="616.381px " y="232px ">e</tspan></text></g><rect id="Rectangle52" serif:id="Rectangle" x="591" y="161" width="55" height="40" style="fill:#aaa;"/><rect id="Rectangle53" serif:id="Rectangle" x="591" y="121" width="55" height="40" style="fill:#ccc;"/><rect id="Rectangle54" serif:id="Rectangle" x="591" y="81" width="55" height="40" style="fill:#5c3df5;"/><g id="ファ7" serif:id="ファ"><text x="609.81px" y="111px" style="font-family:'NotoSansSC-Bold', 'Noto Sans SC', sans-serif;font-weight:700;font-size:27px;fill:#fff;">f<tspan x="619.233px " y="111px ">a</tspan></text></g><g id="レ5" serif:id="レ"><text x="604.37px" y="189px" style="font-family:'NotoSansSC-Medium', 'Noto Sans SC', sans-serif;font-weight:500;font-size:20px;fill:#fff;">r<tspan x="612.33px " y="189px ">e</tspan></text></g><g id="ミ2" serif:id="ミ"><text x="606.71px" y="149px" style="font-family:'NotoSansSC-Medium', 'Noto Sans SC', sans-serif;font-weight:500;font-size:20px;fill:#fff;">mi</text></g><g id="Group19" serif:id="Group" opacity="0.25"><g id="CS-sharp19" serif:id="CS-sharp"><g id="_-19" serif:id="♯"><text x="622.971px" y="186px" style="font-family:'HelveticaNeue-Bold', 'Helvetica Neue';font-weight:700;font-size:18px;fill:#fff;">♯</text></g></g></g><g id="Degree"><path id="形状" d="M5.46,350.22c1.82,-0 3.5,-0.98 4.52,-2.64c1.12,-1.82 1.84,-4.38 1.84,-6.54c-0,-2.62 -1.24,-4.1 -3.42,-4.1c-2.34,0 -4.32,1.66 -5.38,4.48c-0.58,1.54 -0.92,3.28 -0.92,4.66c-0,2.68 1.2,4.14 3.36,4.14Zm0.26,-0.84c-0.82,-0 -1.34,-0.76 -1.34,-1.98c-0,-2.52 0.8,-5.96 1.84,-8c0.54,-1.06 1.24,-1.62 2,-1.62c0.82,-0 1.32,0.72 1.32,1.86c-0,2.8 -0.88,6.54 -2,8.48c-0.44,0.78 -1.14,1.26 -1.82,1.26Z" style="fill:#888;fill-rule:nonzero;"/></g><g id="Degree1" serif:id="Degree"><path id="路径" d="M8.82,310l0.16,-0.78l-0.26,-0c-1,-0 -1.4,-0.24 -1.4,-0.82c-0,-0.34 0.06,-0.84 0.18,-1.38l1.4,-6.62c0.38,-1.72 0.56,-2.48 0.78,-3.22l-0.5,-0.36c-1.12,0.6 -2.34,1.16 -4.24,1.92l0.2,0.78c1.08,-0.4 1.26,-0.46 1.74,-0.66c-0.02,0.16 -0.04,0.26 -0.08,0.46l-0.14,0.6l-1.5,7.1c-0.42,1.96 -0.62,2.14 -2.3,2.2l-0.16,0.78c1.14,-0.06 1.84,-0.08 3.08,-0.08c1.24,0 1.92,0.02 3.04,0.08Z" style="fill:#888;fill-rule:nonzero;"/></g><g id="Degree2" serif:id="Degree"><path id="路径1" serif:id="路径" d="M8.86,270c0.72,-1.18 1.24,-1.98 1.88,-2.88l-0.66,-0.26c-0.5,0.62 -0.88,0.92 -1.46,1.1c-0.433,0.133 -0.631,0.156 -2.258,0.159l-1.587,0c-0.317,-0.002 -0.755,-0.006 -1.315,-0.019c0.88,-0.68 1.12,-0.88 2.62,-2.02c2.16,-1.64 3.14,-2.5 3.94,-3.4c1.02,-1.14 1.48,-2.18 1.48,-3.24c-0,-1.52 -1.14,-2.5 -2.88,-2.5c-1.86,-0 -3.64,1.12 -5.12,3.18l0.66,0.36c1.12,-1.34 2.04,-1.9 3.06,-1.9c0.94,-0 1.6,0.6 1.6,1.48c-0,0.76 -0.52,1.82 -1.48,2.98c-1.56,1.9 -4.14,4.34 -6.72,6.34l0.12,0.62c0.16,-0.006 0.315,-0.012 0.468,-0.017l0.456,-0.014c0.685,-0.019 1.397,-0.029 2.436,-0.029c1.68,-0 2.72,0.02 4.76,0.06Z" style="fill:#888;fill-rule:nonzero;"/></g><g id="Degree3" serif:id="Degree"><path id="路径2" serif:id="路径" d="M4.58,230.22c1.94,0 3.62,-0.74 4.72,-2.08c0.72,-0.86 1.12,-1.92 1.12,-2.92c-0,-1.48 -0.88,-2.3 -2.68,-2.48c2.16,-0.72 3.3,-1.94 3.3,-3.52c-0,-1.36 -1.06,-2.28 -2.6,-2.28c-1.54,0 -2.98,0.76 -4.42,2.32l0.58,0.48c0.98,-1 1.82,-1.46 2.68,-1.46c0.82,0 1.34,0.56 1.34,1.42c-0,0.68 -0.32,1.36 -0.86,1.88c-0.6,0.58 -1.36,0.86 -2.64,0.96l-0.16,0.76c2.08,0 2.98,0.64 2.98,2.16c-0,2.02 -1.34,3.88 -2.8,3.88c-0.66,0 -1.12,-0.38 -1.24,-1c-0.1,-0.58 -0.1,-0.58 -0.22,-0.7c-0.14,-0.2 -0.4,-0.32 -0.7,-0.32c-0.78,0 -1.38,0.54 -1.38,1.24c-0,0.96 1.24,1.66 2.98,1.66Z" style="fill:#888;fill-rule:nonzero;"/></g><g id="Degree4" serif:id="Degree"><path id="形状1" serif:id="形状" d="M8.44,190l0.74,-3.46l1.64,0l0.34,-1.54l-1.66,0l1.76,-8.3l-2.48,0.72l-6.54,7.54l-0.54,1.58l5.2,0l-0.72,3.46l2.26,0Zm-1.2,-5l-3.82,0l5.14,-5.98l-1.32,5.98Z" style="fill:#888;fill-rule:nonzero;"/></g><g id="Degree5" serif:id="Degree"><path id="路径3" serif:id="路径" d="M4.32,150.22c1.96,0 3.74,-0.84 5,-2.38c0.88,-1.08 1.4,-2.4 1.4,-3.58c-0,-1.86 -1.36,-3 -3.62,-3c-0.48,0 -0.84,0.04 -1.42,0.14l0.88,-2.24l4.7,0l0.96,-2l-5.92,0l-2.46,6.28l0.34,0.32c0.68,-0.2 1.22,-0.28 1.84,-0.28c1.62,0 2.56,0.78 2.56,2.1c-0,1.86 -1.64,3.72 -3.26,3.72c-0.58,0 -1.02,-0.36 -1.26,-1c-0.24,-0.72 -0.4,-0.86 -0.96,-0.86c-0.74,0 -1.36,0.58 -1.36,1.28c-0,0.88 1.06,1.5 2.58,1.5Z" style="fill:#888;fill-rule:nonzero;"/></g><g id="Degree6" serif:id="Degree"><path id="形状2" serif:id="形状" d="M5.7,110.22c2.84,0 5.32,-2.32 5.32,-4.98c-0,-1.64 -1.12,-2.74 -2.78,-2.74c-0.92,0 -1.72,0.28 -2.86,0.98c1.1,-2.72 3.14,-4.74 6.2,-6.14l-0.16,-0.6c-1.84,0.58 -3.56,1.56 -5.18,2.9c-2.62,2.2 -4.06,4.72 -4.06,7.14c-0,2.14 1.34,3.44 3.52,3.44Zm0.34,-0.86c-0.98,-0 -1.56,-0.74 -1.56,-2.02c-0,-0.96 0.16,-1.8 0.54,-2.88c0.7,-0.54 1.32,-0.78 2,-0.78c1,-0 1.6,0.78 1.6,2.04c-0,2.02 -1.16,3.64 -2.58,3.64Z" style="fill:#888;fill-rule:nonzero;"/></g><g id="Degree7" serif:id="Degree"><path id="路径4" serif:id="路径" d="M5,70l7.72,-12.44l-0.14,-0.4l-7.84,-0l-1.38,3.18l0.72,-0c0.68,-1.1 1.18,-1.3 3.4,-1.32l2.98,-0l-7.08,9.82c-0.332,0.485 -0.492,0.701 -0.632,0.894l-0.092,0.128c-0.031,0.044 -0.062,0.089 -0.096,0.138l2.44,-0Z" style="fill:#888;fill-rule:nonzero;"/></g><g id="_1" serif:id="1"><text x="73.88px" y="417px" style="font-family:'HiraginoSans-W5', 'Hiragino Sans', sans-serif;font-weight:500;font-size:20px;fill:#3db8f5;">1</text></g><g id="タイプ"><text x="61.848px" y="389px" style="font-family:'NotoSansSC-Bold', 'Noto Sans SC', sans-serif;font-weight:700;font-size:16px;fill:#3db8f5;">T<tspan x="71.368px " y="389px ">y</tspan>pe</text></g><g id="_2" serif:id="2"><text x="160.88px" y="417px" style="font-family:'HiraginoSans-W5', 'Hiragino Sans', sans-serif;font-weight:500;font-size:20px;fill:#f63;">2</text></g><g id="タイプ1" serif:id="タイプ"><text x="148.848px" y="389px" style="font-family:'NotoSansSC-Bold', 'Noto Sans SC', sans-serif;font-weight:700;font-size:16px;fill:#f63;">T<tspan x="158.368px " y="389px ">y</tspan>pe</text></g><g id="_21" serif:id="2"><text x="244.88px" y="417px" style="font-family:'HiraginoSans-W5', 'Hiragino Sans', sans-serif;font-weight:500;font-size:20px;fill:#f63;">2</text></g><g id="タイプ2" serif:id="タイプ"><text x="232.848px" y="389px" style="font-family:'NotoSansSC-Bold', 'Noto Sans SC', sans-serif;font-weight:700;font-size:16px;fill:#f63;">T<tspan x="242.368px " y="389px ">y</tspan>pe</text></g><g id="_11" serif:id="1"><text x="330.88px" y="417px" style="font-family:'HiraginoSans-W5', 'Hiragino Sans', sans-serif;font-weight:500;font-size:20px;fill:#3db8f5;">1</text></g><g id="タイプ3" serif:id="タイプ"><text x="318.848px" y="389px" style="font-family:'NotoSansSC-Bold', 'Noto Sans SC', sans-serif;font-weight:700;font-size:16px;fill:#3db8f5;">T<tspan x="328.368px " y="389px ">y</tspan>pe</text></g><g id="_12" serif:id="1"><text x="421.88px" y="417px" style="font-family:'HiraginoSans-W5', 'Hiragino Sans', sans-serif;font-weight:500;font-size:20px;fill:#3db8f5;">1</text></g><g id="タイプ4" serif:id="タイプ"><text x="409.848px" y="389px" style="font-family:'NotoSansSC-Bold', 'Noto Sans SC', sans-serif;font-weight:700;font-size:16px;fill:#3db8f5;">T<tspan x="419.368px " y="389px ">y</tspan>pe</text></g><g id="_22" serif:id="2"><text x="517.88px" y="417px" style="font-family:'HiraginoSans-W5', 'Hiragino Sans', sans-serif;font-weight:500;font-size:20px;fill:#f63;">2</text></g><g id="タイプ5" serif:id="タイプ"><text x="505.848px" y="389px" style="font-family:'NotoSansSC-Bold', 'Noto Sans SC', sans-serif;font-weight:700;font-size:16px;fill:#f63;">T<tspan x="515.368px " y="389px ">y</tspan>pe</text></g><g id="_3" serif:id="3"><text x="613.88px" y="417px" style="font-family:'HiraginoSans-W5', 'Hiragino Sans', sans-serif;font-weight:500;font-size:20px;fill:#5c3df5;">3</text></g><g id="タイプ6" serif:id="タイプ"><text x="601.848px" y="389px" style="font-family:'NotoSansSC-Bold', 'Noto Sans SC', sans-serif;font-weight:700;font-size:16px;fill:#5c3df5;">T<tspan x="611.368px " y="389px ">y</tspan>pe</text></g></g></g></svg>