<?xml version="1.0" encoding="UTF-8"?>
<svg width="530px" height="360px" viewBox="0 0 530 360" version="1.1" xmlns="http://www.w3.org/2000/svg" xmlns:xlink="http://www.w3.org/1999/xlink">
    <title>c1-maj-min-symbol-variation</title>
    <g id="c1-maj-min-symbol-variation" stroke="none" stroke-width="1" fill="none" fill-rule="evenodd">
        <g id="Group" transform="translate(18.500000, 31.000000)" stroke="#000000">
            <line x1="0.5" y1="1" x2="486.5" y2="1" id="horizon"></line>
            <line x1="0.5" y1="21" x2="486.5" y2="21" id="horizon"></line>
            <line x1="0.5" y1="41" x2="486.5" y2="41" id="horizon"></line>
            <line x1="0.5" y1="61" x2="486.5" y2="61" id="horizon"></line>
            <line x1="0.5" y1="81" x2="486.5" y2="81" id="horizon"></line>
            <line x1="-38.5" y1="40.9933912" x2="39.5" y2="41.0066088" id="bar" stroke-width="2.72167481" stroke-linecap="round" stroke-linejoin="round" transform="translate(0.500000, 41.000000) rotate(90.000000) translate(-0.500000, -41.000000) "></line>
            <line x1="487" y1="1" x2="487" y2="81" id="bar" stroke-linecap="square"></line>
        </g>
        <path d="M47.1620791,131.96278 C46.2662404,131.896201 45.4037992,131.750938 44.5904719,131.529009 C40.3745292,130.385065 37.4551952,127.207444 36.7754579,123.019036 C36.575073,121.792373 36.641868,119.871677 36.9227998,118.776154 C37.1369367,117.936859 37.6555802,116.738442 38.0740312,116.113005 C38.7793077,115.061868 39.9835821,114.067222 41.1858919,113.548715 C42.1740649,113.120997 42.7064603,113.008015 43.9519904,112.963629 C44.9401634,112.927313 45.1837686,112.943454 45.7554552,113.090734 C48.2425863,113.730293 50.2582234,115.86283 51.132452,118.784225 C51.3289078,119.443959 51.3465889,119.611415 51.350518,120.908692 C51.3544471,122.141407 51.3328369,122.397634 51.1776368,122.946404 C50.8338391,124.16298 50.2464361,125.143503 49.3073771,126.061482 C47.9321861,127.409197 46.321248,128.21823 44.1464817,128.658053 L43.2133164,128.847702 L43.8753726,129.13621 C47.4096135,130.689713 51.3230142,130.540416 54.9711994,128.716562 C58.1636071,127.122707 60.6330572,124.237628 61.4817465,121.110445 C61.6880252,120.353869 61.6998125,120.214659 61.6939188,118.776154 L61.6880252,117.246861 L60.4955381,111.331441 C59.8413401,108.077153 59.2873346,105.355495 59.2657245,105.280846 C59.2303624,105.165847 59.1478509,105.181987 58.5820581,105.418039 C54.9260146,106.945315 49.3938176,106.925139 44.3449021,105.3676 C37.4276914,103.235063 31.7815501,98.5543762 28.8386413,92.5138689 C27.9211925,90.6274713 27.384868,88.8237928 27.0882196,86.6186243 C26.9546296,85.6259959 26.9762398,82.9971445 27.1294754,81.7482888 C27.9486963,75.0662046 31.3984611,68.3659626 37.90115,60.8203724 C39.9246453,58.4719587 44.3547249,54.077762 47.3231729,51.4731211 C48.1129254,50.7811058 48.1463229,50.7367199 48.0854216,50.5127733 C47.9479025,49.9942661 47.4705148,47.4783969 47.3231729,46.491821 C46.6395065,41.8938531 46.6414711,36.5554489 47.327102,31.882832 C48.4036801,24.5430306 50.9281379,18.3754185 54.6018624,14.1143793 C55.2717769,13.3356098 56.6901882,12 56.8453883,12 C56.8945023,12 57.3247406,12.5891209 57.7981992,13.3093818 C62.1948813,19.9712907 64.5209186,25.9048684 65.1574356,32.070463 C65.3146003,33.6118617 65.27138,37.2293064 65.0749241,38.6395651 C64.4305489,43.2960417 62.9276616,47.3371693 60.3501608,51.3399637 C58.6645695,53.9607449 56.1263599,56.9386302 53.5351071,59.3394998 C52.943775,59.88827 52.3210099,60.4652858 52.1520579,60.6226537 L51.8455867,60.909144 L53.2030967,67.5851756 L54.5586421,74.2632247 L55.2305211,74.2107687 C57.1204265,74.0594534 59.116418,74.170418 60.5426875,74.5033117 C62.4424157,74.9491874 64.5798554,75.9660263 66.1790061,77.1826015 C67.0709157,77.8625116 68.5561219,79.3817173 69.1828161,80.2573286 C70.6817743,82.3474974 71.6601245,84.8391563 71.9331981,87.2581837 C72.0687527,88.4545834 71.9882058,90.7828217 71.7799625,91.7512397 C70.9568125,95.5825434 68.5207599,99.1858654 64.8097087,102.056821 C63.8922599,102.766994 62.5543955,103.624448 61.581939,104.126815 C60.9238119,104.467779 60.8668397,104.514182 60.91006,104.691725 C60.9925714,105.028654 62.0475394,110.157234 62.4424157,112.136439 C62.6486943,113.17547 62.9669528,114.89643 63.1496567,115.959672 C63.4718443,117.831947 63.4816671,117.928789 63.4384469,119.139311 C63.3598645,121.439304 62.7822843,123.23693 61.4778174,125.256485 C58.9926508,129.099894 54.5409611,131.551202 49.3486328,131.932517 C48.2524091,132.013218 47.8987886,132.019271 47.1620791,131.96278 Z M53.7453149,104.885409 C54.7217005,104.770409 55.9593724,104.504094 56.7609123,104.233744 C57.7431916,103.904886 58.9278204,103.3198 58.880671,103.186642 C58.8590608,103.128134 57.8551714,98.2315702 56.6489324,92.304045 C55.4426935,86.3765198 54.4368395,81.5082018 54.4132648,81.4839914 C54.3896901,81.4597809 53.9889201,81.516272 53.5233197,81.6110963 C50.1069524,82.3031116 47.3035273,84.2621405 46.0756782,86.816343 C45.6886602,87.6213405 45.5413183,88.1479177 45.4411258,89.0679148 C45.2289535,91.0229087 45.8576122,93.1695686 47.1443981,94.8723702 C47.8928949,95.8649987 49.0343034,96.9262234 50.0814131,97.6061335 C50.4821831,97.8663959 50.5588009,97.9935007 50.277869,97.9329746 C50.1796411,97.9127992 49.8358433,97.8381503 49.5136557,97.7695541 C46.9813397,97.2228014 44.5315352,95.7903498 43.1425923,94.0471974 C41.9226014,92.5138689 41.3037654,90.9200143 41.1269552,88.8480033 C40.9010309,86.2070467 41.5925556,83.6609144 43.2113518,81.1652205 C44.256497,79.553208 46.0599617,77.7979504 47.8673556,76.6358488 C49.1757516,75.7925181 51.1599558,74.9330471 52.5115721,74.6223464 C52.7591065,74.5658553 52.961456,74.493224 52.961456,74.4629609 C52.961456,74.3762068 50.4566438,62.1237016 50.4153881,62.0066844 C50.3544868,61.8351937 46.9597296,64.6193955 44.6729834,66.7135994 C43.4117368,67.8696484 40.7281498,70.6639378 39.7537287,71.8361271 C36.8127846,75.3728703 34.9130564,78.5545269 33.8502302,81.7160082 C32.7815104,84.9037175 32.516295,87.972392 33.0624422,90.8756284 C33.726463,94.4063191 36.0033864,98.1004302 39.0484522,100.588054 C43.183848,103.965412 48.4508295,105.504793 53.7453149,104.885409 Z M61.5053212,101.528226 C64.3244628,99.1071814 65.992373,96.3532427 66.4854772,93.3128137 C66.6505001,92.2939573 66.6072798,90.1452799 66.4049303,89.1950197 C65.5798157,85.3455582 63.0612516,82.3737254 59.7411476,81.3326761 C59.0869496,81.1268873 58.9356786,81.110747 57.6469282,81.1087294 C56.8296718,81.1087294 56.2304815,81.1389925 56.1892257,81.1874134 C56.14797,81.2338167 56.9907656,85.4625753 58.3011262,91.7714151 C59.4995069,97.5476249 60.4817862,102.284803 60.4837508,102.298926 C60.491609,102.363487 60.8354067,102.103225 61.5053212,101.528226 Z M52.2836833,47.0163808 C57.959293,41.3349952 61.3127945,35.8029074 62.0121773,30.9628349 C62.169342,29.8733647 62.1673775,28.0959142 62.0062837,27.1274962 C61.6840961,25.1946952 60.8963081,23.4979462 59.5564791,21.8617233 C59.0240837,21.2120762 58.9435368,21.1777781 57.9376829,21.1797211 C56.8296718,21.1818131 55.8218533,21.7083904 54.7767081,22.8301413 C53.0439675,24.6842582 51.5960878,27.7145996 50.5293325,31.7073063 C49.0460908,37.2656221 48.5903132,44.2180563 49.4036404,48.9269888 L49.5313367,49.6714601 L50.3250184,48.9269888 C50.7611504,48.5174287 51.6412726,47.6579577 52.2836833,47.0163808 Z" id="G-Clef" fill="#000000"></path>
        <path d="M150.586271,104.185068 C144.757334,107.368055 141.652344,113.128911 143.562711,117.46267 C145.600093,122.086745 152.603055,123.391419 159.192362,120.376327 C165.783386,117.361234 169.477105,111.159657 167.439724,106.53733 C165.402342,101.913255 158.39938,100.608581 151.810073,103.623673 C151.398134,103.812554 150.97418,103.971703 150.586271,104.185068 Z" id="Path" fill="#000000" transform="translate(155.500000, 112.000000) rotate(-180.000000) translate(-155.500000, -112.000000) "></path>
        <path d="M150.586271,124.185068 C144.757334,127.368055 141.652344,133.128911 143.562711,137.46267 C145.600093,142.086745 152.603055,143.391419 159.192362,140.376327 C165.783386,137.361234 169.477105,131.159657 167.439724,126.53733 C165.402342,121.913255 158.39938,120.608581 151.810073,123.623673 C151.398134,123.812554 150.97418,123.971703 150.586271,124.185068 Z" id="Path" fill="#000000" transform="translate(155.500000, 132.000000) rotate(-180.000000) translate(-155.500000, -132.000000) "></path>
        <rect id="Rectangle" fill="#000000" x="135" y="132" width="40" height="1"></rect>
        <path d="M150.586271,84.1850683 C144.757334,87.3680549 141.652344,93.1289109 143.562711,97.4626696 C145.600093,102.086745 152.603055,103.391419 159.192362,100.376327 C165.783386,97.3612338 169.477105,91.1596566 167.439724,86.5373304 C165.402342,81.9132553 158.39938,80.6085806 151.810073,83.6236734 C151.398134,83.8125539 150.97418,83.9717032 150.586271,84.1850683 Z" id="Path" fill="#000000" transform="translate(155.500000, 92.000000) rotate(-180.000000) translate(-155.500000, -92.000000) "></path>
        <path d="M380.586271,54.1850683 C374.757334,57.3680549 371.652344,63.1289109 373.562711,67.4626696 C375.600093,72.0867447 382.603055,73.3914194 389.192362,70.3763266 C395.783386,67.3612338 399.477105,61.1596566 397.439724,56.5373304 C395.402342,51.9132553 388.39938,50.6085806 381.810073,53.6236734 C381.398134,53.8125539 380.97418,53.9717032 380.586271,54.1850683 Z" id="Path" fill="#000000" transform="translate(385.500000, 62.000000) rotate(-180.000000) translate(-385.500000, -62.000000) "></path>
        <path d="M380.586271,74.1850683 C374.757334,77.3680549 371.652344,83.1289109 373.562711,87.4626696 C375.600093,92.0867447 382.603055,93.3914194 389.192362,90.3763266 C395.783386,87.3612338 399.477105,81.1596566 397.439724,76.5373304 C395.402342,71.9132553 388.39938,70.6085806 381.810073,73.6236734 C381.398134,73.8125539 380.97418,73.9717032 380.586271,74.1850683 Z" id="Path" fill="#000000" transform="translate(385.500000, 82.000000) rotate(-180.000000) translate(-385.500000, -82.000000) "></path>
        <path d="M380.586271,34.1850683 C374.757334,37.3680549 371.652344,43.1289109 373.562711,47.4626696 C375.600093,52.0867447 382.603055,53.3914194 389.192362,50.3763266 C395.783386,47.3612338 399.477105,41.1596566 397.439724,36.5373304 C395.402342,31.9132553 388.39938,30.6085806 381.810073,33.6236734 C381.398134,33.8125539 380.97418,33.9717032 380.586271,34.1850683 Z" id="Path" fill="#000000" transform="translate(385.500000, 42.000000) rotate(-180.000000) translate(-385.500000, -42.000000) "></path>
        <line x1="276" y1="33" x2="276" y2="112" id="Path-36" stroke="#000000" stroke-linecap="square" fill-rule="nonzero"></line>
        <g id="Group" transform="translate(121.000000, 144.000000)" fill="#0C0C0C" fill-rule="nonzero">
            <g id="CN-Alphabet">
                <path d="M27.3851178,38.9348901 C31.7726178,38.9348901 35.9001178,36.3673901 36.9401178,30.9398901 C36.9726178,30.6148901 36.8101178,30.4848901 36.5176178,30.4848901 L34.1451178,30.4848901 C33.8526178,30.4848901 33.6901178,30.5823901 33.5926178,30.9398901 C32.7476178,34.0273901 30.4726178,35.9123901 27.4501178,35.9123901 C23.3876178,35.9123901 20.5926178,32.4673901 20.5926178,27.2348901 C20.5926178,22.0023901 23.3876178,18.5573901 27.4501178,18.5573901 C30.4726178,18.5573901 32.7476178,20.4423901 33.5926178,23.5298901 C33.6901178,23.8873901 33.8526178,23.9848901 34.1451178,23.9848901 L36.5176178,23.9848901 C36.8101178,23.9848901 36.9726178,23.8548901 36.9401178,23.5298901 C35.9001178,18.1023901 31.7726178,15.5348901 27.3851178,15.5348901 C21.3401178,15.5348901 17.1801178,20.2148901 17.1801178,27.2348901 C17.1801178,34.2548901 21.3401178,38.9348901 27.3851178,38.9348901 Z" id="Combined-Shape"></path>
            </g>
        </g>
        <g id="Group" transform="translate(121.000000, 214.000000)" fill="#0C0C0C" fill-rule="nonzero">
            <g id="CN-Alphabet">
                <path d="M27.3851178,38.9348901 C31.7726178,38.9348901 35.9001178,36.3673901 36.9401178,30.9398901 C36.9726178,30.6148901 36.8101178,30.4848901 36.5176178,30.4848901 L34.1451178,30.4848901 C33.8526178,30.4848901 33.6901178,30.5823901 33.5926178,30.9398901 C32.7476178,34.0273901 30.4726178,35.9123901 27.4501178,35.9123901 C23.3876178,35.9123901 20.5926178,32.4673901 20.5926178,27.2348901 C20.5926178,22.0023901 23.3876178,18.5573901 27.4501178,18.5573901 C30.4726178,18.5573901 32.7476178,20.4423901 33.5926178,23.5298901 C33.6901178,23.8873901 33.8526178,23.9848901 34.1451178,23.9848901 L36.5176178,23.9848901 C36.8101178,23.9848901 36.9726178,23.8548901 36.9401178,23.5298901 C35.9001178,18.1023901 31.7726178,15.5348901 27.3851178,15.5348901 C21.3401178,15.5348901 17.1801178,20.2148901 17.1801178,27.2348901 C17.1801178,34.2548901 21.3401178,38.9348901 27.3851178,38.9348901 Z" id="Combined-Shape"></path>
            </g>
        </g>
        <g id="Group" transform="translate(355.000000, 142.000000)" fill="#0C0C0C" fill-rule="nonzero">
            <g id="CN-Alphabet">
                <path d="M19.9588678,38.6098901 C20.2513678,38.6098901 20.3163678,38.4473901 20.4138678,38.1548901 L21.7788678,34.4173901 L31.8213678,34.4173901 L33.1538678,38.1548901 C33.2838678,38.4473901 33.3488678,38.6098901 33.6413678,38.6098901 L36.5013678,38.6098901 C36.8263678,38.6098901 36.9238678,38.4473901 36.8263678,38.1548901 L28.3438678,16.2823901 C28.2463678,16.0223901 28.1163678,15.8598901 27.8238678,15.8598901 L25.9388678,15.8598901 C25.6138678,15.8598901 25.5163678,16.0223901 25.3863678,16.3148901 L16.9038678,38.1548901 C16.7738678,38.4473901 16.9363678,38.6098901 17.1963678,38.6098901 L19.9588678,38.6098901 Z M30.7813678,31.5573901 L22.8188678,31.5573901 L26.0688678,22.6523901 L26.8163678,19.9223901 L27.5638678,22.6523901 L30.7813678,31.5573901 Z" id="Combined-Shape"></path>
            </g>
        </g>
        <g id="Group" transform="translate(335.000000, 142.000000)" fill="#0C0C0C" fill-rule="nonzero">
            <g id="CN-Alphabet">
                <path d="M30.7001178,42.0873901 C31.0251178,42.0873901 31.1226178,41.9573901 30.9601178,41.6648901 C28.4576178,37.7323901 26.7351178,32.8248901 26.7351178,27.9498901 C26.7351178,23.0748901 28.4576178,18.1348901 30.9601178,14.2348901 C31.1226178,13.9423901 31.0251178,13.7798901 30.7001178,13.7798901 L28.4251178,13.7798901 C28.1326178,13.7798901 27.9701178,13.9423901 27.7751178,14.2348901 C25.1426178,18.1998901 23.5826178,23.1723901 23.5826178,27.9498901 C23.5826178,32.6948901 25.1426178,37.6673901 27.7751178,41.6648901 C27.9701178,41.9573901 28.1326178,42.0873901 28.4251178,42.0873901 L30.7001178,42.0873901 Z" id="Combined-Shape"></path>
            </g>
        </g>
        <g id="Group" transform="translate(396.000000, 142.000000)" fill="#0C0C0C" fill-rule="nonzero">
            <g id="CN-Alphabet">
                <path d="M25.3376178,42.0873901 C25.6301178,42.0873901 25.7926178,41.9573901 25.9876178,41.6648901 C28.6201178,37.6673901 30.1801178,32.6948901 30.1801178,27.9498901 C30.1801178,23.1723901 28.6201178,18.1998901 25.9876178,14.2348901 C25.7926178,13.9423901 25.6301178,13.7798901 25.3376178,13.7798901 L23.0626178,13.7798901 C22.7376178,13.7798901 22.6401178,13.9423901 22.8026178,14.2348901 C25.3051178,18.1348901 27.0276178,23.0748901 27.0276178,27.9498901 C27.0276178,32.8248901 25.3051178,37.7323901 22.8026178,41.6648901 C22.6401178,41.9573901 22.7376178,42.0873901 23.0626178,42.0873901 L25.3376178,42.0873901 Z" id="Combined-Shape"></path>
            </g>
        </g>
        <g id="Group" transform="translate(387.000000, 140.000000)" fill="#0C0C0C" fill-rule="nonzero">
            <g id="CN-minor">
                <path d="M10.1341361,41.7084416 C10.4041361,41.7084416 10.5541361,41.5584416 10.5541361,41.2884416 L10.5541361,32.7084416 C11.4841361,31.9884416 12.2941361,31.6884416 13.1641361,31.6884416 C14.7541361,31.6884416 15.5041361,32.6784416 15.5041361,34.6584416 L15.5041361,41.2884416 C15.5041361,41.5584416 15.6841361,41.7084416 15.9241361,41.7084416 L17.9941361,41.7084416 C18.2641361,41.7084416 18.4141361,41.5584416 18.4141361,41.2884416 L18.4141361,34.3584416 C18.4141361,33.8184416 18.3541361,33.3084416 18.2941361,32.8584416 C19.1341361,32.1084416 20.0641361,31.6884416 21.0241361,31.6884416 C22.5541361,31.6884416 23.3341361,32.6784416 23.3341361,34.6584416 L23.3341361,41.2884416 C23.3341361,41.5584416 23.4841361,41.7084416 23.7541361,41.7084416 L25.8241361,41.7084416 C26.0941361,41.7084416 26.2441361,41.5584416 26.2441361,41.2884416 L26.2441361,34.3584416 C26.2441361,30.9084416 24.3841361,29.1084416 21.5941361,29.1084416 C20.0041361,29.1084416 18.5941361,29.7084416 17.4541361,30.8484416 C16.6741361,29.7084416 15.3841361,29.1084416 13.8241361,29.1084416 C12.4141361,29.1084416 11.2441361,29.5584416 9.92413609,30.5484416 C9.59413609,29.7984416 8.96413609,29.4084416 7.94413609,29.4084416 L6.71413609,29.4084416 C6.44413609,29.4084416 6.29413609,29.5584416 6.29413609,29.8284416 L6.29413609,31.3284416 C6.29413609,31.5984416 6.44413609,31.7484416 6.71413609,31.7484416 L7.04413609,31.7484416 C7.55413609,31.7484416 7.61413609,32.0184416 7.61413609,32.7384416 L7.61413609,33.9084416 L7.64413609,33.9084416 L7.64413609,41.2884416 C7.64413609,41.5584416 7.76413609,41.7084416 8.06413609,41.7084416 L10.1341361,41.7084416 Z" id="Combined-Shape"></path>
            </g>
        </g>
        <g id="Group" transform="translate(158.000000, 150.000000)" fill="#0C0C0C" fill-rule="nonzero">
            <g id="CN-minor">
                <path d="M7.88135899,31.5241299 C8.08385899,31.5241299 8.17385899,31.4116299 8.17385899,31.2091299 L8.17385899,20.4091299 L8.69135899,21.5566299 L12.516359,28.1716299 C12.651359,28.3741299 12.763859,28.4866299 12.966359,28.4866299 L13.326359,28.4866299 C13.506359,28.4866299 13.641359,28.3741299 13.753859,28.1716299 L17.601359,21.5566299 L18.096359,20.4766299 L18.096359,31.2091299 C18.096359,31.4116299 18.208859,31.5241299 18.411359,31.5241299 L20.053859,31.5241299 C20.256359,31.5241299 20.346359,31.4116299 20.346359,31.2091299 L20.346359,16.0891299 C20.346359,15.8866299 20.256359,15.7741299 20.053859,15.7741299 L18.973859,15.7741299 C18.771359,15.7741299 18.613859,15.9091299 18.523859,16.0891299 L13.146359,25.2916299 L7.76885899,16.0891299 C7.65635899,15.9091299 7.52135899,15.7741299 7.27385899,15.7741299 L6.23885899,15.7741299 C6.03635899,15.7741299 5.92385899,15.8866299 5.92385899,16.0891299 L5.92385899,31.2091299 C5.92385899,31.4116299 6.03635899,31.5241299 6.23885899,31.5241299 L7.88135899,31.5241299 Z" id="Combined-Shape"></path>
            </g>
        </g>
        <g id="Group" transform="translate(156.000000, 236.000000)" fill="#0C0C0C" fill-rule="nonzero">
            <g id="tension-stack">
                <path d="M9.94181816,13.125 L9.94181816,11.83 L8.99681816,11.83 L8.99681816,8.6625 C8.99681816,7.35 9.69681816,6.405 10.5893182,6.405 C11.2193182,6.405 11.6918182,6.86 11.6918182,7.735 L11.6918182,13.125 L14.5443182,13.125 L14.5443182,11.83 L13.5818182,11.83 L13.5818182,8.575 C13.5818182,7.245 14.2643182,6.405 15.1743182,6.405 C15.8568182,6.405 16.2768182,6.86 16.2768182,7.735 L16.2768182,13.125 L19.2518182,13.125 L19.2518182,11.83 L18.2368182,11.83 L18.2368182,7.5075 C18.2368182,5.6 17.3268182,4.795 15.9268182,4.795 C14.8068182,4.795 13.9668182,5.3025 13.4943182,6.3 L13.3893182,6.3 C13.1093182,5.3375 12.3043182,4.795 11.2893182,4.795 C9.97681816,4.795 9.13681816,5.67 8.73431816,6.755 L8.61181816,6.755 L8.87431816,5.705 L8.87431816,5.005 L5.89931816,5.005 L5.89931816,6.3 L7.05431816,6.3 L7.05431816,11.83 L6.09181816,11.83 L6.09181816,13.125 L9.94181816,13.125 Z M22.6420454,13.335 C23.9195454,13.335 24.7770454,12.67 25.2145454,11.7075 L25.3195454,11.7075 C25.4770454,12.775 26.3345454,13.195 27.2620454,13.195 C27.4545454,13.195 27.6995454,13.1775 27.8920454,13.125 L27.8920454,11.83 C27.2445454,11.83 26.8595454,11.4975 26.8595454,10.7975 L26.8595454,7.8575 C26.8595454,5.67 25.5645454,4.795 23.5520454,4.795 C22.5895454,4.795 21.3820454,4.9875 20.4895454,5.3725 L20.4895454,7.5425 L22.1520454,7.5425 L22.1520454,6.335 C22.5195454,6.2125 22.9745454,6.1775 23.3070454,6.1775 C24.3045454,6.1775 24.9520454,6.5625 24.9520454,7.91 L24.9520454,8.155 L23.9020454,8.155 C21.7670454,8.155 20.0695454,9.0475 20.0695454,10.955 C20.0695454,12.495 21.2070454,13.335 22.6420454,13.335 Z M23.2020454,11.865 C22.4670454,11.865 22.0645454,11.3925 22.0645454,10.745 C22.0645454,9.8525 22.7645454,9.3975 23.9195454,9.3975 L25.0045454,9.3975 L25.0045454,9.555 C25.0045454,10.955 24.2345454,11.865 23.2020454,11.865 Z M30.4247727,2.835 C31.1772727,2.835 31.6847727,2.3275 31.6847727,1.6275 C31.6847727,0.9275 31.1772727,0.42 30.4247727,0.42 C29.6722727,0.42 29.1647727,0.9275 29.1647727,1.6275 C29.1647727,2.31 29.6722727,2.835 30.4247727,2.835 Z M28.1147727,17.045 C30.3372727,16.7825 31.5097727,15.2775 31.5097727,12.7925 L31.5097727,5.005 L28.4647727,5.005 L28.4647727,6.3 L29.5672727,6.3 L29.5672727,12.915 C29.5672727,14.665 28.9547727,15.3475 28.1147727,15.715 L28.1147727,17.045 Z" id="Combined-Shape"></path>
            </g>
        </g>
        <g id="Group" transform="translate(355.000000, 214.000000)" fill="#0C0C0C" fill-rule="nonzero">
            <g id="CN-Alphabet">
                <path d="M19.9588678,38.6098901 C20.2513678,38.6098901 20.3163678,38.4473901 20.4138678,38.1548901 L21.7788678,34.4173901 L31.8213678,34.4173901 L33.1538678,38.1548901 C33.2838678,38.4473901 33.3488678,38.6098901 33.6413678,38.6098901 L36.5013678,38.6098901 C36.8263678,38.6098901 36.9238678,38.4473901 36.8263678,38.1548901 L28.3438678,16.2823901 C28.2463678,16.0223901 28.1163678,15.8598901 27.8238678,15.8598901 L25.9388678,15.8598901 C25.6138678,15.8598901 25.5163678,16.0223901 25.3863678,16.3148901 L16.9038678,38.1548901 C16.7738678,38.4473901 16.9363678,38.6098901 17.1963678,38.6098901 L19.9588678,38.6098901 Z M30.7813678,31.5573901 L22.8188678,31.5573901 L26.0688678,22.6523901 L26.8163678,19.9223901 L27.5638678,22.6523901 L30.7813678,31.5573901 Z" id="Combined-Shape"></path>
            </g>
        </g>
        <g id="Group" transform="translate(390.000000, 238.000000)" fill="#0C0C0C" fill-rule="nonzero">
            <g id="tension-stack">
                <path d="M8.89181816,13.125 L8.89181816,11.83 L7.94681816,11.83 L7.94681816,8.6625 C7.94681816,7.35 8.64681816,6.405 9.53931816,6.405 C10.1693182,6.405 10.6418182,6.86 10.6418182,7.735 L10.6418182,13.125 L13.4943182,13.125 L13.4943182,11.83 L12.5318182,11.83 L12.5318182,8.575 C12.5318182,7.245 13.2143182,6.405 14.1243182,6.405 C14.8068182,6.405 15.2268182,6.86 15.2268182,7.735 L15.2268182,13.125 L18.2018182,13.125 L18.2018182,11.83 L17.1868182,11.83 L17.1868182,7.5075 C17.1868182,5.6 16.2768182,4.795 14.8768182,4.795 C13.7568182,4.795 12.9168182,5.3025 12.4443182,6.3 L12.3393182,6.3 C12.0593182,5.3375 11.2543182,4.795 10.2393182,4.795 C8.92681816,4.795 8.08681816,5.67 7.68431816,6.755 L7.56181816,6.755 L7.82431816,5.705 L7.82431816,5.005 L4.84931816,5.005 L4.84931816,6.3 L6.00431816,6.3 L6.00431816,11.83 L5.04181816,11.83 L5.04181816,13.125 L8.89181816,13.125 Z M20.6820454,2.835 C21.4345454,2.835 21.9420454,2.3275 21.9420454,1.6275 C21.9420454,0.9275 21.4345454,0.42 20.6820454,0.42 C19.9295454,0.42 19.4220454,0.9275 19.4220454,1.6275 C19.4220454,2.31 19.9295454,2.835 20.6820454,2.835 Z M23.0095454,13.125 L23.0095454,11.83 L21.7670454,11.83 L21.7670454,5.005 L18.7220454,5.005 L18.7220454,6.3 L19.8245454,6.3 L19.8245454,11.83 L18.7220454,11.83 L18.7220454,13.125 L23.0095454,13.125 Z M27.5197727,13.125 L27.5197727,11.83 L26.4697727,11.83 L26.4697727,8.7675 C26.4697727,7.3325 27.2572727,6.405 28.2372727,6.405 C28.9022727,6.405 29.3397727,6.8425 29.3397727,7.8225 L29.3397727,13.125 L32.2972727,13.125 L32.2972727,11.83 L31.2822727,11.83 L31.2822727,7.5075 C31.2822727,5.565 30.3897727,4.795 29.0072727,4.795 C27.6247727,4.795 26.6797727,5.635 26.2422727,6.755 L26.1197727,6.755 L26.3647727,5.705 L26.3647727,5.005 L23.3722727,5.005 L23.3722727,6.3 L24.5272727,6.3 L24.5272727,11.83 L23.5647727,11.83 L23.5647727,13.125 L27.5197727,13.125 Z" id="Combined-Shape"></path>
            </g>
        </g>
        <line x1="40" y1="190.5" x2="480" y2="190.5" id="Path-37" stroke="#000000" stroke-width="1.25" stroke-linecap="square" fill-rule="nonzero"></line>
        <g id="Group" transform="translate(121.000000, 281.000000)" fill="#0C0C0C" fill-rule="nonzero">
            <g id="CN-Alphabet">
                <path d="M27.3851178,38.9348901 C31.7726178,38.9348901 35.9001178,36.3673901 36.9401178,30.9398901 C36.9726178,30.6148901 36.8101178,30.4848901 36.5176178,30.4848901 L34.1451178,30.4848901 C33.8526178,30.4848901 33.6901178,30.5823901 33.5926178,30.9398901 C32.7476178,34.0273901 30.4726178,35.9123901 27.4501178,35.9123901 C23.3876178,35.9123901 20.5926178,32.4673901 20.5926178,27.2348901 C20.5926178,22.0023901 23.3876178,18.5573901 27.4501178,18.5573901 C30.4726178,18.5573901 32.7476178,20.4423901 33.5926178,23.5298901 C33.6901178,23.8873901 33.8526178,23.9848901 34.1451178,23.9848901 L36.5176178,23.9848901 C36.8101178,23.9848901 36.9726178,23.8548901 36.9401178,23.5298901 C35.9001178,18.1023901 31.7726178,15.5348901 27.3851178,15.5348901 C21.3401178,15.5348901 17.1801178,20.2148901 17.1801178,27.2348901 C17.1801178,34.2548901 21.3401178,38.9348901 27.3851178,38.9348901 Z" id="Combined-Shape"></path>
            </g>
        </g>
        <g id="Group" transform="translate(362.000000, 281.000000)" fill="#0C0C0C" fill-rule="nonzero">
            <g id="CN-Alphabet">
                <path d="M14.6608074,38.6098901 C14.9533074,38.6098901 15.0183074,38.4473901 15.1158074,38.1548901 L16.4808074,34.4173901 L26.5233074,34.4173901 L27.8558074,38.1548901 C27.9858074,38.4473901 28.0508074,38.6098901 28.3433074,38.6098901 L31.2033074,38.6098901 C31.5283074,38.6098901 31.6258074,38.4473901 31.5283074,38.1548901 L23.0458074,16.2823901 C22.9483074,16.0223901 22.8183074,15.8598901 22.5258074,15.8598901 L20.6408074,15.8598901 C20.3158074,15.8598901 20.2183074,16.0223901 20.0883074,16.3148901 L11.6058074,38.1548901 C11.4758074,38.4473901 11.6383074,38.6098901 11.8983074,38.6098901 L14.6608074,38.6098901 Z M25.4833074,31.5573901 L17.5208074,31.5573901 L20.7708074,22.6523901 L21.5183074,19.9223901 L22.2658074,22.6523901 L25.4833074,31.5573901 Z M40.0769281,30.6798901 C40.4019281,30.6798901 40.5319281,30.5173901 40.5319281,30.2248901 L40.5319281,28.2098901 C40.5319281,27.9173901 40.4019281,27.7548901 40.0769281,27.7548901 L30.8794281,27.7548901 C30.5869281,27.7548901 30.4244281,27.9173901 30.4244281,28.2098901 L30.4244281,30.2248901 C30.4244281,30.5173901 30.5869281,30.6798901 30.8794281,30.6798901 L40.0769281,30.6798901 Z" id="Combined-Shape"></path>
            </g>
        </g>
        <line x1="40" y1="258.5" x2="480" y2="258.5" id="Path-37" stroke="#000000" stroke-width="1.25" stroke-linecap="square" fill-rule="nonzero"></line>
        <line x1="40" y1="328.5" x2="480" y2="328.5" id="Path-37" stroke="#000000" stroke-width="1.25" stroke-linecap="square" fill-rule="nonzero"></line>
        <g id="Group" transform="translate(157.000000, 277.000000)" fill="#0C0C0C" fill-rule="nonzero">
            <g id="CN-maj7">
                <path d="M21.9293179,41.4121874 L14.6539273,23.7608202 L12.0538297,23.7608202 L4.87609529,41.4121874 L21.9293179,41.4121874 Z M18.7188687,39.4590624 L7.97668123,39.4590624 L13.2745328,26.019121 L18.7188687,39.4590624 Z" id="Combined-Shape"></path>
            </g>
        </g>
        <text id="①" font-family="HiraginoSans-W6, Hiragino Sans" font-size="22.5" font-weight="500" fill="#000000">
            <tspan x="40.25" y="181">①</tspan>
        </text>
        <text id="②" font-family="HiraginoSans-W6, Hiragino Sans" font-size="22.5" font-weight="500" fill="#000000">
            <tspan x="40.25" y="250">②</tspan>
        </text>
        <text id="③" font-family="HiraginoSans-W6, Hiragino Sans" font-size="22.5" font-weight="500" fill="#000000">
            <tspan x="40.25" y="318">③</tspan>
        </text>
        <line x1="276.5" y1="126.5" x2="275.5" y2="346.5" id="Path-38" stroke="#000000" stroke-width="1.25" stroke-linecap="square" stroke-dasharray="5,5" fill-rule="nonzero"></line>
    </g>
</svg>