<?xml version="1.0" encoding="UTF-8"?>
<svg width="650px" height="215px" viewBox="0 0 650 215" version="1.1" xmlns="http://www.w3.org/2000/svg" xmlns:xlink="http://www.w3.org/1999/xlink">
    <title>c1-prime-chords-with-symbol</title>
    <g id="c1-prime-chords-with-symbol" stroke="none" stroke-width="1" fill="none" fill-rule="evenodd">
        <g id="Group" transform="translate(18.744898, 41.000000)" stroke="#000000">
            <line x1="1.25510204" y1="1" x2="606.255102" y2="1" id="horizon"></line>
            <line x1="1.25510204" y1="21" x2="606.255102" y2="21" id="horizon"></line>
            <line x1="1.25510204" y1="41" x2="606.255102" y2="41" id="horizon"></line>
            <line x1="1.25510204" y1="61" x2="606.255102" y2="61" id="horizon"></line>
            <line x1="1.25510204" y1="81" x2="606.255102" y2="81" id="horizon"></line>
            <line x1="-38.5" y1="40.9917727" x2="39.5" y2="41.0082273" id="bar" stroke-width="2.72167481" stroke-linecap="round" stroke-linejoin="round" transform="translate(0.500000, 41.000000) rotate(90.000000) translate(-0.500000, -41.000000) "></line>
            <line x1="606.255102" y1="1" x2="606.255102" y2="81" id="bar" stroke-linecap="square"></line>
        </g>
        <path d="M47.1620791,141.96278 C46.2662404,141.896201 45.4037992,141.750938 44.5904719,141.529009 C40.3745292,140.385065 37.4551952,137.207444 36.7754579,133.019036 C36.575073,131.792373 36.641868,129.871677 36.9227998,128.776154 C37.1369367,127.936859 37.6555802,126.738442 38.0740312,126.113005 C38.7793077,125.061868 39.9835821,124.067222 41.1858919,123.548715 C42.1740649,123.120997 42.7064603,123.008015 43.9519904,122.963629 C44.9401634,122.927313 45.1837686,122.943454 45.7554552,123.090734 C48.2425863,123.730293 50.2582234,125.86283 51.132452,128.784225 C51.3289078,129.443959 51.3465889,129.611415 51.350518,130.908692 C51.3544471,132.141407 51.3328369,132.397634 51.1776368,132.946404 C50.8338391,134.16298 50.2464361,135.143503 49.3073771,136.061482 C47.9321861,137.409197 46.321248,138.21823 44.1464817,138.658053 L43.2133164,138.847702 L43.8753726,139.13621 C47.4096135,140.689713 51.3230142,140.540416 54.9711994,138.716562 C58.1636071,137.122707 60.6330572,134.237628 61.4817465,131.110445 C61.6880252,130.353869 61.6998125,130.214659 61.6939188,128.776154 L61.6880252,127.246861 L60.4955381,121.331441 C59.8413401,118.077153 59.2873346,115.355495 59.2657245,115.280846 C59.2303624,115.165847 59.1478509,115.181987 58.5820581,115.418039 C54.9260146,116.945315 49.3938176,116.925139 44.3449021,115.3676 C37.4276914,113.235063 31.7815501,108.554376 28.8386413,102.513869 C27.9211925,100.627471 27.384868,98.8237928 27.0882196,96.6186243 C26.9546296,95.6259959 26.9762398,92.9971445 27.1294754,91.7482888 C27.9486963,85.0662046 31.3984611,78.3659626 37.90115,70.8203724 C39.9246453,68.4719587 44.3547249,64.077762 47.3231729,61.4731211 C48.1129254,60.7811058 48.1463229,60.7367199 48.0854216,60.5127733 C47.9479025,59.9942661 47.4705148,57.4783969 47.3231729,56.491821 C46.6395065,51.8938531 46.6414711,46.5554489 47.327102,41.882832 C48.4036801,34.5430306 50.9281379,28.3754185 54.6018624,24.1143793 C55.2717769,23.3356098 56.6901882,22 56.8453883,22 C56.8945023,22 57.3247406,22.5891209 57.7981992,23.3093818 C62.1948813,29.9712907 64.5209186,35.9048684 65.1574356,42.070463 C65.3146003,43.6118617 65.27138,47.2293064 65.0749241,48.6395651 C64.4305489,53.2960417 62.9276616,57.3371693 60.3501608,61.3399637 C58.6645695,63.9607449 56.1263599,66.9386302 53.5351071,69.3394998 C52.943775,69.88827 52.3210099,70.4652858 52.1520579,70.6226537 L51.8455867,70.909144 L53.2030967,77.5851756 L54.5586421,84.2632247 L55.2305211,84.2107687 C57.1204265,84.0594534 59.116418,84.170418 60.5426875,84.5033117 C62.4424157,84.9491874 64.5798554,85.9660263 66.1790061,87.1826015 C67.0709157,87.8625116 68.5561219,89.3817173 69.1828161,90.2573286 C70.6817743,92.3474974 71.6601245,94.8391563 71.9331981,97.2581837 C72.0687527,98.4545834 71.9882058,100.782822 71.7799625,101.75124 C70.9568125,105.582543 68.5207599,109.185865 64.8097087,112.056821 C63.8922599,112.766994 62.5543955,113.624448 61.581939,114.126815 C60.9238119,114.467779 60.8668397,114.514182 60.91006,114.691725 C60.9925714,115.028654 62.0475394,120.157234 62.4424157,122.136439 C62.6486943,123.17547 62.9669528,124.89643 63.1496567,125.959672 C63.4718443,127.831947 63.4816671,127.928789 63.4384469,129.139311 C63.3598645,131.439304 62.7822843,133.23693 61.4778174,135.256485 C58.9926508,139.099894 54.5409611,141.551202 49.3486328,141.932517 C48.2524091,142.013218 47.8987886,142.019271 47.1620791,141.96278 Z M53.7453149,114.885409 C54.7217005,114.770409 55.9593724,114.504094 56.7609123,114.233744 C57.7431916,113.904886 58.9278204,113.3198 58.880671,113.186642 C58.8590608,113.128134 57.8551714,108.23157 56.6489324,102.304045 C55.4426935,96.3765198 54.4368395,91.5082018 54.4132648,91.4839914 C54.3896901,91.4597809 53.9889201,91.516272 53.5233197,91.6110963 C50.1069524,92.3031116 47.3035273,94.2621405 46.0756782,96.816343 C45.6886602,97.6213405 45.5413183,98.1479177 45.4411258,99.0679148 C45.2289535,101.022909 45.8576122,103.169569 47.1443981,104.87237 C47.8928949,105.864999 49.0343034,106.926223 50.0814131,107.606134 C50.4821831,107.866396 50.5588009,107.993501 50.277869,107.932975 C50.1796411,107.912799 49.8358433,107.83815 49.5136557,107.769554 C46.9813397,107.222801 44.5315352,105.79035 43.1425923,104.047197 C41.9226014,102.513869 41.3037654,100.920014 41.1269552,98.8480033 C40.9010309,96.2070467 41.5925556,93.6609144 43.2113518,91.1652205 C44.256497,89.553208 46.0599617,87.7979504 47.8673556,86.6358488 C49.1757516,85.7925181 51.1599558,84.9330471 52.5115721,84.6223464 C52.7591065,84.5658553 52.961456,84.493224 52.961456,84.4629609 C52.961456,84.3762068 50.4566438,72.1237016 50.4153881,72.0066844 C50.3544868,71.8351937 46.9597296,74.6193955 44.6729834,76.7135994 C43.4117368,77.8696484 40.7281498,80.6639378 39.7537287,81.8361271 C36.8127846,85.3728703 34.9130564,88.5545269 33.8502302,91.7160082 C32.7815104,94.9037175 32.516295,97.972392 33.0624422,100.875628 C33.726463,104.406319 36.0033864,108.10043 39.0484522,110.588054 C43.183848,113.965412 48.4508295,115.504793 53.7453149,114.885409 Z M61.5053212,111.528226 C64.3244628,109.107181 65.992373,106.353243 66.4854772,103.312814 C66.6505001,102.293957 66.6072798,100.14528 66.4049303,99.1950197 C65.5798157,95.3455582 63.0612516,92.3737254 59.7411476,91.3326761 C59.0869496,91.1268873 58.9356786,91.110747 57.6469282,91.1087294 C56.8296718,91.1087294 56.2304815,91.1389925 56.1892257,91.1874134 C56.14797,91.2338167 56.9907656,95.4625753 58.3011262,101.771415 C59.4995069,107.547625 60.4817862,112.284803 60.4837508,112.298926 C60.491609,112.363487 60.8354067,112.103225 61.5053212,111.528226 Z M52.2836833,57.0163808 C57.959293,51.3349952 61.3127945,45.8029074 62.0121773,40.9628349 C62.169342,39.8733647 62.1673775,38.0959142 62.0062837,37.1274962 C61.6840961,35.1946952 60.8963081,33.4979462 59.5564791,31.8617233 C59.0240837,31.2120762 58.9435368,31.1777781 57.9376829,31.1797211 C56.8296718,31.1818131 55.8218533,31.7083904 54.7767081,32.8301413 C53.0439675,34.6842582 51.5960878,37.7145996 50.5293325,41.7073063 C49.0460908,47.2656221 48.5903132,54.2180563 49.4036404,58.9269888 L49.5313367,59.6714601 L50.3250184,58.9269888 C50.7611504,58.5174287 51.6412726,57.6579577 52.2836833,57.0163808 Z" id="G-Clef" fill="#000000"></path>
        <path d="M121.586271,114.185068 C115.757334,117.368055 112.652344,123.128911 114.562711,127.46267 C116.600093,132.086745 123.603055,133.391419 130.192362,130.376327 C136.783386,127.361234 140.477105,121.159657 138.439724,116.53733 C136.402342,111.913255 129.39938,110.608581 122.810073,113.623673 C122.398134,113.812554 121.97418,113.971703 121.586271,114.185068 Z" id="Path" fill="#000000" transform="translate(126.500000, 122.000000) rotate(-180.000000) translate(-126.500000, -122.000000) "></path>
        <path d="M121.586271,134.185068 C115.757334,137.368055 112.652344,143.128911 114.562711,147.46267 C116.600093,152.086745 123.603055,153.391419 130.192362,150.376327 C136.783386,147.361234 140.477105,141.159657 138.439724,136.53733 C136.402342,131.913255 129.39938,130.608581 122.810073,133.623673 C122.398134,133.812554 121.97418,133.971703 121.586271,134.185068 Z" id="Path" fill="#000000" transform="translate(126.500000, 142.000000) rotate(-180.000000) translate(-126.500000, -142.000000) "></path>
        <rect id="Rectangle" fill="#000000" x="106" y="142" width="40" height="1"></rect>
        <g id="Group" transform="translate(104.500000, 162.000000)" fill="#0C0C0C" fill-rule="nonzero">
            <g id="Combined-Shape">
                <path d="M21.9080942,30.3479121 C25.4180942,30.3479121 28.7200942,28.2939121 29.5520942,23.9519121 C29.5780942,23.6919121 29.4480942,23.5879121 29.2140942,23.5879121 L27.3160942,23.5879121 C27.0820942,23.5879121 26.9520942,23.6659121 26.8740942,23.9519121 C26.1980942,26.4219121 24.3780942,27.9299121 21.9600942,27.9299121 C18.7100942,27.9299121 16.4740942,25.1739121 16.4740942,20.9879121 C16.4740942,16.8019121 18.7100942,14.0459121 21.9600942,14.0459121 C24.3780942,14.0459121 26.1980942,15.5539121 26.8740942,18.0239121 C26.9520942,18.3099121 27.0820942,18.3879121 27.3160942,18.3879121 L29.2140942,18.3879121 C29.4480942,18.3879121 29.5780942,18.2839121 29.5520942,18.0239121 C28.7200942,13.6819121 25.4180942,11.6279121 21.9080942,11.6279121 C17.0720942,11.6279121 13.7440942,15.3719121 13.7440942,20.9879121 C13.7440942,26.6039121 17.0720942,30.3479121 21.9080942,30.3479121 Z"></path>
            </g>
        </g>
        <g id="Group" transform="translate(181.500000, 162.000000)" fill="#0C0C0C" fill-rule="nonzero">
            <g id="CN-Root">
                <path d="M20.7770942,30.0879121 C25.9770942,30.0879121 29.4870942,26.4479121 29.4870942,20.9879121 C29.4870942,15.5279121 25.9770942,11.8879121 20.7770942,11.8879121 L14.9010942,11.8879121 C14.6670942,11.8879121 14.5370942,12.0179121 14.5370942,12.2519121 L14.5370942,29.7239121 C14.5370942,29.9579121 14.6670942,30.0879121 14.9010942,30.0879121 L20.7770942,30.0879121 Z M20.3350942,27.6959121 L17.1630942,27.6959121 L17.1630942,14.2799121 L20.3350942,14.2799121 C24.2090942,14.2799121 26.7830942,16.8799121 26.7830942,20.9619121 C26.7830942,25.1219121 24.1570942,27.6959121 20.3350942,27.6959121 Z" id="Combined-Shape"></path>
            </g>
        </g>
        <path d="M121.586271,94.1850683 C115.757334,97.3680549 112.652344,103.128911 114.562711,107.46267 C116.600093,112.086745 123.603055,113.391419 130.192362,110.376327 C136.783386,107.361234 140.477105,101.159657 138.439724,96.5373304 C136.402342,91.9132553 129.39938,90.6085806 122.810073,93.6236734 C122.398134,93.8125539 121.97418,93.9717032 121.586271,94.1850683 Z" id="Path" fill="#000000" transform="translate(126.500000, 102.000000) rotate(-180.000000) translate(-126.500000, -102.000000) "></path>
        <g id="Group-2" transform="translate(199.000000, 82.000000)" fill="#000000">
            <path d="M7.58627082,22.1850683 C1.75733443,25.3680549 -1.34765554,31.1289109 0.562711423,35.4626696 C2.6000929,40.0867447 9.60305535,41.3914194 16.1923624,38.3763266 C22.7833859,35.3612338 26.4771053,29.1596566 24.4397238,24.5373304 C22.4023424,19.9132553 15.3993799,18.6085806 8.81007284,21.6236734 C8.39813387,21.8125539 7.97418002,21.9717032 7.58627082,22.1850683 Z" id="Path" transform="translate(12.500000, 30.000000) rotate(-180.000000) translate(-12.500000, -30.000000) "></path>
            <path d="M7.58627082,42.1850683 C1.75733443,45.3680549 -1.34765554,51.1289109 0.562711423,55.4626696 C2.6000929,60.0867447 9.60305535,61.3914194 16.1923624,58.3763266 C22.7833859,55.3612338 26.4771053,49.1596566 24.4397238,44.5373304 C22.4023424,39.9132553 15.3993799,38.6085806 8.81007284,41.6236734 C8.39813387,41.8125539 7.97418002,41.9717032 7.58627082,42.1850683 Z" id="Path" transform="translate(12.500000, 50.000000) rotate(-180.000000) translate(-12.500000, -50.000000) "></path>
            <path d="M7.58627082,2.18506828 C1.75733443,5.3680549 -1.34765554,11.1289109 0.562711423,15.4626696 C2.6000929,20.0867447 9.60305535,21.3914194 16.1923624,18.3763266 C22.7833859,15.3612338 26.4771053,9.15965655 24.4397238,4.53733037 C22.4023424,-0.0867447002 15.3993799,-1.39141944 8.81007284,1.62367339 C8.39813387,1.81255391 7.97418002,1.97170324 7.58627082,2.18506828 Z" id="Path" transform="translate(12.500000, 10.000000) rotate(-180.000000) translate(-12.500000, -10.000000) "></path>
        </g>
        <g id="Group-3" transform="translate(284.000000, 72.000000)" fill="#000000">
            <path d="M7.58627082,22.1850683 C1.75733443,25.3680549 -1.34765554,31.1289109 0.562711423,35.4626696 C2.6000929,40.0867447 9.60305535,41.3914194 16.1923624,38.3763266 C22.7833859,35.3612338 26.4771053,29.1596566 24.4397238,24.5373304 C22.4023424,19.9132553 15.3993799,18.6085806 8.81007284,21.6236734 C8.39813387,21.8125539 7.97418002,21.9717032 7.58627082,22.1850683 Z" id="Path" transform="translate(12.500000, 30.000000) rotate(-180.000000) translate(-12.500000, -30.000000) "></path>
            <path d="M7.58627082,42.1850683 C1.75733443,45.3680549 -1.34765554,51.1289109 0.562711423,55.4626696 C2.6000929,60.0867447 9.60305535,61.3914194 16.1923624,58.3763266 C22.7833859,55.3612338 26.4771053,49.1596566 24.4397238,44.5373304 C22.4023424,39.9132553 15.3993799,38.6085806 8.81007284,41.6236734 C8.39813387,41.8125539 7.97418002,41.9717032 7.58627082,42.1850683 Z" id="Path" transform="translate(12.500000, 50.000000) rotate(-180.000000) translate(-12.500000, -50.000000) "></path>
            <path d="M7.58627082,2.18506828 C1.75733443,5.3680549 -1.34765554,11.1289109 0.562711423,15.4626696 C2.6000929,20.0867447 9.60305535,21.3914194 16.1923624,18.3763266 C22.7833859,15.3612338 26.4771053,9.15965655 24.4397238,4.53733037 C22.4023424,-0.0867447002 15.3993799,-1.39141944 8.81007284,1.62367339 C8.39813387,1.81255391 7.97418002,1.97170324 7.58627082,2.18506828 Z" id="Path" transform="translate(12.500000, 10.000000) rotate(-180.000000) translate(-12.500000, -10.000000) "></path>
        </g>
        <g id="Group-4" transform="translate(369.000000, 62.000000)" fill="#000000">
            <path d="M7.58627082,22.1850683 C1.75733443,25.3680549 -1.34765554,31.1289109 0.562711423,35.4626696 C2.6000929,40.0867447 9.60305535,41.3914194 16.1923624,38.3763266 C22.7833859,35.3612338 26.4771053,29.1596566 24.4397238,24.5373304 C22.4023424,19.9132553 15.3993799,18.6085806 8.81007284,21.6236734 C8.39813387,21.8125539 7.97418002,21.9717032 7.58627082,22.1850683 Z" id="Path" transform="translate(12.500000, 30.000000) rotate(-180.000000) translate(-12.500000, -30.000000) "></path>
            <path d="M7.58627082,42.1850683 C1.75733443,45.3680549 -1.34765554,51.1289109 0.562711423,55.4626696 C2.6000929,60.0867447 9.60305535,61.3914194 16.1923624,58.3763266 C22.7833859,55.3612338 26.4771053,49.1596566 24.4397238,44.5373304 C22.4023424,39.9132553 15.3993799,38.6085806 8.81007284,41.6236734 C8.39813387,41.8125539 7.97418002,41.9717032 7.58627082,42.1850683 Z" id="Path" transform="translate(12.500000, 50.000000) rotate(-180.000000) translate(-12.500000, -50.000000) "></path>
            <path d="M7.58627082,2.18506828 C1.75733443,5.3680549 -1.34765554,11.1289109 0.562711423,15.4626696 C2.6000929,20.0867447 9.60305535,21.3914194 16.1923624,18.3763266 C22.7833859,15.3612338 26.4771053,9.15965655 24.4397238,4.53733037 C22.4023424,-0.0867447002 15.3993799,-1.39141944 8.81007284,1.62367339 C8.39813387,1.81255391 7.97418002,1.97170324 7.58627082,2.18506828 Z" id="Path" transform="translate(12.500000, 10.000000) rotate(-180.000000) translate(-12.500000, -10.000000) "></path>
        </g>
        <g id="Group-5" transform="translate(454.000000, 52.000000)" fill="#000000">
            <path d="M7.58627082,22.1850683 C1.75733443,25.3680549 -1.34765554,31.1289109 0.562711423,35.4626696 C2.6000929,40.0867447 9.60305535,41.3914194 16.1923624,38.3763266 C22.7833859,35.3612338 26.4771053,29.1596566 24.4397238,24.5373304 C22.4023424,19.9132553 15.3993799,18.6085806 8.81007284,21.6236734 C8.39813387,21.8125539 7.97418002,21.9717032 7.58627082,22.1850683 Z" id="Path" transform="translate(12.500000, 30.000000) rotate(-180.000000) translate(-12.500000, -30.000000) "></path>
            <path d="M7.58627082,42.1850683 C1.75733443,45.3680549 -1.34765554,51.1289109 0.562711423,55.4626696 C2.6000929,60.0867447 9.60305535,61.3914194 16.1923624,58.3763266 C22.7833859,55.3612338 26.4771053,49.1596566 24.4397238,44.5373304 C22.4023424,39.9132553 15.3993799,38.6085806 8.81007284,41.6236734 C8.39813387,41.8125539 7.97418002,41.9717032 7.58627082,42.1850683 Z" id="Path" transform="translate(12.500000, 50.000000) rotate(-180.000000) translate(-12.500000, -50.000000) "></path>
            <path d="M7.58627082,2.18506828 C1.75733443,5.3680549 -1.34765554,11.1289109 0.562711423,15.4626696 C2.6000929,20.0867447 9.60305535,21.3914194 16.1923624,18.3763266 C22.7833859,15.3612338 26.4771053,9.15965655 24.4397238,4.53733037 C22.4023424,-0.0867447002 15.3993799,-1.39141944 8.81007284,1.62367339 C8.39813387,1.81255391 7.97418002,1.97170324 7.58627082,2.18506828 Z" id="Path" transform="translate(12.500000, 10.000000) rotate(-180.000000) translate(-12.500000, -10.000000) "></path>
        </g>
        <g id="Group-6" transform="translate(539.000000, 42.000000)" fill="#000000">
            <path d="M7.58627082,22.1850683 C1.75733443,25.3680549 -1.34765554,31.1289109 0.562711423,35.4626696 C2.6000929,40.0867447 9.60305535,41.3914194 16.1923624,38.3763266 C22.7833859,35.3612338 26.4771053,29.1596566 24.4397238,24.5373304 C22.4023424,19.9132553 15.3993799,18.6085806 8.81007284,21.6236734 C8.39813387,21.8125539 7.97418002,21.9717032 7.58627082,22.1850683 Z" id="Path" transform="translate(12.500000, 30.000000) rotate(-180.000000) translate(-12.500000, -30.000000) "></path>
            <path d="M7.58627082,42.1850683 C1.75733443,45.3680549 -1.34765554,51.1289109 0.562711423,55.4626696 C2.6000929,60.0867447 9.60305535,61.3914194 16.1923624,58.3763266 C22.7833859,55.3612338 26.4771053,49.1596566 24.4397238,44.5373304 C22.4023424,39.9132553 15.3993799,38.6085806 8.81007284,41.6236734 C8.39813387,41.8125539 7.97418002,41.9717032 7.58627082,42.1850683 Z" id="Path" transform="translate(12.500000, 50.000000) rotate(-180.000000) translate(-12.500000, -50.000000) "></path>
            <path d="M7.58627082,2.18506828 C1.75733443,5.3680549 -1.34765554,11.1289109 0.562711423,15.4626696 C2.6000929,20.0867447 9.60305535,21.3914194 16.1923624,18.3763266 C22.7833859,15.3612338 26.4771053,9.15965655 24.4397238,4.53733037 C22.4023424,-0.0867447002 15.3993799,-1.39141944 8.81007284,1.62367339 C8.39813387,1.81255391 7.97418002,1.97170324 7.58627082,2.18506828 Z" id="Path" transform="translate(12.500000, 10.000000) rotate(-180.000000) translate(-12.500000, -10.000000) "></path>
        </g>
        <g id="Group" transform="translate(208.500000, 162.000000)" fill="#0C0C0C" fill-rule="nonzero">
            <g id="Combined-Shape">
                <path d="M8.13391441,30.1038961 C8.34991441,30.1038961 8.46991441,29.9838961 8.46991441,29.7678961 L8.46991441,22.9038961 C9.21391441,22.3278961 9.86191441,22.0878961 10.5579144,22.0878961 C11.8299144,22.0878961 12.4299144,22.8798961 12.4299144,24.4638961 L12.4299144,29.7678961 C12.4299144,29.9838961 12.5739144,30.1038961 12.7659144,30.1038961 L14.4219144,30.1038961 C14.6379144,30.1038961 14.7579144,29.9838961 14.7579144,29.7678961 L14.7579144,24.2238961 C14.7579144,23.7918961 14.7099144,23.3838961 14.6619144,23.0238961 C15.3339144,22.4238961 16.0779144,22.0878961 16.8459144,22.0878961 C18.0699144,22.0878961 18.6939144,22.8798961 18.6939144,24.4638961 L18.6939144,29.7678961 C18.6939144,29.9838961 18.8139144,30.1038961 19.0299144,30.1038961 L20.6859144,30.1038961 C20.9019144,30.1038961 21.0219144,29.9838961 21.0219144,29.7678961 L21.0219144,24.2238961 C21.0219144,21.4638961 19.5339144,20.0238961 17.3019144,20.0238961 C16.0299144,20.0238961 14.9019144,20.5038961 13.9899144,21.4158961 C13.3659144,20.5038961 12.3339144,20.0238961 11.0859144,20.0238961 C9.95791441,20.0238961 9.02191441,20.3838961 7.96591441,21.1758961 C7.70191441,20.5758961 7.19791441,20.2638961 6.38191441,20.2638961 L5.39791441,20.2638961 C5.18191441,20.2638961 5.06191441,20.3838961 5.06191441,20.5998961 L5.06191441,21.7998961 C5.06191441,22.0158961 5.18191441,22.1358961 5.39791441,22.1358961 L5.66191441,22.1358961 C6.06991441,22.1358961 6.11791441,22.3518961 6.11791441,22.9278961 L6.11791441,23.8638961 L6.14191441,23.8638961 L6.14191441,29.7678961 C6.14191441,29.9838961 6.23791441,30.1038961 6.47791441,30.1038961 L8.13391441,30.1038961 Z"></path>
            </g>
        </g>
        <g id="Group" transform="translate(266.500000, 162.000000)" fill="#0C0C0C" fill-rule="nonzero">
            <g id="CN-Root">
                <path d="M27.2380942,30.0879121 C27.4460942,30.0879121 27.5760942,29.9579121 27.5760942,29.7239121 L27.5760942,28.0599121 C27.5760942,27.8259121 27.4460942,27.6959121 27.2380942,27.6959121 L19.1520942,27.6959121 L19.1520942,21.7159121 L25.9380942,21.7159121 C26.1720942,21.7159121 26.2760942,21.6119121 26.2760942,21.3519121 L26.2760942,19.6879121 C26.2760942,19.4279121 26.1720942,19.3239121 25.9380942,19.3239121 L19.1520942,19.3239121 L19.1520942,14.2799121 L27.2380942,14.2799121 C27.4460942,14.2799121 27.5760942,14.1499121 27.5760942,13.9159121 L27.5760942,12.2519121 C27.5760942,12.0179121 27.4460942,11.8879121 27.2380942,11.8879121 L16.8900942,11.8879121 C16.6560942,11.8879121 16.5260942,12.0179121 16.5260942,12.2519121 L16.5260942,29.7239121 C16.5260942,29.9579121 16.6560942,30.0879121 16.8900942,30.0879121 L27.2380942,30.0879121 Z" id="Combined-Shape"></path>
            </g>
        </g>
        <g id="Group" transform="translate(292.500000, 162.000000)" fill="#0C0C0C" fill-rule="nonzero">
            <g id="Combined-Shape">
                <path d="M8.13391441,30.1038961 C8.34991441,30.1038961 8.46991441,29.9838961 8.46991441,29.7678961 L8.46991441,22.9038961 C9.21391441,22.3278961 9.86191441,22.0878961 10.5579144,22.0878961 C11.8299144,22.0878961 12.4299144,22.8798961 12.4299144,24.4638961 L12.4299144,29.7678961 C12.4299144,29.9838961 12.5739144,30.1038961 12.7659144,30.1038961 L14.4219144,30.1038961 C14.6379144,30.1038961 14.7579144,29.9838961 14.7579144,29.7678961 L14.7579144,24.2238961 C14.7579144,23.7918961 14.7099144,23.3838961 14.6619144,23.0238961 C15.3339144,22.4238961 16.0779144,22.0878961 16.8459144,22.0878961 C18.0699144,22.0878961 18.6939144,22.8798961 18.6939144,24.4638961 L18.6939144,29.7678961 C18.6939144,29.9838961 18.8139144,30.1038961 19.0299144,30.1038961 L20.6859144,30.1038961 C20.9019144,30.1038961 21.0219144,29.9838961 21.0219144,29.7678961 L21.0219144,24.2238961 C21.0219144,21.4638961 19.5339144,20.0238961 17.3019144,20.0238961 C16.0299144,20.0238961 14.9019144,20.5038961 13.9899144,21.4158961 C13.3659144,20.5038961 12.3339144,20.0238961 11.0859144,20.0238961 C9.95791441,20.0238961 9.02191441,20.3838961 7.96591441,21.1758961 C7.70191441,20.5758961 7.19791441,20.2638961 6.38191441,20.2638961 L5.39791441,20.2638961 C5.18191441,20.2638961 5.06191441,20.3838961 5.06191441,20.5998961 L5.06191441,21.7998961 C5.06191441,22.0158961 5.18191441,22.1358961 5.39791441,22.1358961 L5.66191441,22.1358961 C6.06991441,22.1358961 6.11791441,22.3518961 6.11791441,22.9278961 L6.11791441,23.8638961 L6.14191441,23.8638961 L6.14191441,29.7678961 C6.14191441,29.9838961 6.23791441,30.1038961 6.47791441,30.1038961 L8.13391441,30.1038961 Z"></path>
            </g>
        </g>
        <g id="Group" transform="translate(520.500000, 162.000000)" fill="#0C0C0C" fill-rule="nonzero">
            <g id="CN-Alphabet">
                <path d="M15.9670942,30.0879121 C16.2010942,30.0879121 16.2530942,29.9579121 16.3310942,29.7239121 L17.4230942,26.7339121 L25.4570942,26.7339121 L26.5230942,29.7239121 C26.6270942,29.9579121 26.6790942,30.0879121 26.9130942,30.0879121 L29.2010942,30.0879121 C29.4610942,30.0879121 29.5390942,29.9579121 29.4610942,29.7239121 L22.6750942,12.2259121 C22.5970942,12.0179121 22.4930942,11.8879121 22.2590942,11.8879121 L20.7510942,11.8879121 C20.4910942,11.8879121 20.4130942,12.0179121 20.3090942,12.2519121 L13.5230942,29.7239121 C13.4190942,29.9579121 13.5490942,30.0879121 13.7570942,30.0879121 L15.9670942,30.0879121 Z M24.6250942,24.4459121 L18.2550942,24.4459121 L20.8550942,17.3219121 L21.4530942,15.1379121 L22.0510942,17.3219121 L24.6250942,24.4459121 Z" id="Combined-Shape"></path>
            </g>
        </g>
        <g id="Group" transform="translate(446.500000, 162.000000)" fill="#0C0C0C" fill-rule="nonzero">
            <g id="CN-Root">
                <path d="M21.8690942,30.3479121 C25.4310942,30.3479121 28.2390942,28.9439121 29.3310942,26.6299121 L29.3310942,20.7539121 C29.3310942,20.5459121 29.2010942,20.4159121 28.9930942,20.4159121 L21.9730942,20.4159121 C21.7390942,20.4159121 21.6090942,20.5459121 21.6090942,20.7539121 L21.6090942,22.4179121 C21.6090942,22.6259121 21.7390942,22.7559121 21.9730942,22.7559121 L26.8090942,22.7559121 L26.8090942,26.0319121 C25.7690942,27.1759121 24.1050942,27.9299121 21.9730942,27.9299121 C18.5410942,27.9299121 16.2270942,25.1739121 16.2270942,20.9879121 C16.2270942,16.8019121 18.4890942,14.0459121 21.8690942,14.0459121 C24.3390942,14.0459121 25.8990942,15.3979121 26.5490942,17.5819121 C26.6270942,17.7899121 26.7050942,17.9199121 26.9650942,17.9199121 L28.9410942,17.9199121 C29.1750942,17.9199121 29.2530942,17.8679121 29.2010942,17.5819121 C28.5770942,13.9939121 25.7430942,11.6279121 21.8170942,11.6279121 C16.8510942,11.6279121 13.4970942,15.3719121 13.4970942,20.9879121 C13.4970942,26.6039121 16.8770942,30.3479121 21.8690942,30.3479121 Z" id="Combined-Shape"></path>
            </g>
        </g>
        <g id="Group" transform="translate(361.500000, 162.000000)" fill="#0C0C0C" fill-rule="nonzero">
            <g id="CN-Root">
                <path d="M19.2170942,30.0879121 C19.4510942,30.0879121 19.5810942,29.9579121 19.5810942,29.7239121 L19.5810942,22.1059121 L26.0290942,22.1059121 C26.2630942,22.1059121 26.4190942,22.0019121 26.4190942,21.7419121 L26.4190942,20.0779121 C26.4190942,19.8179121 26.2630942,19.7139121 26.0290942,19.7139121 L19.5810942,19.7139121 L19.5810942,14.2799121 L27.3290942,14.2799121 C27.5630942,14.2799121 27.6930942,14.1499121 27.6930942,13.9159121 L27.6930942,12.2519121 C27.6930942,12.0179121 27.5630942,11.8879121 27.3290942,11.8879121 L17.3190942,11.8879121 C17.0850942,11.8879121 16.9550942,12.0179121 16.9550942,12.2519121 L16.9550942,29.7239121 C16.9550942,29.9579121 17.0850942,30.0879121 17.3190942,30.0879121 L19.2170942,30.0879121 Z" id="Combined-Shape"></path>
            </g>
        </g>
        <g id="Group" transform="translate(546.500000, 162.000000)" fill="#0C0C0C" fill-rule="nonzero">
            <g id="Combined-Shape">
                <path d="M8.13391441,30.1038961 C8.34991441,30.1038961 8.46991441,29.9838961 8.46991441,29.7678961 L8.46991441,22.9038961 C9.21391441,22.3278961 9.86191441,22.0878961 10.5579144,22.0878961 C11.8299144,22.0878961 12.4299144,22.8798961 12.4299144,24.4638961 L12.4299144,29.7678961 C12.4299144,29.9838961 12.5739144,30.1038961 12.7659144,30.1038961 L14.4219144,30.1038961 C14.6379144,30.1038961 14.7579144,29.9838961 14.7579144,29.7678961 L14.7579144,24.2238961 C14.7579144,23.7918961 14.7099144,23.3838961 14.6619144,23.0238961 C15.3339144,22.4238961 16.0779144,22.0878961 16.8459144,22.0878961 C18.0699144,22.0878961 18.6939144,22.8798961 18.6939144,24.4638961 L18.6939144,29.7678961 C18.6939144,29.9838961 18.8139144,30.1038961 19.0299144,30.1038961 L20.6859144,30.1038961 C20.9019144,30.1038961 21.0219144,29.9838961 21.0219144,29.7678961 L21.0219144,24.2238961 C21.0219144,21.4638961 19.5339144,20.0238961 17.3019144,20.0238961 C16.0299144,20.0238961 14.9019144,20.5038961 13.9899144,21.4158961 C13.3659144,20.5038961 12.3339144,20.0238961 11.0859144,20.0238961 C9.95791441,20.0238961 9.02191441,20.3838961 7.96591441,21.1758961 C7.70191441,20.5758961 7.19791441,20.2638961 6.38191441,20.2638961 L5.39791441,20.2638961 C5.18191441,20.2638961 5.06191441,20.3838961 5.06191441,20.5998961 L5.06191441,21.7998961 C5.06191441,22.0158961 5.18191441,22.1358961 5.39791441,22.1358961 L5.66191441,22.1358961 C6.06991441,22.1358961 6.11791441,22.3518961 6.11791441,22.9278961 L6.11791441,23.8638961 L6.14191441,23.8638961 L6.14191441,29.7678961 C6.14191441,29.9838961 6.23791441,30.1038961 6.47791441,30.1038961 L8.13391441,30.1038961 Z"></path>
            </g>
        </g>
    </g>
</svg>