<?xml version="1.0" encoding="UTF-8"?>
<svg width="695px" height="190px" viewBox="0 0 695 190" version="1.1" xmlns="http://www.w3.org/2000/svg" xmlns:xlink="http://www.w3.org/1999/xlink">
    <title>M1-46nuki</title>
    <defs>
        <path d="M341.193172,106.294322 C334.897921,109.636458 331.544532,115.685356 333.607728,120.235803 C335.8081,125.091082 343.3713,126.46099 350.487751,123.295143 C357.606057,120.129295 361.595274,113.617639 359.394902,108.764197 C357.19453,103.908918 349.63133,102.53901 342.514879,105.704857 C342.069985,105.903182 341.612114,106.070288 341.193172,106.294322 Z" id="path-1"></path>
        <mask id="mask-2" maskContentUnits="userSpaceOnUse" maskUnits="objectBoundingBox" x="0" y="0" width="27" height="21" fill="white">
            <use xlink:href="#path-1"></use>
        </mask>
        <path d="M475.693172,86.2943217 C469.397921,89.6364576 466.044532,95.6853565 468.107728,100.235803 C470.3081,105.091082 477.8713,106.46099 484.987751,103.295143 C492.106057,100.129295 496.095274,93.6176394 493.894902,88.7641969 C491.69453,83.9089181 484.13133,82.5390096 477.014879,85.7048571 C476.569985,85.9031816 476.112114,86.0702884 475.693172,86.2943217 Z" id="path-3"></path>
        <mask id="mask-4" maskContentUnits="userSpaceOnUse" maskUnits="objectBoundingBox" x="0" y="0" width="27" height="21" fill="white">
            <use xlink:href="#path-3"></use>
        </mask>
    </defs>
    <g id="M1-46nuki" stroke="none" stroke-width="1" fill="none" fill-rule="evenodd">
        <g id="五線" transform="translate(26.000000, 34.000000)" stroke="#000000">
            <line x1="0" y1="10.5" x2="650" y2="10.5" id="horizon"></line>
            <line x1="0" y1="30.5" x2="650" y2="30.5" id="horizon"></line>
            <line x1="0" y1="50.5" x2="650" y2="50.5" id="horizon"></line>
            <line x1="0" y1="70.5" x2="650" y2="70.5" id="horizon"></line>
            <line x1="0" y1="90.5" x2="650" y2="90.5" id="horizon"></line>
        </g>
        <line x1="-13" y1="84" x2="68" y2="84" id="bar" stroke="#000000" stroke-width="2" stroke-linecap="round" stroke-linejoin="round" transform="translate(27.500000, 84.000000) rotate(90.000000) translate(-27.500000, -84.000000) "></line>
        <path d="M55.1620791,144.96278 C54.2662404,144.896201 53.4037992,144.750938 52.5904719,144.529009 C48.3745292,143.385065 45.4551952,140.207444 44.7754579,136.019036 C44.575073,134.792373 44.641868,132.871677 44.9227998,131.776154 C45.1369367,130.936859 45.6555802,129.738442 46.0740312,129.113005 C46.7793077,128.061868 47.9835821,127.067222 49.1858919,126.548715 C50.1740649,126.120997 50.7064603,126.008015 51.9519904,125.963629 C52.9401634,125.927313 53.1837686,125.943454 53.7554552,126.090734 C56.2425863,126.730293 58.2582234,128.86283 59.132452,131.784225 C59.3289078,132.443959 59.3465889,132.611415 59.350518,133.908692 C59.3544471,135.141407 59.3328369,135.397634 59.1776368,135.946404 C58.8338391,137.16298 58.2464361,138.143503 57.3073771,139.061482 C55.9321861,140.409197 54.321248,141.21823 52.1464817,141.658053 L51.2133164,141.847702 L51.8753726,142.13621 C55.4096135,143.689713 59.3230142,143.540416 62.9711994,141.716562 C66.1636071,140.122707 68.6330572,137.237628 69.4817465,134.110445 C69.6880252,133.353869 69.6998125,133.214659 69.6939188,131.776154 L69.6880252,130.246861 L68.4955381,124.331441 C67.8413401,121.077153 67.2873346,118.355495 67.2657245,118.280846 C67.2303624,118.165847 67.1478509,118.181987 66.5820581,118.418039 C62.9260146,119.945315 57.3938176,119.925139 52.3449021,118.3676 C45.4276914,116.235063 39.7815501,111.554376 36.8386413,105.513869 C35.9211925,103.627471 35.384868,101.823793 35.0882196,99.6186243 C34.9546296,98.6259959 34.9762398,95.9971445 35.1294754,94.7482888 C35.9486963,88.0662046 39.3984611,81.3659626 45.90115,73.8203724 C47.9246453,71.4719587 52.3547249,67.077762 55.3231729,64.4731211 C56.1129254,63.7811058 56.1463229,63.7367199 56.0854216,63.5127733 C55.9479025,62.9942661 55.4705148,60.4783969 55.3231729,59.491821 C54.6395065,54.8938531 54.6414711,49.5554489 55.327102,44.882832 C56.4036801,37.5430306 58.9281379,31.3754185 62.6018624,27.1143793 C63.2717769,26.3356098 64.6901882,25 64.8453883,25 C64.8945023,25 65.3247406,25.5891209 65.7981992,26.3093818 C70.1948813,32.9712907 72.5209186,38.9048684 73.1574356,45.070463 C73.3146003,46.6118617 73.27138,50.2293064 73.0749241,51.6395651 C72.4305489,56.2960417 70.9276616,60.3371693 68.3501608,64.3399637 C66.6645695,66.9607449 64.1263599,69.9386302 61.5351071,72.3394998 C60.943775,72.88827 60.3210099,73.4652858 60.1520579,73.6226537 L59.8455867,73.909144 L61.2030967,80.5851756 L62.5586421,87.2632247 L63.2305211,87.2107687 C65.1204265,87.0594534 67.116418,87.170418 68.5426875,87.5033117 C70.4424157,87.9491874 72.5798554,88.9660263 74.1790061,90.1826015 C75.0709157,90.8625116 76.5561219,92.3817173 77.1828161,93.2573286 C78.6817743,95.3474974 79.6601245,97.8391563 79.9331981,100.258184 C80.0687527,101.454583 79.9882058,103.782822 79.7799625,104.75124 C78.9568125,108.582543 76.5207599,112.185865 72.8097087,115.056821 C71.8922599,115.766994 70.5543955,116.624448 69.581939,117.126815 C68.9238119,117.467779 68.8668397,117.514182 68.91006,117.691725 C68.9925714,118.028654 70.0475394,123.157234 70.4424157,125.136439 C70.6486943,126.17547 70.9669528,127.89643 71.1496567,128.959672 C71.4718443,130.831947 71.4816671,130.928789 71.4384469,132.139311 C71.3598645,134.439304 70.7822843,136.23693 69.4778174,138.256485 C66.9926508,142.099894 62.5409611,144.551202 57.3486328,144.932517 C56.2524091,145.013218 55.8987886,145.019271 55.1620791,144.96278 Z M61.7453149,117.885409 C62.7217005,117.770409 63.9593724,117.504094 64.7609123,117.233744 C65.7431916,116.904886 66.9278204,116.3198 66.880671,116.186642 C66.8590608,116.128134 65.8551714,111.23157 64.6489324,105.304045 C63.4426935,99.3765198 62.4368395,94.5082018 62.4132648,94.4839914 C62.3896901,94.4597809 61.9889201,94.516272 61.5233197,94.6110963 C58.1069524,95.3031116 55.3035273,97.2621405 54.0756782,99.816343 C53.6886602,100.62134 53.5413183,101.147918 53.4411258,102.067915 C53.2289535,104.022909 53.8576122,106.169569 55.1443981,107.87237 C55.8928949,108.864999 57.0343034,109.926223 58.0814131,110.606134 C58.4821831,110.866396 58.5588009,110.993501 58.277869,110.932975 C58.1796411,110.912799 57.8358433,110.83815 57.5136557,110.769554 C54.9813397,110.222801 52.5315352,108.79035 51.1425923,107.047197 C49.9226014,105.513869 49.3037654,103.920014 49.1269552,101.848003 C48.9010309,99.2070467 49.5925556,96.6609144 51.2113518,94.1652205 C52.256497,92.553208 54.0599617,90.7979504 55.8673556,89.6358488 C57.1757516,88.7925181 59.1599558,87.9330471 60.5115721,87.6223464 C60.7591065,87.5658553 60.961456,87.493224 60.961456,87.4629609 C60.961456,87.3762068 58.4566438,75.1237016 58.4153881,75.0066844 C58.3544868,74.8351937 54.9597296,77.6193955 52.6729834,79.7135994 C51.4117368,80.8696484 48.7281498,83.6639378 47.7537287,84.8361271 C44.8127846,88.3728703 42.9130564,91.5545269 41.8502302,94.7160082 C40.7815104,97.9037175 40.516295,100.972392 41.0624422,103.875628 C41.726463,107.406319 44.0033864,111.10043 47.0484522,113.588054 C51.183848,116.965412 56.4508295,118.504793 61.7453149,117.885409 Z M69.5053212,114.528226 C72.3244628,112.107181 73.992373,109.353243 74.4854772,106.312814 C74.6505001,105.293957 74.6072798,103.14528 74.4049303,102.19502 C73.5798157,98.3455582 71.0612516,95.3737254 67.7411476,94.3326761 C67.0869496,94.1268873 66.9356786,94.110747 65.6469282,94.1087294 C64.8296718,94.1087294 64.2304815,94.1389925 64.1892257,94.1874134 C64.14797,94.2338167 64.9907656,98.4625753 66.3011262,104.771415 C67.4995069,110.547625 68.4817862,115.284803 68.4837508,115.298926 C68.491609,115.363487 68.8354067,115.103225 69.5053212,114.528226 Z M60.2836833,60.0163808 C65.959293,54.3349952 69.3127945,48.8029074 70.0121773,43.9628349 C70.169342,42.8733647 70.1673775,41.0959142 70.0062837,40.1274962 C69.6840961,38.1946952 68.8963081,36.4979462 67.5564791,34.8617233 C67.0240837,34.2120762 66.9435368,34.1777781 65.9376829,34.1797211 C64.8296718,34.1818131 63.8218533,34.7083904 62.7767081,35.8301413 C61.0439675,37.6842582 59.5960878,40.7145996 58.5293325,44.7073063 C57.0460908,50.2656221 56.5903132,57.2180563 57.4036404,61.9269888 L57.5313367,62.6714601 L58.3250184,61.9269888 C58.7611504,61.5174287 59.6412726,60.6579577 60.2836833,60.0163808 Z" id="G-Clef" fill="#000000"></path>
        <path d="M134.193172,136.294322 C127.897921,139.636458 124.544532,145.685356 126.607728,150.235803 C128.8081,155.091082 136.3713,156.46099 143.487751,153.295143 C150.606057,150.129295 154.595274,143.617639 152.394902,138.764197 C150.19453,133.908918 142.63133,132.53901 135.514879,135.704857 C135.069985,135.903182 134.612114,136.070288 134.193172,136.294322 Z" id="quarter" fill="#000000" transform="translate(139.500000, 144.500000) rotate(-180.000000) translate(-139.500000, -144.500000) "></path>
        <g id="Group" transform="translate(117.000000, 143.000000)" fill="#0C0C0C" fill-rule="nonzero">
            <g id="Rectangle">
                <rect x="0" y="0" width="45" height="2"></rect>
            </g>
        </g>
        <rect id="Rectangle" fill="#0C0C0C" fill-rule="nonzero" x="151" y="83" width="2" height="60"></rect>
        <rect id="Rectangle" fill="#0C0C0C" fill-rule="nonzero" x="222" y="73" width="2" height="60"></rect>
        <path d="M205.193172,126.294322 C198.897921,129.636458 195.544532,135.685356 197.607728,140.235803 C199.8081,145.091082 207.3713,146.46099 214.487751,143.295143 C221.606057,140.129295 225.595274,133.617639 223.394902,128.764197 C221.19453,123.908918 213.63133,122.53901 206.514879,125.704857 C206.069985,125.903182 205.612114,126.070288 205.193172,126.294322 Z" id="quarter" fill="#000000" transform="translate(210.500000, 134.500000) rotate(-180.000000) translate(-210.500000, -134.500000) "></path>
        <use id="quarter" stroke="#000000" mask="url(#mask-2)" stroke-width="2" stroke-dasharray="3,3" transform="translate(346.500000, 114.500000) rotate(-180.000000) translate(-346.500000, -114.500000) " xlink:href="#path-1"></use>
        <rect id="Rectangle" fill="#0C0C0C" fill-rule="nonzero" x="293" y="63" width="2" height="60"></rect>
        <path d="M276.193172,117.294322 C269.897921,120.636458 266.544532,126.685356 268.607728,131.235803 C270.8081,136.091082 278.3713,137.46099 285.487751,134.295143 C292.606057,131.129295 296.595274,124.617639 294.394902,119.764197 C292.19453,114.908918 284.63133,113.53901 277.514879,116.704857 C277.069985,116.903182 276.612114,117.070288 276.193172,117.294322 Z" id="quarter" fill="#000000" transform="translate(281.500000, 125.500000) rotate(-180.000000) translate(-281.500000, -125.500000) "></path>
        <rect id="Rectangle" fill="#0C0C0C" fill-rule="nonzero" x="604" y="78" width="2" height="60"></rect>
        <path d="M612.193172,66.2943217 C605.897921,69.6364576 602.544532,75.6853565 604.607728,80.2358031 C606.8081,85.0910819 614.3713,86.4609904 621.487751,83.2951429 C628.606057,80.1292955 632.595274,73.6176394 630.394902,68.7641969 C628.19453,63.9089181 620.63133,62.5390096 613.514879,65.7048571 C613.069985,65.9031816 612.612114,66.0702884 612.193172,66.2943217 Z" id="quarter" fill="#000000" transform="translate(617.500000, 74.500000) rotate(-180.000000) translate(-617.500000, -74.500000) "></path>
        <rect id="Rectangle" fill="#0C0C0C" fill-rule="nonzero" x="537" y="88" width="2" height="60"></rect>
        <path d="M545.193172,76.2943217 C538.897921,79.6364576 535.544532,85.6853565 537.607728,90.2358031 C539.8081,95.0910819 547.3713,96.4609904 554.487751,93.2951429 C561.606057,90.1292955 565.595274,83.6176394 563.394902,78.7641969 C561.19453,73.9089181 553.63133,72.5390096 546.514879,75.7048571 C546.069985,75.9031816 545.612114,76.0702884 545.193172,76.2943217 Z" id="quarter" fill="#000000" transform="translate(550.500000, 84.500000) rotate(-180.000000) translate(-550.500000, -84.500000) "></path>
        <rect id="Rectangle" fill="#0C0C0C" fill-rule="nonzero" x="422" y="42" width="2" height="60"></rect>
        <path d="M405.193172,96.2943217 C398.897921,99.6364576 395.544532,105.685356 397.607728,110.235803 C399.8081,115.091082 407.3713,116.46099 414.487751,113.295143 C421.606057,110.129295 425.595274,103.617639 423.394902,98.7641969 C421.19453,93.9089181 413.63133,92.5390096 406.514879,95.7048571 C406.069985,95.9031816 405.612114,96.0702884 405.193172,96.2943217 Z" id="quarter" fill="#000000" transform="translate(410.500000, 104.500000) rotate(-180.000000) translate(-410.500000, -104.500000) "></path>
        <line x1="636" y1="84" x2="715" y2="84" id="bar" stroke="#000000" stroke-linecap="round" stroke-linejoin="round" transform="translate(675.500000, 84.000000) rotate(90.000000) translate(-675.500000, -84.000000) "></line>
        <line x1="360" y1="109.949565" x2="360" y2="50" id="Path-16" stroke="#000000" stroke-linecap="square" stroke-dasharray="3,3" fill-rule="nonzero"></line>
        <use id="quarter" stroke="#000000" mask="url(#mask-4)" stroke-width="2" stroke-dasharray="3,3" transform="translate(481.000000, 94.500000) rotate(-180.000000) translate(-481.000000, -94.500000) " xlink:href="#path-3"></use>
        <line x1="494.5" y1="89.9495654" x2="494.5" y2="30" id="Path-16" stroke="#000000" stroke-linecap="square" stroke-dasharray="3,3" fill-rule="nonzero"></line>
    </g>
</svg>