<?xml version="1.0" encoding="UTF-8" standalone="no"?><!DOCTYPE svg PUBLIC "-//W3C//DTD SVG 1.1//EN" "http://www.w3.org/Graphics/SVG/1.1/DTD/svg11.dtd"><svg width="735.0px" height="340.0px" viewBox="0 0 735 340" version="1.1" xmlns="http://www.w3.org/2000/svg" xmlns:xlink="http://www.w3.org/1999/xlink" xml:space="preserve" xmlns:serif="http://www.serif.com/" style="fill-rule:evenodd;clip-rule:evenodd;"><g id="m1-scale-degrees-to-solfa-inF"><g id="五線"><path id="horizon" d="M37,65.5l670,0" style="fill:none;stroke:#000;stroke-width:1px;"/><path id="horizon1" serif:id="horizon" d="M37,85.5l670,0" style="fill:none;stroke:#000;stroke-width:1px;"/><path id="horizon2" serif:id="horizon" d="M37,105.5l670,0" style="fill:none;stroke:#000;stroke-width:1px;"/><path id="horizon3" serif:id="horizon" d="M37,125.5l670,0" style="fill:none;stroke:#000;stroke-width:1px;"/><path id="horizon4" serif:id="horizon" d="M37,145.5l670,0" style="fill:none;stroke:#000;stroke-width:1px;"/></g><path id="bar" d="M705.5,65.5l0,79" style="fill:none;stroke:#000;stroke-width:1px;stroke-linecap:round;stroke-linejoin:round;"/><path id="bar1" serif:id="bar" d="M38.5,64.5l-0,81" style="fill:none;stroke:#000;stroke-width:2px;stroke-linecap:round;stroke-linejoin:round;"/><path id="G-Clef" d="M66.162,165.963c-0.896,-0.067 -1.758,-0.212 -2.572,-0.434c-4.215,-1.144 -7.135,-4.322 -7.815,-8.51c-0.2,-1.227 -0.133,-3.147 0.148,-4.243c0.214,-0.839 0.733,-2.038 1.151,-2.663c0.705,-1.051 1.91,-2.046 3.112,-2.564c0.988,-0.428 1.52,-0.541 2.766,-0.585c0.988,-0.037 1.232,-0.021 1.803,0.127c2.488,0.639 4.503,2.772 5.377,5.693c0.197,0.66 0.215,0.827 0.219,2.125c0.003,1.232 -0.018,1.489 -0.173,2.037c-0.344,1.217 -0.932,2.198 -1.871,3.115c-1.375,1.348 -2.986,2.157 -5.161,2.597l-0.933,0.19l0.662,0.288c3.535,1.554 7.448,1.404 11.096,-0.419c3.193,-1.594 5.662,-4.479 6.511,-7.607c0.206,-0.756 0.218,-0.895 0.212,-2.334l-0.006,-1.529l-1.192,-5.916c-0.655,-3.254 -1.209,-5.976 -1.23,-6.05c-0.036,-0.115 -0.118,-0.099 -0.684,0.137c-3.656,1.527 -9.188,1.507 -14.237,-0.05c-6.917,-2.133 -12.563,-6.814 -15.506,-12.854c-0.918,-1.887 -1.454,-3.69 -1.751,-5.895c-0.133,-0.993 -0.112,-3.622 0.041,-4.871c0.82,-6.682 4.269,-13.382 10.772,-20.928c2.024,-2.348 6.454,-6.742 9.422,-9.347c0.79,-0.692 0.823,-0.736 0.762,-0.96c-0.137,-0.519 -0.614,-3.035 -0.762,-4.021c-0.683,-4.598 -0.682,-9.937 0.004,-14.609c1.077,-7.34 3.601,-13.508 7.275,-17.769c0.67,-0.778 2.088,-2.114 2.243,-2.114c0.05,-0 0.48,0.589 0.953,1.309c4.397,6.662 6.723,12.596 7.359,18.761c0.158,1.542 0.114,5.159 -0.082,6.57c-0.644,4.656 -2.147,8.697 -4.725,12.7c-1.685,2.621 -4.224,5.599 -6.815,7.999c-0.591,0.549 -1.214,1.126 -1.383,1.284l-0.306,0.286l1.357,6.676l1.356,6.678l0.672,-0.052c1.889,-0.152 3.885,-0.041 5.312,0.292c1.899,0.446 4.037,1.463 5.636,2.68c0.892,0.68 2.377,2.199 3.004,3.074c1.499,2.09 2.477,4.582 2.75,7.001c0.136,1.197 0.055,3.525 -0.153,4.493c-0.823,3.832 -3.259,7.435 -6.97,10.306c-0.918,0.71 -2.256,1.567 -3.228,2.07c-0.658,0.341 -0.715,0.387 -0.672,0.565c0.083,0.337 1.138,5.465 1.532,7.444c0.207,1.039 0.525,2.76 0.708,3.824c0.322,1.872 0.332,1.969 0.288,3.179c-0.078,2.3 -0.656,4.098 -1.96,6.117c-2.485,3.844 -6.937,6.295 -12.129,6.677c-1.097,0.08 -1.45,0.086 -2.187,0.03Zm6.583,-27.078c0.977,-0.115 2.214,-0.381 3.016,-0.651c0.982,-0.329 2.167,-0.914 2.12,-1.047c-0.022,-0.059 -1.026,-4.955 -2.232,-10.883c-1.206,-5.927 -2.212,-10.796 -2.236,-10.82c-0.023,-0.024 -0.424,0.032 -0.89,0.127c-3.416,0.692 -6.219,2.651 -7.447,5.205c-0.387,0.805 -0.535,1.332 -0.635,2.252c-0.212,1.955 0.417,4.102 1.703,5.804c0.749,0.993 1.89,2.054 2.937,2.734c0.401,0.26 0.478,0.388 0.197,0.327c-0.098,-0.02 -0.442,-0.095 -0.764,-0.163c-2.533,-0.547 -4.982,-1.98 -6.371,-3.723c-1.22,-1.533 -1.839,-3.127 -2.016,-5.199c-0.226,-2.641 0.466,-5.187 2.084,-7.683c1.045,-1.612 2.849,-3.367 4.656,-4.529c1.309,-0.843 3.293,-1.703 4.645,-2.014c0.247,-0.056 0.449,-0.129 0.449,-0.159c0,-0.087 -2.504,-12.339 -2.546,-12.456c-0.061,-0.172 -3.455,2.612 -5.742,4.707c-1.261,1.156 -3.945,3.95 -4.919,5.122c-2.941,3.537 -4.841,6.719 -5.904,9.88c-1.068,3.188 -1.334,6.256 -0.788,9.16c0.664,3.53 2.941,7.224 5.986,9.712c4.136,3.377 9.403,4.917 14.697,4.297Zm7.76,-3.357c2.819,-2.421 4.487,-5.175 4.98,-8.215c0.166,-1.019 0.122,-3.168 -0.08,-4.118c-0.825,-3.849 -3.344,-6.821 -6.664,-7.862c-0.654,-0.206 -0.805,-0.222 -2.094,-0.224c-0.817,-0 -1.417,0.03 -1.458,0.078c-0.041,0.047 0.802,4.276 2.112,10.584c1.199,5.777 2.181,10.514 2.183,10.528c0.008,0.064 0.351,-0.196 1.021,-0.771Zm-9.221,-54.512c5.675,-5.681 9.029,-11.213 9.728,-16.053c0.157,-1.09 0.155,-2.867 -0.006,-3.836c-0.322,-1.932 -1.11,-3.629 -2.45,-5.265c-0.532,-0.65 -0.612,-0.684 -1.618,-0.682c-1.108,0.002 -2.116,0.528 -3.161,1.65c-1.733,1.854 -3.181,4.885 -4.248,8.877c-1.483,5.559 -1.939,12.511 -1.125,17.22l0.127,0.744l0.794,-0.744c0.436,-0.41 1.316,-1.269 1.959,-1.911Z"/><path id="Path" d="M248.807,133.706c6.295,-3.342 9.648,-9.391 7.585,-13.942c-2.2,-4.855 -9.763,-6.225 -16.88,-3.059c-7.118,3.166 -11.107,9.677 -8.907,14.531c2.2,4.855 9.764,6.225 16.88,3.059c0.445,-0.198 0.903,-0.365 1.322,-0.589Z"/><path id="Path1" serif:id="Path" d="M328.807,123.706c6.295,-3.342 9.648,-9.391 7.585,-13.942c-2.2,-4.855 -9.763,-6.225 -16.88,-3.059c-7.118,3.166 -11.107,9.677 -8.907,14.531c2.2,4.855 9.764,6.225 16.88,3.059c0.445,-0.198 0.903,-0.365 1.322,-0.589Z"/><path id="Path2" serif:id="Path" d="M408.807,113.706c6.295,-3.342 9.648,-9.391 7.585,-13.942c-2.2,-4.855 -9.763,-6.225 -16.88,-3.059c-7.118,3.166 -11.107,9.677 -8.907,14.531c2.2,4.855 9.764,6.225 16.88,3.059c0.445,-0.198 0.903,-0.365 1.322,-0.589Z"/><path id="Path3" serif:id="Path" d="M488.807,103.706c6.295,-3.342 9.648,-9.391 7.585,-13.942c-2.2,-4.855 -9.763,-6.225 -16.88,-3.059c-7.118,3.166 -11.107,9.677 -8.907,14.531c2.2,4.855 9.764,6.225 16.88,3.059c0.445,-0.198 0.903,-0.365 1.322,-0.589Z"/><path id="Path4" serif:id="Path" d="M168.807,143.706c6.295,-3.342 9.648,-9.391 7.585,-13.942c-2.2,-4.855 -9.763,-6.225 -16.88,-3.059c-7.118,3.166 -11.107,9.677 -8.907,14.531c2.2,4.855 9.764,6.225 16.88,3.059c0.445,-0.198 0.903,-0.365 1.322,-0.589Z"/><path id="Path5" serif:id="Path" d="M568.807,93.706c6.295,-3.342 9.648,-9.391 7.585,-13.942c-2.2,-4.855 -9.763,-6.225 -16.88,-3.059c-7.118,3.166 -11.107,9.677 -8.907,14.531c2.2,4.855 9.764,6.225 16.88,3.059c0.445,-0.198 0.903,-0.365 1.322,-0.589Z"/><path id="Path6" serif:id="Path" d="M648.807,83.706c6.295,-3.342 9.648,-9.391 7.585,-13.942c-2.2,-4.855 -9.763,-6.225 -16.88,-3.059c-7.118,3.166 -11.107,9.677 -8.907,14.531c2.2,4.855 9.764,6.225 16.88,3.059c0.445,-0.198 0.903,-0.365 1.322,-0.589Z"/><g id="音度"><text x="54.5px" y="224px" style="font-family:'NotoSansSC-Bold', 'Noto Sans SC', sans-serif;font-weight:700;font-size:16px;">音级</text></g><g id="相対名"><text x="48.5px" y="308px" style="font-family:'NotoSansSC-Bold', 'Noto Sans SC', sans-serif;font-weight:700;font-size:16px;">相对名</text></g><g id="Key-:-F"><text x="35.75px" y="33px" style="font-family:'HiraginoSans-W6', 'Hiragino Sans', sans-serif;font-weight:600;font-size:20px;">Key : F</text></g><path id="Degree" d="M163.17,210.23l0.87,0.54c-0.09,1.26 -0.12,2.22 -0.12,4.83l-0,9.93c-0,2.85 0.3,3.24 2.55,3.3l0.39,-0l-0,1.17c-1.68,-0.09 -2.76,-0.12 -4.62,-0.12l-0.481,0.001c-1.545,0.005 -2.552,0.037 -4.079,0.119l-0,-1.17c2.49,-0.09 2.73,-0.36 2.73,-3.3l-0.001,-11.738c-0.001,-0.176 -0.007,-0.322 -0.029,-0.502c-0.147,0.067 -0.273,0.123 -0.396,0.177l-0.185,0.08c-0.376,0.16 -0.809,0.333 -1.789,0.733l-0.57,-1.17c2.55,-1.14 4.2,-1.95 5.73,-2.88Zm-0.834,-15.03l6.336,10.056l-1.32,-0l-4.152,-6.48l-4.368,6.48l-3.528,-0l6.84,-10.056l0.192,-0Z"/><path id="Degree1" serif:id="Degree" d="M242.079,210.41c3.09,0 5.25,1.98 5.25,4.83c-0,2.58 -1.38,4.56 -6.12,8.88c-1.86,1.68 -2.19,2.01 -3.3,3.03c0.964,0.021 1.683,0.028 2.169,0.029l2.123,0c2.027,-0.004 2.599,-0.026 3.081,-0.142l0.111,-0.029c0.073,-0.02 0.147,-0.043 0.226,-0.068c0.78,-0.27 1.29,-0.72 1.83,-1.65l1.08,0.39c-0.69,1.41 -1.23,2.61 -1.89,4.32c-3.09,-0.06 -4.68,-0.09 -7.2,-0.09c-2.25,0 -3.45,0.03 -5.01,0.09l-0.36,-0.93c2.67,-2.49 5.22,-5.34 7.11,-8.04c1.65,-2.34 2.28,-3.84 2.28,-5.4c-0,-1.53 -1.29,-2.76 -2.94,-2.76c-1.56,0 -2.73,0.84 -3.96,2.85l-1.11,-0.54c1.53,-3.12 3.87,-4.77 6.63,-4.77Zm-0.024,-15.21l6.336,10.056l-1.32,0l-4.152,-6.48l-4.368,6.48l-3.528,0l6.84,-10.056l0.192,0Z"/><path id="Degree2" serif:id="Degree" d="M321.497,210.41c2.7,0 4.74,1.83 4.74,4.29c0,2.04 -1.26,3.45 -3.9,4.41c3.21,0.33 4.92,2.04 4.92,4.92c0,3.72 -2.97,6.3 -7.26,6.3c-2.88,0 -5.07,-1.23 -5.07,-2.88c0,-0.84 0.72,-1.47 1.68,-1.47c0.48,0 0.9,0.18 1.2,0.48c0.21,0.18 0.21,0.18 0.54,1.05c0.36,0.93 1.2,1.5 2.19,1.5c1.83,0 3.12,-1.86 3.12,-4.53c0,-3.09 -1.71,-4.56 -5.31,-4.53l0,-1.14c1.44,-0.12 2.1,-0.3 2.91,-0.81c0.93,-0.57 1.5,-1.62 1.5,-2.73c0,-1.65 -1.08,-2.85 -2.55,-2.85c-1.29,-0 -2.37,0.69 -3.54,2.19l-1.05,-0.72c1.65,-2.31 3.6,-3.48 5.88,-3.48Zm0.276,-15.21l6.336,10.056l-1.32,-0l-4.152,-6.48l-4.368,6.48l-3.528,-0l6.84,-10.056l0.192,-0Z"/><path id="Degree3" serif:id="Degree" d="M405.446,210.05l0,12.45l2.46,0l0,2.31l-2.46,0l0,5.19l-3.39,0l0,-5.19l-7.8,0l0.3,-2.37l7.38,-11.31l3.51,-1.08Zm-3.3,3.48l-5.82,8.97l5.73,0l0.09,-8.97Zm-0.654,-18.33l6.336,10.056l-1.32,0l-4.152,-6.48l-4.368,6.48l-3.528,0l6.84,-10.056l0.192,0Z"/><path id="Degree4" serif:id="Degree" d="M486.695,210.74l-0.78,3l-7.05,0l-0.63,3.36c0.87,-0.15 1.38,-0.21 2.07,-0.21c3.99,-0 6.54,2.34 6.54,5.94c-0,4.23 -3.36,7.5 -7.74,7.5c-2.61,0 -4.47,-1.08 -4.47,-2.64c-0,-0.87 0.72,-1.53 1.68,-1.53c0.84,-0 1.11,0.21 1.71,1.29c0.54,0.96 1.32,1.5 2.22,1.5c2.04,-0 3.78,-2.07 3.78,-4.56c-0,-2.58 -1.77,-4.17 -4.65,-4.17c-0.9,-0 -1.68,0.12 -2.64,0.42l-0.6,-0.48l1.68,-9.42l8.88,-0Zm-5.484,-15.54l6.336,10.056l-1.32,-0l-4.152,-6.48l-4.368,6.48l-3.528,-0l6.84,-10.056l0.192,-0Z"/><path id="Degree5" serif:id="Degree" d="M564.914,210.11l0.42,0.9c-4.14,2.1 -6.54,5.1 -7.32,9.21c1.47,-1.05 2.58,-1.47 3.93,-1.47c3,-0 5.22,2.28 5.22,5.37c-0,3.57 -2.79,6.21 -6.54,6.21c-3.93,-0 -6.57,-2.82 -6.57,-7.05c-0,-4.02 2.34,-7.95 6.48,-10.92c1.5,-1.05 2.73,-1.68 4.38,-2.25Zm-4.38,10.41c-1.02,-0 -1.89,0.36 -2.76,1.17c-0.12,0.78 -0.15,1.29 -0.15,1.95c-0,3.36 1.23,5.4 3.24,5.4c1.74,-0 2.88,-1.59 2.88,-3.96c-0,-2.67 -1.35,-4.56 -3.21,-4.56Zm0.396,-25.32l6.336,10.056l-1.32,-0l-4.152,-6.48l-4.368,6.48l-3.528,-0l6.84,-10.056l0.192,-0Z"/><path id="Degree6" serif:id="Degree" d="M650.732,210.74l0.33,0.6l-7.62,18.66l-3.66,0l0.57,-1.14c0.12,-0.21 0.21,-0.42 0.3,-0.6l7.47,-14.73l-4.47,-0c-3.3,0.03 -4.02,0.33 -4.68,1.98l-1.08,-0l1.08,-4.77l11.76,0Zm-6.084,-15.54l6.336,10.056l-1.32,-0l-4.152,-6.48l-4.368,6.48l-3.528,-0l6.84,-10.056l0.192,-0Z"/><path id="Line-3" d="M163.5,242.5l0,19l6,0l-7,14l-7,-14l6,0l0,-19l2,0Z" style="fill-rule:nonzero;"/><path id="Line-31" serif:id="Line-3" d="M242.5,242.5l0,19l6,0l-7,14l-7,-14l6,0l0,-19l2,0Z" style="fill-rule:nonzero;"/><path id="Line-32" serif:id="Line-3" d="M323.5,242.5l0,19l6,0l-7,14l-7,-14l6,0l0,-19l2,0Z" style="fill-rule:nonzero;"/><path id="Line-33" serif:id="Line-3" d="M402.5,242.5l0,19l6,0l-7,14l-7,-14l6,0l0,-19l2,0Z" style="fill-rule:nonzero;"/><path id="Line-34" serif:id="Line-3" d="M482.5,242.5l0,19l6,0l-7,14l-7,-14l6,0l0,-19l2,0Z" style="fill-rule:nonzero;"/><path id="Line-35" serif:id="Line-3" d="M562.5,242.5l0,19l6,0l-7,14l-7,-14l6,0l0,-19l2,0Z" style="fill-rule:nonzero;"/><path id="Line-36" serif:id="Line-3" d="M645.5,242.5l0,19l6,0l-7,14l-7,-14l6,0l0,-19l2,0Z" style="fill-rule:nonzero;"/><g id="Group"><g id="flat"><path d="M110.733,82.509l0,16.401c1.999,-1.978 4.243,-2.99 6.731,-3.038c1.555,-0 2.888,0.7 3.999,2.097c0.977,1.302 1.488,2.748 1.533,4.34c0.044,1.254 -0.245,2.7 -0.867,4.339c-0.222,0.675 -0.711,1.399 -1.466,2.17c-0.578,0.579 -1.177,1.181 -1.8,1.808c-3.287,2.603 -6.575,5.231 -9.863,7.883l0,-36l1.733,0Zm5.398,17.992c-0.533,-0.676 -1.221,-1.013 -2.066,-1.013c-1.066,0 -1.932,0.651 -2.599,1.953c-0.489,1.012 -0.733,3.399 -0.733,7.16l0,6.22c0.044,0.192 1.289,-0.989 3.732,-3.544c1.333,-1.35 2.2,-2.941 2.599,-4.774c0.178,-0.722 0.267,-1.446 0.267,-2.169c-0,-1.591 -0.4,-2.869 -1.2,-3.833" style="fill:#0c0c0c;fill-rule:nonzero;"/></g></g><g id="ド"><text x="147.5px" y="310px" style="font-family:'HiraginoSans-W6', 'Hiragino Sans', sans-serif;font-weight:600;font-size:24px;">do</text></g><g id="レ"><text x="226.5px" y="310px" style="font-family:'HiraginoSans-W6', 'Hiragino Sans', sans-serif;font-weight:600;font-size:24px;">re</text></g><g id="ミ"><text x="306.5px" y="310px" style="font-family:'HiraginoSans-W6', 'Hiragino Sans', sans-serif;font-weight:600;font-size:24px;">mi</text></g><g id="ファ"><text x="384.5px" y="310px" style="font-family:'HiraginoSans-W6', 'Hiragino Sans', sans-serif;font-weight:600;font-size:24px;">fa</text></g><g id="ソ"><text x="460.5px" y="310px" style="font-family:'HiraginoSans-W6', 'Hiragino Sans', sans-serif;font-weight:600;font-size:24px;">sol</text></g><g id="ラ"><text x="548.5px" y="310px" style="font-family:'HiraginoSans-W6', 'Hiragino Sans', sans-serif;font-weight:600;font-size:24px;">la</text></g><g id="シ"><text x="629.5px" y="310px" style="font-family:'HiraginoSans-W6', 'Hiragino Sans', sans-serif;font-weight:600;font-size:24px;">si</text></g></g></svg>