<?xml version="1.0" encoding="UTF-8" standalone="no"?><!DOCTYPE svg PUBLIC "-//W3C//DTD SVG 1.1//EN" "http://www.w3.org/Graphics/SVG/1.1/DTD/svg11.dtd"><svg width="1700.0px" height="440.0px" viewBox="0 0 1700 440" version="1.1" xmlns="http://www.w3.org/2000/svg" xmlns:xlink="http://www.w3.org/1999/xlink" xml:space="preserve" xmlns:serif="http://www.serif.com/" style="fill-rule:evenodd;clip-rule:evenodd;"><g><g id="pianoroll_himawari"><rect x="0" y="0" width="1700" height="440" style="fill:none;"/><g><g id="BG"><rect x="-0" y="-0.001" width="1700" height="539.999" style="fill:#efeef1;"/></g><g id="ivory"><rect x="0" y="-0.001" width="100" height="539.999" style="fill:#fff;"/></g><g id="Ruler"><rect x="-0" y="-0" width="1700" height="40" style="fill:#f15031;"/></g><g opacity="0.1"><g id="rect5314"><rect x="99.999" y="160" width="1599.99" height="20" style="fill:#2e3a42;"/></g><g id="rect53141" serif:id="rect5314"><rect x="99.999" y="120" width="1599.99" height="20" style="fill:#2e3a42;"/></g><g id="rect53142" serif:id="rect5314"><rect x="99.999" y="80" width="1599.99" height="20" style="fill:#2e3a42;"/></g><g id="rect5316"><rect x="99.999" y="219.999" width="1599.99" height="20" style="fill:#2e3a42;"/></g><g id="rect5318"><rect x="99.999" y="259.999" width="1599.99" height="20" style="fill:#2e3a42;"/></g><g id="rect5320"><rect x="99.999" y="319.999" width="1599.99" height="20" style="fill:#2e3a42;"/></g><g id="rect5322"><rect x="99.999" y="359.999" width="1599.99" height="20" style="fill:#2e3a42;"/></g><g id="rect5324"><rect x="99.999" y="399.999" width="1599.99" height="20" style="fill:#2e3a42;"/></g></g><g id="axis-1" serif:id="axis 1"><g><g id="text6009"><g transform="matrix(1,0,0,0.999999,0,2.99389e-05)"><text x="107px" y="23px" style="font-family:'ArialUnicodeMS', 'Arial Unicode MS', sans-serif;font-size:24px;fill:#e1e5e8;">1</text></g></g></g><g><g id="text6017"><g transform="matrix(1,0,0,0.999999,5.68434e-14,2.99389e-05)"><text x="426.999px" y="23px" style="font-family:'ArialUnicodeMS', 'Arial Unicode MS', sans-serif;font-size:24px;fill:#e1e5e8;">2</text></g></g></g><g><g id="text6033"><g transform="matrix(1,0,0,0.999999,1.13687e-13,2.99389e-05)"><text x="746.998px" y="23px" style="font-family:'ArialUnicodeMS', 'Arial Unicode MS', sans-serif;font-size:24px;fill:#e1e5e8;">3</text></g></g></g></g><g id="ticks-1" serif:id="ticks 1"><g id="path5178"><path d="M0,40l1060,0" style="fill:none;stroke:#ccc;stroke-width:0.99px;"/></g><path id="path6050" d="M1060,30l0,10" style="fill:none;stroke:#e6e6e6;stroke-width:1px;"/><path id="path6052" d="M1040,35l0,5" style="fill:none;stroke:#e6e6e6;stroke-width:1px;"/><path id="path6054" d="M1020,35l0,5" style="fill:none;stroke:#e6e6e6;stroke-width:1px;"/><path id="path6056" d="M999.997,35l0,5" style="fill:none;stroke:#e6e6e6;stroke-width:1px;"/><g id="path6050-4"><path d="M979.997,30l0,10" style="fill:none;stroke:#e6e6e6;stroke-width:1px;"/></g><g id="path6052-0"><path d="M959.997,35l0,5" style="fill:none;stroke:#e6e6e6;stroke-width:1px;"/></g><g id="path6054-9"><path d="M939.997,35l0,5" style="fill:none;stroke:#e6e6e6;stroke-width:1px;"/></g><g id="path6056-4"><path d="M919.997,35l0,5" style="fill:none;stroke:#e6e6e6;stroke-width:1px;"/></g><g id="path6050-2"><path d="M899.998,30l-0,10" style="fill:none;stroke:#e6e6e6;stroke-width:1px;"/></g><g id="path6050-21" serif:id="path6050-2"><path d="M819.998,30l-0,10" style="fill:none;stroke:#e6e6e6;stroke-width:1px;"/></g><g id="path6052-4"><path d="M879.998,35l-0,5" style="fill:none;stroke:#e6e6e6;stroke-width:1px;"/></g><g id="path6054-5"><path d="M859.998,35l-0,5" style="fill:none;stroke:#e6e6e6;stroke-width:1px;"/></g><g id="path6056-5"><path d="M839.998,35l-0,5" style="fill:none;stroke:#e6e6e6;stroke-width:1px;"/></g><g id="path6052-1"><path d="M799.998,35l-0,5" style="fill:none;stroke:#e6e6e6;stroke-width:1px;"/></g><g id="path6054-52"><path d="M779.998,35l-0,5" style="fill:none;stroke:#e6e6e6;stroke-width:1px;"/></g><g id="path6056-7"><path d="M759.998,35l-0,5" style="fill:none;stroke:#e6e6e6;stroke-width:1px;"/></g><g id="path6050-42"><path d="M739.998,-0.002l-0,40" style="fill:none;stroke:#c6c6c6;stroke-width:1.49px;"/></g><g><g id="text60331" serif:id="text6033"><g transform="matrix(1,0,0,0.999999,2.27374e-13,2.99389e-05)"><text x="1067px" y="23px" style="font-family:'ArialUnicodeMS', 'Arial Unicode MS', sans-serif;font-size:24px;fill:#e1e5e8;">4</text></g></g></g><g id="path60501" serif:id="path6050"><path d="M1380,30l0,10" style="fill:none;stroke:#e6e6e6;stroke-width:1px;"/></g><g id="path60521" serif:id="path6052"><path d="M1360,35l0,5" style="fill:none;stroke:#e6e6e6;stroke-width:1px;"/></g><g id="path60541" serif:id="path6054"><path d="M1340,35l0,5" style="fill:none;stroke:#e6e6e6;stroke-width:1px;"/></g><g id="path60561" serif:id="path6056"><path d="M1320,35l0,5" style="fill:none;stroke:#e6e6e6;stroke-width:1px;"/></g><g id="path6050-41" serif:id="path6050-4"><path d="M1300,30l0,10" style="fill:none;stroke:#e6e6e6;stroke-width:1px;"/></g><g id="path6052-01" serif:id="path6052-0"><path d="M1280,35l0,5" style="fill:none;stroke:#e6e6e6;stroke-width:1px;"/></g><g id="path6054-91" serif:id="path6054-9"><path d="M1260,35l-0,5" style="fill:none;stroke:#e6e6e6;stroke-width:1px;"/></g><g id="path6056-41" serif:id="path6056-4"><path d="M1240,35l-0,5" style="fill:none;stroke:#e6e6e6;stroke-width:1px;"/></g><g id="path6050-22" serif:id="path6050-2"><path d="M1220,30l-0,10" style="fill:none;stroke:#e6e6e6;stroke-width:1px;"/></g><g id="path6050-23" serif:id="path6050-2"><path d="M1140,30l-0,10" style="fill:none;stroke:#e6e6e6;stroke-width:1px;"/></g><g id="path6052-41" serif:id="path6052-4"><path d="M1200,35l-0,5" style="fill:none;stroke:#e6e6e6;stroke-width:1px;"/></g><g id="path6054-51" serif:id="path6054-5"><path d="M1180,35l-0,5" style="fill:none;stroke:#e6e6e6;stroke-width:1px;"/></g><g id="path6056-51" serif:id="path6056-5"><path d="M1160,35l-0,5" style="fill:none;stroke:#e6e6e6;stroke-width:1px;"/></g><g id="path6052-11" serif:id="path6052-1"><path d="M1120,35l-0,5" style="fill:none;stroke:#e6e6e6;stroke-width:1px;"/></g><g id="path6054-521" serif:id="path6054-52"><path d="M1100,35l-0,5" style="fill:none;stroke:#e6e6e6;stroke-width:1px;"/></g><g id="path6056-71" serif:id="path6056-7"><path d="M1080,35l0,5" style="fill:none;stroke:#e6e6e6;stroke-width:1px;"/></g><g><g id="text60332" serif:id="text6033"><g transform="matrix(1,0,0,0.999999,0,2.99389e-05)"><text x="1387px" y="23px" style="font-family:'ArialUnicodeMS', 'Arial Unicode MS', sans-serif;font-size:24px;fill:#e1e5e8;">5</text></g></g></g><g id="path60522" serif:id="path6052"><path d="M1680,35l0,5" style="fill:none;stroke:#e6e6e6;stroke-width:1px;"/></g><g id="path60542" serif:id="path6054"><path d="M1660,35l0,5" style="fill:none;stroke:#e6e6e6;stroke-width:1px;"/></g><g id="path60562" serif:id="path6056"><path d="M1640,35l0,5" style="fill:none;stroke:#e6e6e6;stroke-width:1px;"/></g><g id="path6050-43" serif:id="path6050-4"><path d="M1620,30l-0,10" style="fill:none;stroke:#e6e6e6;stroke-width:1px;"/></g><g id="path6052-02" serif:id="path6052-0"><path d="M1600,35l-0,5" style="fill:none;stroke:#e6e6e6;stroke-width:1px;"/></g><g id="path6054-92" serif:id="path6054-9"><path d="M1580,35l-0,5" style="fill:none;stroke:#e6e6e6;stroke-width:1px;"/></g><g id="path6056-42" serif:id="path6056-4"><path d="M1560,35l-0,5" style="fill:none;stroke:#e6e6e6;stroke-width:1px;"/></g><g id="path6050-24" serif:id="path6050-2"><path d="M1540,30l-0,10" style="fill:none;stroke:#e6e6e6;stroke-width:1px;"/></g><g id="path6050-25" serif:id="path6050-2"><path d="M1460,30l-0,10" style="fill:none;stroke:#e6e6e6;stroke-width:1px;"/></g><g id="path6052-42" serif:id="path6052-4"><path d="M1520,35l-0,5" style="fill:none;stroke:#e6e6e6;stroke-width:1px;"/></g><g id="path6054-53" serif:id="path6054-5"><path d="M1500,35l-0,5" style="fill:none;stroke:#e6e6e6;stroke-width:1px;"/></g><g id="path6056-52" serif:id="path6056-5"><path d="M1480,35l-0,5" style="fill:none;stroke:#e6e6e6;stroke-width:1px;"/></g><g id="path6052-12" serif:id="path6052-1"><path d="M1440,35l0,5" style="fill:none;stroke:#e6e6e6;stroke-width:1px;"/></g><g id="path6054-522" serif:id="path6054-52"><path d="M1420,35l0,5" style="fill:none;stroke:#e6e6e6;stroke-width:1px;"/></g><g id="path6056-72" serif:id="path6056-7"><path d="M1400,35l0,5" style="fill:none;stroke:#e6e6e6;stroke-width:1px;"/></g><g id="path6050-421" serif:id="path6050-42"><path d="M1060,-0.002l0,40" style="fill:none;stroke:#c6c6c6;stroke-width:1.49px;"/></g><g id="path6050-422" serif:id="path6050-42"><path d="M1380,-0.002l0,40" style="fill:none;stroke:#c6c6c6;stroke-width:1.49px;"/></g><g id="path6050-423" serif:id="path6050-42"><path d="M1700,-0.002l0,40" style="fill:none;stroke:#c6c6c6;stroke-width:1.49px;"/></g><g id="path6052-3"><path d="M719.998,35l0,5" style="fill:none;stroke:#e6e6e6;stroke-width:1px;"/></g><g id="path6054-2"><path d="M699.998,35l0,5" style="fill:none;stroke:#e6e6e6;stroke-width:1px;"/></g><g id="path6056-2"><path d="M679.998,35l0,5" style="fill:none;stroke:#e6e6e6;stroke-width:1px;"/></g><g id="path6050-7"><path d="M659.998,30l0,10" style="fill:none;stroke:#e6e6e6;stroke-width:1px;"/></g><g id="path6052-6"><path d="M639.998,35l0,5" style="fill:none;stroke:#e6e6e6;stroke-width:1px;"/></g><g id="path6054-1"><path d="M619.998,35l0,5" style="fill:none;stroke:#e6e6e6;stroke-width:1px;"/></g><g id="path6056-8"><path d="M599.998,35l0,5" style="fill:none;stroke:#e6e6e6;stroke-width:1px;"/></g><g id="path6050-79"><path d="M579.998,30l0,10" style="fill:none;stroke:#e6e6e6;stroke-width:1px;"/></g><g id="path6050-791" serif:id="path6050-79"><path d="M499.999,30l-0,10" style="fill:none;stroke:#e6e6e6;stroke-width:1px;"/></g><g id="path6052-5"><path d="M559.998,35l0,5" style="fill:none;stroke:#e6e6e6;stroke-width:1px;"/></g><g id="path6054-4"><path d="M539.999,35l-0,5" style="fill:none;stroke:#e6e6e6;stroke-width:1px;"/></g><g id="path6056-3"><path d="M519.999,35l-0,5" style="fill:none;stroke:#e6e6e6;stroke-width:1px;"/></g><g id="path6052-411" serif:id="path6052-41"><path d="M479.999,35l-0,5" style="fill:none;stroke:#e6e6e6;stroke-width:1px;"/></g><g id="path6054-13"><path d="M459.999,35l-0,5" style="fill:none;stroke:#e6e6e6;stroke-width:1px;"/></g><g id="path6056-87"><path d="M439.999,35l-0,5" style="fill:none;stroke:#e6e6e6;stroke-width:1px;"/></g><g id="path6050-793"><path d="M419.999,-0.002l-0,40" style="fill:none;stroke:#c6c6c6;stroke-width:1.49px;"/></g><g id="path6052-19"><path d="M399.999,35l-0,5" style="fill:none;stroke:#e6e6e6;stroke-width:1px;"/></g><g id="path6054-8"><path d="M379.999,35l-0,5" style="fill:none;stroke:#e6e6e6;stroke-width:1px;"/></g><g id="path6056-6"><path d="M359.999,35l0,5" style="fill:none;stroke:#e6e6e6;stroke-width:1px;"/></g><g id="path6050-28"><path d="M339.999,30l0,10" style="fill:none;stroke:#e6e6e6;stroke-width:1px;"/></g><g id="path6052-60"><path d="M319.999,35l0,5" style="fill:none;stroke:#e6e6e6;stroke-width:1px;"/></g><g id="path6054-24"><path d="M299.999,35l0,5" style="fill:none;stroke:#e6e6e6;stroke-width:1px;"/></g><g id="path6056-86"><path d="M279.999,35l0,5" style="fill:none;stroke:#e6e6e6;stroke-width:1px;"/></g><g id="path6050-0"><path d="M259.999,30l0,10" style="fill:none;stroke:#e6e6e6;stroke-width:1px;"/></g><g id="path6050-01" serif:id="path6050-0"><path d="M180,30l-0,10" style="fill:none;stroke:#e6e6e6;stroke-width:1px;"/></g><g id="path6052-06"><path d="M239.999,35l0,5" style="fill:none;stroke:#e6e6e6;stroke-width:1px;"/></g><g id="path6054-138"><path d="M219.999,35l0,5" style="fill:none;stroke:#e6e6e6;stroke-width:1px;"/></g><g id="path6056-9"><path d="M199.999,35l0,5" style="fill:none;stroke:#e6e6e6;stroke-width:1px;"/></g><g id="path6052-066"><path d="M160,35l-0,5" style="fill:none;stroke:#e6e6e6;stroke-width:1px;"/></g><g id="path6054-18"><path d="M140,35l-0,5" style="fill:none;stroke:#e6e6e6;stroke-width:1px;"/></g><g id="path6056-49"><path d="M120,35l-0,5" style="fill:none;stroke:#e6e6e6;stroke-width:1px;"/></g></g><g id="grid-lines-1" serif:id="grid lines 1"><g id="bar-Line" serif:id="bar Line"><g id="path5119"><path d="M100,-0.004l-0,539.995" style="fill:none;stroke:#b3b3b3;stroke-width:1.09px;"/></g><g id="bar"><path d="M419.999,-0.003l-0,539.995" style="fill:none;stroke:#a3a3a3;stroke-width:1.19px;"/></g><g id="bar1" serif:id="bar"><path d="M739.998,-0.003l-0,539.995" style="fill:none;stroke:#a3a3a3;stroke-width:1.19px;"/></g><g id="bar2" serif:id="bar"><path d="M1060,-0.003l0,539.995" style="fill:none;stroke:#a3a3a3;stroke-width:1.19px;"/></g></g><g id="beat"><g id="path5121"><path d="M180,39.996l-0,499.994" style="fill:none;stroke:#b3b3b3;stroke-width:1.04px;"/></g><g id="path5123"><path d="M259.999,39.996l0,499.995" style="fill:none;stroke:#b3b3b3;stroke-width:1.13px;"/></g><g id="path5125"><path d="M339.999,39.996l0,499.995" style="fill:none;stroke:#b3b3b3;stroke-width:1.13px;"/></g><g id="path5127"><path d="M419.999,39.996l-0,499.995" style="fill:none;stroke:#b3b3b3;stroke-width:1.13px;"/></g><g id="path5129"><path d="M499.999,39.996l-0,499.994" style="fill:none;stroke:#b3b3b3;stroke-width:1.04px;"/></g><g id="path5131"><path d="M579.998,39.996l0,499.995" style="fill:none;stroke:#b3b3b3;stroke-width:1.13px;"/></g><g id="path5133"><path d="M659.998,39.996l0,499.995" style="fill:none;stroke:#b3b3b3;stroke-width:1.13px;"/></g><g id="path5135"><path d="M739.998,39.996l-0,499.995" style="fill:none;stroke:#b3b3b3;stroke-width:1.13px;"/></g><g id="path5137"><path d="M819.998,39.996l-0,499.994" style="fill:none;stroke:#b3b3b3;stroke-width:1.04px;"/></g><g id="path5141"><path d="M899.998,39.996l-0,499.995" style="fill:none;stroke:#b3b3b3;stroke-width:1.13px;"/></g><g id="path5143"><path d="M979.997,39.996l0,499.995" style="fill:none;stroke:#b3b3b3;stroke-width:1.13px;"/></g><g id="path51431" serif:id="path5143"><path d="M1140,39.996l-0,499.995" style="fill:none;stroke:#b3b3b3;stroke-width:1.13px;"/></g><g id="path51432" serif:id="path5143"><path d="M1220,39.996l-0,499.995" style="fill:none;stroke:#b3b3b3;stroke-width:1.13px;"/></g><g id="path51433" serif:id="path5143"><path d="M1300,39.996l0,499.995" style="fill:none;stroke:#b3b3b3;stroke-width:1.13px;"/></g><g id="path51434" serif:id="path5143"><path d="M1380,39.996l0,499.995" style="fill:none;stroke:#b3b3b3;stroke-width:1.13px;"/></g><g id="path51435" serif:id="path5143"><path d="M1460,39.996l-0,499.995" style="fill:none;stroke:#b3b3b3;stroke-width:1.13px;"/></g><g id="path51436" serif:id="path5143"><path d="M1540,39.996l-0,499.995" style="fill:none;stroke:#b3b3b3;stroke-width:1.13px;"/></g><g id="path51437" serif:id="path5143"><path d="M1620,39.996l-0,499.995" style="fill:none;stroke:#b3b3b3;stroke-width:1.13px;"/></g><g id="path51438" serif:id="path5143"><path d="M1700,39.996l0,499.995" style="fill:none;stroke:#b3b3b3;stroke-width:1.13px;"/></g><g id="path5145"><path d="M1060,39.996l0,499.995" style="fill:none;stroke:#b3b3b3;stroke-width:1.13px;"/></g></g><g id="横ライン"><g id="path5180"><path d="M-0,159.996l1699.99,0" style="fill:none;stroke:#b3b3b3;stroke-width:1.32px;"/></g><g id="path51801" serif:id="path5180"><path d="M-0,139.996l1699.99,0" style="fill:none;stroke:#b3b3b3;stroke-width:1.32px;"/></g><g id="path51802" serif:id="path5180"><path d="M-0,119.997l1699.99,-0" style="fill:none;stroke:#b3b3b3;stroke-width:1.32px;"/></g><g id="path51803" serif:id="path5180"><path d="M-0,99.997l1699.99,-0" style="fill:none;stroke:#b3b3b3;stroke-width:1.32px;"/></g><g id="path51804" serif:id="path5180"><path d="M-0,79.997l1699.99,-0" style="fill:none;stroke:#b3b3b3;stroke-width:1.32px;"/></g><g id="path51805" serif:id="path5180"><path d="M-0,59.997l1699.99,-0" style="fill:none;stroke:#b3b3b3;stroke-width:1.32px;"/></g><g id="path5182"><path d="M-0,179.996l1699.99,0" style="fill:none;stroke:#b3b3b3;stroke-width:1.32px;"/></g><g id="path5184"><path d="M-0,199.996l1699.99,0" style="fill:none;stroke:#b3b3b3;stroke-width:1.32px;"/></g><g id="path5186"><path d="M-0,219.996l1699.99,0" style="fill:none;stroke:#b3b3b3;stroke-width:1.32px;"/></g><g id="path5188"><path d="M-0,239.996l1699.99,0" style="fill:none;stroke:#b3b3b3;stroke-width:1.32px;"/></g><g id="path5190"><path d="M-0,259.996l1699.99,-0" style="fill:none;stroke:#b3b3b3;stroke-width:1.32px;"/></g><g id="path5192"><path d="M-0,279.996l1699.99,-0" style="fill:none;stroke:#b3b3b3;stroke-width:1.32px;"/></g><g id="path5194"><path d="M-0,299.996l1699.99,-0" style="fill:none;stroke:#b3b3b3;stroke-width:1.32px;"/></g><g id="path5196"><path d="M-0,319.996l1699.99,-0" style="fill:none;stroke:#b3b3b3;stroke-width:1.32px;"/></g><g id="path5198"><path d="M-0,339.996l1699.99,-0" style="fill:none;stroke:#b3b3b3;stroke-width:1.32px;"/></g><g id="path5200"><path d="M-0,359.996l1699.99,-0" style="fill:none;stroke:#b3b3b3;stroke-width:1.32px;"/></g><g id="path5202"><path d="M-0,379.995l1699.99,0" style="fill:none;stroke:#b3b3b3;stroke-width:1.32px;"/></g><g id="path5204"><path d="M-0,399.995l1699.99,0" style="fill:none;stroke:#b3b3b3;stroke-width:1.32px;"/></g><g id="path51961" serif:id="path5196"><path d="M-0,319.996l1699.99,-0" style="fill:none;stroke:#b3b3b3;stroke-width:1.32px;"/></g><g id="path51981" serif:id="path5198"><path d="M-0,339.996l1699.99,-0" style="fill:none;stroke:#b3b3b3;stroke-width:1.32px;"/></g><g id="path52001" serif:id="path5200"><path d="M-0,359.996l1699.99,-0" style="fill:none;stroke:#b3b3b3;stroke-width:1.32px;"/></g><g id="path52021" serif:id="path5202"><path d="M-0,379.995l1699.99,0" style="fill:none;stroke:#b3b3b3;stroke-width:1.32px;"/></g><g id="path52041" serif:id="path5204"><path d="M-0,399.995l1699.99,0" style="fill:none;stroke:#b3b3b3;stroke-width:1.32px;"/></g><g id="path5206"><path d="M-0,419.995l1699.99,0" style="fill:none;stroke:#b3b3b3;stroke-width:1.32px;"/></g><g id="path5208"><path d="M-0,439.995l1699.99,0" style="fill:none;stroke:#b3b3b3;stroke-width:1.32px;"/></g></g><g id="rect5298"><rect x="0" y="159.996" width="50" height="20" style="fill:#4d4d4d;"/></g><g id="rect52981" serif:id="rect5298"><rect x="0" y="119.997" width="50" height="20" style="fill:#4d4d4d;"/></g><g id="rect52982" serif:id="rect5298"><rect x="0" y="79.997" width="50" height="20" style="fill:#4d4d4d;"/></g><g id="rect5300"><rect x="0" y="219.996" width="50" height="20" style="fill:#4d4d4d;"/></g><g id="rect5302"><rect x="0" y="259.996" width="50" height="20" style="fill:#4d4d4d;"/></g><g id="rect5304"><rect x="0" y="319.996" width="50" height="20" style="fill:#4d4d4d;"/></g><g id="rect5306"><rect x="0" y="359.996" width="50" height="20" style="fill:#4d4d4d;"/></g><g id="rect5308"><rect x="0" y="399.995" width="50" height="20" style="fill:#4d4d4d;"/></g><g id="rect53041" serif:id="rect5304"><rect x="0" y="319.996" width="50" height="20" style="fill:#4d4d4d;"/></g><g id="rect53061" serif:id="rect5306"><rect x="0" y="359.996" width="50" height="20" style="fill:#4d4d4d;"/></g><g id="rect53081" serif:id="rect5308"><rect x="0" y="399.995" width="50" height="20" style="fill:#4d4d4d;"/></g></g><g><g id="grid-lines-2" serif:id="grid lines 2"><g id="点線"><g opacity="0.5"><path id="path5221" d="M120,40l-0,500.001" style="fill:none;stroke:#b3b3b3;stroke-width:1.13px;stroke-dasharray:5.66,4.53,0,0;"/><path id="path5223" d="M140,40l-0,500.001" style="fill:none;stroke:#b3b3b3;stroke-width:1.13px;stroke-dasharray:5.66,4.53,0,0;"/><path id="path5225" d="M160,40l-0,500.001" style="fill:none;stroke:#b3b3b3;stroke-width:1.13px;stroke-dasharray:5.66,4.53,0,0;"/><path id="path5227" d="M199.999,40l0,500.001" style="fill:none;stroke:#b3b3b3;stroke-width:1.13px;stroke-dasharray:5.66,4.53,0,0;"/><path id="path5229" d="M219.999,40l0,500.001" style="fill:none;stroke:#b3b3b3;stroke-width:1.13px;stroke-dasharray:5.66,4.53,0,0;"/><path id="path5231" d="M239.999,40l0,500.001" style="fill:none;stroke:#b3b3b3;stroke-width:1.13px;stroke-dasharray:5.66,4.53,0,0;"/><path id="path5233" d="M279.999,40l0,500.001" style="fill:none;stroke:#b3b3b3;stroke-width:1.13px;stroke-dasharray:5.66,4.53,0,0;"/><path id="path5235" d="M299.999,40l0,500.001" style="fill:none;stroke:#b3b3b3;stroke-width:1.13px;stroke-dasharray:5.66,4.53,0,0;"/><path id="path5237" d="M319.999,40l0,500.001" style="fill:none;stroke:#b3b3b3;stroke-width:1.13px;stroke-dasharray:5.66,4.53,0,0;"/><path id="path5239" d="M359.999,40l0,500.001" style="fill:none;stroke:#b3b3b3;stroke-width:1.13px;stroke-dasharray:5.66,4.53,0,0;"/><path id="path5241" d="M379.999,40l-0,500.001" style="fill:none;stroke:#b3b3b3;stroke-width:1.13px;stroke-dasharray:5.66,4.53,0,0;"/><path id="path5243" d="M399.999,40l-0,500.001" style="fill:none;stroke:#b3b3b3;stroke-width:1.13px;stroke-dasharray:5.66,4.53,0,0;"/><path id="path5245" d="M439.999,40l-0,500.001" style="fill:none;stroke:#b3b3b3;stroke-width:1.13px;stroke-dasharray:5.66,4.53,0,0;"/><path id="path5247" d="M459.999,40l-0,500.001" style="fill:none;stroke:#b3b3b3;stroke-width:1.13px;stroke-dasharray:5.66,4.53,0,0;"/><path id="path5249" d="M479.999,40l-0,500.001" style="fill:none;stroke:#b3b3b3;stroke-width:1.13px;stroke-dasharray:5.66,4.53,0,0;"/><path id="path5251" d="M519.999,40l-0,500.001" style="fill:none;stroke:#b3b3b3;stroke-width:1.13px;stroke-dasharray:5.66,4.53,0,0;"/><path id="path5253" d="M539.999,40l-0,500.001" style="fill:none;stroke:#b3b3b3;stroke-width:1.13px;stroke-dasharray:5.66,4.53,0,0;"/><path id="path5255" d="M559.998,40l0,500.001" style="fill:none;stroke:#b3b3b3;stroke-width:1.13px;stroke-dasharray:5.66,4.53,0,0;"/><path id="path5257" d="M599.998,40l0,500.001" style="fill:none;stroke:#b3b3b3;stroke-width:1.13px;stroke-dasharray:5.66,4.53,0,0;"/><path id="path5259" d="M619.998,40l0,500.001" style="fill:none;stroke:#b3b3b3;stroke-width:1.13px;stroke-dasharray:5.66,4.53,0,0;"/><path id="path5261" d="M639.998,40l0,500.001" style="fill:none;stroke:#b3b3b3;stroke-width:1.13px;stroke-dasharray:5.66,4.53,0,0;"/><path id="path5263" d="M679.998,40l0,500.001" style="fill:none;stroke:#b3b3b3;stroke-width:1.13px;stroke-dasharray:5.66,4.53,0,0;"/><path id="path5265" d="M699.998,40l0,500.001" style="fill:none;stroke:#b3b3b3;stroke-width:1.13px;stroke-dasharray:5.66,4.53,0,0;"/><path id="path5267" d="M719.998,40l0,500.001" style="fill:none;stroke:#b3b3b3;stroke-width:1.13px;stroke-dasharray:5.66,4.53,0,0;"/><path id="path5269" d="M759.998,40l-0,500.001" style="fill:none;stroke:#b3b3b3;stroke-width:1.13px;stroke-dasharray:5.66,4.53,0,0;"/><path id="path5271" d="M779.998,40l-0,500.001" style="fill:none;stroke:#b3b3b3;stroke-width:1.13px;stroke-dasharray:5.66,4.53,0,0;"/><path id="path5273" d="M799.998,40l-0,500.001" style="fill:none;stroke:#b3b3b3;stroke-width:1.13px;stroke-dasharray:5.66,4.53,0,0;"/><path id="path5275" d="M839.998,40l-0,500.001" style="fill:none;stroke:#b3b3b3;stroke-width:1.13px;stroke-dasharray:5.66,4.53,0,0;"/><path id="path5277" d="M859.998,40l-0,500.001" style="fill:none;stroke:#b3b3b3;stroke-width:1.13px;stroke-dasharray:5.66,4.53,0,0;"/><path id="path5279" d="M879.998,40l-0,500.001" style="fill:none;stroke:#b3b3b3;stroke-width:1.13px;stroke-dasharray:5.66,4.53,0,0;"/><path id="path5281" d="M919.997,40l0,500.001" style="fill:none;stroke:#b3b3b3;stroke-width:1.13px;stroke-dasharray:5.66,4.53,0,0;"/><path id="path5283" d="M939.997,40l0,500.001" style="fill:none;stroke:#b3b3b3;stroke-width:1.13px;stroke-dasharray:5.66,4.53,0,0;"/><path id="path5285" d="M959.997,40l0,500.001" style="fill:none;stroke:#b3b3b3;stroke-width:1.13px;stroke-dasharray:5.66,4.53,0,0;"/><path id="path5287" d="M999.997,40l0,500.001" style="fill:none;stroke:#b3b3b3;stroke-width:1.13px;stroke-dasharray:5.66,4.53,0,0;"/><path id="path5289" d="M1020,40l0,500.001" style="fill:none;stroke:#b3b3b3;stroke-width:1.13px;stroke-dasharray:5.66,4.53,0,0;"/><path id="path5291" d="M1040,40l0,500.001" style="fill:none;stroke:#b3b3b3;stroke-width:1.13px;stroke-dasharray:5.66,4.53,0,0;"/><g id="path52691" serif:id="path5269"><path d="M1080,40l0,500.001" style="fill:none;stroke:#b3b3b3;stroke-width:1.13px;stroke-dasharray:5.66,4.53,0,0;"/></g><g id="path52711" serif:id="path5271"><path d="M1100,40l-0,500.001" style="fill:none;stroke:#b3b3b3;stroke-width:1.13px;stroke-dasharray:5.66,4.53,0,0;"/></g><g id="path52731" serif:id="path5273"><path d="M1120,40l-0,500.001" style="fill:none;stroke:#b3b3b3;stroke-width:1.13px;stroke-dasharray:5.66,4.53,0,0;"/></g><g id="path52751" serif:id="path5275"><path d="M1160,40l-0,500.001" style="fill:none;stroke:#b3b3b3;stroke-width:1.13px;stroke-dasharray:5.66,4.53,0,0;"/></g><g id="path52771" serif:id="path5277"><path d="M1180,40l-0,500.001" style="fill:none;stroke:#b3b3b3;stroke-width:1.13px;stroke-dasharray:5.66,4.53,0,0;"/></g><g id="path52791" serif:id="path5279"><path d="M1200,40l-0,500.001" style="fill:none;stroke:#b3b3b3;stroke-width:1.13px;stroke-dasharray:5.66,4.53,0,0;"/></g><g id="path52811" serif:id="path5281"><path d="M1240,40l-0,500.001" style="fill:none;stroke:#b3b3b3;stroke-width:1.13px;stroke-dasharray:5.66,4.53,0,0;"/></g><g id="path52831" serif:id="path5283"><path d="M1260,40l-0,500.001" style="fill:none;stroke:#b3b3b3;stroke-width:1.13px;stroke-dasharray:5.66,4.53,0,0;"/></g><g id="path52851" serif:id="path5285"><path d="M1280,40l0,500.001" style="fill:none;stroke:#b3b3b3;stroke-width:1.13px;stroke-dasharray:5.66,4.53,0,0;"/></g><g id="path52871" serif:id="path5287"><path d="M1320,40l0,500.001" style="fill:none;stroke:#b3b3b3;stroke-width:1.13px;stroke-dasharray:5.66,4.53,0,0;"/></g><g id="path52891" serif:id="path5289"><path d="M1340,40l0,500.001" style="fill:none;stroke:#b3b3b3;stroke-width:1.13px;stroke-dasharray:5.66,4.53,0,0;"/></g><g id="path52911" serif:id="path5291"><path d="M1360,40l0,500.001" style="fill:none;stroke:#b3b3b3;stroke-width:1.13px;stroke-dasharray:5.66,4.53,0,0;"/></g><g id="path52692" serif:id="path5269"><path d="M1400,40l0,500.001" style="fill:none;stroke:#b3b3b3;stroke-width:1.13px;stroke-dasharray:5.66,4.53,0,0;"/></g><g id="path52712" serif:id="path5271"><path d="M1420,40l0,500.001" style="fill:none;stroke:#b3b3b3;stroke-width:1.13px;stroke-dasharray:5.66,4.53,0,0;"/></g><g id="path52732" serif:id="path5273"><path d="M1440,40l0,500.001" style="fill:none;stroke:#b3b3b3;stroke-width:1.13px;stroke-dasharray:5.66,4.53,0,0;"/></g><g id="path52752" serif:id="path5275"><path d="M1480,40l-0,500.001" style="fill:none;stroke:#b3b3b3;stroke-width:1.13px;stroke-dasharray:5.66,4.53,0,0;"/></g><g id="path52772" serif:id="path5277"><path d="M1500,40l-0,500.001" style="fill:none;stroke:#b3b3b3;stroke-width:1.13px;stroke-dasharray:5.66,4.53,0,0;"/></g><g id="path52792" serif:id="path5279"><path d="M1520,40l-0,500.001" style="fill:none;stroke:#b3b3b3;stroke-width:1.13px;stroke-dasharray:5.66,4.53,0,0;"/></g><g id="path52812" serif:id="path5281"><path d="M1560,40l-0,500.001" style="fill:none;stroke:#b3b3b3;stroke-width:1.13px;stroke-dasharray:5.66,4.53,0,0;"/></g><g id="path52832" serif:id="path5283"><path d="M1580,40l-0,500.001" style="fill:none;stroke:#b3b3b3;stroke-width:1.13px;stroke-dasharray:5.66,4.53,0,0;"/></g><g id="path52852" serif:id="path5285"><path d="M1600,40l-0,500.001" style="fill:none;stroke:#b3b3b3;stroke-width:1.13px;stroke-dasharray:5.66,4.53,0,0;"/></g><g id="path52872" serif:id="path5287"><path d="M1640,40l0,500.001" style="fill:none;stroke:#b3b3b3;stroke-width:1.13px;stroke-dasharray:5.66,4.53,0,0;"/></g><g id="path52892" serif:id="path5289"><path d="M1660,40l0,500.001" style="fill:none;stroke:#b3b3b3;stroke-width:1.13px;stroke-dasharray:5.66,4.53,0,0;"/></g><g id="path52912" serif:id="path5291"><path d="M1680,40l0,500.001" style="fill:none;stroke:#b3b3b3;stroke-width:1.13px;stroke-dasharray:5.66,4.53,0,0;"/></g></g></g></g></g><g id="path5160"><path d="M0,0l0,358.519" style="fill:none;stroke:#666;stroke-width:1.79px;"/></g><g><rect x="100" y="279.998" width="26" height="20" style="fill:#f1ab31;stroke:#b58430;stroke-width:2px;stroke-linecap:round;stroke-linejoin:round;stroke-miterlimit:1.5;"/></g><g><rect x="127" y="299.998" width="26" height="20" style="fill:#f1ab31;stroke:#b58430;stroke-width:2px;stroke-linecap:round;stroke-linejoin:round;stroke-miterlimit:1.5;"/></g><g><rect x="153" y="279.998" width="26" height="20" style="fill:#f1ab31;stroke:#b58430;stroke-width:2px;stroke-linecap:round;stroke-linejoin:round;stroke-miterlimit:1.5;"/></g><g><rect x="179.999" y="419.999" width="40" height="20" style="fill:#f1ab31;stroke:#b58430;stroke-width:2px;stroke-linecap:round;stroke-linejoin:round;stroke-miterlimit:1.5;"/></g><g><rect x="219.999" y="379.999" width="40" height="20" style="fill:#f1ab31;stroke:#b58430;stroke-width:2px;stroke-linecap:round;stroke-linejoin:round;stroke-miterlimit:1.5;"/></g><g><rect x="260" y="339.999" width="40" height="20" style="fill:#f1ab31;stroke:#b58430;stroke-width:2px;stroke-linecap:round;stroke-linejoin:round;stroke-miterlimit:1.5;"/></g><g><rect x="299.999" y="279.998" width="40" height="20" style="fill:#f1ab31;stroke:#b58430;stroke-width:2px;stroke-linecap:round;stroke-linejoin:round;stroke-miterlimit:1.5;"/></g><g><rect x="339.999" y="199.998" width="40" height="20" style="fill:#f1ab31;stroke:#b58430;stroke-width:2px;stroke-linecap:round;stroke-linejoin:round;stroke-miterlimit:1.5;"/></g><g><rect x="379.999" y="279.998" width="40" height="20" style="fill:#f1ab31;stroke:#b58430;stroke-width:2px;stroke-linecap:round;stroke-linejoin:round;stroke-miterlimit:1.5;"/></g><g><rect x="419.999" y="199.998" width="60" height="20" style="fill:#f1ab31;stroke:#b58430;stroke-width:2px;stroke-linecap:round;stroke-linejoin:round;stroke-miterlimit:1.5;"/></g><g><rect x="479.999" y="239.998" width="20" height="20" style="fill:#f1ab31;stroke:#b58430;stroke-width:2px;stroke-linecap:round;stroke-linejoin:round;stroke-miterlimit:1.5;"/></g><g><rect x="499.999" y="239.998" width="160" height="20" style="fill:#f1ab31;stroke:#b58430;stroke-width:1.99px;stroke-linecap:round;stroke-linejoin:round;stroke-miterlimit:1.5;"/></g><g><rect x="739.998" y="299.998" width="26" height="20" style="fill:#f1ab31;stroke:#b58430;stroke-width:2px;stroke-linecap:round;stroke-linejoin:round;stroke-miterlimit:1.5;"/></g><g><rect x="766.998" y="319.999" width="26" height="20" style="fill:#f1ab31;stroke:#b58430;stroke-width:2px;stroke-linecap:round;stroke-linejoin:round;stroke-miterlimit:1.5;"/></g><g><rect x="792.998" y="299.998" width="26" height="20" style="fill:#f1ab31;stroke:#b58430;stroke-width:2px;stroke-linecap:round;stroke-linejoin:round;stroke-miterlimit:1.5;"/></g><g><rect x="819.997" y="379.999" width="40" height="20" style="fill:#f1ab31;stroke:#b58430;stroke-width:2px;stroke-linecap:round;stroke-linejoin:round;stroke-miterlimit:1.5;"/></g><g><rect x="859.998" y="339.999" width="40" height="20" style="fill:#f1ab31;stroke:#b58430;stroke-width:2px;stroke-linecap:round;stroke-linejoin:round;stroke-miterlimit:1.5;"/></g><g><rect x="899.998" y="299.998" width="40" height="20" style="fill:#f1ab31;stroke:#b58430;stroke-width:2px;stroke-linecap:round;stroke-linejoin:round;stroke-miterlimit:1.5;"/></g><g><rect x="939.998" y="239.998" width="40" height="20" style="fill:#f1ab31;stroke:#b58430;stroke-width:2px;stroke-linecap:round;stroke-linejoin:round;stroke-miterlimit:1.5;"/></g><g><rect x="979.997" y="179.998" width="40" height="20" style="fill:#f1ab31;stroke:#b58430;stroke-width:2px;stroke-linecap:round;stroke-linejoin:round;stroke-miterlimit:1.5;"/></g><g><rect x="1020" y="239.998" width="40" height="20" style="fill:#f1ab31;stroke:#b58430;stroke-width:2px;stroke-linecap:round;stroke-linejoin:round;stroke-miterlimit:1.5;"/></g><g><rect x="1060" y="179.998" width="60" height="20" style="fill:#f1ab31;stroke:#b58430;stroke-width:2px;stroke-linecap:round;stroke-linejoin:round;stroke-miterlimit:1.5;"/></g><g><rect x="1300" y="179.998" width="40" height="20" style="fill:#f1ab31;stroke:#b58430;stroke-width:2px;stroke-linecap:round;stroke-linejoin:round;stroke-miterlimit:1.5;"/></g><g><g transform="matrix(0.999997,0,0,0.999996,1300.25,172.649)"><text x="0px" y="0px" style="font-family:'ArialUnicodeMS', 'Arial Unicode MS', sans-serif;font-size:24px;fill:#0e1517;">そ</text><text x="24px" y="0px" style="font-family:'ArialUnicodeMS', 'Arial Unicode MS', sans-serif;font-size:14px;fill:#0e1517;">so</text></g></g><g><g transform="matrix(0.999997,0,0,0.999996,1340.25,132.65)"><text x="0px" y="0px" style="font-family:'ArialUnicodeMS', 'Arial Unicode MS', sans-serif;font-size:24px;fill:#0e1517;">ん</text><text x="24px" y="0px" style="font-family:'ArialUnicodeMS', 'Arial Unicode MS', sans-serif;font-size:14px;fill:#0e1517;">n</text></g></g><g><g transform="matrix(0.999997,0,0,0.999996,1383.25,132.65)"><text x="0px" y="0px" style="font-family:'ArialUnicodeMS', 'Arial Unicode MS', sans-serif;font-size:24px;fill:#0e1517;">な</text><text x="24px" y="0px" style="font-family:'ArialUnicodeMS', 'Arial Unicode MS', sans-serif;font-size:14px;fill:#0e1517;">na</text></g></g><g><rect x="1460" y="179.998" width="80" height="20" style="fill:#f1ab31;stroke:#b58430;stroke-width:2px;stroke-linecap:round;stroke-linejoin:round;stroke-miterlimit:1.5;"/></g><g><rect x="1540" y="339.999" width="40" height="20" style="fill:#f1ab31;stroke:#b58430;stroke-width:2px;stroke-linecap:round;stroke-linejoin:round;stroke-miterlimit:1.5;"/></g><g><rect x="1580" y="279.998" width="80" height="20" style="fill:#f1ab31;stroke:#b58430;stroke-width:2px;stroke-linecap:round;stroke-linejoin:round;stroke-miterlimit:1.5;"/></g><g><rect x="1340" y="139.998" width="40" height="20" style="fill:#f62231;stroke:#b58430;stroke-width:2px;stroke-linecap:round;stroke-linejoin:round;stroke-miterlimit:1.5;"/></g><g><rect x="1380" y="139.998" width="80" height="20" style="fill:#f62231;stroke:#b58430;stroke-width:2px;stroke-linecap:round;stroke-linejoin:round;stroke-miterlimit:1.5;"/></g><g><rect x="1120" y="199.998" width="20" height="20" style="fill:#f1ab31;stroke:#b58430;stroke-width:2px;stroke-linecap:round;stroke-linejoin:round;stroke-miterlimit:1.5;"/></g><g><rect x="1140" y="199.998" width="120" height="20" style="fill:#f1ab31;stroke:#b58430;stroke-width:1.99px;stroke-linecap:round;stroke-linejoin:round;stroke-miterlimit:1.5;"/></g></g></g></g></svg>