<?xml version="1.0" encoding="UTF-8" standalone="no"?><!DOCTYPE svg PUBLIC "-//W3C//DTD SVG 1.1//EN" "http://www.w3.org/Graphics/SVG/1.1/DTD/svg11.dtd"><svg width="961.0px" height="264.0px" viewBox="0 0 961 264" version="1.1" xmlns="http://www.w3.org/2000/svg" xmlns:xlink="http://www.w3.org/1999/xlink" xml:space="preserve" xmlns:serif="http://www.serif.com/" style="fill-rule:evenodd;clip-rule:evenodd;stroke-linejoin:round;stroke-miterlimit:2;"><g><g id="R1.-16beat"><rect x="0" y="0" width="961" height="264" style="fill:none;"/><g><g id="barcell"><rect id="barcell1" x="149" y="20" width="396" height="36" style="fill:#ebebeb;"/></g></g><g><g id="barcell2"><rect id="barcell3" x="549" y="20" width="396" height="36" style="fill:#ebebeb;"/></g></g><g><g id="beatcell"><rect id="beatcell1" x="149" y="60" width="96" height="36" style="fill:#ebebeb;"/></g></g><g><g id="beatcell2"><rect id="beatcell3" x="249" y="60" width="96" height="36" style="fill:#ebebeb;"/></g></g><g><g id="beatcell4"><rect id="beatcell5" x="348.999" y="60" width="96" height="36" style="fill:#ebebeb;"/></g></g><g><g id="beatcell6"><rect id="beatcell7" x="449" y="60" width="96" height="36" style="fill:#ebebeb;"/></g></g><g id="_16beat-cell"><g><g id="cell16"><g id="cell"><rect id="cell1" x="172.999" y="100" width="22" height="46" style="fill:#f2f2f2;"/></g></g></g><g><g id="cell161"><g id="cell2"><rect id="cell3" x="149" y="100" width="22" height="46" style="fill:#f2f2f2;"/></g></g></g><g><g id="cell162"><g id="cell4"><rect id="cell5" x="223" y="100" width="22" height="46" style="fill:#f2f2f2;"/></g></g></g><g><g id="cell163"><g id="cell6"><rect id="cell7" x="199" y="100" width="22" height="46" style="fill:#f2f2f2;"/></g></g></g><g><g id="cell164"><g id="cell8"><rect id="cell9" x="273" y="100" width="22" height="46" style="fill:#f2f2f2;"/></g></g></g><g><g id="cell165"><g id="cell10"><rect id="cell11" x="249" y="100" width="22" height="46" style="fill:#f2f2f2;"/></g></g></g><g><g id="cell166"><g id="cell12"><rect id="cell13" x="322.999" y="100" width="22" height="46" style="fill:#f2f2f2;"/></g></g></g><g><g id="cell167"><g id="cell14"><rect id="cell15" x="299" y="100" width="22" height="46" style="fill:#f2f2f2;"/></g></g></g><g><g id="cell168"><g id="cell17"><rect id="cell18" x="373" y="100" width="22" height="46" style="fill:#f2f2f2;"/></g></g></g><g><g id="cell169"><g id="cell19"><rect id="cell20" x="349.001" y="100" width="22" height="46" style="fill:#f2f2f2;"/></g></g></g><g><g id="cell1610"><g id="cell21"><rect id="cell22" x="423" y="100" width="22" height="46" style="fill:#f2f2f2;"/></g></g></g><g><g id="cell1611"><g id="cell23"><rect id="cell24" x="399" y="100" width="22" height="46" style="fill:#f2f2f2;"/></g></g></g><g><g id="cell1612"><g id="cell25"><rect id="cell26" x="473" y="100" width="22" height="46" style="fill:#f2f2f2;"/></g></g></g><g><g id="cell1613"><g id="cell27"><rect id="cell28" x="449" y="100" width="22" height="46" style="fill:#f2f2f2;"/></g></g></g><g><g id="cell1614"><g id="cell29"><rect id="cell30" x="523" y="100" width="22" height="46" style="fill:#f2f2f2;"/></g></g></g><g><g id="cell1615"><g id="cell31"><rect id="cell32" x="498.999" y="100" width="22" height="46" style="fill:#f2f2f2;"/></g></g></g></g><g id="_16beat-cell1"><g><g id="cell1616"><g id="cell33"><rect id="cell34" x="572.999" y="100" width="22" height="46" style="fill:#f2f2f2;"/></g></g></g><g><g id="cell1617"><g id="cell35"><rect id="cell36" x="548.999" y="100" width="22" height="46" style="fill:#f2f2f2;"/></g></g></g><g><g id="cell1618"><g id="cell37"><rect id="cell38" x="623" y="100" width="22" height="46" style="fill:#f2f2f2;"/></g></g></g><g><g id="cell1619"><g id="cell39"><rect id="cell40" x="599" y="100" width="22" height="46" style="fill:#f2f2f2;"/></g></g></g><g><g id="cell1620"><g id="cell41"><rect id="cell42" x="672.999" y="100" width="22" height="46" style="fill:#f2f2f2;"/></g></g></g><g><g id="cell1621"><g id="cell43"><rect id="cell44" x="649" y="100" width="22" height="46" style="fill:#f2f2f2;"/></g></g></g><g><g id="cell1622"><g id="cell45"><rect id="cell46" x="722.999" y="100" width="22" height="46" style="fill:#f2f2f2;"/></g></g></g><g><g id="cell1623"><g id="cell47"><rect id="cell48" x="698.999" y="100" width="22" height="46" style="fill:#f2f2f2;"/></g></g></g><g><g id="cell1624"><g id="cell49"><rect id="cell50" x="773" y="100" width="22" height="46" style="fill:#f2f2f2;"/></g></g></g><g><g id="cell1625"><g id="cell51"><rect id="cell52" x="749" y="100" width="22" height="46" style="fill:#f2f2f2;"/></g></g></g><g><g id="cell1626"><g id="cell53"><rect id="cell54" x="822.999" y="100" width="22" height="46" style="fill:#f2f2f2;"/></g></g></g><g><g id="cell1627"><g id="cell55"><rect id="cell56" x="799" y="100" width="22" height="46" style="fill:#f2f2f2;"/></g></g></g><g><g id="cell1628"><g id="cell57"><rect id="cell58" x="872.999" y="100" width="22" height="46" style="fill:#f2f2f2;"/></g></g></g><g><g id="cell1629"><g id="cell59"><rect id="cell60" x="848.999" y="100" width="22" height="46" style="fill:#f2f2f2;"/></g></g></g><g><g id="cell1630"><g id="cell61"><rect id="cell62" x="923" y="100" width="22" height="46" style="fill:#f2f2f2;"/></g></g></g><g><g id="cell1631"><g id="cell63"><rect id="cell64" x="898.999" y="100" width="22" height="46" style="fill:#f2f2f2;"/></g></g></g></g><g><g><g id="cell65"><rect id="cell66" x="149" y="150" width="46" height="46" style="fill:#f2f2f2;"/></g></g><g><g id="cell67"><rect id="cell68" x="199" y="150" width="46" height="46" style="fill:#f2f2f2;"/></g></g><g><g id="cell69"><rect id="cell70" x="249" y="150" width="46" height="46" style="fill:#f2f2f2;"/></g></g><g><g id="cell71"><rect id="cell72" x="299" y="150" width="46" height="46" style="fill:#f2f2f2;"/></g></g><g><g id="cell73"><rect id="cell74" x="349" y="150" width="46" height="46" style="fill:#f2f2f2;"/></g></g><g><g id="cell75"><rect id="cell76" x="399" y="150" width="46" height="46" style="fill:#f2f2f2;"/></g></g><g><g id="cell77"><rect id="cell78" x="449" y="150" width="46" height="46" style="fill:#f2f2f2;"/></g></g><g><g id="cell79"><rect id="cell80" x="499" y="150" width="46" height="46" style="fill:#f2f2f2;"/></g></g></g><g><g><g id="cell81"><rect id="cell82" x="149" y="200" width="46" height="46" style="fill:#f2f2f2;"/></g></g><g><g id="cell83"><rect id="cell84" x="199" y="200" width="46" height="46" style="fill:#f2f2f2;"/></g></g><g><g id="cell85"><rect id="cell86" x="249" y="200" width="46" height="46" style="fill:#f2f2f2;"/></g></g><g><g id="cell87"><rect id="cell88" x="299" y="200" width="46" height="46" style="fill:#f2f2f2;"/></g></g><g><g id="cell89"><rect id="cell90" x="349" y="200" width="46" height="46" style="fill:#f2f2f2;"/></g></g><g><g id="cell91"><rect id="cell92" x="399" y="200" width="46" height="46" style="fill:#f2f2f2;"/></g></g><g><g id="cell93"><rect id="cell94" x="449" y="200" width="46" height="46" style="fill:#f2f2f2;"/></g></g><g><g id="cell95"><rect id="cell96" x="499" y="200" width="46" height="46" style="fill:#f2f2f2;"/></g></g></g><g><g id="TH"><rect id="TH1" x="19" y="20" width="125" height="36" style="fill:#dcdcdc;"/></g></g><g><g id="TH2"><rect id="TH3" x="19" y="60" width="125" height="36" style="fill:#dcdcdc;"/></g></g><g><g id="TH-Tall"><rect id="TH4" x="19" y="100" width="125" height="46" style="fill:#dcdcdc;"/></g></g><g><g id="TH-Tall1"><rect id="TH5" x="19" y="150" width="125" height="46" style="fill:#dcdcdc;"/></g></g><g><g id="TH-Tall2"><rect id="TH6" x="19" y="200" width="125" height="46" style="fill:#dcdcdc;"/></g></g><g><g id="strong"><ellipse id="strong1" cx="172" cy="223" rx="14" ry="14" style="fill:#f1ab31;"/></g></g><g><g id="strong2"><ellipse id="strong3" cx="372" cy="223.742" rx="14" ry="14" style="fill:#f1ab31;"/></g></g><g><g id="weak"><ellipse id="strong4" cx="422" cy="223" rx="10" ry="10" style="fill:#f1ab31;"/></g></g><g><g id="strong5"><ellipse id="strong6" cx="272" cy="173" rx="14" ry="14" style="fill:#f1ab31;"/></g></g><g><g id="strong.-16"><path id="strong.-161" d="M159.999,108.986l7,14.008l-7,13.996l-7,-13.996l7,-14.008Z" style="fill:#f1ab31;"/></g></g><g><g id="weak.-16"><path id="weak.-161" d="M184,116l5,7.004l-5,6.998l-5,-6.998l5,-7.004Z" style="fill:#f1ab31;"/></g></g><g><g id="strong.-162"><path id="strong.-163" d="M209.999,108.986l7,14.008l-7,13.996l-7,-13.996l7,-14.008Z" style="fill:#f1ab31;"/></g></g><g><g id="weak.-162"><path id="weak.-163" d="M234,116l5,7.004l-5,6.998l-5,-6.998l5,-7.004Z" style="fill:#f1ab31;"/></g></g><g><g id="weak.-164"><path id="weak.-165" d="M284,116l5,7.004l-5,6.998l-5,-6.998l5,-7.004Z" style="fill:#f1ab31;"/></g></g><g><g id="strong.-164"><path id="strong.-165" d="M309.999,108.986l7,14.008l-7,13.996l-7,-13.996l7,-14.008Z" style="fill:#f1ab31;"/></g></g><g><g id="weak.-166"><path id="weak.-167" d="M334,116l5,7.004l-5,6.998l-5,-6.998l5,-7.004Z" style="fill:#f1ab31;"/></g></g><g><g id="strong.-166"><path id="strong.-167" d="M359.999,108.986l7,14.008l-7,13.996l-7,-13.996l7,-14.008Z" style="fill:#f1ab31;"/></g></g><g><g id="weak.-168"><path id="weak.-169" d="M384,116l5,7.004l-5,6.998l-5,-6.998l5,-7.004Z" style="fill:#f1ab31;"/></g></g><g><g id="strong.-168"><path id="strong.-169" d="M410,108.986l7,14.008l-7,13.996l-7,-13.996l7,-14.008Z" style="fill:#f1ab31;"/></g></g><g><g id="weak.-1610"><path id="weak.-1611" d="M434,116l5,7.004l-5,6.998l-5,-6.998l5,-7.004Z" style="fill:#f1ab31;"/></g></g><g><g id="weak.-1612"><path id="weak.-1613" d="M484,116l5,7.004l-5,6.998l-5,-6.998l5,-7.004Z" style="fill:#f1ab31;"/></g></g><g><g id="strong.-1610"><path id="strong.-1611" d="M509.999,108.986l7,14.008l-7,13.996l-7,-13.996l7,-14.008Z" style="fill:#f1ab31;"/></g></g><g><g id="weak.-1614"><path id="weak.-1615" d="M534,116l5,7.004l-5,6.998l-5,-6.998l5,-7.004Z" style="fill:#f1ab31;"/></g></g><g><g id="strong.-1612"><path id="strong.-1613" d="M560,108.986l7,14.008l-7,13.996l-7,-13.996l7,-14.008Z" style="fill:#f1ab31;"/></g></g><g><g id="weak.-1616"><path id="weak.-1617" d="M584,116l5,7.004l-5,6.998l-5,-6.998l5,-7.004Z" style="fill:#f1ab31;"/></g></g><g><g id="strong.-1614"><path id="strong.-1615" d="M610,108.986l7,14.008l-7,13.996l-7,-13.996l7,-14.008Z" style="fill:#f1ab31;"/></g></g><g><g id="weak.-1618"><path id="weak.-1619" d="M634,116l5,7.004l-5,6.998l-5,-6.998l5,-7.004Z" style="fill:#f1ab31;"/></g></g><g><g id="weak.-1620"><path id="weak.-1621" d="M684,116l5,7.004l-5,6.998l-5,-6.998l5,-7.004Z" style="fill:#f1ab31;"/></g></g><g><g id="strong.-1616"><path id="strong.-1617" d="M709.999,108.986l7,14.008l-7,13.996l-7,-13.996l7,-14.008Z" style="fill:#f1ab31;"/></g></g><g><g id="weak.-1622"><path id="weak.-1623" d="M734.001,116l5,7.004l-5,6.998l-5,-6.998l5,-7.004Z" style="fill:#f1ab31;"/></g></g><g><g id="strong.-1618"><path id="strong.-1619" d="M760,108.986l7,14.008l-7,13.996l-7,-13.996l7,-14.008Z" style="fill:#f1ab31;"/></g></g><g><g id="weak.-1624"><path id="weak.-1625" d="M784,116l5,7.004l-5,6.998l-5,-6.998l5,-7.004Z" style="fill:#f1ab31;"/></g></g><g><g id="strong.-1620"><path id="strong.-1621" d="M809.999,108.986l7,14.008l-7,13.996l-7,-13.996l7,-14.008Z" style="fill:#f1ab31;"/></g></g><g><g id="weak.-1626"><path id="weak.-1627" d="M834,116l5,7.004l-5,6.998l-5,-6.998l5,-7.004Z" style="fill:#f1ab31;"/></g></g><g><g id="weak.-1628"><path id="weak.-1629" d="M884.001,116l5,7.004l-5,6.998l-5,-6.998l5,-7.004Z" style="fill:#f1ab31;"/></g></g><g><g id="strong.-1622"><path id="strong.-1623" d="M910,108.986l7,14.008l-7,13.996l-7,-13.996l7,-14.008Z" style="fill:#f1ab31;"/></g></g><g><g id="weak.-1630"><path id="weak.-1631" d="M934,116l5,7.004l-5,6.998l-5,-6.998l5,-7.004Z" style="fill:#f1ab31;"/></g></g><g><g id="strong7"><ellipse id="strong8" cx="472" cy="174" rx="14" ry="14" style="fill:#f1ab31;"/></g></g><g><g><path d="M43.857,205c1.929,0.103 3.825,0.558 5.597,1.342c1.537,0.764 3.005,1.7 4.388,2.871c3.313,3.028 5.187,7.233 5.187,11.773c-0,5.564 -2.856,10.47 -7.175,13.341l0.407,1.627c0.112,0.451 -0.162,0.908 -0.614,1.021c-0.068,0.017 -0.137,0.026 -0.205,0.026c-0.378,-0 -0.721,-0.256 -0.817,-0.639l-0.287,-1.151c-2.197,1.136 -4.684,1.79 -7.324,1.79c-2.64,-0 -5.126,-0.654 -7.323,-1.79l-0.288,1.151c-0.096,0.383 -0.439,0.639 -0.816,0.639c-0.068,-0 -0.137,-0.009 -0.205,-0.026c-0.452,-0.113 -0.727,-0.57 -0.614,-1.021l0.406,-1.627c-4.318,-2.871 -7.174,-7.777 -7.174,-13.341c0,-4.54 1.874,-8.745 5.187,-11.773c1.359,-1.198 2.824,-2.148 4.387,-2.871c1.773,-0.784 3.668,-1.239 5.597,-1.342l1.686,0Zm12.957,15.986c0.006,7.064 -6.709,13.967 -13.8,13.8c-6.739,-0.158 -14.121,-6.876 -13.8,-13.8c0.345,-7.427 7.401,-14.144 13.8,-13.8c7.169,0.386 13.795,6.545 13.8,13.8Zm-10.007,-0.828c-2.091,-0 -3.793,1.701 -3.793,3.793c0,2.091 1.702,3.792 3.793,3.792c2.091,0 3.793,-1.701 3.793,-3.792c0,-2.092 -1.702,-3.793 -3.793,-3.793Z"/></g></g><g><g id="Hat"><path id="Hat1" d="M56.895,114.6l-13.333,0l0,-1.066l13.333,-0c0.295,-0 0.534,-0.239 0.534,-0.534c-0,-0.295 -0.239,-0.533 -0.534,-0.533l-2.666,-0c-1.782,-0 -2.9,-0.607 -4.195,-1.309c-1.548,-0.84 -3.295,-1.786 -6.472,-1.882l0,-1.076c0.142,0 0.277,-0.056 0.377,-0.156l0.533,-0.533c0.1,-0.101 0.157,-0.236 0.157,-0.377l-0,-1.067c-0,-0.142 -0.057,-0.277 -0.157,-0.377l-0.533,-0.534c-0.1,-0.1 -0.235,-0.156 -0.377,-0.156l-1.067,0c-0.142,0 -0.276,0.056 -0.377,0.156l-0.533,0.534c-0.1,0.1 -0.156,0.235 -0.156,0.377l-0,1.067c-0,0.141 0.056,0.276 0.156,0.377l0.533,0.533c0.101,0.1 0.235,0.156 0.377,0.156l0,1.076c-3.17,0.096 -4.909,1.039 -6.45,1.877c-1.296,0.705 -2.416,1.314 -4.216,1.314l-2.667,-0c-0.295,-0 -0.533,0.238 -0.533,0.533c-0,0.295 0.238,0.534 0.533,0.534l13.333,-0l0,1.066l-13.333,0c-0.295,0 -0.533,0.239 -0.533,0.534c-0,0.294 0.238,0.533 0.533,0.533l2.667,-0c1.781,-0 2.899,0.607 4.194,1.309c1.549,0.84 3.296,1.785 6.472,1.881l0,10.989l-6.243,6.244c-0.209,0.208 -0.209,0.545 -0,0.754c0.104,0.104 0.24,0.156 0.377,0.156c0.136,0 0.273,-0.052 0.377,-0.156l5.489,-5.49l0,5.113c0,0.295 0.239,0.533 0.534,0.533c0.295,0 0.533,-0.238 0.533,-0.533l0,-5.113l5.49,5.49c0.104,0.104 0.24,0.156 0.377,0.156c0.136,0 0.273,-0.052 0.377,-0.156c0.208,-0.209 0.208,-0.546 -0,-0.754l-6.244,-6.244l0,-10.989c3.17,-0.096 4.909,-1.038 6.451,-1.877c1.296,-0.704 2.416,-1.313 4.216,-1.313l2.666,-0c0.295,-0 0.534,-0.239 0.534,-0.533c-0,-0.295 -0.239,-0.534 -0.534,-0.534"/></g></g><g><g id="Snare"><path id="Snare1" d="M58.051,163.673c-0.1,-0.1 -0.236,-0.156 -0.378,-0.156l-0.224,0c-0.058,-0.18 -0.125,-0.359 -0.205,-0.534l0.169,0c0.736,0 1.335,-0.598 1.335,-1.334c-0,-0.736 -0.599,-1.334 -1.335,-1.334l-2.493,-0c-0.481,-0.352 -1.016,-0.682 -1.6,-0.984l3.222,-1.852c0.637,-0.368 0.856,-1.186 0.488,-1.823c-0.354,-0.614 -1.207,-0.843 -1.821,-0.489l-5.072,2.915c-1.638,-0.476 -3.409,-0.775 -5.273,-0.897l0,-0.072c0,-0.142 -0.056,-0.278 -0.156,-0.378l-0.534,-0.533c-0.099,-0.101 -0.236,-0.157 -0.377,-0.157l-1.067,0c-0.142,0 -0.278,0.056 -0.378,0.157l-0.533,0.533c-0.101,0.1 -0.157,0.236 -0.157,0.378l0,0.043c-1.878,0.089 -3.711,0.368 -5.38,0.816c-0.027,-0.062 -0.064,-0.12 -0.113,-0.169l-0.534,-0.534c-0.1,-0.1 -0.236,-0.156 -0.377,-0.156l-1.068,-0c-0.141,-0 -0.277,0.056 -0.377,0.156l-0.534,0.534c-0.099,0.1 -0.156,0.235 -0.156,0.377l0,0.924c-2.434,1.156 -4.038,2.7 -4.589,4.413l-0.214,0c-0.142,0 -0.277,0.056 -0.378,0.156l-0.533,0.534c-0.101,0.1 -0.157,0.236 -0.157,0.377l0,1.068c0,0.142 0.056,0.277 0.157,0.377l0.533,0.534c0.101,0.1 0.236,0.156 0.378,0.156l-0,11.208c-0.142,-0 -0.277,0.056 -0.378,0.156l-0.533,0.534c-0.101,0.1 -0.157,0.235 -0.157,0.377l0,1.068c0,0.142 0.056,0.277 0.157,0.377l0.533,0.534c0.101,0.1 0.236,0.156 0.378,0.156l1.067,0c0.003,0 0.005,-0.001 0.008,-0.001c0.819,1.072 2.095,2.032 3.728,2.809l0,0.394c0,0.142 0.057,0.277 0.156,0.378l0.534,0.533c0.1,0.1 0.236,0.157 0.377,0.157l1.068,-0c0.141,-0 0.277,-0.057 0.377,-0.157l0.269,-0.269c1.767,0.509 3.738,0.82 5.758,0.916l0,0.043c0,0.142 0.056,0.277 0.157,0.378l0.533,0.533c0.1,0.1 0.236,0.157 0.378,0.157l1.067,-0c0.141,-0 0.278,-0.057 0.377,-0.157l0.534,-0.533c0.1,-0.101 0.156,-0.236 0.156,-0.378l0,-0.073c1.99,-0.133 3.915,-0.478 5.633,-1.011l0.395,0.394c0.1,0.1 0.235,0.157 0.377,0.157l1.067,-0c0.142,-0 0.278,-0.057 0.378,-0.157l0.533,-0.533c0.101,-0.101 0.157,-0.236 0.157,-0.378l-0,-0.659c1.375,-0.725 2.469,-1.593 3.197,-2.544c0.002,0 0.003,0.001 0.005,0.001l1.067,0c0.142,0 0.278,-0.056 0.378,-0.156l0.533,-0.534c0.101,-0.1 0.157,-0.235 0.157,-0.377l-0,-1.068c-0,-0.142 -0.056,-0.277 -0.157,-0.377l-0.533,-0.534c-0.1,-0.1 -0.236,-0.156 -0.378,-0.156l0,-11.208c0.142,0 0.278,-0.056 0.378,-0.156l0.533,-0.534c0.101,-0.1 0.157,-0.235 0.157,-0.377l-0,-1.068c-0,-0.141 -0.056,-0.277 -0.157,-0.377l-0.533,-0.534Zm-5.828,-3.695c0.236,0.108 0.464,0.221 0.685,0.337l-1.299,-0l0.014,-0.008l0.6,-0.329Zm-18.547,0.043l0.294,0.294l1.509,-0l0.846,-0.847l0,-0.416c1.64,-0.46 3.467,-0.747 5.337,-0.839l0,0.188l0.847,0.846l1.509,0l0.846,-0.846l0,-0.156c1.384,0.094 2.711,0.292 3.965,0.589l-2.575,1.481l-6.183,-0c-0.377,-0 -0.759,0.024 -1.135,0.071l-4.082,0.51c-0.385,0.048 -0.665,0.365 -0.665,0.753c0,0.388 0.28,0.705 0.665,0.753l4.082,0.51c0.376,0.047 0.758,0.071 1.135,0.071l1.541,0l-1.336,0.768c-0.327,0.189 -0.646,0.4 -0.947,0.629l-3.28,2.483c-0.166,0.125 -0.258,0.303 -0.286,0.494c-0.017,0.115 -0.016,0.233 0.023,0.35c0.001,0.002 0.002,0.003 0.003,0.004c0.022,0.064 0.054,0.122 0.091,0.176c0.015,0.022 0.031,0.043 0.048,0.064c0.023,0.027 0.049,0.052 0.077,0.076c0.048,0.044 0.101,0.08 0.159,0.11c0.015,0.008 0.028,0.016 0.043,0.023c0.039,0.017 0.079,0.031 0.121,0.041c0.029,0.007 0.059,0.01 0.089,0.014c0.029,0.004 0.056,0.014 0.085,0.014c0.103,0 0.204,-0.021 0.3,-0.062l3.791,-1.599c0.35,-0.148 0.692,-0.318 1.017,-0.506l5.357,-3.079l9.074,0c0.115,0.19 0.214,0.385 0.294,0.584l-0.797,0.797l0,1.509l0.624,0.624c-0.008,0.015 -0.012,0.03 -0.02,0.045c-0.044,0.08 -0.099,0.157 -0.149,0.235c-0.067,0.105 -0.131,0.21 -0.207,0.313c-0.06,0.079 -0.129,0.156 -0.194,0.234c-0.082,0.098 -0.163,0.196 -0.254,0.291c-0.074,0.078 -0.156,0.154 -0.236,0.229c-0.096,0.092 -0.193,0.184 -0.298,0.274c-0.088,0.074 -0.182,0.147 -0.276,0.22c-0.11,0.086 -0.221,0.172 -0.34,0.256c-0.101,0.071 -0.206,0.141 -0.313,0.21c-0.123,0.08 -0.248,0.161 -0.379,0.238c-0.112,0.067 -0.228,0.133 -0.345,0.197c-0.137,0.076 -0.276,0.15 -0.419,0.222c-0.123,0.062 -0.248,0.123 -0.376,0.183c-0.148,0.069 -0.299,0.137 -0.453,0.203c-0.132,0.057 -0.266,0.113 -0.404,0.167c-0.159,0.064 -0.322,0.125 -0.488,0.186c-0.141,0.051 -0.282,0.101 -0.426,0.15c-0.171,0.057 -0.346,0.112 -0.521,0.165c-0.148,0.045 -0.296,0.09 -0.447,0.132c-0.181,0.051 -0.367,0.098 -0.553,0.145c-0.153,0.038 -0.306,0.078 -0.462,0.113c-0.193,0.044 -0.39,0.084 -0.587,0.123c-0.157,0.032 -0.311,0.064 -0.47,0.093c-0.206,0.037 -0.416,0.069 -0.625,0.101c-0.157,0.024 -0.311,0.05 -0.469,0.071c-0.223,0.03 -0.451,0.053 -0.678,0.077c-0.15,0.016 -0.297,0.035 -0.449,0.048c-0.254,0.023 -0.513,0.038 -0.772,0.053c-0.127,0.008 -0.252,0.019 -0.381,0.025c-0.388,0.017 -0.78,0.027 -1.174,0.027c-0.395,-0 -0.787,-0.01 -1.175,-0.027c-0.128,-0.006 -0.254,-0.017 -0.381,-0.025c-0.259,-0.015 -0.517,-0.03 -0.772,-0.053c-0.152,-0.013 -0.299,-0.032 -0.449,-0.048c-0.227,-0.024 -0.455,-0.047 -0.678,-0.077c-0.158,-0.021 -0.312,-0.047 -0.469,-0.071c-0.209,-0.032 -0.419,-0.064 -0.625,-0.101c-0.159,-0.029 -0.313,-0.061 -0.47,-0.093c-0.197,-0.039 -0.394,-0.079 -0.587,-0.123c-0.156,-0.035 -0.309,-0.075 -0.462,-0.113c-0.186,-0.047 -0.372,-0.094 -0.553,-0.145c-0.151,-0.042 -0.299,-0.087 -0.447,-0.132c-0.175,-0.053 -0.35,-0.108 -0.521,-0.165c-0.144,-0.049 -0.285,-0.099 -0.426,-0.15c-0.165,-0.061 -0.329,-0.122 -0.488,-0.186c-0.137,-0.054 -0.271,-0.11 -0.404,-0.167c-0.154,-0.066 -0.305,-0.134 -0.453,-0.203c-0.128,-0.06 -0.253,-0.121 -0.376,-0.183c-0.143,-0.072 -0.282,-0.146 -0.418,-0.222c-0.118,-0.064 -0.234,-0.13 -0.346,-0.197c-0.131,-0.077 -0.256,-0.158 -0.379,-0.238c-0.107,-0.069 -0.212,-0.139 -0.313,-0.21c-0.118,-0.084 -0.23,-0.17 -0.34,-0.256c-0.094,-0.073 -0.188,-0.146 -0.276,-0.22c-0.105,-0.09 -0.202,-0.182 -0.298,-0.274c-0.08,-0.075 -0.162,-0.151 -0.236,-0.229c-0.091,-0.095 -0.172,-0.193 -0.254,-0.291c-0.065,-0.078 -0.134,-0.155 -0.194,-0.234c-0.076,-0.103 -0.14,-0.208 -0.207,-0.313c-0.05,-0.078 -0.104,-0.155 -0.148,-0.235c-0.008,-0.015 -0.013,-0.03 -0.021,-0.045l0.624,-0.624l-0,-1.509l-0.804,-0.804c0.553,-1.34 1.952,-2.573 4.025,-3.539Zm-3.43,20.47l0.209,-0.208l-0,-1.51l-0.847,-0.846l-0.221,-0l0,-10.153c0.113,0.148 0.24,0.292 0.371,0.435c0.024,0.026 0.043,0.054 0.068,0.081c0.175,0.186 0.364,0.368 0.566,0.545c0.059,0.052 0.125,0.101 0.187,0.152c0.148,0.123 0.298,0.245 0.458,0.363c0.086,0.063 0.175,0.123 0.264,0.185c0.148,0.103 0.299,0.203 0.457,0.302c0.1,0.063 0.203,0.123 0.306,0.184c0.16,0.093 0.323,0.184 0.491,0.273c0.109,0.058 0.217,0.115 0.329,0.171c0.178,0.089 0.362,0.174 0.549,0.258c0.11,0.05 0.217,0.1 0.329,0.147c0.14,0.06 0.284,0.116 0.428,0.173l0,11.154l-0.22,-0l-0.654,0.653c-1.349,-0.677 -2.397,-1.481 -3.07,-2.359Zm6.079,3.502l0,-0.95l-0.846,-0.846l-0.221,-0l-0,-10.772c0.141,0.046 0.278,0.095 0.422,0.138c0.075,0.023 0.154,0.042 0.23,0.065c0.266,0.077 0.534,0.151 0.808,0.219c0.127,0.032 0.258,0.059 0.386,0.089c0.232,0.054 0.464,0.105 0.7,0.152c0.145,0.029 0.291,0.055 0.438,0.081c0.229,0.042 0.46,0.08 0.694,0.116c0.152,0.023 0.305,0.045 0.459,0.065c0.239,0.032 0.481,0.06 0.724,0.086c0.151,0.015 0.3,0.032 0.452,0.045c0.267,0.024 0.537,0.041 0.808,0.057c0.132,0.007 0.261,0.018 0.394,0.024c0.316,0.014 0.636,0.019 0.957,0.023l-0,11.213l-0.221,-0l-0.847,0.846l0,0.187c-1.871,-0.091 -3.697,-0.378 -5.337,-0.838Zm8.539,0.651l-0.846,-0.846l-0.221,-0l0,-11.224c0.141,-0.004 0.283,-0.006 0.423,-0.012c0.133,-0.006 0.262,-0.017 0.394,-0.024c0.271,-0.016 0.541,-0.033 0.808,-0.057c0.152,-0.013 0.301,-0.03 0.452,-0.045c0.244,-0.026 0.485,-0.054 0.724,-0.086c0.154,-0.02 0.307,-0.042 0.459,-0.065c0.234,-0.036 0.465,-0.074 0.694,-0.116c0.147,-0.026 0.293,-0.052 0.438,-0.081c0.236,-0.047 0.468,-0.098 0.7,-0.152c0.128,-0.03 0.259,-0.057 0.386,-0.089c0.274,-0.068 0.543,-0.142 0.808,-0.219c0.076,-0.023 0.155,-0.042 0.23,-0.065c0.327,-0.098 0.645,-0.203 0.956,-0.314l-0,10.948l-0.221,-0l-0.847,0.846l0,0.791c-1.622,0.506 -3.449,0.836 -5.337,0.966l0,-0.156Zm11.521,-6.717l-0.847,0.846l0,1.51l0.209,0.208c-0.613,0.797 -1.54,1.54 -2.719,2.176l-0.471,-0.47l-0.221,-0l0,-11.369c0.078,-0.033 0.148,-0.071 0.224,-0.105c0.187,-0.084 0.371,-0.169 0.549,-0.258c0.112,-0.056 0.22,-0.113 0.329,-0.171c0.168,-0.089 0.331,-0.18 0.491,-0.273c0.103,-0.061 0.206,-0.121 0.305,-0.184c0.159,-0.099 0.31,-0.2 0.459,-0.302c0.088,-0.062 0.178,-0.122 0.263,-0.185c0.16,-0.118 0.311,-0.24 0.458,-0.363c0.062,-0.051 0.128,-0.1 0.187,-0.152c0.202,-0.177 0.391,-0.359 0.566,-0.545c0.025,-0.027 0.044,-0.055 0.068,-0.081c0.131,-0.143 0.258,-0.287 0.371,-0.435l-0,10.153l-0.221,-0Z"/></g></g><g><g id="Kick"><g id="Kick1"><path d="M76.898,221.316l7.043,-7.219l3.645,-0l-8.18,8.192l8.227,9.902l-3.656,-0l-6.516,-8.051l-0.563,0.563l-0,7.488l-2.73,-0l-0,-18.094l2.73,-0l-0,7.219Z"/><path d="M92.203,220.777l-0,11.414l-2.637,-0l-0,-11.414l2.637,-0Zm-3.035,-4.746c-0,-0.461 0.168,-0.859 0.504,-1.195c0.336,-0.336 0.738,-0.504 1.207,-0.504c0.476,-0 0.883,0.168 1.219,0.504c0.336,0.328 0.504,0.73 0.504,1.207c-0,0.476 -0.168,0.883 -0.504,1.218c-0.328,0.336 -0.731,0.504 -1.207,0.504c-0.477,-0 -0.883,-0.168 -1.219,-0.504c-0.336,-0.335 -0.504,-0.746 -0.504,-1.23Z"/><path d="M104.426,221.269l-0,3.504c-0.602,-0.734 -1.141,-1.238 -1.617,-1.512c-0.469,-0.281 -1.02,-0.421 -1.653,-0.421c-0.992,-0 -1.816,0.347 -2.472,1.043c-0.657,0.695 -0.985,1.566 -0.985,2.613c-0,1.07 0.317,1.949 0.949,2.637c0.641,0.687 1.457,1.031 2.45,1.031c0.632,-0 1.191,-0.137 1.675,-0.41c0.469,-0.266 1.02,-0.782 1.653,-1.547l-0,3.48c-1.071,0.555 -2.141,0.832 -3.211,0.832c-1.766,-0 -3.242,-0.57 -4.43,-1.711c-1.187,-1.148 -1.781,-2.574 -1.781,-4.277c-0,-1.703 0.601,-3.141 1.805,-4.312c1.203,-1.172 2.679,-1.758 4.429,-1.758c1.125,-0 2.188,0.269 3.188,0.808Z"/><path d="M110.238,212.398l-0,12.071l3.715,-3.692l3.539,-0l-4.957,4.793l5.32,6.621l-3.421,-0l-3.774,-4.816l-0.422,0.422l-0,4.394l-2.636,-0l-0,-19.793l2.636,0Z"/></g></g></g><g><g id="Snare2"><g id="Snare3"><path d="M84.398,166.793l-2.214,1.312c-0.414,-0.719 -0.809,-1.187 -1.184,-1.406c-0.391,-0.25 -0.895,-0.375 -1.512,-0.375c-0.758,-0 -1.386,0.215 -1.886,0.645c-0.5,0.421 -0.75,0.953 -0.75,1.593c-0,0.883 0.656,1.594 1.968,2.133l1.805,0.738c1.469,0.594 2.543,1.319 3.223,2.174c0.679,0.856 1.019,1.904 1.019,3.147c-0,1.664 -0.555,3.039 -1.664,4.125c-1.117,1.093 -2.504,1.64 -4.16,1.64c-1.57,-0 -2.867,-0.465 -3.891,-1.394c-1.007,-0.93 -1.636,-2.239 -1.886,-3.926l2.765,-0.609c0.125,1.062 0.344,1.796 0.656,2.203c0.563,0.781 1.383,1.172 2.461,1.172c0.852,-0 1.559,-0.286 2.122,-0.856c0.562,-0.57 0.843,-1.293 0.843,-2.168c-0,-0.351 -0.049,-0.674 -0.146,-0.967c-0.098,-0.293 -0.25,-0.562 -0.457,-0.808c-0.207,-0.246 -0.475,-0.477 -0.803,-0.692c-0.328,-0.214 -0.719,-0.42 -1.172,-0.615l-1.746,-0.726c-2.477,-1.047 -3.715,-2.579 -3.715,-4.594c-0,-1.36 0.52,-2.496 1.559,-3.41c1.039,-0.922 2.332,-1.383 3.879,-1.383c2.086,-0 3.715,1.015 4.886,3.047Z"/><path d="M87.656,170.777l2.649,-0l-0,1.055c0.922,-0.914 1.961,-1.371 3.117,-1.371c1.328,-0 2.363,0.418 3.105,1.254c0.641,0.711 0.961,1.871 0.961,3.48l-0,6.996l-2.648,-0l-0,-6.375c-0,-1.125 -0.156,-1.902 -0.469,-2.332c-0.305,-0.437 -0.859,-0.656 -1.664,-0.656c-0.875,-0 -1.496,0.289 -1.863,0.867c-0.36,0.57 -0.539,1.566 -0.539,2.988l-0,5.508l-2.649,-0l-0,-11.414Z"/><path d="M109.23,170.777l2.649,-0l-0,11.414l-2.649,-0l-0,-1.195c-1.085,1.015 -2.253,1.523 -3.503,1.523c-1.579,-0 -2.883,-0.57 -3.915,-1.711c-1.023,-1.164 -1.535,-2.617 -1.535,-4.359c-0,-1.711 0.512,-3.137 1.535,-4.277c1.024,-1.141 2.305,-1.711 3.844,-1.711c1.328,-0 2.52,0.547 3.574,1.64l-0,-1.324Zm-6.257,5.672c-0,1.094 0.293,1.984 0.879,2.672c0.601,0.695 1.359,1.043 2.273,1.043c0.977,-0 1.766,-0.336 2.367,-1.008c0.602,-0.695 0.903,-1.578 0.903,-2.648c-0,-1.071 -0.301,-1.954 -0.903,-2.649c-0.601,-0.68 -1.383,-1.019 -2.344,-1.019c-0.906,-0 -1.664,0.343 -2.273,1.031c-0.602,0.695 -0.902,1.555 -0.902,2.578Z"/><path d="M115.207,170.777l2.637,-0l-0,1.02c0.484,-0.508 0.914,-0.856 1.289,-1.043c0.383,-0.196 0.836,-0.293 1.359,-0.293c0.695,-0 1.422,0.226 2.18,0.679l-1.207,2.414c-0.5,-0.359 -0.988,-0.539 -1.465,-0.539c-1.438,-0 -2.156,1.086 -2.156,3.258l-0,5.918l-2.637,-0l-0,-11.414Z"/><path d="M134.414,177.105l-8.18,-0c0.071,0.938 0.375,1.684 0.914,2.239c0.539,0.546 1.231,0.82 2.075,0.82c0.656,-0 1.199,-0.156 1.629,-0.469c0.421,-0.312 0.902,-0.891 1.441,-1.734l2.227,1.242c-0.344,0.586 -0.708,1.088 -1.09,1.506c-0.383,0.418 -0.793,0.761 -1.231,1.031c-0.437,0.27 -0.91,0.467 -1.418,0.592c-0.508,0.125 -1.058,0.187 -1.652,0.187c-1.703,-0 -3.07,-0.547 -4.102,-1.64c-1.031,-1.102 -1.547,-2.563 -1.547,-4.383c-0,-1.805 0.5,-3.266 1.5,-4.383c1.008,-1.102 2.344,-1.652 4.008,-1.652c1.68,-0 3.008,0.535 3.985,1.605c0.968,1.063 1.453,2.535 1.453,4.418l-0.012,0.621Zm-2.707,-2.156c-0.367,-1.406 -1.254,-2.109 -2.66,-2.109c-0.32,-0 -0.621,0.048 -0.902,0.146c-0.282,0.098 -0.538,0.238 -0.768,0.422c-0.231,0.184 -0.428,0.404 -0.592,0.662c-0.164,0.258 -0.289,0.551 -0.375,0.879l5.297,-0Z"/></g></g></g><g><g id="Hat2"><g id="Hat3"><path d="M76.898,121.176l7.805,-0l-0,-7.079l2.731,-0l-0,18.094l-2.731,-0l-0,-8.449l-7.805,-0l-0,8.449l-2.73,-0l-0,-18.094l2.73,-0l-0,7.079Z"/><path d="M93.902,120.777l-0,11.414l-2.636,-0l-0,-11.414l2.636,-0Zm-3.035,-4.746c-0,-0.461 0.168,-0.859 0.504,-1.195c0.336,-0.336 0.738,-0.504 1.207,-0.504c0.477,-0 0.883,0.168 1.219,0.504c0.336,0.328 0.504,0.73 0.504,1.207c-0,0.476 -0.168,0.883 -0.504,1.218c-0.328,0.336 -0.731,0.504 -1.207,0.504c-0.477,-0 -0.883,-0.168 -1.219,-0.504c-0.336,-0.335 -0.504,-0.746 -0.504,-1.23Z"/><path d="M97.242,112.398l2.637,-0l-0,9.328c0.937,-0.843 1.973,-1.265 3.105,-1.265c1.289,-0 2.321,0.418 3.094,1.254c0.656,0.726 0.984,1.886 0.984,3.48l-0,6.996l-2.636,-0l-0,-6.75c-0,-0.914 -0.162,-1.576 -0.487,-1.986c-0.324,-0.41 -0.845,-0.615 -1.564,-0.615c-0.922,-0 -1.57,0.285 -1.945,0.855c-0.368,0.578 -0.551,1.57 -0.551,2.977l-0,5.519l-2.637,-0l-0,-19.793Z"/><path d="M118.816,120.777l2.649,-0l-0,11.414l-2.649,-0l-0,-1.195c-1.086,1.015 -2.254,1.523 -3.504,1.523c-1.578,-0 -2.882,-0.57 -3.914,-1.711c-1.023,-1.164 -1.535,-2.617 -1.535,-4.359c-0,-1.711 0.512,-3.137 1.535,-4.277c1.024,-1.141 2.305,-1.711 3.844,-1.711c1.328,-0 2.52,0.547 3.574,1.64l-0,-1.324Zm-6.257,5.672c-0,1.094 0.293,1.984 0.878,2.672c0.602,0.695 1.36,1.043 2.274,1.043c0.976,-0 1.766,-0.336 2.367,-1.008c0.602,-0.695 0.902,-1.578 0.902,-2.648c-0,-1.071 -0.3,-1.954 -0.902,-2.649c-0.601,-0.68 -1.383,-1.019 -2.344,-1.019c-0.906,-0 -1.664,0.343 -2.273,1.031c-0.602,0.695 -0.902,1.555 -0.902,2.578Z"/><path d="M127.512,123.238l-0,8.953l-2.637,-0l-0,-8.953l-1.125,-0l-0,-2.461l1.125,-0l-0,-4.183l2.637,-0l-0,4.183l2.05,-0l-0,2.461l-2.05,-0Z"/></g></g></g><g><g id="beat"><g id="beat1" transform="matrix(1,0,0,0.999999,0,6.8218e-05)"><text x="71.348px" y="87.18px" style="font-family:'NotoSansSC-Bold', 'Noto Sans SC', sans-serif;font-weight:700;font-size:24px;">拍</text></g></g></g><g><g id="bar"><g id="bar1" transform="matrix(1,0,0,0.999999,0,3.69179e-05)"><text x="61.348px" y="47.179px" style="font-family:'NotoSansSC-Bold', 'Noto Sans SC', sans-serif;font-weight:700;font-size:24px;">小节</text></g></g></g><g><g id="_1"><path id="_11" d="M347.199,30.373l-0,13.752l2.424,0l-0,-16.008l-3.864,0l-1.32,2.256l2.76,0Z"/></g></g><g><g id="_12"><path id="_13" d="M194.198,73.374l-0,13.752l2.424,-0l-0,-16.008l-3.864,-0l-1.32,2.256l2.76,-0Z"/></g></g><g><g id="_2"><path id="_21" d="M295.788,84.9l2.472,-2.928c2.784,-3.264 3.456,-4.488 3.456,-6.216c-0,-2.736 -2.256,-4.848 -5.16,-4.848c-1.8,-0 -3.264,0.768 -4.2,2.16c-0.528,0.816 -0.768,1.536 -0.912,2.904l2.4,-0c0.096,-0.888 0.24,-1.296 0.552,-1.752c0.48,-0.696 1.32,-1.104 2.232,-1.104c1.536,-0 2.736,1.152 2.736,2.64c-0,1.032 -0.576,1.968 -2.832,4.704l-5.544,6.72l10.752,-0l-0,-2.28l-5.952,-0Z"/></g></g><g><g id="_3"><path id="_31" d="M395.932,79.74c1.104,0.024 1.608,0.12 2.064,0.384c0.72,0.432 1.152,1.296 1.152,2.328c0,1.632 -1.128,2.784 -2.712,2.784c-0.84,-0 -1.68,-0.36 -2.184,-0.96c-0.336,-0.384 -0.456,-0.72 -0.576,-1.44l-2.328,-0c0.096,1.08 0.216,1.608 0.576,2.232c0.84,1.488 2.496,2.376 4.44,2.376c3.024,-0 5.16,-2.016 5.16,-4.92c0,-1.704 -0.672,-3.024 -1.968,-3.792c1.152,-0.816 1.728,-1.944 1.728,-3.408c0,-2.592 -1.944,-4.416 -4.752,-4.416c-1.752,-0 -3.144,0.648 -3.912,1.848c-0.456,0.672 -0.648,1.248 -0.864,2.496l2.4,-0c0.168,-0.72 0.264,-1.032 0.48,-1.32c0.384,-0.528 1.056,-0.84 1.848,-0.84c1.44,-0 2.448,0.96 2.448,2.328c0,1.128 -0.648,1.992 -1.632,2.184c-0.36,0.072 -0.528,0.072 -1.368,0.072l0,2.064Z"/></g></g><g><g id="_4"><path id="_41" d="M500.924,82.716l-0,-12.72l-10.272,14.904l7.848,-0l-0,2.28l2.424,-0l-0,-2.28l1.704,-0l-0,-2.184l-1.704,-0Zm-2.424,-0l-3.696,-0l3.696,-5.352l-0,5.352Z"/></g></g><g><g id="beatcell8"><rect id="beatcell9" x="549" y="60.555" width="96" height="36" style="fill:#ebebeb;"/></g></g><g><g id="beatcell10"><rect id="beatcell11" x="649" y="60.555" width="96" height="36" style="fill:#ebebeb;"/></g></g><g><g id="beatcell12"><rect id="beatcell13" x="749" y="60.555" width="96" height="36" style="fill:#ebebeb;"/></g></g><g><g id="beatcell14"><rect id="beatcell15" x="849.001" y="60.555" width="96" height="36" style="fill:#ebebeb;"/></g></g><g><g id="_14"><path id="_15" d="M594.198,73.374l0,13.752l2.424,-0l0,-16.008l-3.864,-0l-1.32,2.256l2.76,-0Z"/></g></g><g><g id="_22"><path id="_23" d="M695.788,84.9l2.472,-2.928c2.784,-3.264 3.456,-4.488 3.456,-6.216c0,-2.736 -2.256,-4.848 -5.16,-4.848c-1.8,-0 -3.264,0.768 -4.2,2.16c-0.528,0.816 -0.768,1.536 -0.912,2.904l2.4,-0c0.096,-0.888 0.24,-1.296 0.552,-1.752c0.48,-0.696 1.32,-1.104 2.232,-1.104c1.536,-0 2.736,1.152 2.736,2.64c0,1.032 -0.576,1.968 -2.832,4.704l-5.544,6.72l10.752,-0l0,-2.28l-5.952,-0Z"/></g></g><g><g id="_32"><path id="_33" d="M795.932,79.74c1.104,0.024 1.608,0.12 2.064,0.384c0.72,0.432 1.152,1.296 1.152,2.328c-0,1.632 -1.128,2.784 -2.712,2.784c-0.84,-0 -1.68,-0.36 -2.184,-0.96c-0.336,-0.384 -0.456,-0.72 -0.576,-1.44l-2.328,-0c0.096,1.08 0.216,1.608 0.576,2.232c0.84,1.488 2.496,2.376 4.44,2.376c3.024,-0 5.16,-2.016 5.16,-4.92c-0,-1.704 -0.672,-3.024 -1.968,-3.792c1.152,-0.816 1.728,-1.944 1.728,-3.408c-0,-2.592 -1.944,-4.416 -4.752,-4.416c-1.752,-0 -3.144,0.648 -3.912,1.848c-0.456,0.672 -0.648,1.248 -0.864,2.496l2.4,-0c0.168,-0.72 0.264,-1.032 0.48,-1.32c0.384,-0.528 1.056,-0.84 1.848,-0.84c1.44,-0 2.448,0.96 2.448,2.328c-0,1.128 -0.648,1.992 -1.632,2.184c-0.36,0.072 -0.528,0.072 -1.368,0.072l-0,2.064Z"/></g></g><g><g id="_42"><path id="_43" d="M900.924,82.716l0,-12.72l-10.272,14.904l7.848,-0l0,2.28l2.424,-0l0,-2.28l1.704,-0l0,-2.184l-1.704,-0Zm-2.424,-0l-3.696,-0l3.696,-5.352l0,5.352Z"/></g></g><g><g id="_24"><path id="_25" d="M745.788,41.9l2.472,-2.928c2.784,-3.264 3.456,-4.488 3.456,-6.216c0,-2.736 -2.256,-4.848 -5.16,-4.848c-1.8,-0 -3.264,0.768 -4.2,2.16c-0.528,0.816 -0.768,1.536 -0.912,2.904l2.4,-0c0.096,-0.888 0.24,-1.296 0.552,-1.752c0.48,-0.696 1.32,-1.104 2.232,-1.104c1.536,-0 2.736,1.152 2.736,2.64c0,1.032 -0.576,1.968 -2.832,4.704l-5.544,6.72l10.752,-0l0,-2.28l-5.952,-0Z"/></g></g><g><g><g id="cell97"><rect id="cell98" x="548.999" y="150" width="46" height="46" style="fill:#f2f2f2;"/></g></g><g><g id="cell99"><rect id="cell100" x="598.999" y="150" width="46" height="46" style="fill:#f2f2f2;"/></g></g><g><g id="cell101"><rect id="cell102" x="648.999" y="150" width="46" height="46" style="fill:#f2f2f2;"/></g></g><g><g id="cell103"><rect id="cell104" x="698.999" y="150" width="46" height="46" style="fill:#f2f2f2;"/></g></g><g><g id="cell105"><rect id="cell106" x="748.999" y="150" width="46" height="46" style="fill:#f2f2f2;"/></g></g><g><g id="cell107"><rect id="cell108" x="798.999" y="150" width="46" height="46" style="fill:#f2f2f2;"/></g></g><g><g id="cell109"><rect id="cell110" x="848.999" y="150" width="46" height="46" style="fill:#f2f2f2;"/></g></g><g><g id="cell111"><rect id="cell112" x="898.999" y="150" width="46" height="46" style="fill:#f2f2f2;"/></g></g></g><g><g><g id="cell113"><rect id="cell114" x="548.999" y="200" width="46" height="46" style="fill:#f2f2f2;"/></g></g><g><g id="cell115"><rect id="cell116" x="598.999" y="200" width="46" height="46" style="fill:#f2f2f2;"/></g></g><g><g id="cell117"><rect id="cell118" x="648.999" y="200" width="46" height="46" style="fill:#f2f2f2;"/></g></g><g><g id="cell119"><rect id="cell120" x="698.999" y="200" width="46" height="46" style="fill:#f2f2f2;"/></g></g><g><g id="cell121"><rect id="cell122" x="748.999" y="200" width="46" height="46" style="fill:#f2f2f2;"/></g></g><g><g id="cell123"><rect id="cell124" x="798.999" y="200" width="46" height="46" style="fill:#f2f2f2;"/></g></g><g><g id="cell125"><rect id="cell126" x="848.999" y="200" width="46" height="46" style="fill:#f2f2f2;"/></g></g><g><g id="cell127"><rect id="cell128" x="898.999" y="200" width="46" height="46" style="fill:#f2f2f2;"/></g></g></g><g><g id="strong9"><ellipse id="strong10" cx="571.999" cy="223" rx="14" ry="14" style="fill:#f1ab31;"/></g></g><g><g id="strong11"><ellipse id="strong12" cx="772" cy="223.742" rx="14" ry="14" style="fill:#f1ab31;"/></g></g><g><g id="weak1"><ellipse id="strong13" cx="822" cy="223" rx="10" ry="10" style="fill:#f1ab31;"/></g></g><g><g id="strong14"><ellipse id="strong15" cx="672" cy="173" rx="14" ry="14" style="fill:#f1ab31;"/></g></g><g><g id="strong16"><ellipse id="strong17" cx="872" cy="174" rx="14" ry="14" style="fill:#f1ab31;"/></g></g></g></g></svg>