<?xml version="1.0" encoding="UTF-8"?>
<svg id="Layer_1" xmlns="http://www.w3.org/2000/svg" xmlns:serif="http://www.serif.com/" version="1.1" viewBox="0 0 961 395">
  <!-- Generator: Adobe Illustrator 29.0.1, SVG Export Plug-In . SVG Version: 2.1.0 Build 192)  -->
  <defs>
    <style>
      .st0 {
        fill: none;
      }

      .st1 {
        fill: #f15031;
      }

      .st1, .st2 {
        fill-rule: evenodd;
      }

      .st3 {
        fill: #ebebeb;
      }

      .st4 {
        fill: #49b656;
      }

      .st5, .st6, .st7, .st8, .st9 {
        isolation: isolate;
      }

      .st5, .st7, .st8, .st9 {
        font-size: 24px;
      }

      .st5, .st9 {
        font-family: NotoSansSC-Bold, 'Noto Sans SC';
        font-weight: 700;
      }

      .st10 {
        fill: #f1ab31;
      }

      .st6 {
        font-size: 20px;
      }

      .st6, .st8 {
        font-family: KozGoPr6N-Regular-83pv-RKSJ-H, 'Kozuka Gothic Pr6N';
      }

      .st11 {
        fill: #fff;
      }

      .st7 {
        font-family: Futura-Medium, Futura;
        font-weight: 500;
      }

      .st12 {
        fill: #f2f2f2;
      }

      .st9 {
        fill: #0d1419;
      }

      .st13 {
        fill: #dcdcdc;
      }

      .st14 {
        fill: #ececec;
      }
    </style>
  </defs>
  <g id="R1-anti1">
    <rect class="st0" y="0" width="961" height="394.9"/>
    <g>
      <g id="cell">
        <rect id="cell1" class="st12" x="149" y="180" width="46" height="46" serif:id="cell"/>
      </g>
      <g id="cell2" serif:id="cell">
        <rect id="cell3" class="st12" x="199" y="180" width="46" height="46" serif:id="cell"/>
      </g>
      <g id="cell4" serif:id="cell">
        <rect id="cell5" class="st12" x="249" y="180" width="46" height="46" serif:id="cell"/>
      </g>
      <g id="cell6" serif:id="cell">
        <rect id="cell7" class="st12" x="299" y="180" width="46" height="46" serif:id="cell"/>
      </g>
      <g id="cell8" serif:id="cell">
        <rect id="cell9" class="st12" x="349" y="180" width="46" height="46" serif:id="cell"/>
      </g>
      <g id="cell10" serif:id="cell">
        <rect id="cell11" class="st12" x="399" y="180" width="46" height="46" serif:id="cell"/>
      </g>
      <g id="cell12" serif:id="cell">
        <rect id="cell13" class="st12" x="449" y="180" width="46" height="46" serif:id="cell"/>
      </g>
      <g id="cell14" serif:id="cell">
        <rect id="cell15" class="st12" x="499" y="180" width="96" height="46" serif:id="cell"/>
      </g>
    </g>
    <g id="Smash">
      <path class="st1" d="M502.5,197.7l11.1-1-.7-9,7.7,5.2,6.6-8.6,1.3,10.7,9.3-.5-5.2,7.4,9,6.5-11.1,1,.7,9-7.7-5.2-6.6,8.6-1.3-10.7-9.3.5,5.2-7.4-9-6.5h0Z"/>
    </g>
    <path class="st1" d="M586.8,202c0-.6-.5-1-1-1h-58.9c-.6,0-1,.5-1,1v2.1c0,.6.5,1,1,1h58.9c.6,0,1-.5,1-1v-2.1Z"/>
    <g id="TH">
      <rect id="TH1" class="st13" x="20" y="60" width="125" height="36" serif:id="TH"/>
    </g>
    <g id="TH2" serif:id="TH">
      <rect id="TH3" class="st13" x="20" y="20" width="125" height="36" serif:id="TH"/>
    </g>
    <g id="TH4" serif:id="TH">
      <rect id="TH5" class="st13" x="20" y="140" width="125" height="36" serif:id="TH"/>
    </g>
    <g id="TH6" serif:id="TH">
      <rect id="TH7" class="st13" x="20" y="100" width="125" height="36" serif:id="TH"/>
    </g>
    <g id="TH-Tall" serif:id="TH Tall">
      <rect id="TH8" class="st13" x="20" y="180" width="125" height="46" serif:id="TH"/>
    </g>
    <g id="TH-Tall1" serif:id="TH Tall">
      <rect id="TH9" class="st13" x="20" y="230" width="125" height="46" serif:id="TH"/>
    </g>
    <g id="TH-Tall2" serif:id="TH Tall">
      <rect id="TH10" class="st13" x="20" y="280" width="125" height="46" serif:id="TH"/>
    </g>
    <g>
      <g id="cell16" serif:id="cell">
        <rect id="cell17" class="st12" x="149" y="230" width="46" height="46" serif:id="cell"/>
      </g>
      <g id="cell18" serif:id="cell">
        <rect id="cell19" class="st12" x="199" y="230" width="46" height="46" serif:id="cell"/>
      </g>
      <g id="cell20" serif:id="cell">
        <rect id="cell21" class="st12" x="249" y="230" width="46" height="46" serif:id="cell"/>
      </g>
      <g id="cell22" serif:id="cell">
        <rect id="cell23" class="st12" x="299" y="230" width="46" height="46" serif:id="cell"/>
      </g>
      <g id="cell24" serif:id="cell">
        <rect id="cell25" class="st12" x="349" y="230" width="46" height="46" serif:id="cell"/>
      </g>
      <g id="cell26" serif:id="cell">
        <rect id="cell27" class="st12" x="399" y="230" width="46" height="46" serif:id="cell"/>
      </g>
      <g id="cell28" serif:id="cell">
        <rect id="cell29" class="st12" x="449" y="230" width="46" height="46" serif:id="cell"/>
      </g>
      <g id="cell30" serif:id="cell">
        <rect id="cell31" class="st12" x="499" y="230" width="96" height="46" serif:id="cell"/>
      </g>
    </g>
    <g>
      <g id="cell32" serif:id="cell">
        <rect id="cell33" class="st12" x="149" y="280" width="46" height="46" serif:id="cell"/>
      </g>
      <g id="cell34" serif:id="cell">
        <rect id="cell35" class="st12" x="199" y="280" width="46" height="46" serif:id="cell"/>
      </g>
      <g id="cell36" serif:id="cell">
        <rect id="cell37" class="st12" x="249" y="280" width="46" height="46" serif:id="cell"/>
      </g>
      <g id="cell38" serif:id="cell">
        <rect id="cell39" class="st12" x="299" y="280" width="46" height="46" serif:id="cell"/>
      </g>
      <g id="cell40" serif:id="cell">
        <rect id="cell41" class="st12" x="349" y="280" width="46" height="46" serif:id="cell"/>
      </g>
      <g id="cell42" serif:id="cell">
        <rect id="cell43" class="st12" x="399" y="280" width="46" height="46" serif:id="cell"/>
      </g>
      <g id="cell44" serif:id="cell">
        <rect id="cell45" class="st12" x="449" y="280" width="46" height="46" serif:id="cell"/>
      </g>
      <g id="cell46" serif:id="cell">
        <rect id="cell47" class="st12" x="499" y="280" width="95" height="46" serif:id="cell"/>
      </g>
    </g>
    <g id="Smash1" serif:id="Smash">
      <path class="st1" d="M502.5,297.7l11.1-1-.7-9,7.7,5.2,6.6-8.6,1.3,10.7,9.3-.5-5.2,7.4,9,6.5-11.1,1,.7,9-7.7-5.2-6.6,8.6-1.3-10.7-9.3.5,5.2-7.4-9-6.5h0Z"/>
    </g>
    <path class="st1" d="M585.8,301c0-.6-.5-1-1-1h-57.9c-.6,0-1,.5-1,1v2.1c0,.6.5,1,1,1h57.9c.6,0,1-.5,1-1v-2.1Z"/>
    <g id="strong">
      <circle id="strong1" class="st10" cx="172" cy="202.3" r="14" serif:id="strong"/>
    </g>
    <g id="weak">
      <circle id="strong2" class="st10" cx="222" cy="202.3" r="10" serif:id="strong"/>
    </g>
    <g id="strong3" serif:id="strong">
      <circle id="strong4" class="st10" cx="272" cy="202.3" r="14" serif:id="strong"/>
    </g>
    <g id="weak1" serif:id="weak">
      <circle id="strong5" class="st10" cx="422" cy="202.3" r="10" serif:id="strong"/>
    </g>
    <g id="weak2" serif:id="weak">
      <circle id="strong6" class="st10" cx="372" cy="202.3" r="10" serif:id="strong"/>
    </g>
    <g id="weak3" serif:id="weak">
      <circle id="strong7" class="st10" cx="322" cy="202.3" r="10" serif:id="strong"/>
    </g>
    <g id="strong8" serif:id="strong">
      <circle id="strong9" class="st10" cx="172" cy="303" r="14" serif:id="strong"/>
    </g>
    <g id="strong10" serif:id="strong">
      <circle id="strong11" class="st10" cx="372" cy="303" r="14" serif:id="strong"/>
    </g>
    <g id="weak4" serif:id="weak">
      <circle id="strong12" class="st10" cx="220" cy="303" r="10" serif:id="strong"/>
    </g>
    <g id="weak5" serif:id="weak">
      <circle id="strong13" class="st10" cx="320" cy="303" r="10" serif:id="strong"/>
    </g>
    <g id="weak6" serif:id="weak">
      <circle id="strong14" class="st10" cx="420" cy="303" r="10" serif:id="strong"/>
    </g>
    <g id="strong15" serif:id="strong">
      <circle id="strong16" class="st10" cx="272" cy="253" r="14" serif:id="strong"/>
    </g>
    <g id="strong17" serif:id="strong">
      <circle id="strong18" class="st10" cx="472" cy="253" r="14" serif:id="strong"/>
    </g>
    <path class="st2" d="M43.9,285c1.9.1,3.8.6,5.6,1.3,1.5.8,3,1.7,4.4,2.9,3.3,3,5.2,7.2,5.2,11.8s-2.9,10.5-7.2,13.3l.4,1.6c.1.5-.2.9-.6,1,0,0-.1,0-.2,0-.4,0-.7-.3-.8-.6l-.3-1.2c-2.2,1.1-4.7,1.8-7.3,1.8s-5.1-.7-7.3-1.8l-.3,1.2c0,.4-.4.6-.8.6s-.1,0-.2,0c-.5-.1-.7-.6-.6-1l.4-1.6c-4.3-2.9-7.2-7.8-7.2-13.3s1.9-8.7,5.2-11.8c1.4-1.2,2.8-2.1,4.4-2.9,1.8-.8,3.7-1.2,5.6-1.3,0,0,1.7,0,1.7,0ZM56.8,301c0,7.1-6.7,14-13.8,13.8-6.7-.2-14.1-6.9-13.8-13.8.3-7.4,7.4-14.1,13.8-13.8,7.2.4,13.8,6.5,13.8,13.8ZM46.8,300.2c-2.1,0-3.8,1.7-3.8,3.8s1.7,3.8,3.8,3.8,3.8-1.7,3.8-3.8-1.7-3.8-3.8-3.8Z"/>
    <g id="TH-Tall3" serif:id="TH Tall">
      <rect id="TH11" class="st13" x="20" y="330" width="125" height="46" serif:id="TH"/>
    </g>
    <g id="Chord">
      <g id="Chord1" serif:id="Chord">
        <text class="st7" transform="translate(71.3 361.9)"><tspan x="0" y="0">Chor</tspan></text>
        <text class="st7" transform="translate(118.3 361.9)"><tspan x="0" y="0">d</tspan></text>
      </g>
    </g>
    <g id="cell48" serif:id="cell">
      <rect id="cell49" class="st4" x="149" y="330" width="346" height="46" serif:id="cell"/>
    </g>
    <g id="cell50" serif:id="cell">
      <rect id="cell51" class="st10" x="500" y="330" width="446" height="46" serif:id="cell"/>
    </g>
    <path class="st11" d="M528.4,343.6h-8.5v5.8h8.2v3.4h-8.2v11.5h-3.7v-24.1h12.2v3.4Z"/>
    <g id="Fill-197">
      <path class="st2" d="M63,336.6c-.3-.9-1.1-1.4-2.2-1.3,0,0-.9,0-2.2.5l-.3-.3c-.1-.1-.3-.2-.4-.2h-1.2c-.2,0-.3,0-.4.2l-.6.6c-.1.1-.2.3-.2.4v.7c-.2.1-.3.2-.5.3l-.3-.3c-.1-.1-.3-.2-.4-.2h-1.2c-.2,0-.3,0-.4.2l-.6.6c-.1.1-.2.3-.2.4v1.2c0,.2,0,.3.2.4l.2.2c-.2.3-.3.7-.3,1.1l-3.7,4.3,3.4,3.4,3.8-4.3c.1,0,.3,0,.4-.1.4-.1.7-.3,1-.5.5-.3.9-.9,1-1.5,0,0,0-.2,0-.3.1-.4.2-.9.7-1.3.2-.2.9-.5,1.3-.7h.2c0-.1.2-.1.4-.2.5,0,1.2-.2,1.9-.9.6-.7.9-1.7.6-2.5ZM56.9,336.5h.7l.3.3v.7l-.2.2h-.7l-.2-.2v-.7l.2-.2h0ZM53.3,338.3h.7l.2.2v.7l-.2.2h-.7l-.2-.2v-.7l.2-.2Z"/>
    </g>
    <g id="Fill-198">
      <path class="st2" d="M45.8,348.3l3.4,3.4,1.6-1.8-3.4-3.4-1.6,1.8"/>
    </g>
    <g id="Fill-199">
      <path class="st2" d="M43.5,351l3.4,3.4,1.6-1.8-3.4-3.4-1.6,1.8"/>
    </g>
    <g id="Fill-200">
      <path class="st2" d="M46.3,357c-.5,0-1,0-1.6.3,0,0-.1,0-.4,0l1.7-2-3.3-3.4-.5.5c0-.3.2-.7.3-1,.2-.7.1-1.5-.3-2.1-.4-.6-1-1-1.7-1.1-1,0-2,.4-2.8,1.5h0c0,0,0,.2,0,.2-.4,1.4-2,5.3-4.2,5.9-1.7.5-2.9,1.1-3.9,1.9-2.5,2.3-2.9,5.2-1.2,8.2.7,1.3,1.7,2.4,2.9,3.3.4.3.8.6,1.1.8,1.1.7,2.5,1.1,3.8,1.1,3.6,0,6.6-2.7,6.9-6.2v-.2c.2-2.1,1.4-3.8,3.2-4.5.2,0,.4-.1.6-.2.5-.1.9-.5,1.1-.9.2-.4.3-.9.1-1.3-.1-.4-.5-1.1-1.8-1.1h0ZM42.1,359.2l-5,5,.8.8c.2.2.2.6,0,.8l-1.7,1.8c-.1.1-.3.2-.4.2h0c-.2,0-.3,0-.4-.2l-5.1-5.1c-.2-.2-.2-.6,0-.8l1.7-1.8c.1-.1.3-.2.4-.2.2,0,.3,0,.4.2l.8.8,5.6-5.6c.2-.2.6-.2.8,0,.2.2.2.6,0,.8l-5.6,5.6.4.4,5-5c.2-.2.6-.2.8,0s.2.6,0,.8l-5,5,.4.4,5-5c.2-.2.6-.2.8,0,.2.2.2.6,0,.8h0Z"/>
    </g>
    <g id="Hat">
      <path id="Hat1" class="st2" d="M56.9,194.6h-13.3v-1.1h13.3c.3,0,.5-.2.5-.5s-.2-.5-.5-.5h-2.7c-1.8,0-2.9-.6-4.2-1.3-1.5-.8-3.3-1.8-6.5-1.9v-1.1c.1,0,.3,0,.4-.2l.5-.5c0-.1.2-.2.2-.4v-1.1c0-.1,0-.3-.2-.4l-.5-.5c0-.1-.2-.2-.4-.2h-1.1c-.1,0-.3,0-.4.2l-.5.5c0,.1-.2.2-.2.4v1.1c0,.1,0,.3.2.4l.5.5c.1.1.2.2.4.2v1.1c-3.2,0-4.9,1-6.5,1.9-1.3.7-2.4,1.3-4.2,1.3h-2.7c-.3,0-.5.2-.5.5s.2.5.5.5h13.3v1.1h-13.3c-.3,0-.5.2-.5.5s.2.5.5.5h2.7c1.8,0,2.9.6,4.2,1.3,1.5.8,3.3,1.8,6.5,1.9v11l-6.2,6.2c-.2.2-.2.5,0,.8.1.1.2.2.4.2s.3,0,.4-.2l5.5-5.5v5.1c0,.3.2.5.5.5s.5-.2.5-.5v-5.1l5.5,5.5c.1.1.2.2.4.2s.3,0,.4-.2c.2-.2.2-.5,0-.8l-6.2-6.2v-11c3.2,0,4.9-1,6.5-1.9,1.3-.7,2.4-1.3,4.2-1.3h2.7c.3,0,.5-.2.5-.5s-.2-.5-.5-.5" serif:id="Hat"/>
    </g>
    <g id="Kick">
      <g id="Kick1" serif:id="Kick">
        <path class="st2" d="M76.9,300.6l7-7.2h3.6l-8.2,8.2,8.2,9.9h-3.7l-6.5-8.1-.6.6v7.5h-2.7v-18.1h2.7s0,7.2,0,7.2Z"/>
        <path class="st2" d="M92.2,300v11.4h-2.6v-11.4h2.6ZM89.2,295.3c0-.5.2-.9.5-1.2s.7-.5,1.2-.5.9.2,1.2.5c.3.3.5.7.5,1.2s-.2.9-.5,1.2c-.3.3-.7.5-1.2.5s-.9-.2-1.2-.5c-.3-.3-.5-.7-.5-1.2h0Z"/>
        <path class="st2" d="M104.4,300.5v3.5c-.6-.7-1.1-1.2-1.6-1.5-.5-.3-1-.4-1.7-.4-1,0-1.8.3-2.5,1-.7.7-1,1.6-1,2.6s.3,1.9.9,2.6c.6.7,1.5,1,2.4,1s1.2-.1,1.7-.4c.5-.3,1-.8,1.7-1.5v3.5c-1.1.6-2.1.8-3.2.8-1.8,0-3.2-.6-4.4-1.7-1.2-1.1-1.8-2.6-1.8-4.3s.6-3.1,1.8-4.3c1.2-1.2,2.7-1.8,4.4-1.8s2.2.3,3.2.8h0Z"/>
        <path class="st2" d="M110.2,291.6v12.1l3.7-3.7h3.5l-5,4.8,5.3,6.6h-3.4l-3.8-4.8-.4.4v4.4h-2.6v-19.8h2.6Z"/>
      </g>
    </g>
    <g id="Snare">
      <g id="Snare1" serif:id="Snare">
        <path class="st2" d="M84.4,246l-2.2,1.3c-.4-.7-.8-1.2-1.2-1.4-.4-.2-.9-.4-1.5-.4s-1.4.2-1.9.6c-.5.4-.8,1-.8,1.6s.7,1.6,2,2.1l1.8.7c1.5.6,2.5,1.3,3.2,2.2.7.9,1,1.9,1,3.1s-.6,3-1.7,4.1c-1.1,1.1-2.5,1.6-4.2,1.6s-2.9-.5-3.9-1.4c-1-.9-1.6-2.2-1.9-3.9l2.8-.6c.1,1.1.3,1.8.7,2.2.6.8,1.4,1.2,2.5,1.2s1.6-.3,2.1-.9c.6-.6.8-1.3.8-2.2s0-.7-.1-1c0-.3-.2-.6-.5-.8s-.5-.5-.8-.7c-.3-.2-.7-.4-1.2-.6l-1.7-.7c-2.5-1-3.7-2.6-3.7-4.6s.5-2.5,1.6-3.4c1-.9,2.3-1.4,3.9-1.4s3.7,1,4.9,3h0Z"/>
        <path class="st2" d="M87.7,250h2.6v1.1c.9-.9,2-1.4,3.1-1.4s2.4.4,3.1,1.3c.6.7,1,1.9,1,3.5v7h-2.6v-6.4c0-1.1-.2-1.9-.5-2.3-.3-.4-.9-.7-1.7-.7s-1.5.3-1.9.9c-.4.6-.5,1.6-.5,3v5.5h-2.6v-11.4h0Z"/>
        <path class="st2" d="M109.2,250h2.6v11.4h-2.6v-1.2c-1.1,1-2.3,1.5-3.5,1.5s-2.9-.6-3.9-1.7c-1-1.2-1.5-2.6-1.5-4.4s.5-3.1,1.5-4.3c1-1.1,2.3-1.7,3.8-1.7s2.5.5,3.6,1.6v-1.3h0ZM103,255.7c0,1.1.3,2,.9,2.7.6.7,1.4,1,2.3,1s1.8-.3,2.4-1c.6-.7.9-1.6.9-2.6s-.3-2-.9-2.6c-.6-.7-1.4-1-2.3-1s-1.7.3-2.3,1c-.6.7-.9,1.6-.9,2.6h0Z"/>
        <path class="st2" d="M115.2,250h2.6v1c.5-.5.9-.9,1.3-1,.4-.2.8-.3,1.4-.3s1.4.2,2.2.7l-1.2,2.4c-.5-.4-1-.5-1.5-.5-1.4,0-2.2,1.1-2.2,3.3v5.9h-2.6s0-11.4,0-11.4Z"/>
        <path class="st2" d="M134.4,256.4h-8.2c0,.9.4,1.7.9,2.2.5.5,1.2.8,2.1.8s1.2-.2,1.6-.5c.4-.3.9-.9,1.4-1.7l2.2,1.2c-.3.6-.7,1.1-1.1,1.5-.4.4-.8.8-1.2,1-.4.3-.9.5-1.4.6s-1.1.2-1.7.2c-1.7,0-3.1-.5-4.1-1.6-1-1.1-1.5-2.6-1.5-4.4s.5-3.3,1.5-4.4c1-1.1,2.3-1.7,4-1.7s3,.5,4,1.6c1,1.1,1.5,2.5,1.5,4.4v.6s0,0,0,0ZM131.7,254.2c-.4-1.4-1.3-2.1-2.7-2.1s-.6,0-.9.1c-.3,0-.5.2-.8.4-.2.2-.4.4-.6.7s-.3.6-.4.9h5.3Z"/>
      </g>
    </g>
    <g id="Hat2" serif:id="Hat">
      <g id="Hat3" serif:id="Hat">
        <path class="st2" d="M76.9,200.4h7.8v-7.1h2.7v18.1h-2.7v-8.4h-7.8v8.4h-2.7v-18.1h2.7v7.1Z"/>
        <path class="st2" d="M93.9,200v11.4h-2.6v-11.4h2.6ZM90.9,195.3c0-.5.2-.9.5-1.2.3-.3.7-.5,1.2-.5s.9.2,1.2.5c.3.3.5.7.5,1.2s-.2.9-.5,1.2c-.3.3-.7.5-1.2.5s-.9-.2-1.2-.5c-.3-.3-.5-.7-.5-1.2Z"/>
        <path class="st2" d="M97.2,191.6h2.6v9.3c.9-.8,2-1.3,3.1-1.3s2.3.4,3.1,1.3c.7.7,1,1.9,1,3.5v7h-2.6v-6.8c0-.9-.2-1.6-.5-2-.3-.4-.8-.6-1.6-.6s-1.6.3-1.9.9c-.4.6-.6,1.6-.6,3v5.5h-2.6v-19.8Z"/>
        <path class="st2" d="M118.8,200h2.6v11.4h-2.6v-1.2c-1.1,1-2.3,1.5-3.5,1.5s-2.9-.6-3.9-1.7c-1-1.2-1.5-2.6-1.5-4.4s.5-3.1,1.5-4.3c1-1.1,2.3-1.7,3.8-1.7s2.5.5,3.6,1.6v-1.3ZM112.6,205.7c0,1.1.3,2,.9,2.7.6.7,1.4,1,2.3,1s1.8-.3,2.4-1c.6-.7.9-1.6.9-2.6s-.3-2-.9-2.6c-.6-.7-1.4-1-2.3-1s-1.7.3-2.3,1c-.6.7-.9,1.6-.9,2.6h0Z"/>
        <path class="st2" d="M127.5,202.5v9h-2.6v-9h-1.1v-2.5h1.1v-4.2h2.6v4.2h2v2.5s-2.1,0-2,0Z"/>
      </g>
    </g>
    <g id="Snare2" serif:id="Snare">
      <path id="Snare3" class="st2" d="M58.1,243.7c0-.1-.2-.2-.4-.2h-.2c0-.2-.1-.4-.2-.5h.2c.7,0,1.3-.6,1.3-1.3s-.6-1.3-1.3-1.3h-2.5c-.5-.4-1-.7-1.6-1l3.2-1.9c.6-.4.9-1.2.5-1.8-.4-.6-1.2-.8-1.8-.5l-5.1,2.9c-1.6-.5-3.4-.8-5.3-.9h0c0-.2,0-.3-.2-.4l-.5-.5c0-.1-.2-.2-.4-.2h-1.1c-.1,0-.3,0-.4.2l-.5.5c-.1.1-.2.2-.2.4h0c-1.9.1-3.7.4-5.4.9,0,0,0-.1-.1-.2l-.5-.5c0-.1-.2-.2-.4-.2h-1.1c-.1,0-.3,0-.4.2l-.5.5c0,.1-.2.2-.2.4v.9c-2.4,1.2-4,2.7-4.6,4.4h-.2c-.1,0-.3,0-.4.2l-.5.5c-.1,0-.2.2-.2.4v1.1c0,.1,0,.3.2.4l.5.5c.1.1.2.2.4.2v11.2c-.1,0-.3,0-.4.2l-.5.5c-.1.1-.2.2-.2.4v1.1c0,.1,0,.3.2.4l.5.5c.1.1.2.2.4.2h1.1s0,0,0,0c.8,1.1,2.1,2,3.7,2.8v.4c0,.1,0,.3.2.4l.5.5c0,0,.2.2.4.2h1.1c.1,0,.3,0,.4-.2l.3-.3c1.8.5,3.7.8,5.8.9h0c0,.2,0,.3.2.4l.5.5c0,.1.2.2.4.2h1.1c.1,0,.3,0,.4-.2l.5-.5c0-.1.2-.2.2-.4h0c2-.2,3.9-.6,5.6-1.1l.4.4c0,0,.2.2.4.2h1.1c.1,0,.3,0,.4-.2l.5-.5c.1-.1.2-.2.2-.4v-.7c1.4-.7,2.5-1.6,3.2-2.5,0,0,0,0,0,0h1.1c.1,0,.3,0,.4-.2l.5-.5c.1-.1.2-.2.2-.4v-1.1c0-.1,0-.3-.2-.4l-.5-.5c0-.1-.2-.2-.4-.2v-11.2c.1,0,.3,0,.4-.2l.5-.5c.1-.1.2-.2.2-.4v-1.1c0-.1,0-.3-.2-.4l-.5-.5h0ZM52.2,240c.2.1.5.2.7.3h-1.3,0s.6-.3.6-.3ZM33.7,240l.3.3h1.5l.8-.8v-.4c1.6-.5,3.5-.7,5.3-.8v.2l.8.8h1.5l.8-.8v-.2c1.4,0,2.7.3,4,.6l-2.6,1.5h-6.2c-.4,0-.8,0-1.1,0l-4.1.5c-.4,0-.7.4-.7.8s.3.7.7.8l4.1.5c.4,0,.8,0,1.1,0h1.5l-1.3.8c-.3.2-.6.4-.9.6l-3.3,2.5c-.2.1-.3.3-.3.5,0,.1,0,.2,0,.4,0,0,0,0,0,0,0,0,0,.1,0,.2,0,0,0,0,0,0,0,0,0,0,0,0,0,0,.1,0,.2.1,0,0,0,0,0,0,0,0,0,0,.1,0,0,0,0,0,0,0,0,0,0,0,0,0,.1,0,.2,0,.3,0l3.8-1.6c.3-.1.7-.3,1-.5l5.4-3.1h9.1c.1.2.2.4.3.6l-.8.8v1.5l.6.6s0,0,0,0c0,0,0,.2-.1.2,0,.1-.1.2-.2.3,0,0-.1.2-.2.2,0,0-.2.2-.3.3,0,0-.2.2-.2.2,0,0-.2.2-.3.3,0,0-.2.1-.3.2-.1,0-.2.2-.3.3-.1,0-.2.1-.3.2-.1,0-.2.2-.4.2-.1,0-.2.1-.3.2-.1,0-.3.1-.4.2-.1,0-.2.1-.4.2-.1,0-.3.1-.5.2-.1,0-.3.1-.4.2-.2,0-.3.1-.5.2-.1,0-.3.1-.4.1-.2,0-.3.1-.5.2-.1,0-.3,0-.4.1-.2,0-.4,0-.6.1-.2,0-.3,0-.5.1-.2,0-.4,0-.6.1-.2,0-.3,0-.5,0-.2,0-.4,0-.6.1-.2,0-.3,0-.5,0-.2,0-.5,0-.7,0-.2,0-.3,0-.4,0-.3,0-.5,0-.8,0-.1,0-.3,0-.4,0-.4,0-.8,0-1.2,0s-.8,0-1.2,0c-.1,0-.3,0-.4,0-.3,0-.5,0-.8,0-.2,0-.3,0-.4,0-.2,0-.5,0-.7,0-.2,0-.3,0-.5,0-.2,0-.4,0-.6-.1-.2,0-.3,0-.5,0-.2,0-.4,0-.6-.1-.2,0-.3,0-.5-.1-.2,0-.4,0-.6-.1-.2,0-.3,0-.4-.1-.2,0-.3-.1-.5-.2-.1,0-.3,0-.4-.1-.2,0-.3-.1-.5-.2-.1,0-.3-.1-.4-.2-.2,0-.3-.1-.5-.2-.1,0-.3-.1-.4-.2-.1,0-.3-.1-.4-.2-.1,0-.2-.1-.3-.2-.1,0-.3-.2-.4-.2-.1,0-.2-.1-.3-.2-.1,0-.2-.2-.3-.3,0,0-.2-.1-.3-.2-.1,0-.2-.2-.3-.3,0,0-.2-.2-.2-.2,0,0-.2-.2-.3-.3,0,0-.1-.2-.2-.2,0-.1-.1-.2-.2-.3,0,0-.1-.2-.1-.2,0,0,0,0,0,0l.6-.6v-1.5l-.8-.8c.6-1.3,2-2.6,4-3.5h0ZM30.2,260.5l.2-.2v-1.5l-.8-.8h-.2v-10.2c.1.1.2.3.4.4,0,0,0,0,0,0,.2.2.4.4.6.5,0,0,.1.1.2.2.1.1.3.2.5.4,0,0,.2.1.3.2.1.1.3.2.5.3.1,0,.2.1.3.2.2,0,.3.2.5.3.1,0,.2.1.3.2.2,0,.4.2.5.3.1,0,.2.1.3.1.1,0,.3.1.4.2v11.2h-.2l-.7.7c-1.3-.7-2.4-1.5-3.1-2.4ZM36.3,264v-1l-.8-.8h-.2v-10.8c.1,0,.3,0,.4.1,0,0,.2,0,.2,0,.3,0,.5.2.8.2.1,0,.3,0,.4,0,.2,0,.5.1.7.2.1,0,.3,0,.4,0,.2,0,.5,0,.7.1.2,0,.3,0,.5,0,.2,0,.5,0,.7,0,.2,0,.3,0,.5,0,.3,0,.5,0,.8,0,.1,0,.3,0,.4,0,.3,0,.6,0,1,0v11.2h-.2l-.8.8v.2c-1.9,0-3.7-.4-5.3-.8h0ZM44.9,264.6l-.8-.8h-.2v-11.2c.1,0,.3,0,.4,0,.1,0,.3,0,.4,0,.3,0,.5,0,.8,0,.2,0,.3,0,.5,0,.2,0,.5,0,.7,0,.2,0,.3,0,.5,0,.2,0,.5,0,.7-.1.1,0,.3,0,.4,0,.2,0,.5,0,.7-.2.1,0,.3,0,.4,0,.3,0,.5-.1.8-.2,0,0,.2,0,.2,0,.3,0,.6-.2,1-.3v10.9h-.2l-.8.8v.8c-1.6.5-3.4.8-5.3,1v-.2ZM56.4,257.9l-.8.8v1.5l.2.2c-.6.8-1.5,1.5-2.7,2.2l-.5-.5h-.2v-11.4c0,0,.1,0,.2-.1.2,0,.4-.2.5-.3.1,0,.2-.1.3-.2.2,0,.3-.2.5-.3.1,0,.2-.1.3-.2.2,0,.3-.2.5-.3,0,0,.2-.1.3-.2.2-.1.3-.2.5-.4,0,0,.1-.1.2-.2.2-.2.4-.4.6-.5,0,0,0,0,0,0,.1-.1.3-.3.4-.4v10.2h-.2,0Z" serif:id="Snare"/>
    </g>
    <g id="o-u">
      <g id="o-u1" serif:id="o-u">
        <text class="st5" transform="translate(58.3 167.2)"><tspan x="0" y="0">上下</tspan></text>
      </g>
    </g>
    <g id="barcell">
      <rect id="barcell1" class="st3" x="149" y="20" width="396" height="36" serif:id="barcell"/>
    </g>
    <g id="barcell2" serif:id="barcell">
      <rect id="barcell3" class="st3" x="549" y="20" width="396" height="36" serif:id="barcell"/>
    </g>
    <g>
      <g id="cell52" serif:id="cell">
        <rect id="cell53" class="st12" x="599" y="180" width="46" height="46" serif:id="cell"/>
      </g>
      <g id="cell54" serif:id="cell">
        <rect id="cell55" class="st12" x="649" y="180" width="46" height="46" serif:id="cell"/>
      </g>
      <g id="cell56" serif:id="cell">
        <rect id="cell57" class="st12" x="699" y="180" width="46" height="46" serif:id="cell"/>
      </g>
      <g id="cell58" serif:id="cell">
        <rect id="cell59" class="st12" x="749" y="180" width="46" height="46" serif:id="cell"/>
      </g>
      <g id="cell60" serif:id="cell">
        <rect id="cell61" class="st12" x="799" y="180" width="46" height="46" serif:id="cell"/>
      </g>
      <g id="cell62" serif:id="cell">
        <rect id="cell63" class="st12" x="849" y="180" width="46" height="46" serif:id="cell"/>
      </g>
      <g id="cell64" serif:id="cell">
        <rect id="cell65" class="st12" x="899" y="180" width="46" height="46" serif:id="cell"/>
      </g>
    </g>
    <g>
      <g id="cell66" serif:id="cell">
        <rect id="cell67" class="st12" x="599" y="230" width="46" height="46" serif:id="cell"/>
      </g>
      <g id="cell68" serif:id="cell">
        <rect id="cell69" class="st12" x="649" y="230" width="46" height="46" serif:id="cell"/>
      </g>
      <g id="cell70" serif:id="cell">
        <rect id="cell71" class="st12" x="699" y="230" width="46" height="46" serif:id="cell"/>
      </g>
      <g id="cell72" serif:id="cell">
        <rect id="cell73" class="st12" x="749" y="230" width="46" height="46" serif:id="cell"/>
      </g>
      <g id="cell74" serif:id="cell">
        <rect id="cell75" class="st12" x="799" y="230" width="46" height="46" serif:id="cell"/>
      </g>
      <g id="cell76" serif:id="cell">
        <rect id="cell77" class="st12" x="849" y="230" width="46" height="46" serif:id="cell"/>
      </g>
      <g id="cell78" serif:id="cell">
        <rect id="cell79" class="st12" x="899" y="230" width="46" height="46" serif:id="cell"/>
      </g>
    </g>
    <g>
      <g id="cell80" serif:id="cell">
        <rect id="cell81" class="st12" x="599" y="280" width="46" height="46" serif:id="cell"/>
      </g>
      <g id="cell82" serif:id="cell">
        <rect id="cell83" class="st12" x="649" y="280" width="46" height="46" serif:id="cell"/>
      </g>
      <g id="cell84" serif:id="cell">
        <rect id="cell85" class="st12" x="699" y="280" width="46" height="46" serif:id="cell"/>
      </g>
      <g id="cell86" serif:id="cell">
        <rect id="cell87" class="st12" x="749" y="280" width="46" height="46" serif:id="cell"/>
      </g>
      <g id="cell88" serif:id="cell">
        <rect id="cell89" class="st12" x="799" y="280" width="46" height="46" serif:id="cell"/>
      </g>
      <g id="cell90" serif:id="cell">
        <rect id="cell91" class="st12" x="849" y="280" width="46" height="46" serif:id="cell"/>
      </g>
      <g id="cell92" serif:id="cell">
        <rect id="cell93" class="st12" x="899" y="280" width="46" height="46" serif:id="cell"/>
      </g>
    </g>
    <g id="weak7" serif:id="weak">
      <circle id="strong19" class="st10" cx="622" cy="202.3" r="10" serif:id="strong"/>
    </g>
    <g id="strong20" serif:id="strong">
      <circle id="strong21" class="st10" cx="672" cy="202.3" r="14" serif:id="strong"/>
    </g>
    <g id="weak8" serif:id="weak">
      <circle id="strong22" class="st10" cx="722" cy="202.3" r="10" serif:id="strong"/>
    </g>
    <g id="weak9" serif:id="weak">
      <circle id="strong23" class="st10" cx="822" cy="202.3" r="10" serif:id="strong"/>
    </g>
    <g id="strong24" serif:id="strong">
      <circle id="strong25" class="st10" cx="872" cy="202.3" r="14" serif:id="strong"/>
    </g>
    <g id="strong26" serif:id="strong">
      <circle id="strong27" class="st10" cx="772" cy="202.3" r="14" serif:id="strong"/>
    </g>
    <g id="weak10" serif:id="weak">
      <circle id="strong28" class="st10" cx="922" cy="202.3" r="10" serif:id="strong"/>
    </g>
    <g id="strong29" serif:id="strong">
      <circle id="strong30" class="st10" cx="622" cy="303" r="14" serif:id="strong"/>
    </g>
    <g id="strong31" serif:id="strong">
      <circle id="strong32" class="st10" cx="822" cy="303" r="14" serif:id="strong"/>
    </g>
    <g id="weak11" serif:id="weak">
      <circle id="strong33" class="st10" cx="722" cy="303" r="10" serif:id="strong"/>
    </g>
    <g id="strong34" serif:id="strong">
      <circle id="strong35" class="st10" cx="672" cy="253" r="14" serif:id="strong"/>
    </g>
    <g id="strong36" serif:id="strong">
      <circle id="strong37" class="st10" cx="872" cy="254" r="14" serif:id="strong"/>
    </g>
    <g id="beatcell2">
      <g id="cell94" serif:id="cell">
        <rect class="st14" x="149" y="140" width="46" height="36"/>
      </g>
      <g id="cell95" serif:id="cell">
        <rect class="st14" x="199" y="140" width="46" height="36"/>
      </g>
      <text class="st8" transform="translate(159 165.6)"><tspan x="0" y="0">下</tspan></text>
      <text class="st8" transform="translate(210 165.6)"><tspan x="0" y="0">上</tspan></text>
    </g>
    <g id="beatcell21" serif:id="beatcell2">
      <g id="cell96" serif:id="cell">
        <rect class="st14" x="249" y="140" width="46" height="36"/>
      </g>
      <g id="cell97" serif:id="cell">
        <rect class="st14" x="299" y="140" width="46" height="36"/>
      </g>
      <text class="st8" transform="translate(259 165.6)"><tspan x="0" y="0">下</tspan></text>
      <text class="st8" transform="translate(310 165.6)"><tspan x="0" y="0">上</tspan></text>
    </g>
    <g id="beatcell22" serif:id="beatcell2">
      <g id="cell98" serif:id="cell">
        <rect class="st14" x="349" y="140" width="46" height="36"/>
      </g>
      <g id="cell99" serif:id="cell">
        <rect class="st14" x="399" y="140" width="46" height="36"/>
      </g>
      <text class="st8" transform="translate(359 165.6)"><tspan x="0" y="0">下</tspan></text>
      <text class="st8" transform="translate(410 165.6)"><tspan x="0" y="0">上</tspan></text>
    </g>
    <g id="beatcell23" serif:id="beatcell2">
      <g id="cell100" serif:id="cell">
        <rect class="st14" x="449" y="140" width="46" height="36"/>
      </g>
      <g id="cell101" serif:id="cell">
        <rect class="st14" x="499" y="140" width="46" height="36"/>
      </g>
      <text class="st8" transform="translate(459 165.6)"><tspan x="0" y="0">下</tspan></text>
      <text class="st8" transform="translate(510 165.6)"><tspan x="0" y="0">上</tspan></text>
    </g>
    <g id="beatcell24" serif:id="beatcell2">
      <g id="cell102" serif:id="cell">
        <rect class="st14" x="549" y="140" width="46" height="36"/>
      </g>
      <g id="cell103" serif:id="cell">
        <rect class="st14" x="599" y="140" width="46" height="36"/>
      </g>
      <text class="st8" transform="translate(559 165.6)"><tspan x="0" y="0">下</tspan></text>
      <text class="st8" transform="translate(610 165.6)"><tspan x="0" y="0">上</tspan></text>
    </g>
    <g id="beatcell25" serif:id="beatcell2">
      <g id="cell104" serif:id="cell">
        <rect class="st14" x="649" y="140" width="46" height="36"/>
      </g>
      <g id="cell105" serif:id="cell">
        <rect class="st14" x="699" y="140" width="46" height="36"/>
      </g>
      <text class="st8" transform="translate(659 165.6)"><tspan x="0" y="0">下</tspan></text>
      <text class="st8" transform="translate(710 165.6)"><tspan x="0" y="0">上</tspan></text>
    </g>
    <g id="beatcell26" serif:id="beatcell2">
      <g id="cell106" serif:id="cell">
        <rect class="st14" x="749" y="140" width="46" height="36"/>
      </g>
      <g id="cell107" serif:id="cell">
        <rect class="st14" x="799" y="140" width="46" height="36"/>
      </g>
      <text class="st8" transform="translate(759 165.6)"><tspan x="0" y="0">下</tspan></text>
      <text class="st8" transform="translate(810 165.6)"><tspan x="0" y="0">上</tspan></text>
    </g>
    <g id="beatcell27" serif:id="beatcell2">
      <g id="cell108" serif:id="cell">
        <rect class="st14" x="849" y="140" width="46" height="36"/>
      </g>
      <g id="cell109" serif:id="cell">
        <rect class="st14" x="899" y="140" width="46" height="36"/>
      </g>
      <text class="st8" transform="translate(859 165.6)"><tspan x="0" y="0">下</tspan></text>
      <text class="st8" transform="translate(910 165.6)"><tspan x="0" y="0">上</tspan></text>
    </g>
    <g id="beatcell">
      <rect id="beatcell1" class="st3" x="149" y="60" width="96" height="36" serif:id="beatcell"/>
    </g>
    <g id="beatcell3" serif:id="beatcell">
      <rect id="beatcell4" class="st3" x="249" y="60" width="96" height="36" serif:id="beatcell"/>
    </g>
    <g id="beatcell5" serif:id="beatcell">
      <rect id="beatcell6" class="st3" x="349" y="60" width="96" height="36" serif:id="beatcell"/>
    </g>
    <g id="beatcell7" serif:id="beatcell">
      <rect id="beatcell8" class="st3" x="449" y="60" width="96" height="36" serif:id="beatcell"/>
    </g>
    <g id="beatcell9" serif:id="beatcell">
      <rect id="beatcell10" class="st3" x="549" y="60" width="96" height="36" serif:id="beatcell"/>
    </g>
    <g id="beatcell11" serif:id="beatcell">
      <rect id="beatcell12" class="st3" x="649" y="60" width="96" height="36" serif:id="beatcell"/>
    </g>
    <g id="beatcell13" serif:id="beatcell">
      <rect id="beatcell14" class="st3" x="749" y="60" width="96" height="36" serif:id="beatcell"/>
    </g>
    <g id="beatcell15" serif:id="beatcell">
      <rect id="beatcell16" class="st3" x="849" y="60" width="96" height="36" serif:id="beatcell"/>
    </g>
    <g id="_1" serif:id="1">
      <path id="_11" class="st2" d="M346.2,31.3v13.8h2.4v-16h-3.9l-1.3,2.3s2.8,0,2.8,0Z" serif:id="1"/>
    </g>
    <g id="_12" serif:id="1">
      <path id="_13" class="st2" d="M193.2,72.3v13.8h2.4v-16h-3.9l-1.3,2.3h2.8Z" serif:id="1"/>
    </g>
    <g id="_2" serif:id="2">
      <path id="_21" class="st2" d="M294.8,83.8l2.5-2.9c2.8-3.3,3.5-4.5,3.5-6.2,0-2.7-2.3-4.8-5.2-4.8s-3.3.8-4.2,2.2c-.5.8-.8,1.5-.9,2.9h2.4c0-.9.2-1.3.6-1.8.5-.7,1.3-1.1,2.2-1.1,1.5,0,2.7,1.2,2.7,2.6s-.6,2-2.8,4.7l-5.5,6.7h10.8v-2.3h-6,0Z" serif:id="2"/>
    </g>
    <g id="_3" serif:id="3">
      <path id="_31" class="st2" d="M394.9,78.7c1.1,0,1.6.1,2.1.4.7.4,1.2,1.3,1.2,2.3,0,1.6-1.1,2.8-2.7,2.8s-1.7-.4-2.2-1c-.3-.4-.5-.7-.6-1.4h-2.3c0,1.1.2,1.6.6,2.2.8,1.5,2.5,2.4,4.4,2.4,3,0,5.2-2,5.2-4.9s-.7-3-2-3.8c1.2-.8,1.7-1.9,1.7-3.4,0-2.6-1.9-4.4-4.8-4.4s-3.1.6-3.9,1.8c-.5.7-.6,1.2-.9,2.5h2.4c.2-.7.3-1,.5-1.3.4-.5,1.1-.8,1.8-.8,1.4,0,2.4,1,2.4,2.3s-.6,2-1.6,2.2c-.4,0-.5,0-1.4,0v2.1h0Z" serif:id="3"/>
    </g>
    <g id="_4" serif:id="4">
      <path id="_41" class="st2" d="M499.9,81.6v-12.7l-10.3,14.9h7.8v2.3h2.4v-2.3h1.7v-2.2h-1.7ZM497.5,81.6h-3.7l3.7-5.4v5.4Z" serif:id="4"/>
    </g>
    <g id="_14" serif:id="1">
      <path id="_15" class="st2" d="M593.2,72.3v13.8h2.4v-16h-3.9l-1.3,2.3s2.8,0,2.8,0Z" serif:id="1"/>
    </g>
    <g id="_22" serif:id="2">
      <path id="_23" class="st2" d="M694.8,83.8l2.5-2.9c2.8-3.3,3.5-4.5,3.5-6.2,0-2.7-2.3-4.8-5.2-4.8s-3.3.8-4.2,2.2c-.5.8-.8,1.5-.9,2.9h2.4c0-.9.2-1.3.6-1.8.5-.7,1.3-1.1,2.2-1.1,1.5,0,2.7,1.2,2.7,2.6s-.6,2-2.8,4.7l-5.5,6.7h10.8v-2.3h-6Z" serif:id="2"/>
    </g>
    <g id="_32" serif:id="3">
      <path id="_33" class="st2" d="M794.9,78.7c1.1,0,1.6.1,2.1.4.7.4,1.2,1.3,1.2,2.3,0,1.6-1.1,2.8-2.7,2.8s-1.7-.4-2.2-1c-.3-.4-.5-.7-.6-1.4h-2.3c0,1.1.2,1.6.6,2.2.8,1.5,2.5,2.4,4.4,2.4,3,0,5.2-2,5.2-4.9s-.7-3-2-3.8c1.2-.8,1.7-1.9,1.7-3.4,0-2.6-1.9-4.4-4.8-4.4s-3.1.6-3.9,1.8c-.5.7-.6,1.2-.9,2.5h2.4c.2-.7.3-1,.5-1.3.4-.5,1.1-.8,1.8-.8,1.4,0,2.4,1,2.4,2.3s-.6,2-1.6,2.2c-.4,0-.5,0-1.4,0v2.1h0Z" serif:id="3"/>
    </g>
    <g id="_42" serif:id="4">
      <path id="_43" class="st2" d="M899.9,81.6v-12.7l-10.3,14.9h7.8v2.3h2.4v-2.3h1.7v-2.2h-1.7ZM897.5,81.6h-3.7l3.7-5.4v5.4Z" serif:id="4"/>
    </g>
    <g id="_24" serif:id="2">
      <path id="_25" class="st2" d="M744.8,42.8l2.5-2.9c2.8-3.3,3.5-4.5,3.5-6.2,0-2.7-2.3-4.8-5.2-4.8s-3.3.8-4.2,2.2c-.5.8-.8,1.5-.9,2.9h2.4c0-.9.2-1.3.6-1.8.5-.7,1.3-1.1,2.2-1.1,1.5,0,2.7,1.2,2.7,2.6s-.6,2-2.8,4.7l-5.5,6.7h10.8v-2.3h-6Z" serif:id="2"/>
    </g>
    <g id="beat">
      <g id="beat1" serif:id="beat">
        <text class="st5" transform="translate(72.1 86.2)"><tspan x="0" y="0">拍</tspan></text>
      </g>
    </g>
    <g id="beatcell17" serif:id="beatcell">
      <rect id="beatcell18" class="st3" x="149" y="100" width="96" height="36" serif:id="beatcell"/>
    </g>
    <g id="beatcell19" serif:id="beatcell">
      <rect id="beatcell20" class="st3" x="249" y="100" width="96" height="36" serif:id="beatcell"/>
    </g>
    <g id="beatcell28" serif:id="beatcell">
      <rect id="beatcell29" class="st3" x="349" y="100" width="96" height="36" serif:id="beatcell"/>
    </g>
    <g id="beatcell30" serif:id="beatcell">
      <rect id="beatcell31" class="st3" x="449" y="100" width="96" height="36" serif:id="beatcell"/>
    </g>
    <g id="beatcell32" serif:id="beatcell">
      <rect id="beatcell33" class="st3" x="549" y="100" width="96" height="36" serif:id="beatcell"/>
    </g>
    <g id="beatcell34" serif:id="beatcell">
      <rect id="beatcell35" class="st3" x="649" y="100" width="96" height="36" serif:id="beatcell"/>
    </g>
    <g id="beatcell36" serif:id="beatcell">
      <rect id="beatcell37" class="st3" x="749" y="100" width="96" height="36" serif:id="beatcell"/>
    </g>
    <g id="beatcell38" serif:id="beatcell">
      <rect id="beatcell39" class="st3" x="849" y="100" width="96" height="36" serif:id="beatcell"/>
    </g>
    <g id="kyoujaku">
      <g id="kyoujaku1" serif:id="kyoujaku">
        <text class="st9" transform="translate(58.1 126.2)"><tspan x="0" y="0">强弱</tspan></text>
      </g>
    </g>
    <g id="kyou">
      <g id="kyou1" serif:id="kyou">
        <text class="st8" transform="translate(184.1 126.2)"><tspan x="0" y="0">强</tspan></text>
      </g>
    </g>
    <g id="jaku">
      <g id="jaku1" serif:id="jaku">
        <text class="st6" transform="translate(286.1 126.2)"><tspan x="0" y="0">弱</tspan></text>
      </g>
    </g>
    <g id="jaku2" serif:id="jaku">
      <g id="jaku3" serif:id="jaku">
        <text class="st6" transform="translate(486.1 126.2)"><tspan x="0" y="0">弱</tspan></text>
      </g>
    </g>
    <g id="chuu">
      <g id="chuu1" serif:id="chuu">
        <text class="st8" transform="translate(384.1 126.2)"><tspan x="0" y="0">中</tspan></text>
      </g>
    </g>
    <g id="kyou2" serif:id="kyou">
      <g id="kyou3" serif:id="kyou">
        <text class="st8" transform="translate(584.1 126.2)"><tspan x="0" y="0">强</tspan></text>
      </g>
    </g>
    <g id="jaku4" serif:id="jaku">
      <g id="jaku5" serif:id="jaku">
        <text class="st6" transform="translate(686.1 126.2)"><tspan x="0" y="0">弱</tspan></text>
      </g>
    </g>
    <g id="jaku6" serif:id="jaku">
      <g id="jaku7" serif:id="jaku">
        <text class="st6" transform="translate(886.1 126.2)"><tspan x="0" y="0">弱</tspan></text>
      </g>
    </g>
    <g id="chuu2" serif:id="chuu">
      <g id="chuu3" serif:id="chuu">
        <text class="st8" transform="translate(784.1 126.2)"><tspan x="0" y="0">中</tspan></text>
      </g>
    </g>
    <g id="bar">
      <g id="bar1" serif:id="bar">
        <text class="st5" transform="translate(62.1 46.2)"><tspan x="0" y="0">小节</tspan></text>
      </g>
    </g>
    <path class="st11" d="M178.9,340.9v4.3c-2.1-1.8-4.3-2.6-6.5-2.6s-4.6.9-6.3,2.7c-1.7,1.8-2.6,3.9-2.6,6.5s.9,4.7,2.6,6.4c1.7,1.7,3.8,2.6,6.3,2.6s2.4-.2,3.3-.6c.5-.2,1-.5,1.6-.8.5-.4,1.1-.8,1.7-1.3v4.4c-2.1,1.2-4.3,1.8-6.6,1.8-3.4,0-6.4-1.2-8.8-3.6-2.4-2.4-3.6-5.4-3.6-8.8s1-5.8,3.1-8.2c2.5-3,5.7-4.4,9.7-4.4s4.3.6,6.3,1.8Z"/>
  </g>
</svg>