<?xml version="1.0" encoding="UTF-8"?>
<svg width="1100px" height="420px" viewBox="0 0 1100 420" version="1.1" xmlns="http://www.w3.org/2000/svg" xmlns:xlink="http://www.w3.org/1999/xlink">
    <title>R1-clave-matome</title>
    <g id="R1-clave-matome" stroke="none" stroke-width="1" fill="none" fill-rule="evenodd">
        <rect fill="#FFFFFF" x="0" y="0" width="1100" height="420"></rect>
        <path d="M1078,59 L1078,94 L980,94 L980,59 L1078,59 Z M377,59 L377,94 L280,94 L280,59 L377,59 Z M477,59 L477,94 L379,94 L379,59 L477,59 Z M578,59 L578,94 L479,94 L479,59 L578,59 Z M676,59 L676,94 L580,94 L580,59 L676,59 Z M778,59 L778,94 L678,94 L678,59 L778,59 Z M878,59 L878,94 L780,94 L780,59 L878,59 Z M978,59 L978,94 L880,94 L880,59 L978,59 Z" id="Combined-Shape" fill="#AAAAAA"></path>
        <path d="M377,146 L377,146.5 L329,146.5 L329,146 L377,146 Z M427,146 L427,146.5 L379,146.5 L379,146 L427,146 Z M477,146 L477,146.5 L429,146.5 L429,146 L477,146 Z M527,146 L527,146.5 L479,146.5 L479,146 L527,146 Z M578,146 L578,146.5 L529,146.5 L529,146 L578,146 Z M628,146 L628,146.5 L580,146.5 L580,146 L628,146 Z M676,146 L676,146.5 L630,146.5 L630,146 L676,146 Z M728,146 L728,146.5 L678,146.5 L678,146 L728,146 Z M778,146 L778,146.5 L730,146.5 L730,146 L778,146 Z M828,146 L828,146.5 L780,146.5 L780,146 L828,146 Z M878,146 L878,146.5 L830,146.5 L830,146 L878,146 Z M928,146 L928,146.5 L880,146.5 L880,146 L928,146 Z M978,146 L978,146.5 L930,146.5 L930,146 L978,146 Z M1028,146 L1028,146.5 L980,146.5 L980,146 L1028,146 Z M1078,146 L1078,146.5 L1030,146.5 L1030,146 L1078,146 Z M327,146 L327,146.5 L280,146.5 L280,146 L327,146 Z M427,96.5 L427,144 L379,144 L379,96.5 L427,96.5 Z M477,96.5 L477,144 L429,144 L429,96.5 L477,96.5 Z M527,96.5 L527,144 L479,144 L479,96.5 L527,96.5 Z M578,96.5 L578,144 L529,144 L529,96.5 L578,96.5 Z M628,96.5 L628,144 L580,144 L580,96.5 L628,96.5 Z M676,96.5 L676,144 L630,144 L630,96.5 L676,96.5 Z M728,96.5 L728,144 L678,144 L678,96.5 L728,96.5 Z M778,96.5 L778,144 L730,144 L730,96.5 L778,96.5 Z M828,96.5 L828,144 L780,144 L780,96.5 L828,96.5 Z M878,96.5 L878,144 L830,144 L830,96.5 L878,96.5 Z M928,96.5 L928,144 L880,144 L880,96.5 L928,96.5 Z M978,96.5 L978,144 L930,144 L930,96.5 L978,96.5 Z M1028,96.5 L1028,144 L980,144 L980,96.5 L1028,96.5 Z M1078,96.5 L1078,144 L1030,144 L1030,96.5 L1078,96.5 Z M327,96.5 L327,144 L280,144 L280,96.5 L327,96.5 Z M377,96.5 L377,144 L329,144 L329,96.5 L377,96.5 Z" id="Combined-Shape" fill="#F2F2F2" fill-rule="nonzero"></path>
        <rect id="TH1" fill="#444444" x="115" y="19" width="160" height="35"></rect>
        <rect id="TH3" fill="#444444" x="115" y="59" width="160" height="35"></rect>
        <rect id="TH4" fill="#DCDCDC" x="115" y="96.5" width="160" height="48"></rect>
        <g id="12-drum-sticks-solid" transform="translate(123.682354, 108.174829)" fill="#000000" fill-rule="nonzero">
            <path d="M20.9681923,8.70283421 C21.8707599,7.80016805 22.6866402,6.80412264 23.4117539,5.7157185 C23.5035404,5.5784561 20.5602155,2.64504622 20.4036684,2.7496514 C19.3425141,3.45790501 18.3471401,4.27484594 17.4445725,5.1775121 L14.3177111,8.30648263 L11.1903399,5.1775121 C10.2887921,4.27484594 9.29290821,3.45790501 8.23124394,2.74914113 C8.0746969,2.64504622 5.13188189,5.5784561 5.24049595,5.7422525 C5.94929198,6.80565344 6.76568223,7.80220913 7.66672006,8.70283421 L10.7940913,11.832315 L2.84133456,19.7906005 C2.48540677,20.1467684 2.29571459,20.6396884 2.32121085,21.1428138 C2.34619719,21.6459392 2.58484218,22.1179382 2.97646474,22.4383872 C3.28547941,22.6914807 4.66486376,23.8251712 5.07331385,23.8251712 C5.57100084,23.8251712 6.06052904,23.6210636 6.41645683,23.2643854 L14.3177111,15.3576371 L22.2184555,23.2643854 C22.5748933,23.6210636 23.0644215,23.8251712 23.5615985,23.8251712 C23.9705585,23.8251712 24.3499429,23.6914807 24.6584476,23.4388975 C25.0500702,23.1179382 26.2892251,21.6459392 26.3147214,21.1423035 C26.3391978,20.6391781 26.1495056,20.1462581 25.7935778,19.7906005 L17.841331,11.832315 L20.9681923,8.70283421 Z" id="Fill-23" transform="translate(14.317882, 13.285803) rotate(-345.000000) translate(-14.317882, -13.285803) "></path>
        </g>
        <polygon id="Hat" fill="#5CB300" points="453.75 104 468.75 119.006408 453.75 134 438.75 119.006408"></polygon>
        <polygon id="Hat" fill="#5CB300" points="305 104 320 119.006408 305 134 290 119.006408"></polygon>
        <polygon id="Hat" fill="#5CB300" points="603.75 104 618.75 119.006408 603.75 134 588.75 119.006408"></polygon>
        <polygon id="Hat" fill="#5CB300" points="803.75 104 818.75 119.006408 803.75 134 788.75 119.006408"></polygon>
        <polygon id="Hat" fill="#5CB300" points="903.75 104 918.75 119.006408 903.75 134 888.75 119.006408"></polygon>
        <text id="Beat" fill="#FFFFFF" fill-rule="nonzero" font-family="HiraginoSans-W6, Hiragino Sans" font-size="16.25" font-weight="500">
            <tspan x="177.520625" y="83">Beat</tspan>
        </text>
        <text id="Son-Clave" fill="#000000" fill-rule="nonzero" font-family="HiraginoSans-W6, Hiragino Sans" font-size="16.25" font-weight="500">
            <tspan x="170.055625" y="128">Son Clave</tspan>
        </text>
        <text id="Bar" fill="#FFFFFF" fill-rule="nonzero" font-family="HiraginoSans-W6, Hiragino Sans" font-size="16.25" font-weight="500">
            <tspan x="184.725" y="43">Bar</tspan>
        </text>
        <polygon id="_13" fill="#FFFFFF" points="298.912037 71.2901049 298.912037 85.25 301.25 85.25 301.25 69 297.523148 69 296.25 71.2901049"></polygon>
        <path d="M496.022321,82.9730826 L498.608817,80.0490413 C501.521763,76.7894543 502.224888,75.5671091 502.224888,73.8414454 C502.224888,71.1091445 499.864397,69 496.825893,69 C494.942522,69 493.410714,69.7669617 492.431362,71.1570796 C491.878906,71.9719764 491.62779,72.6910029 491.477121,74.0571534 L493.988281,74.0571534 C494.088728,73.170354 494.239397,72.7629056 494.565848,72.3075221 C495.06808,71.6124631 495.946987,71.2050147 496.901228,71.2050147 C498.508371,71.2050147 499.763951,72.3554572 499.763951,73.8414454 C499.763951,74.8720501 499.161272,75.8067847 496.800781,78.5390855 L491,85.25 L502.25,85.25 L502.25,82.9730826 L496.022321,82.9730826 Z" id="_21" fill="#FFFFFF"></path>
        <path d="M696.504717,78.3468795 C697.589623,78.3722787 698.084906,78.4738752 698.533019,78.7532656 C699.240566,79.2104499 699.665094,80.1248186 699.665094,81.2169811 C699.665094,82.9441219 698.556604,84.1632801 697,84.1632801 C696.174528,84.1632801 695.349057,83.7822932 694.853774,83.1473149 C694.523585,82.7409289 694.40566,82.3853411 694.287736,81.6233672 L692,81.6233672 C692.09434,82.766328 692.212264,83.3251089 692.566038,83.9854862 C693.391509,85.5602322 695.018868,86.5 696.929245,86.5 C699.900943,86.5 702,84.3664731 702,81.2931785 C702,79.4898403 701.339623,78.0928882 700.066038,77.2801161 C701.198113,76.4165457 701.764151,75.2227866 701.764151,73.6734398 C701.764151,70.9303338 699.853774,69 697.09434,69 C695.372642,69 694.004717,69.6857765 693.25,70.9557329 C692.801887,71.6669086 692.613208,72.2764877 692.400943,73.5972424 L694.759434,73.5972424 C694.924528,72.8352685 695.018868,72.5050798 695.231132,72.2002903 C695.608491,71.6415094 696.268868,71.3113208 697.04717,71.3113208 C698.462264,71.3113208 699.45283,72.3272859 699.45283,73.7750363 C699.45283,74.9687954 698.816038,75.883164 697.849057,76.086357 C697.495283,76.1625544 697.330189,76.1625544 696.504717,76.1625544 L696.504717,78.3468795 Z" id="_31" fill="#FFFFFF"></path>
        <path d="M903,80.25 L903,67.75 L891.75,82.75 L900.5,82.75 L900.5,85.25 L903,85.25 L903,82.75 L904.25,82.75 L904.25,80.25 L903,80.25 Z M899.25,80.25 L895.5,80.25 L899.25,75.25 L899.25,80.25 Z" id="_41" fill="#FFFFFF"></path>
        <g id="Group-2" transform="translate(280.000000, 19.000000)">
            <rect id="barcell1" fill="#AAAAAA" x="0" y="0" width="396.5" height="35"></rect>
            <rect id="barcell3" fill="#AAAAAA" x="398.5" y="0" width="399" height="35"></rect>
            <polygon id="_11" fill="#FFFFFF" points="17.662037 12.2901049 17.662037 26.25 20 26.25 20 10 16.2731481 10 15 12.2901049"></polygon>
        </g>
        <path d="M327,256 L327,304 L280,304 L280,256 L327,256 Z M377,256 L377,304 L329,304 L329,256 L377,256 Z M427,256 L427,304 L379,304 L379,256 L427,256 Z M477,256 L477,304 L429,304 L429,256 L477,256 Z M527,256 L527,304 L479,304 L479,256 L527,256 Z M578,256 L578,304 L529,304 L529,256 L578,256 Z M628,256 L628,304 L580,304 L580,256 L628,256 Z M676,256 L676,304 L630,304 L630,256 L676,256 Z M728,256 L728,304 L678,304 L678,256 L728,256 Z M778,256 L778,304 L730,304 L730,256 L778,256 Z M828,256 L828,304 L780,304 L780,256 L828,256 Z M878,256 L878,304 L830,304 L830,256 L878,256 Z M928,256 L928,304 L880,304 L880,256 L928,256 Z M978,256 L978,304 L930,304 L930,256 L978,256 Z M1028,256 L1028,304 L980,304 L980,256 L1028,256 Z M1078,256 L1078,304 L1030,304 L1030,256 L1078,256 Z" id="Combined-Shape" fill="#F2F2F2" fill-rule="nonzero"></path>
        <rect id="TH4" fill="#DCDCDC" x="115" y="256.5" width="160" height="48"></rect>
        <g id="12-drum-sticks-solid" transform="translate(123.682354, 268.174829)" fill="#000000" fill-rule="nonzero">
            <path d="M20.9681923,8.70283421 C21.8707599,7.80016805 22.6866402,6.80412264 23.4117539,5.7157185 C23.5035404,5.5784561 20.5602155,2.64504622 20.4036684,2.7496514 C19.3425141,3.45790501 18.3471401,4.27484594 17.4445725,5.1775121 L14.3177111,8.30648263 L11.1903399,5.1775121 C10.2887921,4.27484594 9.29290821,3.45790501 8.23124394,2.74914113 C8.0746969,2.64504622 5.13188189,5.5784561 5.24049595,5.7422525 C5.94929198,6.80565344 6.76568223,7.80220913 7.66672006,8.70283421 L10.7940913,11.832315 L2.84133456,19.7906005 C2.48540677,20.1467684 2.29571459,20.6396884 2.32121085,21.1428138 C2.34619719,21.6459392 2.58484218,22.1179382 2.97646474,22.4383872 C3.28547941,22.6914807 4.66486376,23.8251712 5.07331385,23.8251712 C5.57100084,23.8251712 6.06052904,23.6210636 6.41645683,23.2643854 L14.3177111,15.3576371 L22.2184555,23.2643854 C22.5748933,23.6210636 23.0644215,23.8251712 23.5615985,23.8251712 C23.9705585,23.8251712 24.3499429,23.6914807 24.6584476,23.4388975 C25.0500702,23.1179382 26.2892251,21.6459392 26.3147214,21.1423035 C26.3391978,20.6391781 26.1495056,20.1462581 25.7935778,19.7906005 L17.841331,11.832315 L20.9681923,8.70283421 Z" id="Fill-23" transform="translate(14.317882, 13.285803) rotate(-345.000000) translate(-14.317882, -13.285803) "></path>
        </g>
        <polygon id="Hat" fill="#5CB300" points="853.75 264 868.75 279.006408 853.75 294 838.75 279.006408"></polygon>
        <polygon id="Hat" fill="#5CB300" points="705 264 720 279.006408 705 294 690 279.006408"></polygon>
        <polygon id="Hat" fill="#5CB300" points="1003.75 264 1018.75 279.006408 1003.75 294 988.75 279.006408"></polygon>
        <polygon id="Hat" fill="#5CB300" points="403.75 264 418.75 279.006408 403.75 294 388.75 279.006408"></polygon>
        <polygon id="Hat" fill="#5CB300" points="503.75 264 518.75 279.006408 503.75 294 488.75 279.006408"></polygon>
        <text id="Son-Clave" fill="#000000" fill-rule="nonzero" font-family="HiraginoSans-W6, Hiragino Sans" font-size="16.25" font-weight="500">
            <tspan x="170.055625" y="288">Son Clave</tspan>
        </text>
        <path d="M327,356.5 L327,404.5 L280,404.5 L280,356.5 L327,356.5 Z M377,356.5 L377,404.5 L329,404.5 L329,356.5 L377,356.5 Z M427,356.5 L427,404.5 L379,404.5 L379,356.5 L427,356.5 Z M477,356.5 L477,404.5 L429,404.5 L429,356.5 L477,356.5 Z M527,356.5 L527,404.5 L479,404.5 L479,356.5 L527,356.5 Z M578,356.5 L578,404.5 L529,404.5 L529,356.5 L578,356.5 Z M628,356.5 L628,404.5 L580,404.5 L580,356.5 L628,356.5 Z M676,356.5 L676,404.5 L630,404.5 L630,356.5 L676,356.5 Z M728,356.5 L728,404.5 L678,404.5 L678,356.5 L728,356.5 Z M778,356.5 L778,404.5 L730,404.5 L730,356.5 L778,356.5 Z M828,356.5 L828,404.5 L780,404.5 L780,356.5 L828,356.5 Z M878,356.5 L878,404.5 L830,404.5 L830,356.5 L878,356.5 Z M928,356.5 L928,404.5 L880,404.5 L880,356.5 L928,356.5 Z M978,356.5 L978,404.5 L930,404.5 L930,356.5 L978,356.5 Z M1028,356.5 L1028,404.5 L980,404.5 L980,356.5 L1028,356.5 Z M1078,356.5 L1078,404.5 L1030,404.5 L1030,356.5 L1078,356.5 Z" id="Combined-Shape" fill="#F2F2F2" fill-rule="nonzero"></path>
        <rect id="TH4" fill="#DCDCDC" x="115" y="357" width="160" height="48"></rect>
        <g id="12-drum-sticks-solid" transform="translate(123.682354, 368.674829)" fill="#000000" fill-rule="nonzero">
            <path d="M20.9681923,8.70283421 C21.8707599,7.80016805 22.6866402,6.80412264 23.4117539,5.7157185 C23.5035404,5.5784561 20.5602155,2.64504622 20.4036684,2.7496514 C19.3425141,3.45790501 18.3471401,4.27484594 17.4445725,5.1775121 L14.3177111,8.30648263 L11.1903399,5.1775121 C10.2887921,4.27484594 9.29290821,3.45790501 8.23124394,2.74914113 C8.0746969,2.64504622 5.13188189,5.5784561 5.24049595,5.7422525 C5.94929198,6.80565344 6.76568223,7.80220913 7.66672006,8.70283421 L10.7940913,11.832315 L2.84133456,19.7906005 C2.48540677,20.1467684 2.29571459,20.6396884 2.32121085,21.1428138 C2.34619719,21.6459392 2.58484218,22.1179382 2.97646474,22.4383872 C3.28547941,22.6914807 4.66486376,23.8251712 5.07331385,23.8251712 C5.57100084,23.8251712 6.06052904,23.6210636 6.41645683,23.2643854 L14.3177111,15.3576371 L22.2184555,23.2643854 C22.5748933,23.6210636 23.0644215,23.8251712 23.5615985,23.8251712 C23.9705585,23.8251712 24.3499429,23.6914807 24.6584476,23.4388975 C25.0500702,23.1179382 26.2892251,21.6459392 26.3147214,21.1423035 C26.3391978,20.6391781 26.1495056,20.1462581 25.7935778,19.7906005 L17.841331,11.832315 L20.9681923,8.70283421 Z" id="Fill-23" transform="translate(14.317882, 13.285803) rotate(-345.000000) translate(-14.317882, -13.285803) "></path>
        </g>
        <polygon id="Hat" fill="#5CB300" points="853.75 364.5 868.75 379.506408 853.75 394.5 838.75 379.506408"></polygon>
        <polygon id="Hat" fill="#5CB300" points="705 364.5 720 379.506408 705 394.5 690 379.506408"></polygon>
        <polygon id="Hat" fill="#5CB300" points="1003.75 364.5 1018.75 379.506408 1003.75 394.5 988.75 379.506408"></polygon>
        <polygon id="Hat" fill="#F38A20" points="302.75 364.5 317.75 379.506408 302.75 394.5 287.75 379.506408"></polygon>
        <polygon id="Hat" fill="#5CB300" points="503.75 364.5 518.75 379.506408 503.75 394.5 488.75 379.506408"></polygon>
        <text id="Jersey-Club" fill="#000000" fill-rule="nonzero" font-family="HiraginoSans-W6, Hiragino Sans" font-size="16.25" font-weight="500">
            <tspan x="161.87375" y="388.5">Jersey Club</tspan>
        </text>
        <path d="M377,196 L377,196.5 L329,196.5 L329,196 L377,196 Z M427,196 L427,196.5 L379,196.5 L379,196 L427,196 Z M477,196 L477,196.5 L429,196.5 L429,196 L477,196 Z M527,196 L527,196.5 L479,196.5 L479,196 L527,196 Z M578,196 L578,196.5 L529,196.5 L529,196 L578,196 Z M628,196 L628,196.5 L580,196.5 L580,196 L628,196 Z M676,196 L676,196.5 L630,196.5 L630,196 L676,196 Z M728,196 L728,196.5 L678,196.5 L678,196 L728,196 Z M778,196 L778,196.5 L730,196.5 L730,196 L778,196 Z M828,196 L828,196.5 L780,196.5 L780,196 L828,196 Z M878,196 L878,196.5 L830,196.5 L830,196 L878,196 Z M928,196 L928,196.5 L880,196.5 L880,196 L928,196 Z M978,196 L978,196.5 L930,196.5 L930,196 L978,196 Z M1028,196 L1028,196.5 L980,196.5 L980,196 L1028,196 Z M1078,196 L1078,196.5 L1030,196.5 L1030,196 L1078,196 Z M327,196 L327,196.5 L280,196.5 L280,196 L327,196 Z M427,146.5 L427,194 L379,194 L379,146.5 L427,146.5 Z M477,146.5 L477,194 L429,194 L429,146.5 L477,146.5 Z M527,146.5 L527,194 L479,194 L479,146.5 L527,146.5 Z M578,146.5 L578,194 L529,194 L529,146.5 L578,146.5 Z M628,146.5 L628,194 L580,194 L580,146.5 L628,146.5 Z M676,146.5 L676,194 L630,194 L630,146.5 L676,146.5 Z M728,146.5 L728,194 L678,194 L678,146.5 L728,146.5 Z M778,146.5 L778,194 L730,194 L730,146.5 L778,146.5 Z M828,146.5 L828,194 L780,194 L780,146.5 L828,146.5 Z M878,146.5 L878,194 L830,194 L830,146.5 L878,146.5 Z M928,146.5 L928,194 L880,194 L880,146.5 L928,146.5 Z M978,146.5 L978,194 L930,194 L930,146.5 L978,146.5 Z M1028,146.5 L1028,194 L980,194 L980,146.5 L1028,146.5 Z M1078,146.5 L1078,194 L1030,194 L1030,146.5 L1078,146.5 Z M327,146.5 L327,194 L280,194 L280,146.5 L327,146.5 Z M377,146.5 L377,194 L329,194 L329,146.5 L377,146.5 Z" id="Combined-Shape" fill="#F2F2F2" fill-rule="nonzero"></path>
        <rect id="TH4" fill="#DCDCDC" x="115" y="146.5" width="160" height="48"></rect>
        <g id="12-drum-sticks-solid" transform="translate(123.682354, 158.174829)" fill="#000000" fill-rule="nonzero">
            <path d="M20.9681923,8.70283421 C21.8707599,7.80016805 22.6866402,6.80412264 23.4117539,5.7157185 C23.5035404,5.5784561 20.5602155,2.64504622 20.4036684,2.7496514 C19.3425141,3.45790501 18.3471401,4.27484594 17.4445725,5.1775121 L14.3177111,8.30648263 L11.1903399,5.1775121 C10.2887921,4.27484594 9.29290821,3.45790501 8.23124394,2.74914113 C8.0746969,2.64504622 5.13188189,5.5784561 5.24049595,5.7422525 C5.94929198,6.80565344 6.76568223,7.80220913 7.66672006,8.70283421 L10.7940913,11.832315 L2.84133456,19.7906005 C2.48540677,20.1467684 2.29571459,20.6396884 2.32121085,21.1428138 C2.34619719,21.6459392 2.58484218,22.1179382 2.97646474,22.4383872 C3.28547941,22.6914807 4.66486376,23.8251712 5.07331385,23.8251712 C5.57100084,23.8251712 6.06052904,23.6210636 6.41645683,23.2643854 L14.3177111,15.3576371 L22.2184555,23.2643854 C22.5748933,23.6210636 23.0644215,23.8251712 23.5615985,23.8251712 C23.9705585,23.8251712 24.3499429,23.6914807 24.6584476,23.4388975 C25.0500702,23.1179382 26.2892251,21.6459392 26.3147214,21.1423035 C26.3391978,20.6391781 26.1495056,20.1462581 25.7935778,19.7906005 L17.841331,11.832315 L20.9681923,8.70283421 Z" id="Fill-23" transform="translate(14.317882, 13.285803) rotate(-345.000000) translate(-14.317882, -13.285803) "></path>
        </g>
        <polygon id="Hat" fill="#5CB300" points="453.75 154 468.75 169.006408 453.75 184 438.75 169.006408"></polygon>
        <polygon id="Hat" fill="#5CB300" points="305 154 320 169.006408 305 184 290 169.006408"></polygon>
        <polygon id="Hat" fill="#5CB300" points="602.75 154 617.75 169.006408 602.75 184 587.75 169.006408"></polygon>
        <polygon id="Hat" fill="#5CB300" points="803.75 154 818.75 169.006408 803.75 184 788.75 169.006408"></polygon>
        <polygon id="Hat" fill="#F38A20" points="953.75 154 968.75 169.006408 953.75 184 938.75 169.006408"></polygon>
        <text id="Bossa-Clave" fill="#000000" fill-rule="nonzero" font-family="HiraginoSans-W6, Hiragino Sans" font-size="16.25" font-weight="500">
            <tspan x="160.419375" y="178">Bossa Clave</tspan>
        </text>
        <path d="M377,246 L377,246.5 L329,246.5 L329,246 L377,246 Z M427,246 L427,246.5 L379,246.5 L379,246 L427,246 Z M477,246 L477,246.5 L429,246.5 L429,246 L477,246 Z M527,246 L527,246.5 L479,246.5 L479,246 L527,246 Z M578,246 L578,246.5 L529,246.5 L529,246 L578,246 Z M628,246 L628,246.5 L580,246.5 L580,246 L628,246 Z M676,246 L676,246.5 L630,246.5 L630,246 L676,246 Z M728,246 L728,246.5 L678,246.5 L678,246 L728,246 Z M778,246 L778,246.5 L730,246.5 L730,246 L778,246 Z M828,246 L828,246.5 L780,246.5 L780,246 L828,246 Z M878,246 L878,246.5 L830,246.5 L830,246 L878,246 Z M928,246 L928,246.5 L880,246.5 L880,246 L928,246 Z M978,246 L978,246.5 L930,246.5 L930,246 L978,246 Z M1028,246 L1028,246.5 L980,246.5 L980,246 L1028,246 Z M1078,246 L1078,246.5 L1030,246.5 L1030,246 L1078,246 Z M327,246 L327,246.5 L280,246.5 L280,246 L327,246 Z M427,196.5 L427,244 L379,244 L379,196.5 L427,196.5 Z M477,196.5 L477,244 L429,244 L429,196.5 L477,196.5 Z M527,196.5 L527,244 L479,244 L479,196.5 L527,196.5 Z M578,196.5 L578,244 L529,244 L529,196.5 L578,196.5 Z M628,196.5 L628,244 L580,244 L580,196.5 L628,196.5 Z M676,196.5 L676,244 L630,244 L630,196.5 L676,196.5 Z M728,196.5 L728,244 L678,244 L678,196.5 L728,196.5 Z M778,196.5 L778,244 L730,244 L730,196.5 L778,196.5 Z M828,196.5 L828,244 L780,244 L780,196.5 L828,196.5 Z M878,196.5 L878,244 L830,244 L830,196.5 L878,196.5 Z M928,196.5 L928,244 L880,244 L880,196.5 L928,196.5 Z M978,196.5 L978,244 L930,244 L930,196.5 L978,196.5 Z M1028,196.5 L1028,244 L980,244 L980,196.5 L1028,196.5 Z M1078,196.5 L1078,244 L1030,244 L1030,196.5 L1078,196.5 Z M327,196.5 L327,244 L280,244 L280,196.5 L327,196.5 Z M377,196.5 L377,244 L329,244 L329,196.5 L377,196.5 Z" id="Combined-Shape" fill="#F2F2F2" fill-rule="nonzero"></path>
        <rect id="TH4" fill="#DCDCDC" x="115" y="196.5" width="160" height="48"></rect>
        <g id="12-drum-sticks-solid" transform="translate(123.682354, 208.174829)" fill="#000000" fill-rule="nonzero">
            <path d="M20.9681923,8.70283421 C21.8707599,7.80016805 22.6866402,6.80412264 23.4117539,5.7157185 C23.5035404,5.5784561 20.5602155,2.64504622 20.4036684,2.7496514 C19.3425141,3.45790501 18.3471401,4.27484594 17.4445725,5.1775121 L14.3177111,8.30648263 L11.1903399,5.1775121 C10.2887921,4.27484594 9.29290821,3.45790501 8.23124394,2.74914113 C8.0746969,2.64504622 5.13188189,5.5784561 5.24049595,5.7422525 C5.94929198,6.80565344 6.76568223,7.80220913 7.66672006,8.70283421 L10.7940913,11.832315 L2.84133456,19.7906005 C2.48540677,20.1467684 2.29571459,20.6396884 2.32121085,21.1428138 C2.34619719,21.6459392 2.58484218,22.1179382 2.97646474,22.4383872 C3.28547941,22.6914807 4.66486376,23.8251712 5.07331385,23.8251712 C5.57100084,23.8251712 6.06052904,23.6210636 6.41645683,23.2643854 L14.3177111,15.3576371 L22.2184555,23.2643854 C22.5748933,23.6210636 23.0644215,23.8251712 23.5615985,23.8251712 C23.9705585,23.8251712 24.3499429,23.6914807 24.6584476,23.4388975 C25.0500702,23.1179382 26.2892251,21.6459392 26.3147214,21.1423035 C26.3391978,20.6391781 26.1495056,20.1462581 25.7935778,19.7906005 L17.841331,11.832315 L20.9681923,8.70283421 Z" id="Fill-23" transform="translate(14.317882, 13.285803) rotate(-345.000000) translate(-14.317882, -13.285803) "></path>
        </g>
        <polygon id="Hat" fill="#5CB300" points="453.75 204 468.75 219.006408 453.75 234 438.75 219.006408"></polygon>
        <polygon id="Hat" fill="#5CB300" points="305 204 320 219.006408 305 234 290 219.006408"></polygon>
        <polygon id="Hat" fill="#5CB300" points="603.75 204 618.75 219.006408 603.75 234 588.75 219.006408"></polygon>
        <polygon id="Hat" fill="#F38A20" points="852.75 204 867.75 219.006408 852.75 234 837.75 219.006408"></polygon>
        <polygon id="Hat" fill="#F38A20" points="704 204 719 219.006408 704 234 689 219.006408"></polygon>
        <polygon id="Hat" fill="#F38A20" points="1002.75 204 1017.75 219.006408 1002.75 234 987.75 219.006408"></polygon>
        <text id="Tresillo" fill="#000000" fill-rule="nonzero" font-family="HiraginoSans-W6, Hiragino Sans" font-size="16.25" font-weight="500">
            <tspan x="182.43" y="228">Tresillo</tspan>
        </text>
        <path d="M377,356 L377,356.5 L329,356.5 L329,356 L377,356 Z M427,356 L427,356.5 L379,356.5 L379,356 L427,356 Z M477,356 L477,356.5 L429,356.5 L429,356 L477,356 Z M527,356 L527,356.5 L479,356.5 L479,356 L527,356 Z M578,356 L578,356.5 L529,356.5 L529,356 L578,356 Z M628,356 L628,356.5 L580,356.5 L580,356 L628,356 Z M676,356 L676,356.5 L630,356.5 L630,356 L676,356 Z M728,356 L728,356.5 L678,356.5 L678,356 L728,356 Z M778,356 L778,356.5 L730,356.5 L730,356 L778,356 Z M828,356 L828,356.5 L780,356.5 L780,356 L828,356 Z M878,356 L878,356.5 L830,356.5 L830,356 L878,356 Z M928,356 L928,356.5 L880,356.5 L880,356 L928,356 Z M978,356 L978,356.5 L930,356.5 L930,356 L978,356 Z M1028,356 L1028,356.5 L980,356.5 L980,356 L1028,356 Z M1078,356 L1078,356.5 L1030,356.5 L1030,356 L1078,356 Z M327,356 L327,356.5 L280,356.5 L280,356 L327,356 Z M427,306.5 L427,354 L379,354 L379,306.5 L427,306.5 Z M477,306.5 L477,354 L429,354 L429,306.5 L477,306.5 Z M527,306.5 L527,354 L479,354 L479,306.5 L527,306.5 Z M578,306.5 L578,354 L529,354 L529,306.5 L578,306.5 Z M628,306.5 L628,354 L580,354 L580,306.5 L628,306.5 Z M676,306.5 L676,354 L630,354 L630,306.5 L676,306.5 Z M728,306.5 L728,354 L678,354 L678,306.5 L728,306.5 Z M778,306.5 L778,354 L730,354 L730,306.5 L778,306.5 Z M828,306.5 L828,354 L780,354 L780,306.5 L828,306.5 Z M878,306.5 L878,354 L830,354 L830,306.5 L878,306.5 Z M928,306.5 L928,354 L880,354 L880,306.5 L928,306.5 Z M978,306.5 L978,354 L930,354 L930,306.5 L978,306.5 Z M1028,306.5 L1028,354 L980,354 L980,306.5 L1028,306.5 Z M1078,306.5 L1078,354 L1030,354 L1030,306.5 L1078,306.5 Z M327,306.5 L327,354 L280,354 L280,306.5 L327,306.5 Z M377,306.5 L377,354 L329,354 L329,306.5 L377,306.5 Z" id="Combined-Shape" fill="#F2F2F2" fill-rule="nonzero"></path>
        <rect id="TH4" fill="#DCDCDC" x="115" y="306.5" width="160" height="48"></rect>
        <g id="12-drum-sticks-solid" transform="translate(123.682354, 318.174829)" fill="#000000" fill-rule="nonzero">
            <path d="M20.9681923,8.70283421 C21.8707599,7.80016805 22.6866402,6.80412264 23.4117539,5.7157185 C23.5035404,5.5784561 20.5602155,2.64504622 20.4036684,2.7496514 C19.3425141,3.45790501 18.3471401,4.27484594 17.4445725,5.1775121 L14.3177111,8.30648263 L11.1903399,5.1775121 C10.2887921,4.27484594 9.29290821,3.45790501 8.23124394,2.74914113 C8.0746969,2.64504622 5.13188189,5.5784561 5.24049595,5.7422525 C5.94929198,6.80565344 6.76568223,7.80220913 7.66672006,8.70283421 L10.7940913,11.832315 L2.84133456,19.7906005 C2.48540677,20.1467684 2.29571459,20.6396884 2.32121085,21.1428138 C2.34619719,21.6459392 2.58484218,22.1179382 2.97646474,22.4383872 C3.28547941,22.6914807 4.66486376,23.8251712 5.07331385,23.8251712 C5.57100084,23.8251712 6.06052904,23.6210636 6.41645683,23.2643854 L14.3177111,15.3576371 L22.2184555,23.2643854 C22.5748933,23.6210636 23.0644215,23.8251712 23.5615985,23.8251712 C23.9705585,23.8251712 24.3499429,23.6914807 24.6584476,23.4388975 C25.0500702,23.1179382 26.2892251,21.6459392 26.3147214,21.1423035 C26.3391978,20.6391781 26.1495056,20.1462581 25.7935778,19.7906005 L17.841331,11.832315 L20.9681923,8.70283421 Z" id="Fill-23" transform="translate(14.317882, 13.285803) rotate(-345.000000) translate(-14.317882, -13.285803) "></path>
        </g>
        <polygon id="Hat" fill="#5CB300" points="853.75 314 868.75 329.006408 853.75 344 838.75 329.006408"></polygon>
        <polygon id="Hat" fill="#5CB300" points="705 314 720 329.006408 705 344 690 329.006408"></polygon>
        <polygon id="Hat" fill="#5CB300" points="1002.75 314 1017.75 329.006408 1002.75 344 987.75 329.006408"></polygon>
        <polygon id="Hat" fill="#5CB300" points="403.75 314 418.75 329.006408 403.75 344 388.75 329.006408"></polygon>
        <polygon id="Hat" fill="#F38A20" points="553.75 314 568.75 329.006408 553.75 344 538.75 329.006408"></polygon>
        <text id="Bossa-Clave" fill="#000000" fill-rule="nonzero" font-family="HiraginoSans-W6, Hiragino Sans" font-size="16.25" font-weight="500">
            <tspan x="160.419375" y="338">Bossa Clave</tspan>
        </text>
        <text id="3-2" font-family="HiraginoSans-W6, Hiragino Sans" font-size="16.25" font-weight="500" fill="#000000">
            <tspan x="28.0825" y="177">3-2</tspan>
        </text>
        <text id="2-3" font-family="HiraginoSans-W6, Hiragino Sans" font-size="16.25" font-weight="500" fill="#000000">
            <tspan x="28.0825" y="341">2-3</tspan>
        </text>
        <g id="{" transform="translate(68.859000, 112.860000)" fill="#000000" fill-rule="nonzero">
            <path d="M14.274,14.762 C14.274,6.222 17.568,2.44 24.888,2.44 L32.818,2.44 L32.818,0 L24.888,0 C16.104,0 11.59,5.002 11.59,14.762 L11.59,47.092 C11.59,54.778 8.296,58.316 1.22,58.316 L0,58.316 L0,61.122 L1.22,61.122 C8.296,61.122 11.59,64.782 11.59,72.346 L11.59,104.676 C11.59,114.436 16.226,119.56 24.888,119.56 L32.818,119.56 L32.818,117.12 L24.888,117.12 C17.812,117.12 14.274,112.972 14.274,104.676 L14.274,72.346 C14.274,65.026 11.59,61.122 5.856,59.78 C11.59,58.438 14.274,54.534 14.274,47.092 L14.274,14.762 Z" id="Path"></path>
        </g>
        <g id="{" transform="translate(68.859000, 274.860000)" fill="#000000" fill-rule="nonzero">
            <path d="M14.274,14.762 C14.274,6.222 17.568,2.44 24.888,2.44 L32.818,2.44 L32.818,0 L24.888,0 C16.104,0 11.59,5.002 11.59,14.762 L11.59,47.092 C11.59,54.778 8.296,58.316 1.22,58.316 L0,58.316 L0,61.122 L1.22,61.122 C8.296,61.122 11.59,64.782 11.59,72.346 L11.59,104.676 C11.59,114.436 16.226,119.56 24.888,119.56 L32.818,119.56 L32.818,117.12 L24.888,117.12 C17.812,117.12 14.274,112.972 14.274,104.676 L14.274,72.346 C14.274,65.026 11.59,61.122 5.856,59.78 C11.59,58.438 14.274,54.534 14.274,47.092 L14.274,14.762 Z" id="Path"></path>
        </g>
    </g>
</svg>