<?xml version="1.0" encoding="UTF-8"?>
<svg width="975px" height="173px" viewBox="0 0 975 173" version="1.1" xmlns="http://www.w3.org/2000/svg" xmlns:xlink="http://www.w3.org/1999/xlink">
    <title>R1-clave-23</title>
    <g id="R1-clave-23" stroke="none" stroke-width="1" fill="none" fill-rule="evenodd">
        <path d="M953,65 L953,100 L855,100 L855,65 L953,65 Z M252,65 L252,100 L155,100 L155,65 L252,65 Z M352,65 L352,100 L254,100 L254,65 L352,65 Z M453,65 L453,100 L354,100 L354,65 L453,65 Z M551,65 L551,100 L455,100 L455,65 L551,65 Z M653,65 L653,100 L553,100 L553,65 L653,65 Z M753,65 L753,100 L655,100 L655,65 L753,65 Z M853,65 L853,100 L755,100 L755,65 L853,65 Z" id="Combined-Shape" fill="#AAAAAA"></path>
        <path d="M202,102 L202,150 L155,150 L155,102 L202,102 Z M252,102 L252,150 L204,150 L204,102 L252,102 Z M302,102 L302,150 L254,150 L254,102 L302,102 Z M352,102 L352,150 L304,150 L304,102 L352,102 Z M402,102 L402,150 L354,150 L354,102 L402,102 Z M453,102 L453,150 L404,150 L404,102 L453,102 Z M503,102 L503,150 L455,150 L455,102 L503,102 Z M551,102 L551,150 L505,150 L505,102 L551,102 Z M603,102 L603,150 L553,150 L553,102 L603,102 Z M653,102 L653,150 L605,150 L605,102 L653,102 Z M703,102 L703,150 L655,150 L655,102 L703,102 Z M753,102 L753,150 L705,150 L705,102 L753,102 Z M803,102 L803,150 L755,150 L755,102 L803,102 Z M853,102 L853,150 L805,150 L805,102 L853,102 Z M903,102 L903,150 L855,150 L855,102 L903,102 Z M953,102 L953,150 L905,150 L905,102 L953,102 Z" id="Combined-Shape" fill="#F2F2F2" fill-rule="nonzero"></path>
        <rect id="TH1" fill="#444444" x="20" y="25" width="130" height="35"></rect>
        <rect id="TH3" fill="#444444" x="20" y="65" width="130" height="35"></rect>
        <rect id="TH4" fill="#DCDCDC" x="20" y="102.5" width="130" height="48"></rect>
        <g id="12-drum-sticks-solid" transform="translate(32.682354, 114.174829)" fill="#000000" fill-rule="nonzero">
            <path d="M20.9681923,8.70283421 C21.8707599,7.80016805 22.6866402,6.80412264 23.4117539,5.7157185 C23.5035404,5.5784561 20.5602155,2.64504622 20.4036684,2.7496514 C19.3425141,3.45790501 18.3471401,4.27484594 17.4445725,5.1775121 L14.3177111,8.30648263 L11.1903399,5.1775121 C10.2887921,4.27484594 9.29290821,3.45790501 8.23124394,2.74914113 C8.0746969,2.64504622 5.13188189,5.5784561 5.24049595,5.7422525 C5.94929198,6.80565344 6.76568223,7.80220913 7.66672006,8.70283421 L10.7940913,11.832315 L2.84133456,19.7906005 C2.48540677,20.1467684 2.29571459,20.6396884 2.32121085,21.1428138 C2.34619719,21.6459392 2.58484218,22.1179382 2.97646474,22.4383872 C3.28547941,22.6914807 4.66486376,23.8251712 5.07331385,23.8251712 C5.57100084,23.8251712 6.06052904,23.6210636 6.41645683,23.2643854 L14.3177111,15.3576371 L22.2184555,23.2643854 C22.5748933,23.6210636 23.0644215,23.8251712 23.5615985,23.8251712 C23.9705585,23.8251712 24.3499429,23.6914807 24.6584476,23.4388975 C25.0500702,23.1179382 26.2892251,21.6459392 26.3147214,21.1423035 C26.3391978,20.6391781 26.1495056,20.1462581 25.7935778,19.7906005 L17.841331,11.832315 L20.9681923,8.70283421 Z" id="Fill-23" transform="translate(14.317882, 13.285803) rotate(-345.000000) translate(-14.317882, -13.285803) "></path>
        </g>
        <polygon id="Hat" fill="#5CB300" points="728.75 110 743.75 125.006408 728.75 140 713.75 125.006408"></polygon>
        <polygon id="Hat" fill="#5CB300" points="580 110 595 125.006408 580 140 565 125.006408"></polygon>
        <polygon id="Hat" fill="#5CB300" points="878.75 110 893.75 125.006408 878.75 140 863.75 125.006408"></polygon>
        <polygon id="Hat" fill="#5CB300" points="278.75 110 293.75 125.006408 278.75 140 263.75 125.006408"></polygon>
        <polygon id="Hat" fill="#5CB300" points="378.75 110 393.75 125.006408 378.75 140 363.75 125.006408"></polygon>
        <text id="Beat" fill="#FFFFFF" fill-rule="nonzero" font-family="HiraginoSans-W6, Hiragino Sans" font-size="16.25" font-weight="500">
            <tspan x="62.520625" y="89">Beat</tspan>
        </text>
        <text id="Claves" fill="#000000" fill-rule="nonzero" font-family="HiraginoSans-W6, Hiragino Sans" font-size="16.25" font-weight="500">
            <tspan x="74.664375" y="134">Claves</tspan>
        </text>
        <text id="Bar" fill="#FFFFFF" fill-rule="nonzero" font-family="HiraginoSans-W6, Hiragino Sans" font-size="16.25" font-weight="500">
            <tspan x="69.725" y="49">Bar</tspan>
        </text>
        <polygon id="_13" fill="#FFFFFF" points="173.912037 77.2901049 173.912037 91.25 176.25 91.25 176.25 75 172.523148 75 171.25 77.2901049"></polygon>
        <path d="M275.022321,88.9730826 L277.608817,86.0490413 C280.521763,82.7894543 281.224888,81.5671091 281.224888,79.8414454 C281.224888,77.1091445 278.864397,75 275.825893,75 C273.942522,75 272.410714,75.7669617 271.431362,77.1570796 C270.878906,77.9719764 270.62779,78.6910029 270.477121,80.0571534 L272.988281,80.0571534 C273.088728,79.170354 273.239397,78.7629056 273.565848,78.3075221 C274.06808,77.6124631 274.946987,77.2050147 275.901228,77.2050147 C277.508371,77.2050147 278.763951,78.3554572 278.763951,79.8414454 C278.763951,80.8720501 278.161272,81.8067847 275.800781,84.5390855 L270,91.25 L281.25,91.25 L281.25,88.9730826 L275.022321,88.9730826 Z" id="_21" fill="#FFFFFF"></path>
        <path d="M375.754717,84.3468795 C376.839623,84.3722787 377.334906,84.4738752 377.783019,84.7532656 C378.490566,85.2104499 378.915094,86.1248186 378.915094,87.2169811 C378.915094,88.9441219 377.806604,90.1632801 376.25,90.1632801 C375.424528,90.1632801 374.599057,89.7822932 374.103774,89.1473149 C373.773585,88.7409289 373.65566,88.3853411 373.537736,87.6233672 L371.25,87.6233672 C371.34434,88.766328 371.462264,89.3251089 371.816038,89.9854862 C372.641509,91.5602322 374.268868,92.5 376.179245,92.5 C379.150943,92.5 381.25,90.3664731 381.25,87.2931785 C381.25,85.4898403 380.589623,84.0928882 379.316038,83.2801161 C380.448113,82.4165457 381.014151,81.2227866 381.014151,79.6734398 C381.014151,76.9303338 379.103774,75 376.34434,75 C374.622642,75 373.254717,75.6857765 372.5,76.9557329 C372.051887,77.6669086 371.863208,78.2764877 371.650943,79.5972424 L374.009434,79.5972424 C374.174528,78.8352685 374.268868,78.5050798 374.481132,78.2002903 C374.858491,77.6415094 375.518868,77.3113208 376.29717,77.3113208 C377.712264,77.3113208 378.70283,78.3272859 378.70283,79.7750363 C378.70283,80.9687954 378.066038,81.883164 377.099057,82.086357 C376.745283,82.1625544 376.580189,82.1625544 375.754717,82.1625544 L375.754717,84.3468795 Z" id="_31" fill="#FFFFFF"></path>
        <path d="M477.5,86.25 L477.5,73.75 L466.25,88.75 L475,88.75 L475,91.25 L477.5,91.25 L477.5,88.75 L478.75,88.75 L478.75,86.25 L477.5,86.25 Z M473.75,86.25 L470,86.25 L473.75,81.25 L473.75,86.25 Z" id="_41" fill="#FFFFFF"></path>
        <polygon id="_13" fill="#FFFFFF" points="571.412037 77.2901049 571.412037 91.25 573.75 91.25 573.75 75 570.023148 75 568.75 77.2901049"></polygon>
        <path d="M672.522321,88.9730826 L675.108817,86.0490413 C678.021763,82.7894543 678.724888,81.5671091 678.724888,79.8414454 C678.724888,77.1091445 676.364397,75 673.325893,75 C671.442522,75 669.910714,75.7669617 668.931362,77.1570796 C668.378906,77.9719764 668.12779,78.6910029 667.977121,80.0571534 L670.488281,80.0571534 C670.588728,79.170354 670.739397,78.7629056 671.065848,78.3075221 C671.56808,77.6124631 672.446987,77.2050147 673.401228,77.2050147 C675.008371,77.2050147 676.263951,78.3554572 676.263951,79.8414454 C676.263951,80.8720501 675.661272,81.8067847 673.300781,84.5390855 L667.5,91.25 L678.75,91.25 L678.75,88.9730826 L672.522321,88.9730826 Z" id="_21" fill="#FFFFFF"></path>
        <path d="M773.254717,84.3468795 C774.339623,84.3722787 774.834906,84.4738752 775.283019,84.7532656 C775.990566,85.2104499 776.415094,86.1248186 776.415094,87.2169811 C776.415094,88.9441219 775.306604,90.1632801 773.75,90.1632801 C772.924528,90.1632801 772.099057,89.7822932 771.603774,89.1473149 C771.273585,88.7409289 771.15566,88.3853411 771.037736,87.6233672 L768.75,87.6233672 C768.84434,88.766328 768.962264,89.3251089 769.316038,89.9854862 C770.141509,91.5602322 771.768868,92.5 773.679245,92.5 C776.650943,92.5 778.75,90.3664731 778.75,87.2931785 C778.75,85.4898403 778.089623,84.0928882 776.816038,83.2801161 C777.948113,82.4165457 778.514151,81.2227866 778.514151,79.6734398 C778.514151,76.9303338 776.603774,75 773.84434,75 C772.122642,75 770.754717,75.6857765 770,76.9557329 C769.551887,77.6669086 769.363208,78.2764877 769.150943,79.5972424 L771.509434,79.5972424 C771.674528,78.8352685 771.768868,78.5050798 771.981132,78.2002903 C772.358491,77.6415094 773.018868,77.3113208 773.79717,77.3113208 C775.212264,77.3113208 776.20283,78.3272859 776.20283,79.7750363 C776.20283,80.9687954 775.566038,81.883164 774.599057,82.086357 C774.245283,82.1625544 774.080189,82.1625544 773.254717,82.1625544 L773.254717,84.3468795 Z" id="_31" fill="#FFFFFF"></path>
        <path d="M875,86.25 L875,73.75 L863.75,88.75 L872.5,88.75 L872.5,91.25 L875,91.25 L875,88.75 L876.25,88.75 L876.25,86.25 L875,86.25 Z M871.25,86.25 L867.5,86.25 L871.25,81.25 L871.25,86.25 Z" id="_41" fill="#FFFFFF"></path>
        <g id="Group-2" transform="translate(155.000000, 25.000000)">
            <rect id="barcell1" fill="#AAAAAA" x="0" y="0" width="396.5" height="35"></rect>
            <rect id="barcell3" fill="#AAAAAA" x="398.5" y="0" width="399" height="35"></rect>
            <polygon id="_11" fill="#FFFFFF" points="17.662037 12.2901049 17.662037 26.25 20 26.25 20 10 16.2731481 10 15 12.2901049"></polygon>
            <path d="M415.272321,23.9730826 L417.858817,21.0490413 C420.771763,17.7894543 421.474888,16.5671091 421.474888,14.8414454 C421.474888,12.1091445 419.114397,10 416.075893,10 C414.192522,10 412.660714,10.7669617 411.681362,12.1570796 C411.128906,12.9719764 410.87779,13.6910029 410.727121,15.0571534 L413.238281,15.0571534 C413.338728,14.170354 413.489397,13.7629056 413.815848,13.3075221 C414.31808,12.6124631 415.196987,12.2050147 416.151228,12.2050147 C417.758371,12.2050147 419.013951,13.3554572 419.013951,14.8414454 C419.013951,15.8720501 418.411272,16.8067847 416.050781,19.5390855 L410.25,26.25 L421.5,26.25 L421.5,23.9730826 L415.272321,23.9730826 Z" id="_25" fill="#FFFFFF"></path>
        </g>
    </g>
</svg>