<?xml version="1.0" encoding="UTF-8"?>
<svg width="975px" height="273px" viewBox="0 0 975 273" version="1.1" xmlns="http://www.w3.org/2000/svg" xmlns:xlink="http://www.w3.org/1999/xlink">
    <title>R1-clave-bossa23-doubled-snare</title>
    <g id="R1-clave-bossa23-doubled-snare" stroke="none" stroke-width="1" fill="none" fill-rule="evenodd">
        <path d="M953,65 L953,100 L855,100 L855,65 L953,65 Z M252,65 L252,100 L155,100 L155,65 L252,65 Z M352,65 L352,100 L254,100 L254,65 L352,65 Z M453,65 L453,100 L354,100 L354,65 L453,65 Z M552,65 L552,100 L455,100 L455,65 L552,65 Z M653,65 L653,100 L554,100 L554,65 L653,65 Z M753,65 L753,100 L655,100 L655,65 L753,65 Z M853,65 L853,100 L755,100 L755,65 L853,65 Z" id="Combined-Shape" fill="#AAAAAA"></path>
        <g id="Group" transform="translate(155.000000, 102.500000)">
            <path d="M24,0 L24,48 L0,48 L0,0 L24,0 Z M49,0 L49,48 L25,48 L25,0 L49,0 Z M74,0 L74,48 L50,48 L50,0 L74,0 Z M99,0 L99,48 L75,48 L75,0 L99,0 Z M124,0 L124,48 L100,48 L100,0 L124,0 Z M149,0 L149,48 L125,48 L125,0 L149,0 Z M174,0 L174,48 L150,48 L150,0 L174,0 Z M198,0 L198,48 L175,48 L175,0 L198,0 Z M224,0 L224,48 L199,48 L199,0 L224,0 Z M249,0 L249,48 L225,48 L225,0 L249,0 Z M274,0 L274,48 L250,48 L250,0 L274,0 Z M299,0 L299,48 L275,48 L275,0 L299,0 Z M324,0 L324,48 L300,48 L300,0 L324,0 Z M349,0 L349,48 L325,48 L325,0 L349,0 Z M374,0 L374,48 L350,48 L350,0 L374,0 Z M397,0 L397,48 L375,48 L375,0 L397,0 Z" id="Combined-Shape" fill="#F2F2F2" fill-rule="nonzero"></path>
            <polygon id="Hat" fill="#5CB300" points="286.5 12.5 294 22.5042717 286.5 32.5 279 22.5042717"></polygon>
            <polygon id="Hat" fill="#5CB300" points="212.5 12.5 220 22.5042717 212.5 32.5 205 22.5042717"></polygon>
            <polygon id="Hat" fill="#5CB300" points="361.5 12.5 369 22.5042717 361.5 32.5 354 22.5042717"></polygon>
            <polygon id="Hat" fill="#5CB300" points="61.5 12.5 69 22.5042717 61.5 32.5 54 22.5042717"></polygon>
            <polygon id="Hat" fill="#5CB300" points="136.5 12.5 144 22.5042717 136.5 32.5 129 22.5042717"></polygon>
        </g>
        <g id="Group" transform="translate(555.000000, 102.500000)">
            <path d="M24,0 L24,48 L0,48 L0,0 L24,0 Z M49,0 L49,48 L25,48 L25,0 L49,0 Z M74,0 L74,48 L50,48 L50,0 L74,0 Z M99,0 L99,48 L75,48 L75,0 L99,0 Z M124,0 L124,48 L100,48 L100,0 L124,0 Z M149,0 L149,48 L125,48 L125,0 L149,0 Z M174,0 L174,48 L150,48 L150,0 L174,0 Z M198,0 L198,48 L175,48 L175,0 L198,0 Z M224,0 L224,48 L199,48 L199,0 L224,0 Z M249,0 L249,48 L225,48 L225,0 L249,0 Z M274,0 L274,48 L250,48 L250,0 L274,0 Z M299,0 L299,48 L275,48 L275,0 L299,0 Z M324,0 L324,48 L300,48 L300,0 L324,0 Z M349,0 L349,48 L325,48 L325,0 L349,0 Z M374,0 L374,48 L350,48 L350,0 L374,0 Z M397,0 L397,48 L375,48 L375,0 L397,0 Z" id="Combined-Shape" fill="#F2F2F2" fill-rule="nonzero"></path>
            <polygon id="Hat" fill="#5CB300" points="286.5 12.5 294 22.5042717 286.5 32.5 279 22.5042717"></polygon>
            <polygon id="Hat" fill="#5CB300" points="212.5 12.5 220 22.5042717 212.5 32.5 205 22.5042717"></polygon>
            <polygon id="Hat" fill="#5CB300" points="361.5 12.5 369 22.5042717 361.5 32.5 354 22.5042717"></polygon>
            <polygon id="Hat" fill="#5CB300" points="61.5 12.5 69 22.5042717 61.5 32.5 54 22.5042717"></polygon>
            <polygon id="Hat" fill="#5CB300" points="136.5 12.5 144 22.5042717 136.5 32.5 129 22.5042717"></polygon>
        </g>
        <rect id="TH1" fill="#444444" x="20" y="25" width="130" height="35"></rect>
        <rect id="TH3" fill="#444444" x="20" y="65" width="130" height="35"></rect>
        <rect id="TH4" fill="#DCDCDC" x="20" y="102.5" width="130" height="48"></rect>
        <g id="12-drum-sticks-solid" transform="translate(32.682354, 114.174829)" fill="#000000" fill-rule="nonzero">
            <path d="M20.9681923,8.70283421 C21.8707599,7.80016805 22.6866402,6.80412264 23.4117539,5.7157185 C23.5035404,5.5784561 20.5602155,2.64504622 20.4036684,2.7496514 C19.3425141,3.45790501 18.3471401,4.27484594 17.4445725,5.1775121 L14.3177111,8.30648263 L11.1903399,5.1775121 C10.2887921,4.27484594 9.29290821,3.45790501 8.23124394,2.74914113 C8.0746969,2.64504622 5.13188189,5.5784561 5.24049595,5.7422525 C5.94929198,6.80565344 6.76568223,7.80220913 7.66672006,8.70283421 L10.7940913,11.832315 L2.84133456,19.7906005 C2.48540677,20.1467684 2.29571459,20.6396884 2.32121085,21.1428138 C2.34619719,21.6459392 2.58484218,22.1179382 2.97646474,22.4383872 C3.28547941,22.6914807 4.66486376,23.8251712 5.07331385,23.8251712 C5.57100084,23.8251712 6.06052904,23.6210636 6.41645683,23.2643854 L14.3177111,15.3576371 L22.2184555,23.2643854 C22.5748933,23.6210636 23.0644215,23.8251712 23.5615985,23.8251712 C23.9705585,23.8251712 24.3499429,23.6914807 24.6584476,23.4388975 C25.0500702,23.1179382 26.2892251,21.6459392 26.3147214,21.1423035 C26.3391978,20.6391781 26.1495056,20.1462581 25.7935778,19.7906005 L17.841331,11.832315 L20.9681923,8.70283421 Z" id="Fill-23" transform="translate(14.317882, 13.285803) rotate(-345.000000) translate(-14.317882, -13.285803) "></path>
        </g>
        <text id="Beat" fill="#FFFFFF" fill-rule="nonzero" font-family="HiraginoSans-W6, Hiragino Sans" font-size="16.25" font-weight="500">
            <tspan x="62.520625" y="89">Beat</tspan>
        </text>
        <text id="Claves" fill="#000000" fill-rule="nonzero" font-family="HiraginoSans-W6, Hiragino Sans" font-size="16.25" font-weight="500">
            <tspan x="74.664375" y="134">Claves</tspan>
        </text>
        <text id="Bar" fill="#FFFFFF" fill-rule="nonzero" font-family="HiraginoSans-W6, Hiragino Sans" font-size="16.25" font-weight="500">
            <tspan x="69.725" y="49">Bar</tspan>
        </text>
        <polygon id="_13" fill="#FFFFFF" points="173.912037 77.2901049 173.912037 91.25 176.25 91.25 176.25 75 172.523148 75 171.25 77.2901049"></polygon>
        <path d="M275.022321,88.9730826 L277.608817,86.0490413 C280.521763,82.7894543 281.224888,81.5671091 281.224888,79.8414454 C281.224888,77.1091445 278.864397,75 275.825893,75 C273.942522,75 272.410714,75.7669617 271.431362,77.1570796 C270.878906,77.9719764 270.62779,78.6910029 270.477121,80.0571534 L272.988281,80.0571534 C273.088728,79.170354 273.239397,78.7629056 273.565848,78.3075221 C274.06808,77.6124631 274.946987,77.2050147 275.901228,77.2050147 C277.508371,77.2050147 278.763951,78.3554572 278.763951,79.8414454 C278.763951,80.8720501 278.161272,81.8067847 275.800781,84.5390855 L270,91.25 L281.25,91.25 L281.25,88.9730826 L275.022321,88.9730826 Z" id="_21" fill="#FFFFFF"></path>
        <path d="M375.754717,84.3468795 C376.839623,84.3722787 377.334906,84.4738752 377.783019,84.7532656 C378.490566,85.2104499 378.915094,86.1248186 378.915094,87.2169811 C378.915094,88.9441219 377.806604,90.1632801 376.25,90.1632801 C375.424528,90.1632801 374.599057,89.7822932 374.103774,89.1473149 C373.773585,88.7409289 373.65566,88.3853411 373.537736,87.6233672 L371.25,87.6233672 C371.34434,88.766328 371.462264,89.3251089 371.816038,89.9854862 C372.641509,91.5602322 374.268868,92.5 376.179245,92.5 C379.150943,92.5 381.25,90.3664731 381.25,87.2931785 C381.25,85.4898403 380.589623,84.0928882 379.316038,83.2801161 C380.448113,82.4165457 381.014151,81.2227866 381.014151,79.6734398 C381.014151,76.9303338 379.103774,75 376.34434,75 C374.622642,75 373.254717,75.6857765 372.5,76.9557329 C372.051887,77.6669086 371.863208,78.2764877 371.650943,79.5972424 L374.009434,79.5972424 C374.174528,78.8352685 374.268868,78.5050798 374.481132,78.2002903 C374.858491,77.6415094 375.518868,77.3113208 376.29717,77.3113208 C377.712264,77.3113208 378.70283,78.3272859 378.70283,79.7750363 C378.70283,80.9687954 378.066038,81.883164 377.099057,82.086357 C376.745283,82.1625544 376.580189,82.1625544 375.754717,82.1625544 L375.754717,84.3468795 Z" id="_31" fill="#FFFFFF"></path>
        <path d="M477.5,86.25 L477.5,73.75 L466.25,88.75 L475,88.75 L475,91.25 L477.5,91.25 L477.5,88.75 L478.75,88.75 L478.75,86.25 L477.5,86.25 Z M473.75,86.25 L470,86.25 L473.75,81.25 L473.75,86.25 Z" id="_41" fill="#FFFFFF"></path>
        <polygon id="_13" fill="#FFFFFF" points="571.412037 77.2901049 571.412037 91.25 573.75 91.25 573.75 75 570.023148 75 568.75 77.2901049"></polygon>
        <path d="M672.522321,88.9730826 L675.108817,86.0490413 C678.021763,82.7894543 678.724888,81.5671091 678.724888,79.8414454 C678.724888,77.1091445 676.364397,75 673.325893,75 C671.442522,75 669.910714,75.7669617 668.931362,77.1570796 C668.378906,77.9719764 668.12779,78.6910029 667.977121,80.0571534 L670.488281,80.0571534 C670.588728,79.170354 670.739397,78.7629056 671.065848,78.3075221 C671.56808,77.6124631 672.446987,77.2050147 673.401228,77.2050147 C675.008371,77.2050147 676.263951,78.3554572 676.263951,79.8414454 C676.263951,80.8720501 675.661272,81.8067847 673.300781,84.5390855 L667.5,91.25 L678.75,91.25 L678.75,88.9730826 L672.522321,88.9730826 Z" id="_21" fill="#FFFFFF"></path>
        <path d="M773.254717,84.3468795 C774.339623,84.3722787 774.834906,84.4738752 775.283019,84.7532656 C775.990566,85.2104499 776.415094,86.1248186 776.415094,87.2169811 C776.415094,88.9441219 775.306604,90.1632801 773.75,90.1632801 C772.924528,90.1632801 772.099057,89.7822932 771.603774,89.1473149 C771.273585,88.7409289 771.15566,88.3853411 771.037736,87.6233672 L768.75,87.6233672 C768.84434,88.766328 768.962264,89.3251089 769.316038,89.9854862 C770.141509,91.5602322 771.768868,92.5 773.679245,92.5 C776.650943,92.5 778.75,90.3664731 778.75,87.2931785 C778.75,85.4898403 778.089623,84.0928882 776.816038,83.2801161 C777.948113,82.4165457 778.514151,81.2227866 778.514151,79.6734398 C778.514151,76.9303338 776.603774,75 773.84434,75 C772.122642,75 770.754717,75.6857765 770,76.9557329 C769.551887,77.6669086 769.363208,78.2764877 769.150943,79.5972424 L771.509434,79.5972424 C771.674528,78.8352685 771.768868,78.5050798 771.981132,78.2002903 C772.358491,77.6415094 773.018868,77.3113208 773.79717,77.3113208 C775.212264,77.3113208 776.20283,78.3272859 776.20283,79.7750363 C776.20283,80.9687954 775.566038,81.883164 774.599057,82.086357 C774.245283,82.1625544 774.080189,82.1625544 773.254717,82.1625544 L773.254717,84.3468795 Z" id="_31" fill="#FFFFFF"></path>
        <path d="M875,86.25 L875,73.75 L863.75,88.75 L872.5,88.75 L872.5,91.25 L875,91.25 L875,88.75 L876.25,88.75 L876.25,86.25 L875,86.25 Z M871.25,86.25 L867.5,86.25 L871.25,81.25 L871.25,86.25 Z" id="_41" fill="#FFFFFF"></path>
        <g id="Group-2" transform="translate(155.000000, 25.000000)">
            <rect id="barcell1" fill="#AAAAAA" x="0" y="0" width="397" height="35"></rect>
            <rect id="barcell3" fill="#AAAAAA" x="399" y="0" width="399" height="35"></rect>
            <polygon id="_11" fill="#FFFFFF" points="17.662037 12.2548726 17.662037 26 20 26 20 10 16.2731481 10 15 12.2548726"></polygon>
            <path d="M415.910714,23.7581121 L418.439732,20.879056 C421.287946,17.6696165 421.975446,16.4660767 421.975446,14.7669617 C421.975446,12.0766962 419.667411,10 416.696429,10 C414.854911,10 413.357143,10.7551622 412.399554,12.1238938 C411.859375,12.9262537 411.613839,13.6342183 411.466518,14.979351 L413.921875,14.979351 C414.020089,14.1061947 414.167411,13.7050147 414.486607,13.2566372 C414.977679,12.5722714 415.837054,12.1710914 416.770089,12.1710914 C418.341518,12.1710914 419.569196,13.3038348 419.569196,14.7669617 C419.569196,15.7817109 418.979911,16.7020649 416.671875,19.3923304 L411,26 L422,26 L422,23.7581121 L415.910714,23.7581121 Z" id="_25" fill="#FFFFFF"></path>
        </g>
        <path d="M955,252 L955,252.5 L155,252.5 L155,252 L955,252 Z M252,202 L252,250 L204,250 L204,202 L252,202 Z M302,202 L302,250 L254,250 L254,202 L302,202 Z M352,202 L352,250 L304,250 L304,202 L352,202 Z M402,202 L402,250 L354,250 L354,202 L402,202 Z M453,202 L453,250 L404,250 L404,202 L453,202 Z M503,202 L503,250 L455,250 L455,202 L503,202 Z M551,202 L551,250 L505,250 L505,202 L551,202 Z M603,202 L603,250 L553,250 L553,202 L603,202 Z M653,202 L653,250 L605,250 L605,202 L653,202 Z M703,202 L703,250 L655,250 L655,202 L703,202 Z M753,202 L753,250 L705,250 L705,202 L753,202 Z M803,202 L803,250 L755,250 L755,202 L803,202 Z M853,202 L853,250 L805,250 L805,202 L853,202 Z M903,202 L903,250 L855,250 L855,202 L903,202 Z M953,202 L953,250 L905,250 L905,202 L953,202 Z M302,152 L302,200 L254,200 L254,152 L302,152 Z M352,152 L352,200 L304,200 L304,152 L352,152 Z M402,152 L402,200 L354,200 L354,152 L402,152 Z M453,152 L453,200 L404,200 L404,152 L453,152 Z M503,152 L503,200 L455,200 L455,152 L503,152 Z M551,152 L551,200 L505,200 L505,152 L551,152 Z M603,152 L603,200 L553,200 L553,152 L603,152 Z M653,152 L653,200 L605,200 L605,152 L653,152 Z M703,152 L703,200 L655,200 L655,152 L703,152 Z M753,152 L753,200 L705,200 L705,152 L753,152 Z M803,152 L803,200 L755,200 L755,152 L803,152 Z M853,152 L853,200 L805,200 L805,152 L853,152 Z M903,152 L903,200 L855,200 L855,152 L903,152 Z M953,152 L953,200 L905,200 L905,152 L953,152 Z M202,152 L202,200 L155,200 L155,152 L202,152 Z M252,152 L252,200 L204,200 L204,152 L252,152 Z M155,202 L202,202 L202,250 L155,250 L155,202 Z" id="Combined-Shape" fill="#F2F2F2" fill-rule="nonzero"></path>
        <rect id="TH5" fill="#DCDCDC" x="20" y="152.5" width="130" height="48"></rect>
        <path d="M60.4028378,166.816123 C60.298992,166.711722 60.1573842,166.653413 60.0102231,166.653413 L59.7764314,166.653413 C59.7164563,166.465713 59.6464854,166.280235 59.563742,166.098088 L59.73978,166.098088 C60.5055728,166.098088 61.1280919,165.47557 61.1280919,164.709777 C61.1280919,163.943985 60.5055728,163.321466 59.73978,163.321466 L57.1453026,163.321466 C56.6449549,162.954952 56.0885195,162.612317 55.4809942,162.297448 L58.8329346,160.370472 C59.4959924,159.987853 59.7236755,159.137096 59.3410568,158.473483 C58.9723211,157.835415 58.0849121,157.596626 57.4457333,157.964806 L52.1684819,160.998544 C50.4647454,160.503194 48.6216225,160.192213 46.6824283,160.064488 L46.6824283,159.989519 C46.6824283,159.841803 46.6241192,159.70075 46.5197181,159.596905 L45.9643934,159.04158 C45.8605476,158.937179 45.7189398,158.87887 45.5717787,158.87887 L44.4611292,158.87887 C44.3139681,158.87887 44.1723603,158.937179 44.0685145,159.04158 L43.5131898,159.596905 C43.4087887,159.70075 43.3504796,159.841803 43.3504796,159.989519 L43.3504796,160.0345 C41.3957364,160.12724 39.4893064,160.417674 37.7522505,160.883592 C37.7244842,160.818619 37.6856115,160.758644 37.6345216,160.707554 L37.0791968,160.152229 C36.9753511,160.047828 36.8337433,159.989519 36.6865822,159.989519 L35.5759326,159.989519 C35.4287716,159.989519 35.2871637,160.047828 35.183318,160.152229 L34.6279932,160.707554 C34.5241475,160.811399 34.4652831,160.952452 34.4652831,161.100168 L34.4652831,162.061435 C31.933002,163.264268 30.2631404,164.871377 29.6900452,166.653413 L29.46736,166.653413 C29.3201989,166.653413 29.1791464,166.711722 29.0747454,166.816123 L28.5194206,167.371448 C28.4150195,167.475293 28.3567104,167.616346 28.3567104,167.764062 L28.3567104,168.874711 C28.3567104,169.022427 28.4150195,169.162924 28.5194206,169.267325 L29.0747454,169.82265 C29.1791464,169.926496 29.3201989,169.98536 29.46736,169.98536 L29.46736,181.647174 C29.3201989,181.647174 29.1791464,181.705483 29.0747454,181.809884 L28.5194206,182.365209 C28.4150195,182.469054 28.3567104,182.610107 28.3567104,182.757823 L28.3567104,183.868472 C28.3567104,184.016189 28.4150195,184.156686 28.5194206,184.261087 L29.0747454,184.816411 C29.1791464,184.920257 29.3201989,184.979121 29.46736,184.979121 L30.5780096,184.979121 C30.5807862,184.979121 30.5830075,184.977455 30.5857841,184.977455 C31.438763,186.093657 32.7665445,187.092686 34.4652831,187.900683 L34.4652831,188.311068 C34.4652831,188.458784 34.5241475,188.599282 34.6279932,188.703683 L35.183318,189.259007 C35.2871637,189.362853 35.4287716,189.421717 35.5759326,189.421717 L36.6865822,189.421717 C36.8337433,189.421717 36.9753511,189.362853 37.0791968,189.259007 L37.3590805,188.979123 C39.1977609,189.508348 41.24802,189.832102 43.3504796,189.93206 L43.3504796,189.977042 C43.3504796,190.124758 43.4087887,190.265255 43.5131898,190.369656 L44.0685145,190.92498 C44.1723603,191.028826 44.3139681,191.087691 44.4611292,191.087691 L45.5717787,191.087691 C45.7189398,191.087691 45.8605476,191.028826 45.9643934,190.92498 L46.5197181,190.369656 C46.6241192,190.265255 46.6824283,190.124758 46.6824283,189.977042 L46.6824283,189.900407 C48.7521238,189.762686 50.7551803,189.403391 52.5433261,188.848622 L52.9537111,189.259007 C53.0581122,189.362853 53.1991647,189.421717 53.3463257,189.421717 L54.4569753,189.421717 C54.6041364,189.421717 54.7457442,189.362853 54.8495899,189.259007 L55.4049147,188.703683 C55.5093158,188.599282 55.5676249,188.458784 55.5676249,188.311068 L55.5676249,187.624687 C56.9986968,186.870556 58.1371126,185.967043 58.8945756,184.978011 C58.8962416,184.978011 58.8979076,184.979121 58.8995736,184.979121 L60.0102231,184.979121 C60.1573842,184.979121 60.298992,184.920257 60.4028378,184.816411 L60.9581625,184.261087 C61.0625636,184.156686 61.1208727,184.016189 61.1208727,183.868472 L61.1208727,182.757823 C61.1208727,182.610107 61.0625636,182.469054 60.9581625,182.365209 L60.4028378,181.809884 C60.298992,181.705483 60.1573842,181.647174 60.0102231,181.647174 L60.0102231,169.98536 C60.1573842,169.98536 60.298992,169.926496 60.4028378,169.82265 L60.9581625,169.267325 C61.0625636,169.162924 61.1208727,169.022427 61.1208727,168.874711 L61.1208727,167.764062 C61.1208727,167.616346 61.0625636,167.475293 60.9581625,167.371448 L60.4028378,166.816123 Z M54.3392464,163.053099 C54.5847,163.256099 54.822379,163.466099 55.0517281,163.684099 L53.7000676,163.684099 L53.7150614,163.669099 L54.3392464,163.053099 Z M35.0405995,163.016038 L35.3460282,163.321466 L36.9164866,163.321466 L37.7972318,162.440721 L37.7972318,162.007568 C39.5031895,161.528879 41.4046216,161.230114 43.3504796,161.134598 L43.3504796,161.330072 L44.2312247,162.210817 L45.8016832,162.210817 L46.6824283,161.330072 L46.6824283,161.167362 C48.1218301,161.265655 49.5029229,161.471125 50.8073808,161.780996 L48.128494,163.321466 L41.6945011,163.321466 C41.3024418,163.321466 40.9053846,163.346456 40.5138806,163.395324 L36.2667567,163.926214 C35.8658122,163.976194 35.574822,164.305501 35.574822,164.709777 C35.574822,165.113498 35.8658122,165.443361 36.2667567,165.49334 L40.5138806,166.02423 C40.9053846,166.073099 41.3024418,166.098088 41.6945011,166.098088 L43.2977237,166.098088 L41.9083011,166.896645 C41.567887,167.093785 41.2363581,167.313138 40.9225996,167.550817 L37.5095735,170.134742 C37.3374228,170.264688 37.2407963,170.450167 37.2119194,170.648973 C37.194149,170.768367 37.1952597,170.891094 37.2363537,171.013266 C37.2369091,171.014932 37.2380197,171.016042 37.2391303,171.017708 C37.2618987,171.084347 37.2957735,171.144322 37.3340909,171.20041 C37.34964,171.223734 37.3657444,171.245391 37.3835148,171.266494 C37.4079491,171.29537 37.43516,171.320915 37.4634816,171.345905 C37.5140161,171.391997 37.5689933,171.429759 37.6295237,171.460857 C37.6445174,171.468632 37.6589559,171.477517 37.674505,171.484181 C37.7150437,171.501951 37.7561377,171.51639 37.8000084,171.526941 C37.8305512,171.534715 37.8616494,171.538047 37.8927476,171.541934 C37.9227352,171.545822 37.9510567,171.556373 37.9815996,171.556373 C38.0882219,171.556373 38.1931783,171.534715 38.2936921,171.491955 L42.2381641,169.828203 C42.6019018,169.673823 42.9584203,169.49723 43.2960578,169.301755 L48.8698526,166.098088 L58.3120399,166.098088 C58.4319901,166.295229 58.5341699,166.498477 58.6174686,166.705613 L57.788924,167.534158 L57.788924,169.104615 L58.4380987,169.75379 C58.4297688,169.769339 58.4247709,169.785443 58.416441,169.800992 C58.3709044,169.883736 58.3137059,169.964258 58.2620607,170.04589 C58.1926451,170.154734 58.1260061,170.264133 58.0460394,170.370755 C57.9843983,170.452943 57.9127614,170.533465 57.8450118,170.614543 C57.7594918,170.716167 57.6750824,170.818347 57.5806772,170.91775 C57.5034871,170.998272 57.417967,171.077128 57.3352236,171.155984 C57.2347099,171.2515 57.1336407,171.347016 57.0247971,171.44031 C56.9331685,171.518056 56.834876,171.59358 56.7376942,171.669659 C56.6227419,171.759622 56.5072344,171.849029 56.3839523,171.93566 C56.2789959,172.010073 56.1690416,172.082265 56.058532,172.154457 C55.9302519,172.238311 55.7997506,172.32161 55.663696,172.402132 C55.5470778,172.472103 55.426017,172.540408 55.3044009,172.607602 C55.1622378,172.685903 55.0178533,172.763093 54.8690263,172.838062 C54.7413016,172.903035 54.6108003,172.966342 54.4775223,173.028538 C54.3236973,173.10073 54.1659851,173.171257 54.0060516,173.240117 C53.868331,173.298981 53.7289445,173.35729 53.586226,173.413933 C53.4201839,173.480572 53.2502545,173.543879 53.0781038,173.606631 C52.9314981,173.659942 52.7848924,173.712698 52.6343993,173.763232 C52.4572507,173.822652 52.2751042,173.879295 52.0924024,173.934828 C51.9385774,173.981475 51.7847524,174.028678 51.6275955,174.072548 C51.4387851,174.125304 51.2460874,174.174173 51.052279,174.223041 C50.8929008,174.263024 50.7340779,174.304118 50.5713678,174.34077 C50.3708955,174.386862 50.1654254,174.427956 49.9605105,174.46905 C49.7978003,174.501814 49.6367562,174.535689 49.4712694,174.565676 C49.2574693,174.603994 49.0392267,174.636758 48.8209841,174.670077 C48.6582739,174.695067 48.497785,174.722278 48.3328536,174.744491 C48.1007278,174.775589 47.8641594,174.799468 47.6281464,174.824458 C47.4721002,174.841117 47.3182752,174.861109 47.1611183,174.874992 C46.8962283,174.898316 46.6268958,174.913865 46.3575633,174.929969 C46.225396,174.937744 46.0948947,174.949406 45.9610614,174.955514 C45.5573403,174.973284 45.1497319,174.98328 44.7387916,174.98328 C44.3278512,174.98328 43.9202428,174.973284 43.5165217,174.955514 C43.3832438,174.949406 43.2521871,174.937744 43.1200198,174.929969 C42.8512426,174.913865 42.5819101,174.898316 42.3164649,174.874992 C42.1593079,174.861109 42.005483,174.841117 41.8494367,174.824458 C41.6134237,174.799468 41.3768553,174.775589 41.1447296,174.744491 C40.9803534,174.722278 40.8193092,174.695067 40.6565991,174.670077 C40.4389118,174.636758 40.2201138,174.603994 40.0063137,174.565676 C39.840827,174.535689 39.6797828,174.501814 39.5170726,174.46905 C39.3121578,174.427956 39.1066876,174.386862 38.9062154,174.34077 C38.7435052,174.304118 38.5846823,174.263024 38.4253041,174.223041 C38.2320511,174.174173 38.038798,174.125304 37.8499876,174.072548 C37.6928307,174.028678 37.5390057,173.981475 37.3851808,173.934828 C37.2024789,173.879295 37.0203324,173.822652 36.8431838,173.763232 C36.6926908,173.712698 36.546085,173.659942 36.3994793,173.606631 C36.2273286,173.543879 36.0573992,173.480572 35.8913571,173.413933 C35.749194,173.35729 35.6092521,173.298981 35.4715316,173.240117 C35.311598,173.171257 35.1538858,173.10073 35.0000608,173.028538 C34.8667829,172.966342 34.7362815,172.903035 34.6085568,172.838062 C34.4597298,172.763093 34.3153454,172.685903 34.1737375,172.607602 C34.0515661,172.540408 33.9305053,172.472103 33.8138871,172.402132 C33.6778325,172.32161 33.5473312,172.238311 33.4190512,172.154457 C33.3085415,172.082265 33.1985872,172.010073 33.0936308,171.93566 C32.9709041,171.849029 32.8548412,171.759622 32.7398889,171.669659 C32.6427071,171.59358 32.5444146,171.518056 32.452786,171.44031 C32.3439424,171.347016 32.2428733,171.2515 32.1423595,171.155984 C32.0596161,171.077128 31.9740961,170.998272 31.8969059,170.91775 C31.8025007,170.818347 31.7180913,170.716167 31.6325713,170.614543 C31.5648217,170.533465 31.4931848,170.452943 31.4315438,170.370755 C31.351577,170.264133 31.284938,170.154734 31.2155224,170.04589 C31.1638772,169.964258 31.1072341,169.883736 31.0611421,169.800992 C31.0528123,169.785443 31.0478143,169.769339 31.0394845,169.75379 L31.6886591,169.104615 L31.6886591,167.534158 L30.8528953,166.698394 C31.4276565,165.303974 32.8831627,164.02062 35.0405995,163.016038 Z M31.4720825,184.315508 L31.6886591,184.098377 L31.6886591,182.527919 L30.807914,181.647174 L30.5780096,181.647174 L30.5780096,171.083236 C30.6957384,171.237061 30.8279057,171.386999 30.963405,171.535271 C30.9883946,171.563037 31.0089416,171.591914 31.0344865,171.61968 C31.2166331,171.813488 31.4137734,172.002298 31.6236861,172.186666 C31.6853272,172.240533 31.7536321,172.292178 31.8180498,172.345489 C31.9718748,172.473214 32.1284764,172.600383 32.2950738,172.72311 C32.3839258,172.788638 32.4772203,172.850834 32.5694042,172.914697 C32.7237845,173.021874 32.8809414,173.126831 33.0453176,173.229566 C33.1491633,173.294539 33.2557857,173.357846 33.3635187,173.420597 C33.5295608,173.517779 33.6994902,173.612739 33.8744175,173.704923 C33.9871484,173.764898 34.0998793,173.824873 34.2164975,173.882627 C34.401976,173.975366 34.5935631,174.063663 34.7879268,174.151404 C34.9017683,174.203049 35.0133886,174.25525 35.1300068,174.304674 C35.2755019,174.36687 35.4259949,174.425179 35.5759326,174.484044 L35.5759326,186.08977 L35.3460282,186.08977 L34.6663106,186.769487 C33.2618942,186.065336 32.172347,185.228462 31.4720825,184.315508 Z M37.7972318,187.959548 L37.7972318,186.970515 L36.9164866,186.08977 L36.6865822,186.08977 L36.6865822,174.882211 C36.8331879,174.929969 36.9759064,174.980504 37.1258441,175.025485 C37.2041449,175.049364 37.286333,175.069356 37.3651891,175.092679 C37.6417408,175.172646 37.9205139,175.249836 38.2059508,175.320918 C38.3381181,175.353682 38.4741727,175.382559 38.6080059,175.413657 C38.8484616,175.469189 39.0900279,175.523056 39.3360367,175.571924 C39.4865298,175.601912 39.6386887,175.629123 39.7914031,175.656334 C40.0301927,175.699649 40.2706483,175.739632 40.5138806,175.776839 C40.6721482,175.800718 40.8309711,175.823486 40.9909046,175.844589 C41.2402454,175.877908 41.4918075,175.906785 41.7450356,175.933441 C41.9016372,175.949545 42.0571282,175.96676 42.2153957,175.980643 C42.4930581,176.005077 42.7740525,176.023403 43.0561575,176.039508 C43.1927674,176.047282 43.3277113,176.058389 43.4654318,176.064497 C43.7947394,176.078936 44.127379,176.085044 44.4611292,176.088376 L44.4611292,187.755744 L44.2312247,187.755744 L43.3504796,188.636488 L43.3504796,188.831407 C41.4035109,188.736447 39.5037448,188.437682 37.7972318,187.959548 Z M46.6824283,188.636488 L45.8016832,187.755744 L45.5717787,187.755744 L45.5717787,176.07727 C45.7183845,176.072827 45.8661009,176.070606 46.0121513,176.064497 C46.1498718,176.058389 46.2848158,176.047282 46.421981,176.039508 C46.7035306,176.023403 46.984525,176.005077 47.2621874,175.980643 C47.4204549,175.96676 47.5759459,175.949545 47.7325475,175.933441 C47.9863309,175.906785 48.237893,175.877908 48.4866785,175.844589 C48.6466121,175.823486 48.805435,175.800718 48.9637025,175.776839 C49.2069348,175.739632 49.4473904,175.699649 49.6861801,175.656334 C49.8388944,175.629123 49.9910534,175.601912 50.1415464,175.571924 C50.3875553,175.523056 50.6291215,175.469189 50.8695772,175.413657 C51.0034105,175.382559 51.139465,175.353682 51.2716323,175.320918 C51.5570693,175.249836 51.8363976,175.172646 52.112394,175.092679 C52.1912502,175.069356 52.2734382,175.049364 52.351739,175.025485 C52.6915978,174.923305 53.0231267,174.813906 53.3463257,174.698399 L53.3463257,186.08977 L53.1164213,186.08977 L52.2356762,186.970515 L52.2356762,187.794061 C50.5474888,188.319953 48.6460567,188.663699 46.6824283,188.799198 L46.6824283,188.636488 Z M58.6696691,181.647174 L57.788924,182.527919 L57.788924,184.098377 L58.0055007,184.315508 C57.3685431,185.144608 56.4033887,185.917064 55.1766762,186.579566 L54.6868797,186.08977 L54.4569753,186.08977 L54.4569753,174.260803 C54.5374974,174.226373 54.6108003,174.186945 54.6896564,174.151404 C54.88402,174.063663 55.0756071,173.975366 55.2610856,173.882627 C55.3777038,173.824873 55.4904347,173.764898 55.6031656,173.704923 C55.7780929,173.612184 55.9480223,173.517779 56.1140644,173.420597 C56.2217975,173.357846 56.3284198,173.294539 56.4317102,173.229566 C56.5966417,173.126831 56.7537986,173.021319 56.9087342,172.914697 C57.0003628,172.850834 57.0942127,172.788083 57.1825093,172.72311 C57.3491068,172.600383 57.5062637,172.473214 57.6595333,172.345489 C57.723951,172.292178 57.7922559,172.240533 57.853897,172.186666 C58.0638098,172.002298 58.2609501,171.813488 58.4430966,171.61968 C58.4686415,171.591914 58.4891885,171.563037 58.5141782,171.535271 C58.6496774,171.386999 58.7818447,171.237061 58.8995736,171.083236 L58.8995736,181.647174 L58.6696691,181.647174 Z" id="Snare1" fill="#000000"></path>
        <text id="Snare" fill="#000000" fill-rule="nonzero" font-family="HiraginoSans-W6, Hiragino Sans" font-size="16.25" font-weight="500">
            <tspan x="80.648125" y="181.5">Snare</tspan>
        </text>
        <rect id="TH6" fill="#DCDCDC" x="20" y="202.5" width="130" height="48"></rect>
        <circle id="Kick" fill="#5CB300" cx="179.375" cy="226.875" r="14.375"></circle>
        <circle id="Kick" fill="#5CB300" cx="376.375" cy="226.875" r="14.375"></circle>
        <circle id="Kick" fill="#5CB300" cx="326.375" cy="226.875" r="10"></circle>
        <circle id="Kick" fill="#5CB300" cx="728.375" cy="226.875" r="10"></circle>
        <circle id="Kick" fill="#5CB300" cx="578.375" cy="226.875" r="14.375"></circle>
        <circle id="Kick" fill="#5CB300" cx="778.125" cy="226.875" r="14.375"></circle>
        <circle id="Snare" fill="#5CB300" cx="279.375" cy="176.875" r="14.375"></circle>
        <circle id="Snare" fill="#5CB300" cx="478.375" cy="176.875" r="14.375"></circle>
        <circle id="Snare" fill="#5CB300" cx="678.375" cy="176.875" r="14.375"></circle>
        <path d="M45.2631579,207.5 C47.2961513,207.608452 49.2936184,208.088487 51.1605263,208.915214 C52.7805263,209.720605 54.3268092,210.707343 55.7842763,211.942988 C59.275625,215.136998 61.25,219.571097 61.25,224.359888 C61.25,230.227868 58.2409211,235.402465 53.69,238.43024 L54.1180921,240.14592 C54.2371053,240.62151 53.9475658,241.104212 53.4715132,241.223331 C53.3995724,241.24111 53.3267434,241.25 53.2556908,241.25 C52.8577961,241.25 52.4963158,240.980647 52.3950658,240.576173 L52.0922039,239.362752 C49.7767763,240.561061 47.1567105,241.25 44.375,241.25 C41.5932895,241.25 38.9732237,240.561061 36.6577961,239.362752 L36.3549342,240.576173 C36.2536842,240.980647 35.8922039,241.25 35.4943092,241.25 C35.4232566,241.25 35.3504276,241.24111 35.2784868,241.223331 C34.8024342,241.104212 34.5128947,240.62151 34.6319079,240.14592 L35.06,238.43024 C30.5090789,235.402465 27.5,230.227868 27.5,224.359888 C27.5,219.571097 29.474375,215.136998 32.9657237,211.942988 C34.3974342,210.679786 35.9410526,209.677047 37.5885855,208.915214 C39.4563816,208.088487 41.4538487,207.608452 43.4868421,207.5 L45.2631579,207.5 Z M30.0105353,224.380043 C29.6761514,231.588486 37.3625924,238.581947 44.3802656,238.746912 C51.7639181,238.920652 58.7561395,231.734146 58.75,224.380043 C58.7438524,216.826754 51.8446617,210.415057 44.3802656,210.013175 C37.7171622,209.655166 30.3694933,216.64775 30.0105353,224.380043 Z M48.75,223.75 C50.8175,223.75 52.5,225.4325 52.5,227.5 C52.5,229.5675 50.8175,231.25 48.75,231.25 C46.6825,231.25 45,229.5675 45,227.5 C45,225.4325 46.6825,223.75 48.75,223.75 Z" id="Combined-Shape" fill="#000000"></path>
        <text id="Kick" fill="#000000" fill-rule="nonzero" font-family="HiraginoSans-W6, Hiragino Sans" font-size="16.25" font-weight="500">
            <tspan x="87.335" y="231.5">Kick</tspan>
        </text>
        <circle id="Kick" fill="#5CB300" cx="879.375" cy="176.875" r="14.375"></circle>
    </g>
</svg>